  0
SECTION
  2
HEADER
  9
$ACADVER
  1
AC1009
  9
$EXTMIN
 10
0.0
 20
0.0
 30
0.0
  9
$EXTMAX
 10
1000.0
 20
1000.0
 30
0.0
  9
$FILLMODE
 70
 0
  9
$SPLFRAME
 70
 1
  0
ENDSEC
  0
SECTION
  2
TABLES
  0
TABLE
  2
LAYER
 70
1
  0
LAYER
  2
0
 70
     0
 62
     7
  6
CONTINUOUS
  0
ENDTAB
  0
ENDSEC
  0
SECTION
  2
ENTITIES
  0
LINE
  8
0
 62
     1
 10
294.846
 20
107.342
 30
0.0
 11
295.081
 21
107.334
 31
0.0
  0
LINE
  8
0
 62
     1
 10
295.081
 20
107.334
 30
0.0
 11
295.315
 21
107.307
 31
0.0
  0
LINE
  8
0
 62
     1
 10
295.315
 20
107.307
 30
0.0
 11
295.545
 21
107.261
 31
0.0
  0
LINE
  8
0
 62
     1
 10
295.545
 20
107.261
 30
0.0
 11
295.772
 21
107.196
 31
0.0
  0
LINE
  8
0
 62
     1
 10
295.772
 20
107.196
 30
0.0
 11
295.994
 21
107.115
 31
0.0
  0
LINE
  8
0
 62
     1
 10
295.994
 20
107.115
 30
0.0
 11
296.207
 21
107.017
 31
0.0
  0
LINE
  8
0
 62
     1
 10
296.207
 20
107.017
 30
0.0
 11
296.413
 21
106.9
 31
0.0
  0
LINE
  8
0
 62
     1
 10
296.413
 20
106.9
 30
0.0
 11
296.609
 21
106.77
 31
0.0
  0
LINE
  8
0
 62
     1
 10
296.609
 20
106.77
 30
0.0
 11
296.794
 21
106.624
 31
0.0
  0
LINE
  8
0
 62
     1
 10
296.794
 20
106.624
 30
0.0
 11
296.967
 21
106.464
 31
0.0
  0
LINE
  8
0
 62
     1
 10
296.967
 20
106.464
 30
0.0
 11
297.127
 21
106.292
 31
0.0
  0
LINE
  8
0
 62
     1
 10
297.127
 20
106.292
 30
0.0
 11
297.273
 21
106.106
 31
0.0
  0
LINE
  8
0
 62
     1
 10
297.273
 20
106.106
 30
0.0
 11
297.403
 21
105.911
 31
0.0
  0
LINE
  8
0
 62
     1
 10
297.403
 20
105.911
 30
0.0
 11
297.518
 21
105.705
 31
0.0
  0
LINE
  8
0
 62
     1
 10
297.518
 20
105.705
 30
0.0
 11
297.616
 21
105.491
 31
0.0
  0
LINE
  8
0
 62
     1
 10
297.616
 20
105.491
 30
0.0
 11
297.699
 21
105.271
 31
0.0
  0
LINE
  8
0
 62
     1
 10
297.699
 20
105.271
 30
0.0
 11
297.762
 21
105.044
 31
0.0
  0
LINE
  8
0
 62
     1
 10
297.762
 20
105.044
 30
0.0
 11
297.809
 21
104.812
 31
0.0
  0
LINE
  8
0
 62
     1
 10
297.809
 20
104.812
 30
0.0
 11
297.835
 21
104.578
 31
0.0
  0
LINE
  8
0
 62
     1
 10
297.835
 20
104.578
 30
0.0
 11
297.846
 21
104.342
 31
0.0
  0
LINE
  8
0
 62
     1
 10
297.846
 20
104.342
 30
0.0
 11
297.846
 21
3.09232
 31
0.0
  0
LINE
  8
0
 62
     1
 10
297.846
 20
3.09232
 30
0.0
 11
297.835
 21
2.85667
 31
0.0
  0
LINE
  8
0
 62
     1
 10
297.835
 20
2.85667
 30
0.0
 11
297.809
 21
2.62241
 31
0.0
  0
LINE
  8
0
 62
     1
 10
297.809
 20
2.62241
 30
0.0
 11
297.762
 21
2.39227
 31
0.0
  0
LINE
  8
0
 62
     1
 10
297.762
 20
2.39227
 30
0.0
 11
297.699
 21
2.1649
 31
0.0
  0
LINE
  8
0
 62
     1
 10
297.699
 20
2.1649
 30
0.0
 11
297.616
 21
1.94303
 31
0.0
  0
LINE
  8
0
 62
     1
 10
297.616
 20
1.94303
 30
0.0
 11
297.518
 21
1.73082
 31
0.0
  0
LINE
  8
0
 62
     1
 10
297.518
 20
1.73082
 30
0.0
 11
297.403
 21
1.52411
 31
0.0
  0
LINE
  8
0
 62
     1
 10
297.403
 20
1.52411
 30
0.0
 11
297.273
 21
1.32843
 31
0.0
  0
LINE
  8
0
 62
     1
 10
297.273
 20
1.32843
 30
0.0
 11
297.127
 21
1.14377
 31
0.0
  0
LINE
  8
0
 62
     1
 10
297.127
 20
1.14377
 30
0.0
 11
296.967
 21
0.970139
 31
0.0
  0
LINE
  8
0
 62
     1
 10
296.967
 20
0.970139
 30
0.0
 11
296.794
 21
0.810288
 31
0.0
  0
LINE
  8
0
 62
     1
 10
296.794
 20
0.810288
 30
0.0
 11
296.609
 21
0.664214
 31
0.0
  0
LINE
  8
0
 62
     1
 10
296.609
 20
0.664214
 30
0.0
 11
296.413
 21
0.534681
 31
0.0
  0
LINE
  8
0
 62
     1
 10
296.413
 20
0.534681
 30
0.0
 11
296.207
 21
0.418924
 31
0.0
  0
LINE
  8
0
 62
     1
 10
296.207
 20
0.418924
 30
0.0
 11
295.994
 21
0.321083
 31
0.0
  0
LINE
  8
0
 62
     1
 10
295.994
 20
0.321083
 30
0.0
 11
295.772
 21
0.238401
 31
0.0
  0
LINE
  8
0
 62
     1
 10
295.772
 20
0.238401
 30
0.0
 11
295.545
 21
0.175011
 31
0.0
  0
LINE
  8
0
 62
     1
 10
295.545
 20
0.175011
 30
0.0
 11
295.315
 21
0.128157
 31
0.0
  0
LINE
  8
0
 62
     1
 10
295.315
 20
0.128157
 30
0.0
 11
295.081
 21
0.101975
 31
0.0
  0
LINE
  8
0
 62
     1
 10
295.081
 20
0.101975
 30
0.0
 11
294.846
 21
0.0909507
 31
0.0
  0
LINE
  8
0
 62
     1
 10
294.846
 20
0.0909507
 30
0.0
 11
3.09507
 21
0.0923286
 31
0.0
  0
LINE
  8
0
 62
     1
 10
3.09507
 20
0.0923286
 30
0.0
 11
2.85943
 21
0.101975
 31
0.0
  0
LINE
  8
0
 62
     1
 10
2.85943
 20
0.101975
 30
0.0
 11
2.62516
 21
0.128157
 31
0.0
  0
LINE
  8
0
 62
     1
 10
2.62516
 20
0.128157
 30
0.0
 11
2.39365
 21
0.175011
 31
0.0
  0
LINE
  8
0
 62
     1
 10
2.39365
 20
0.175011
 30
0.0
 11
2.16628
 21
0.238401
 31
0.0
  0
LINE
  8
0
 62
     1
 10
2.16628
 20
0.238401
 30
0.0
 11
1.94579
 21
0.321083
 31
0.0
  0
LINE
  8
0
 62
     1
 10
1.94579
 20
0.321083
 30
0.0
 11
1.7322
 21
0.418924
 31
0.0
  0
LINE
  8
0
 62
     1
 10
1.7322
 20
0.418924
 30
0.0
 11
1.52687
 21
0.534681
 31
0.0
  0
LINE
  8
0
 62
     1
 10
1.52687
 20
0.534681
 30
0.0
 11
1.33119
 21
0.664214
 31
0.0
  0
LINE
  8
0
 62
     1
 10
1.33119
 20
0.664214
 30
0.0
 11
1.14515
 21
0.810288
 31
0.0
  0
LINE
  8
0
 62
     1
 10
1.14515
 20
0.810288
 30
0.0
 11
0.972894
 21
0.970139
 31
0.0
  0
LINE
  8
0
 62
     1
 10
0.972894
 20
0.970139
 30
0.0
 11
0.813043
 21
1.14377
 31
0.0
  0
LINE
  8
0
 62
     1
 10
0.813043
 20
1.14377
 30
0.0
 11
0.666972
 21
1.32843
 31
0.0
  0
LINE
  8
0
 62
     1
 10
0.666972
 20
1.32843
 30
0.0
 11
0.537436
 21
1.52411
 31
0.0
  0
LINE
  8
0
 62
     1
 10
0.537436
 20
1.52411
 30
0.0
 11
0.420303
 21
1.73082
 31
0.0
  0
LINE
  8
0
 62
     1
 10
0.420303
 20
1.73082
 30
0.0
 11
0.322461
 21
1.94303
 31
0.0
  0
LINE
  8
0
 62
     1
 10
0.322461
 20
1.94303
 30
0.0
 11
0.241157
 21
2.1649
 31
0.0
  0
LINE
  8
0
 62
     1
 10
0.241157
 20
2.1649
 30
0.0
 11
0.176389
 21
2.39227
 31
0.0
  0
LINE
  8
0
 62
     1
 10
0.176389
 20
2.39227
 30
0.0
 11
0.130914
 21
2.62241
 31
0.0
  0
LINE
  8
0
 62
     1
 10
0.130914
 20
2.62241
 30
0.0
 11
0.103353
 21
2.85667
 31
0.0
  0
LINE
  8
0
 62
     1
 10
0.103353
 20
2.85667
 30
0.0
 11
0.0937066
 21
3.09232
 31
0.0
  0
LINE
  8
0
 62
     1
 10
0.0937066
 20
3.09232
 30
0.0
 11
0.0950846
 21
104.342
 31
0.0
  0
LINE
  8
0
 62
     1
 10
0.0950846
 20
104.342
 30
0.0
 11
0.103353
 21
104.578
 31
0.0
  0
LINE
  8
0
 62
     1
 10
0.103353
 20
104.578
 30
0.0
 11
0.130914
 21
104.812
 31
0.0
  0
LINE
  8
0
 62
     1
 10
0.130914
 20
104.812
 30
0.0
 11
0.176389
 21
105.044
 31
0.0
  0
LINE
  8
0
 62
     1
 10
0.176389
 20
105.044
 30
0.0
 11
0.241157
 21
105.271
 31
0.0
  0
LINE
  8
0
 62
     1
 10
0.241157
 20
105.271
 30
0.0
 11
0.322461
 21
105.491
 31
0.0
  0
LINE
  8
0
 62
     1
 10
0.322461
 20
105.491
 30
0.0
 11
0.420303
 21
105.705
 31
0.0
  0
LINE
  8
0
 62
     1
 10
0.420303
 20
105.705
 30
0.0
 11
0.537436
 21
105.911
 31
0.0
  0
LINE
  8
0
 62
     1
 10
0.537436
 20
105.911
 30
0.0
 11
0.666972
 21
106.106
 31
0.0
  0
LINE
  8
0
 62
     1
 10
0.666972
 20
106.106
 30
0.0
 11
0.813043
 21
106.292
 31
0.0
  0
LINE
  8
0
 62
     1
 10
0.813043
 20
106.292
 30
0.0
 11
0.972894
 21
106.464
 31
0.0
  0
LINE
  8
0
 62
     1
 10
0.972894
 20
106.464
 30
0.0
 11
1.14515
 21
106.624
 31
0.0
  0
LINE
  8
0
 62
     1
 10
1.14515
 20
106.624
 30
0.0
 11
1.33119
 21
106.77
 31
0.0
  0
LINE
  8
0
 62
     1
 10
1.33119
 20
106.77
 30
0.0
 11
1.52687
 21
106.9
 31
0.0
  0
LINE
  8
0
 62
     1
 10
1.52687
 20
106.9
 30
0.0
 11
1.7322
 21
107.017
 31
0.0
  0
LINE
  8
0
 62
     1
 10
1.7322
 20
107.017
 30
0.0
 11
1.94579
 21
107.115
 31
0.0
  0
LINE
  8
0
 62
     1
 10
1.94579
 20
107.115
 30
0.0
 11
2.16628
 21
107.196
 31
0.0
  0
LINE
  8
0
 62
     1
 10
2.16628
 20
107.196
 30
0.0
 11
2.39365
 21
107.261
 31
0.0
  0
LINE
  8
0
 62
     1
 10
2.39365
 20
107.261
 30
0.0
 11
2.62516
 21
107.307
 31
0.0
  0
LINE
  8
0
 62
     1
 10
2.62516
 20
107.307
 30
0.0
 11
2.85943
 21
107.334
 31
0.0
  0
LINE
  8
0
 62
     1
 10
2.85943
 20
107.334
 30
0.0
 11
3.09507
 21
107.344
 31
0.0
  0
LINE
  8
0
 62
     1
 10
3.09507
 20
107.344
 30
0.0
 11
294.846
 21
107.342
 31
0.0
  0
LINE
  8
0
 62
     1
 10
294.459
 20
4.28018
 30
0.0
 11
294.11
 21
4.10379
 31
0.0
  0
LINE
  8
0
 62
     1
 10
294.11
 20
4.10379
 30
0.0
 11
293.834
 21
3.82683
 31
0.0
  0
LINE
  8
0
 62
     1
 10
293.834
 20
3.82683
 30
0.0
 11
293.657
 21
3.47817
 31
0.0
  0
LINE
  8
0
 62
     1
 10
293.657
 20
3.47817
 30
0.0
 11
293.595
 21
3.09094
 31
0.0
  0
LINE
  8
0
 62
     1
 10
293.595
 20
3.09094
 30
0.0
 11
293.657
 21
2.70509
 31
0.0
  0
LINE
  8
0
 62
     1
 10
293.657
 20
2.70509
 30
0.0
 11
293.834
 21
2.35782
 31
0.0
  0
LINE
  8
0
 62
     1
 10
293.834
 20
2.35782
 30
0.0
 11
294.11
 21
2.08084
 31
0.0
  0
LINE
  8
0
 62
     1
 10
294.11
 20
2.08084
 30
0.0
 11
294.459
 21
1.90307
 31
0.0
  0
LINE
  8
0
 62
     1
 10
294.459
 20
1.90307
 30
0.0
 11
294.846
 21
1.84106
 31
0.0
  0
LINE
  8
0
 62
     1
 10
294.846
 20
1.84106
 30
0.0
 11
295.232
 21
1.90307
 31
0.0
  0
LINE
  8
0
 62
     1
 10
295.232
 20
1.90307
 30
0.0
 11
295.579
 21
2.08084
 31
0.0
  0
LINE
  8
0
 62
     1
 10
295.579
 20
2.08084
 30
0.0
 11
295.856
 21
2.35782
 31
0.0
  0
LINE
  8
0
 62
     1
 10
295.856
 20
2.35782
 30
0.0
 11
296.034
 21
2.70509
 31
0.0
  0
LINE
  8
0
 62
     1
 10
296.034
 20
2.70509
 30
0.0
 11
296.096
 21
3.09094
 31
0.0
  0
LINE
  8
0
 62
     1
 10
296.096
 20
3.09094
 30
0.0
 11
296.034
 21
3.47817
 31
0.0
  0
LINE
  8
0
 62
     1
 10
296.034
 20
3.47817
 30
0.0
 11
295.856
 21
3.82683
 31
0.0
  0
LINE
  8
0
 62
     1
 10
295.856
 20
3.82683
 30
0.0
 11
295.579
 21
4.10379
 31
0.0
  0
LINE
  8
0
 62
     1
 10
295.579
 20
4.10379
 30
0.0
 11
295.232
 21
4.28018
 31
0.0
  0
LINE
  8
0
 62
     1
 10
295.232
 20
4.28018
 30
0.0
 11
294.846
 21
4.3422
 31
0.0
  0
LINE
  8
0
 62
     1
 10
294.846
 20
4.3422
 30
0.0
 11
294.459
 21
4.28018
 31
0.0
  0
LINE
  8
0
 62
     1
 10
221.521
 20
4.28018
 30
0.0
 11
221.172
 21
4.10379
 31
0.0
  0
LINE
  8
0
 62
     1
 10
221.172
 20
4.10379
 30
0.0
 11
220.895
 21
3.82683
 31
0.0
  0
LINE
  8
0
 62
     1
 10
220.895
 20
3.82683
 30
0.0
 11
220.719
 21
3.47817
 31
0.0
  0
LINE
  8
0
 62
     1
 10
220.719
 20
3.47817
 30
0.0
 11
220.658
 21
3.09094
 31
0.0
  0
LINE
  8
0
 62
     1
 10
220.658
 20
3.09094
 30
0.0
 11
220.719
 21
2.70509
 31
0.0
  0
LINE
  8
0
 62
     1
 10
220.719
 20
2.70509
 30
0.0
 11
220.895
 21
2.35782
 31
0.0
  0
LINE
  8
0
 62
     1
 10
220.895
 20
2.35782
 30
0.0
 11
221.172
 21
2.08084
 31
0.0
  0
LINE
  8
0
 62
     1
 10
221.172
 20
2.08084
 30
0.0
 11
221.521
 21
1.90307
 31
0.0
  0
LINE
  8
0
 62
     1
 10
221.521
 20
1.90307
 30
0.0
 11
221.908
 21
1.84106
 31
0.0
  0
LINE
  8
0
 62
     1
 10
221.908
 20
1.84106
 30
0.0
 11
222.294
 21
1.90307
 31
0.0
  0
LINE
  8
0
 62
     1
 10
222.294
 20
1.90307
 30
0.0
 11
222.641
 21
2.08084
 31
0.0
  0
LINE
  8
0
 62
     1
 10
222.641
 20
2.08084
 30
0.0
 11
222.919
 21
2.35782
 31
0.0
  0
LINE
  8
0
 62
     1
 10
222.919
 20
2.35782
 30
0.0
 11
223.096
 21
2.70509
 31
0.0
  0
LINE
  8
0
 62
     1
 10
223.096
 20
2.70509
 30
0.0
 11
223.158
 21
3.09094
 31
0.0
  0
LINE
  8
0
 62
     1
 10
223.158
 20
3.09094
 30
0.0
 11
223.096
 21
3.47817
 31
0.0
  0
LINE
  8
0
 62
     1
 10
223.096
 20
3.47817
 30
0.0
 11
222.919
 21
3.82683
 31
0.0
  0
LINE
  8
0
 62
     1
 10
222.919
 20
3.82683
 30
0.0
 11
222.641
 21
4.10379
 31
0.0
  0
LINE
  8
0
 62
     1
 10
222.641
 20
4.10379
 30
0.0
 11
222.294
 21
4.28018
 31
0.0
  0
LINE
  8
0
 62
     1
 10
222.294
 20
4.28018
 30
0.0
 11
221.908
 21
4.3422
 31
0.0
  0
LINE
  8
0
 62
     1
 10
221.908
 20
4.3422
 30
0.0
 11
221.521
 21
4.28018
 31
0.0
  0
LINE
  8
0
 62
     1
 10
148.584
 20
4.28018
 30
0.0
 11
148.234
 21
4.10379
 31
0.0
  0
LINE
  8
0
 62
     1
 10
148.234
 20
4.10379
 30
0.0
 11
147.959
 21
3.82683
 31
0.0
  0
LINE
  8
0
 62
     1
 10
147.959
 20
3.82683
 30
0.0
 11
147.781
 21
3.47817
 31
0.0
  0
LINE
  8
0
 62
     1
 10
147.781
 20
3.47817
 30
0.0
 11
147.72
 21
3.09094
 31
0.0
  0
LINE
  8
0
 62
     1
 10
147.72
 20
3.09094
 30
0.0
 11
147.781
 21
2.70509
 31
0.0
  0
LINE
  8
0
 62
     1
 10
147.781
 20
2.70509
 30
0.0
 11
147.959
 21
2.35782
 31
0.0
  0
LINE
  8
0
 62
     1
 10
147.959
 20
2.35782
 30
0.0
 11
148.234
 21
2.08084
 31
0.0
  0
LINE
  8
0
 62
     1
 10
148.234
 20
2.08084
 30
0.0
 11
148.584
 21
1.90307
 31
0.0
  0
LINE
  8
0
 62
     1
 10
148.584
 20
1.90307
 30
0.0
 11
148.97
 21
1.84106
 31
0.0
  0
LINE
  8
0
 62
     1
 10
148.97
 20
1.84106
 30
0.0
 11
149.356
 21
1.90307
 31
0.0
  0
LINE
  8
0
 62
     1
 10
149.356
 20
1.90307
 30
0.0
 11
149.704
 21
2.08084
 31
0.0
  0
LINE
  8
0
 62
     1
 10
149.704
 20
2.08084
 30
0.0
 11
149.98
 21
2.35782
 31
0.0
  0
LINE
  8
0
 62
     1
 10
149.98
 20
2.35782
 30
0.0
 11
150.159
 21
2.70509
 31
0.0
  0
LINE
  8
0
 62
     1
 10
150.159
 20
2.70509
 30
0.0
 11
150.22
 21
3.09094
 31
0.0
  0
LINE
  8
0
 62
     1
 10
150.22
 20
3.09094
 30
0.0
 11
150.159
 21
3.47817
 31
0.0
  0
LINE
  8
0
 62
     1
 10
150.159
 20
3.47817
 30
0.0
 11
149.98
 21
3.82683
 31
0.0
  0
LINE
  8
0
 62
     1
 10
149.98
 20
3.82683
 30
0.0
 11
149.704
 21
4.10379
 31
0.0
  0
LINE
  8
0
 62
     1
 10
149.704
 20
4.10379
 30
0.0
 11
149.356
 21
4.28018
 31
0.0
  0
LINE
  8
0
 62
     1
 10
149.356
 20
4.28018
 30
0.0
 11
148.97
 21
4.3422
 31
0.0
  0
LINE
  8
0
 62
     1
 10
148.97
 20
4.3422
 30
0.0
 11
148.584
 21
4.28018
 31
0.0
  0
LINE
  8
0
 62
     1
 10
75.6461
 20
4.28018
 30
0.0
 11
75.2972
 21
4.10379
 31
0.0
  0
LINE
  8
0
 62
     1
 10
75.2972
 20
4.10379
 30
0.0
 11
75.0203
 21
3.82683
 31
0.0
  0
LINE
  8
0
 62
     1
 10
75.0203
 20
3.82683
 30
0.0
 11
74.8425
 21
3.47817
 31
0.0
  0
LINE
  8
0
 62
     1
 10
74.8425
 20
3.47817
 30
0.0
 11
74.7818
 21
3.09094
 31
0.0
  0
LINE
  8
0
 62
     1
 10
74.7818
 20
3.09094
 30
0.0
 11
74.8425
 21
2.70509
 31
0.0
  0
LINE
  8
0
 62
     1
 10
74.8425
 20
2.70509
 30
0.0
 11
75.0203
 21
2.35782
 31
0.0
  0
LINE
  8
0
 62
     1
 10
75.0203
 20
2.35782
 30
0.0
 11
75.2972
 21
2.08084
 31
0.0
  0
LINE
  8
0
 62
     1
 10
75.2972
 20
2.08084
 30
0.0
 11
75.6461
 21
1.90307
 31
0.0
  0
LINE
  8
0
 62
     1
 10
75.6461
 20
1.90307
 30
0.0
 11
76.0317
 21
1.84106
 31
0.0
  0
LINE
  8
0
 62
     1
 10
76.0317
 20
1.84106
 30
0.0
 11
76.4191
 21
1.90307
 31
0.0
  0
LINE
  8
0
 62
     1
 10
76.4191
 20
1.90307
 30
0.0
 11
76.7662
 21
2.08084
 31
0.0
  0
LINE
  8
0
 62
     1
 10
76.7662
 20
2.08084
 30
0.0
 11
77.0435
 21
2.35782
 31
0.0
  0
LINE
  8
0
 62
     1
 10
77.0435
 20
2.35782
 30
0.0
 11
77.2213
 21
2.70509
 31
0.0
  0
LINE
  8
0
 62
     1
 10
77.2213
 20
2.70509
 30
0.0
 11
77.2816
 21
3.09094
 31
0.0
  0
LINE
  8
0
 62
     1
 10
77.2816
 20
3.09094
 30
0.0
 11
77.2213
 21
3.47817
 31
0.0
  0
LINE
  8
0
 62
     1
 10
77.2213
 20
3.47817
 30
0.0
 11
77.0435
 21
3.82683
 31
0.0
  0
LINE
  8
0
 62
     1
 10
77.0435
 20
3.82683
 30
0.0
 11
76.7662
 21
4.10379
 31
0.0
  0
LINE
  8
0
 62
     1
 10
76.7662
 20
4.10379
 30
0.0
 11
76.4191
 21
4.28018
 31
0.0
  0
LINE
  8
0
 62
     1
 10
76.4191
 20
4.28018
 30
0.0
 11
76.0317
 21
4.3422
 31
0.0
  0
LINE
  8
0
 62
     1
 10
76.0317
 20
4.3422
 30
0.0
 11
75.6461
 21
4.28018
 31
0.0
  0
LINE
  8
0
 62
     1
 10
2.70784
 20
4.28018
 30
0.0
 11
2.3592
 21
4.10379
 31
0.0
  0
LINE
  8
0
 62
     1
 10
2.3592
 20
4.10379
 30
0.0
 11
2.08221
 21
3.82683
 31
0.0
  0
LINE
  8
0
 62
     1
 10
2.08221
 20
3.82683
 30
0.0
 11
1.90583
 21
3.47817
 31
0.0
  0
LINE
  8
0
 62
     1
 10
1.90583
 20
3.47817
 30
0.0
 11
1.84381
 21
3.09094
 31
0.0
  0
LINE
  8
0
 62
     1
 10
1.84381
 20
3.09094
 30
0.0
 11
1.90583
 21
2.70509
 31
0.0
  0
LINE
  8
0
 62
     1
 10
1.90583
 20
2.70509
 30
0.0
 11
2.08221
 21
2.35782
 31
0.0
  0
LINE
  8
0
 62
     1
 10
2.08221
 20
2.35782
 30
0.0
 11
2.3592
 21
2.08084
 31
0.0
  0
LINE
  8
0
 62
     1
 10
2.3592
 20
2.08084
 30
0.0
 11
2.70784
 21
1.90307
 31
0.0
  0
LINE
  8
0
 62
     1
 10
2.70784
 20
1.90307
 30
0.0
 11
3.09507
 21
1.84106
 31
0.0
  0
LINE
  8
0
 62
     1
 10
3.09507
 20
1.84106
 30
0.0
 11
3.48093
 21
1.90307
 31
0.0
  0
LINE
  8
0
 62
     1
 10
3.48093
 20
1.90307
 30
0.0
 11
3.8282
 21
2.08084
 31
0.0
  0
LINE
  8
0
 62
     1
 10
3.8282
 20
2.08084
 30
0.0
 11
4.10517
 21
2.35782
 31
0.0
  0
LINE
  8
0
 62
     1
 10
4.10517
 20
2.35782
 30
0.0
 11
4.28293
 21
2.70509
 31
0.0
  0
LINE
  8
0
 62
     1
 10
4.28293
 20
2.70509
 30
0.0
 11
4.34495
 21
3.09094
 31
0.0
  0
LINE
  8
0
 62
     1
 10
4.34495
 20
3.09094
 30
0.0
 11
4.28293
 21
3.47817
 31
0.0
  0
LINE
  8
0
 62
     1
 10
4.28293
 20
3.47817
 30
0.0
 11
4.10517
 21
3.82683
 31
0.0
  0
LINE
  8
0
 62
     1
 10
4.10517
 20
3.82683
 30
0.0
 11
3.8282
 21
4.10379
 31
0.0
  0
LINE
  8
0
 62
     1
 10
3.8282
 20
4.10379
 30
0.0
 11
3.48093
 21
4.28018
 31
0.0
  0
LINE
  8
0
 62
     1
 10
3.48093
 20
4.28018
 30
0.0
 11
3.09507
 21
4.3422
 31
0.0
  0
LINE
  8
0
 62
     1
 10
3.09507
 20
4.3422
 30
0.0
 11
2.70784
 21
4.28018
 31
0.0
  0
LINE
  8
0
 62
     1
 10
6.09505
 20
101.342
 30
0.0
 11
291.845
 21
101.342
 31
0.0
  0
LINE
  8
0
 62
     1
 10
291.845
 20
101.342
 30
0.0
 11
291.845
 21
6.0923
 31
0.0
  0
LINE
  8
0
 62
     1
 10
291.845
 20
6.0923
 30
0.0
 11
6.09505
 21
6.0923
 31
0.0
  0
LINE
  8
0
 62
     1
 10
6.09505
 20
6.0923
 30
0.0
 11
6.09505
 21
101.342
 31
0.0
  0
LINE
  8
0
 62
     1
 10
294.459
 20
54.9067
 30
0.0
 11
294.11
 21
54.7289
 31
0.0
  0
LINE
  8
0
 62
     1
 10
294.11
 20
54.7289
 30
0.0
 11
293.834
 21
54.453
 31
0.0
  0
LINE
  8
0
 62
     1
 10
293.834
 20
54.453
 30
0.0
 11
293.657
 21
54.1031
 31
0.0
  0
LINE
  8
0
 62
     1
 10
293.657
 20
54.1031
 30
0.0
 11
293.595
 21
53.7175
 31
0.0
  0
LINE
  8
0
 62
     1
 10
293.595
 20
53.7175
 30
0.0
 11
293.657
 21
53.3315
 31
0.0
  0
LINE
  8
0
 62
     1
 10
293.657
 20
53.3315
 30
0.0
 11
293.834
 21
52.983
 31
0.0
  0
LINE
  8
0
 62
     1
 10
293.834
 20
52.983
 30
0.0
 11
294.11
 21
52.7071
 31
0.0
  0
LINE
  8
0
 62
     1
 10
294.11
 20
52.7071
 30
0.0
 11
294.459
 21
52.5279
 31
0.0
  0
LINE
  8
0
 62
     1
 10
294.459
 20
52.5279
 30
0.0
 11
294.846
 21
52.4676
 31
0.0
  0
LINE
  8
0
 62
     1
 10
294.846
 20
52.4676
 30
0.0
 11
295.232
 21
52.5279
 31
0.0
  0
LINE
  8
0
 62
     1
 10
295.232
 20
52.5279
 30
0.0
 11
295.579
 21
52.7071
 31
0.0
  0
LINE
  8
0
 62
     1
 10
295.579
 20
52.7071
 30
0.0
 11
295.856
 21
52.983
 31
0.0
  0
LINE
  8
0
 62
     1
 10
295.856
 20
52.983
 30
0.0
 11
296.034
 21
53.3315
 31
0.0
  0
LINE
  8
0
 62
     1
 10
296.034
 20
53.3315
 30
0.0
 11
296.096
 21
53.7175
 31
0.0
  0
LINE
  8
0
 62
     1
 10
296.096
 20
53.7175
 30
0.0
 11
296.034
 21
54.1031
 31
0.0
  0
LINE
  8
0
 62
     1
 10
296.034
 20
54.1031
 30
0.0
 11
295.856
 21
54.453
 31
0.0
  0
LINE
  8
0
 62
     1
 10
295.856
 20
54.453
 30
0.0
 11
295.579
 21
54.7289
 31
0.0
  0
LINE
  8
0
 62
     1
 10
295.579
 20
54.7289
 30
0.0
 11
295.232
 21
54.9067
 31
0.0
  0
LINE
  8
0
 62
     1
 10
295.232
 20
54.9067
 30
0.0
 11
294.846
 21
54.9674
 31
0.0
  0
LINE
  8
0
 62
     1
 10
294.846
 20
54.9674
 30
0.0
 11
294.459
 21
54.9067
 31
0.0
  0
LINE
  8
0
 62
     1
 10
2.70784
 20
54.9067
 30
0.0
 11
2.3592
 21
54.7289
 31
0.0
  0
LINE
  8
0
 62
     1
 10
2.3592
 20
54.7289
 30
0.0
 11
2.08221
 21
54.453
 31
0.0
  0
LINE
  8
0
 62
     1
 10
2.08221
 20
54.453
 30
0.0
 11
1.90583
 21
54.1031
 31
0.0
  0
LINE
  8
0
 62
     1
 10
1.90583
 20
54.1031
 30
0.0
 11
1.84381
 21
53.7175
 31
0.0
  0
LINE
  8
0
 62
     1
 10
1.84381
 20
53.7175
 30
0.0
 11
1.90583
 21
53.3315
 31
0.0
  0
LINE
  8
0
 62
     1
 10
1.90583
 20
53.3315
 30
0.0
 11
2.08221
 21
52.983
 31
0.0
  0
LINE
  8
0
 62
     1
 10
2.08221
 20
52.983
 30
0.0
 11
2.3592
 21
52.7071
 31
0.0
  0
LINE
  8
0
 62
     1
 10
2.3592
 20
52.7071
 30
0.0
 11
2.70784
 21
52.5279
 31
0.0
  0
LINE
  8
0
 62
     1
 10
2.70784
 20
52.5279
 30
0.0
 11
3.09507
 21
52.4676
 31
0.0
  0
LINE
  8
0
 62
     1
 10
3.09507
 20
52.4676
 30
0.0
 11
3.48093
 21
52.5279
 31
0.0
  0
LINE
  8
0
 62
     1
 10
3.48093
 20
52.5279
 30
0.0
 11
3.8282
 21
52.7071
 31
0.0
  0
LINE
  8
0
 62
     1
 10
3.8282
 20
52.7071
 30
0.0
 11
4.10517
 21
52.983
 31
0.0
  0
LINE
  8
0
 62
     1
 10
4.10517
 20
52.983
 30
0.0
 11
4.28293
 21
53.3315
 31
0.0
  0
LINE
  8
0
 62
     1
 10
4.28293
 20
53.3315
 30
0.0
 11
4.34495
 21
53.7175
 31
0.0
  0
LINE
  8
0
 62
     1
 10
4.34495
 20
53.7175
 30
0.0
 11
4.28293
 21
54.1031
 31
0.0
  0
LINE
  8
0
 62
     1
 10
4.28293
 20
54.1031
 30
0.0
 11
4.10517
 21
54.453
 31
0.0
  0
LINE
  8
0
 62
     1
 10
4.10517
 20
54.453
 30
0.0
 11
3.8282
 21
54.7289
 31
0.0
  0
LINE
  8
0
 62
     1
 10
3.8282
 20
54.7289
 30
0.0
 11
3.48093
 21
54.9067
 31
0.0
  0
LINE
  8
0
 62
     1
 10
3.48093
 20
54.9067
 30
0.0
 11
3.09507
 21
54.9674
 31
0.0
  0
LINE
  8
0
 62
     1
 10
3.09507
 20
54.9674
 30
0.0
 11
2.70784
 21
54.9067
 31
0.0
  0
LINE
  8
0
 62
     1
 10
75.6461
 20
105.532
 30
0.0
 11
75.2972
 21
105.355
 31
0.0
  0
LINE
  8
0
 62
     1
 10
75.2972
 20
105.355
 30
0.0
 11
75.0203
 21
105.078
 31
0.0
  0
LINE
  8
0
 62
     1
 10
75.0203
 20
105.078
 30
0.0
 11
74.8425
 21
104.729
 31
0.0
  0
LINE
  8
0
 62
     1
 10
74.8425
 20
104.729
 30
0.0
 11
74.7818
 21
104.342
 31
0.0
  0
LINE
  8
0
 62
     1
 10
74.7818
 20
104.342
 30
0.0
 11
74.8425
 21
103.957
 31
0.0
  0
LINE
  8
0
 62
     1
 10
74.8425
 20
103.957
 30
0.0
 11
75.0203
 21
103.609
 31
0.0
  0
LINE
  8
0
 62
     1
 10
75.0203
 20
103.609
 30
0.0
 11
75.2972
 21
103.332
 31
0.0
  0
LINE
  8
0
 62
     1
 10
75.2972
 20
103.332
 30
0.0
 11
75.6461
 21
103.154
 31
0.0
  0
LINE
  8
0
 62
     1
 10
75.6461
 20
103.154
 30
0.0
 11
76.0317
 21
103.092
 31
0.0
  0
LINE
  8
0
 62
     1
 10
76.0317
 20
103.092
 30
0.0
 11
76.4191
 21
103.154
 31
0.0
  0
LINE
  8
0
 62
     1
 10
76.4191
 20
103.154
 30
0.0
 11
76.7662
 21
103.332
 31
0.0
  0
LINE
  8
0
 62
     1
 10
76.7662
 20
103.332
 30
0.0
 11
77.0435
 21
103.609
 31
0.0
  0
LINE
  8
0
 62
     1
 10
77.0435
 20
103.609
 30
0.0
 11
77.2213
 21
103.957
 31
0.0
  0
LINE
  8
0
 62
     1
 10
77.2213
 20
103.957
 30
0.0
 11
77.2816
 21
104.342
 31
0.0
  0
LINE
  8
0
 62
     1
 10
77.2816
 20
104.342
 30
0.0
 11
77.2213
 21
104.729
 31
0.0
  0
LINE
  8
0
 62
     1
 10
77.2213
 20
104.729
 30
0.0
 11
77.0435
 21
105.078
 31
0.0
  0
LINE
  8
0
 62
     1
 10
77.0435
 20
105.078
 30
0.0
 11
76.7662
 21
105.355
 31
0.0
  0
LINE
  8
0
 62
     1
 10
76.7662
 20
105.355
 30
0.0
 11
76.4191
 21
105.532
 31
0.0
  0
LINE
  8
0
 62
     1
 10
76.4191
 20
105.532
 30
0.0
 11
76.0317
 21
105.592
 31
0.0
  0
LINE
  8
0
 62
     1
 10
76.0317
 20
105.592
 30
0.0
 11
75.6461
 21
105.532
 31
0.0
  0
LINE
  8
0
 62
     1
 10
148.584
 20
105.532
 30
0.0
 11
148.234
 21
105.355
 31
0.0
  0
LINE
  8
0
 62
     1
 10
148.234
 20
105.355
 30
0.0
 11
147.959
 21
105.078
 31
0.0
  0
LINE
  8
0
 62
     1
 10
147.959
 20
105.078
 30
0.0
 11
147.781
 21
104.729
 31
0.0
  0
LINE
  8
0
 62
     1
 10
147.781
 20
104.729
 30
0.0
 11
147.72
 21
104.342
 31
0.0
  0
LINE
  8
0
 62
     1
 10
147.72
 20
104.342
 30
0.0
 11
147.781
 21
103.957
 31
0.0
  0
LINE
  8
0
 62
     1
 10
147.781
 20
103.957
 30
0.0
 11
147.959
 21
103.609
 31
0.0
  0
LINE
  8
0
 62
     1
 10
147.959
 20
103.609
 30
0.0
 11
148.234
 21
103.332
 31
0.0
  0
LINE
  8
0
 62
     1
 10
148.234
 20
103.332
 30
0.0
 11
148.584
 21
103.154
 31
0.0
  0
LINE
  8
0
 62
     1
 10
148.584
 20
103.154
 30
0.0
 11
148.97
 21
103.092
 31
0.0
  0
LINE
  8
0
 62
     1
 10
148.97
 20
103.092
 30
0.0
 11
149.356
 21
103.154
 31
0.0
  0
LINE
  8
0
 62
     1
 10
149.356
 20
103.154
 30
0.0
 11
149.704
 21
103.332
 31
0.0
  0
LINE
  8
0
 62
     1
 10
149.704
 20
103.332
 30
0.0
 11
149.98
 21
103.609
 31
0.0
  0
LINE
  8
0
 62
     1
 10
149.98
 20
103.609
 30
0.0
 11
150.159
 21
103.957
 31
0.0
  0
LINE
  8
0
 62
     1
 10
150.159
 20
103.957
 30
0.0
 11
150.22
 21
104.342
 31
0.0
  0
LINE
  8
0
 62
     1
 10
150.22
 20
104.342
 30
0.0
 11
150.159
 21
104.729
 31
0.0
  0
LINE
  8
0
 62
     1
 10
150.159
 20
104.729
 30
0.0
 11
149.98
 21
105.078
 31
0.0
  0
LINE
  8
0
 62
     1
 10
149.98
 20
105.078
 30
0.0
 11
149.704
 21
105.355
 31
0.0
  0
LINE
  8
0
 62
     1
 10
149.704
 20
105.355
 30
0.0
 11
149.356
 21
105.532
 31
0.0
  0
LINE
  8
0
 62
     1
 10
149.356
 20
105.532
 30
0.0
 11
148.97
 21
105.592
 31
0.0
  0
LINE
  8
0
 62
     1
 10
148.97
 20
105.592
 30
0.0
 11
148.584
 21
105.532
 31
0.0
  0
LINE
  8
0
 62
     1
 10
221.521
 20
105.532
 30
0.0
 11
221.172
 21
105.355
 31
0.0
  0
LINE
  8
0
 62
     1
 10
221.172
 20
105.355
 30
0.0
 11
220.895
 21
105.078
 31
0.0
  0
LINE
  8
0
 62
     1
 10
220.895
 20
105.078
 30
0.0
 11
220.719
 21
104.729
 31
0.0
  0
LINE
  8
0
 62
     1
 10
220.719
 20
104.729
 30
0.0
 11
220.658
 21
104.342
 31
0.0
  0
LINE
  8
0
 62
     1
 10
220.658
 20
104.342
 30
0.0
 11
220.719
 21
103.957
 31
0.0
  0
LINE
  8
0
 62
     1
 10
220.719
 20
103.957
 30
0.0
 11
220.895
 21
103.609
 31
0.0
  0
LINE
  8
0
 62
     1
 10
220.895
 20
103.609
 30
0.0
 11
221.172
 21
103.332
 31
0.0
  0
LINE
  8
0
 62
     1
 10
221.172
 20
103.332
 30
0.0
 11
221.521
 21
103.154
 31
0.0
  0
LINE
  8
0
 62
     1
 10
221.521
 20
103.154
 30
0.0
 11
221.908
 21
103.092
 31
0.0
  0
LINE
  8
0
 62
     1
 10
221.908
 20
103.092
 30
0.0
 11
222.294
 21
103.154
 31
0.0
  0
LINE
  8
0
 62
     1
 10
222.294
 20
103.154
 30
0.0
 11
222.641
 21
103.332
 31
0.0
  0
LINE
  8
0
 62
     1
 10
222.641
 20
103.332
 30
0.0
 11
222.919
 21
103.609
 31
0.0
  0
LINE
  8
0
 62
     1
 10
222.919
 20
103.609
 30
0.0
 11
223.096
 21
103.957
 31
0.0
  0
LINE
  8
0
 62
     1
 10
223.096
 20
103.957
 30
0.0
 11
223.158
 21
104.342
 31
0.0
  0
LINE
  8
0
 62
     1
 10
223.158
 20
104.342
 30
0.0
 11
223.096
 21
104.729
 31
0.0
  0
LINE
  8
0
 62
     1
 10
223.096
 20
104.729
 30
0.0
 11
222.919
 21
105.078
 31
0.0
  0
LINE
  8
0
 62
     1
 10
222.919
 20
105.078
 30
0.0
 11
222.641
 21
105.355
 31
0.0
  0
LINE
  8
0
 62
     1
 10
222.641
 20
105.355
 30
0.0
 11
222.294
 21
105.532
 31
0.0
  0
LINE
  8
0
 62
     1
 10
222.294
 20
105.532
 30
0.0
 11
221.908
 21
105.592
 31
0.0
  0
LINE
  8
0
 62
     1
 10
221.908
 20
105.592
 30
0.0
 11
221.521
 21
105.532
 31
0.0
  0
LINE
  8
0
 62
     1
 10
294.459
 20
105.532
 30
0.0
 11
294.11
 21
105.355
 31
0.0
  0
LINE
  8
0
 62
     1
 10
294.11
 20
105.355
 30
0.0
 11
293.834
 21
105.078
 31
0.0
  0
LINE
  8
0
 62
     1
 10
293.834
 20
105.078
 30
0.0
 11
293.657
 21
104.729
 31
0.0
  0
LINE
  8
0
 62
     1
 10
293.657
 20
104.729
 30
0.0
 11
293.595
 21
104.342
 31
0.0
  0
LINE
  8
0
 62
     1
 10
293.595
 20
104.342
 30
0.0
 11
293.657
 21
103.957
 31
0.0
  0
LINE
  8
0
 62
     1
 10
293.657
 20
103.957
 30
0.0
 11
293.834
 21
103.609
 31
0.0
  0
LINE
  8
0
 62
     1
 10
293.834
 20
103.609
 30
0.0
 11
294.11
 21
103.332
 31
0.0
  0
LINE
  8
0
 62
     1
 10
294.11
 20
103.332
 30
0.0
 11
294.459
 21
103.154
 31
0.0
  0
LINE
  8
0
 62
     1
 10
294.459
 20
103.154
 30
0.0
 11
294.846
 21
103.092
 31
0.0
  0
LINE
  8
0
 62
     1
 10
294.846
 20
103.092
 30
0.0
 11
295.232
 21
103.154
 31
0.0
  0
LINE
  8
0
 62
     1
 10
295.232
 20
103.154
 30
0.0
 11
295.579
 21
103.332
 31
0.0
  0
LINE
  8
0
 62
     1
 10
295.579
 20
103.332
 30
0.0
 11
295.856
 21
103.609
 31
0.0
  0
LINE
  8
0
 62
     1
 10
295.856
 20
103.609
 30
0.0
 11
296.034
 21
103.957
 31
0.0
  0
LINE
  8
0
 62
     1
 10
296.034
 20
103.957
 30
0.0
 11
296.096
 21
104.342
 31
0.0
  0
LINE
  8
0
 62
     1
 10
296.096
 20
104.342
 30
0.0
 11
296.034
 21
104.729
 31
0.0
  0
LINE
  8
0
 62
     1
 10
296.034
 20
104.729
 30
0.0
 11
295.856
 21
105.078
 31
0.0
  0
LINE
  8
0
 62
     1
 10
295.856
 20
105.078
 30
0.0
 11
295.579
 21
105.355
 31
0.0
  0
LINE
  8
0
 62
     1
 10
295.579
 20
105.355
 30
0.0
 11
295.232
 21
105.532
 31
0.0
  0
LINE
  8
0
 62
     1
 10
295.232
 20
105.532
 30
0.0
 11
294.846
 21
105.592
 31
0.0
  0
LINE
  8
0
 62
     1
 10
294.846
 20
105.592
 30
0.0
 11
294.459
 21
105.532
 31
0.0
  0
LINE
  8
0
 62
     1
 10
2.70784
 20
105.532
 30
0.0
 11
2.3592
 21
105.355
 31
0.0
  0
LINE
  8
0
 62
     1
 10
2.3592
 20
105.355
 30
0.0
 11
2.08221
 21
105.078
 31
0.0
  0
LINE
  8
0
 62
     1
 10
2.08221
 20
105.078
 30
0.0
 11
1.90583
 21
104.729
 31
0.0
  0
LINE
  8
0
 62
     1
 10
1.90583
 20
104.729
 30
0.0
 11
1.84381
 21
104.342
 31
0.0
  0
LINE
  8
0
 62
     1
 10
1.84381
 20
104.342
 30
0.0
 11
1.90583
 21
103.957
 31
0.0
  0
LINE
  8
0
 62
     1
 10
1.90583
 20
103.957
 30
0.0
 11
2.08221
 21
103.609
 31
0.0
  0
LINE
  8
0
 62
     1
 10
2.08221
 20
103.609
 30
0.0
 11
2.3592
 21
103.332
 31
0.0
  0
LINE
  8
0
 62
     1
 10
2.3592
 20
103.332
 30
0.0
 11
2.70784
 21
103.154
 31
0.0
  0
LINE
  8
0
 62
     1
 10
2.70784
 20
103.154
 30
0.0
 11
3.09507
 21
103.092
 31
0.0
  0
LINE
  8
0
 62
     1
 10
3.09507
 20
103.092
 30
0.0
 11
3.48093
 21
103.154
 31
0.0
  0
LINE
  8
0
 62
     1
 10
3.48093
 20
103.154
 30
0.0
 11
3.8282
 21
103.332
 31
0.0
  0
LINE
  8
0
 62
     1
 10
3.8282
 20
103.332
 30
0.0
 11
4.10517
 21
103.609
 31
0.0
  0
LINE
  8
0
 62
     1
 10
4.10517
 20
103.609
 30
0.0
 11
4.28293
 21
103.957
 31
0.0
  0
LINE
  8
0
 62
     1
 10
4.28293
 20
103.957
 30
0.0
 11
4.34495
 21
104.342
 31
0.0
  0
LINE
  8
0
 62
     1
 10
4.34495
 20
104.342
 30
0.0
 11
4.28293
 21
104.729
 31
0.0
  0
LINE
  8
0
 62
     1
 10
4.28293
 20
104.729
 30
0.0
 11
4.10517
 21
105.078
 31
0.0
  0
LINE
  8
0
 62
     1
 10
4.10517
 20
105.078
 30
0.0
 11
3.8282
 21
105.355
 31
0.0
  0
LINE
  8
0
 62
     1
 10
3.8282
 20
105.355
 30
0.0
 11
3.48093
 21
105.532
 31
0.0
  0
LINE
  8
0
 62
     1
 10
3.48093
 20
105.532
 30
0.0
 11
3.09507
 21
105.592
 31
0.0
  0
LINE
  8
0
 62
     1
 10
3.09507
 20
105.592
 30
0.0
 11
2.70784
 21
105.532
 31
0.0
  0
ENDSEC
  0
EOF
