  0
SECTION
  2
HEADER
  9
$ACADVER
  1
AC1009
  9
$EXTMIN
 10
0.0
 20
0.0
 30
0.0
  9
$EXTMAX
 10
1000.0
 20
1000.0
 30
0.0
  9
$FILLMODE
 70
 0
  9
$SPLFRAME
 70
 1
  0
ENDSEC
  0
SECTION
  2
TABLES
  0
TABLE
  2
LAYER
 70
1
  0
LAYER
  2
0
 70
     0
 62
     7
  6
CONTINUOUS
  0
ENDTAB
  0
ENDSEC
  0
SECTION
  2
ENTITIES
  0
LINE
  8
0
 62
     1
 10
294.846
 20
107.342
 30
0.0
 11
295.081
 21
107.334
 31
0.0
  0
LINE
  8
0
 62
     1
 10
295.081
 20
107.334
 30
0.0
 11
295.315
 21
107.307
 31
0.0
  0
LINE
  8
0
 62
     1
 10
295.315
 20
107.307
 30
0.0
 11
295.545
 21
107.261
 31
0.0
  0
LINE
  8
0
 62
     1
 10
295.545
 20
107.261
 30
0.0
 11
295.772
 21
107.196
 31
0.0
  0
LINE
  8
0
 62
     1
 10
295.772
 20
107.196
 30
0.0
 11
295.994
 21
107.115
 31
0.0
  0
LINE
  8
0
 62
     1
 10
295.994
 20
107.115
 30
0.0
 11
296.207
 21
107.017
 31
0.0
  0
LINE
  8
0
 62
     1
 10
296.207
 20
107.017
 30
0.0
 11
296.413
 21
106.9
 31
0.0
  0
LINE
  8
0
 62
     1
 10
296.413
 20
106.9
 30
0.0
 11
296.609
 21
106.77
 31
0.0
  0
LINE
  8
0
 62
     1
 10
296.609
 20
106.77
 30
0.0
 11
296.794
 21
106.624
 31
0.0
  0
LINE
  8
0
 62
     1
 10
296.794
 20
106.624
 30
0.0
 11
296.967
 21
106.464
 31
0.0
  0
LINE
  8
0
 62
     1
 10
296.967
 20
106.464
 30
0.0
 11
297.127
 21
106.292
 31
0.0
  0
LINE
  8
0
 62
     1
 10
297.127
 20
106.292
 30
0.0
 11
297.273
 21
106.106
 31
0.0
  0
LINE
  8
0
 62
     1
 10
297.273
 20
106.106
 30
0.0
 11
297.403
 21
105.911
 31
0.0
  0
LINE
  8
0
 62
     1
 10
297.403
 20
105.911
 30
0.0
 11
297.518
 21
105.705
 31
0.0
  0
LINE
  8
0
 62
     1
 10
297.518
 20
105.705
 30
0.0
 11
297.616
 21
105.491
 31
0.0
  0
LINE
  8
0
 62
     1
 10
297.616
 20
105.491
 30
0.0
 11
297.699
 21
105.271
 31
0.0
  0
LINE
  8
0
 62
     1
 10
297.699
 20
105.271
 30
0.0
 11
297.762
 21
105.044
 31
0.0
  0
LINE
  8
0
 62
     1
 10
297.762
 20
105.044
 30
0.0
 11
297.809
 21
104.812
 31
0.0
  0
LINE
  8
0
 62
     1
 10
297.809
 20
104.812
 30
0.0
 11
297.835
 21
104.578
 31
0.0
  0
LINE
  8
0
 62
     1
 10
297.835
 20
104.578
 30
0.0
 11
297.846
 21
104.342
 31
0.0
  0
LINE
  8
0
 62
     1
 10
297.846
 20
104.342
 30
0.0
 11
297.846
 21
3.09232
 31
0.0
  0
LINE
  8
0
 62
     1
 10
297.846
 20
3.09232
 30
0.0
 11
297.835
 21
2.85667
 31
0.0
  0
LINE
  8
0
 62
     1
 10
297.835
 20
2.85667
 30
0.0
 11
297.809
 21
2.62241
 31
0.0
  0
LINE
  8
0
 62
     1
 10
297.809
 20
2.62241
 30
0.0
 11
297.762
 21
2.39227
 31
0.0
  0
LINE
  8
0
 62
     1
 10
297.762
 20
2.39227
 30
0.0
 11
297.699
 21
2.1649
 31
0.0
  0
LINE
  8
0
 62
     1
 10
297.699
 20
2.1649
 30
0.0
 11
297.616
 21
1.94303
 31
0.0
  0
LINE
  8
0
 62
     1
 10
297.616
 20
1.94303
 30
0.0
 11
297.518
 21
1.73082
 31
0.0
  0
LINE
  8
0
 62
     1
 10
297.518
 20
1.73082
 30
0.0
 11
297.403
 21
1.52411
 31
0.0
  0
LINE
  8
0
 62
     1
 10
297.403
 20
1.52411
 30
0.0
 11
297.273
 21
1.32843
 31
0.0
  0
LINE
  8
0
 62
     1
 10
297.273
 20
1.32843
 30
0.0
 11
297.127
 21
1.14377
 31
0.0
  0
LINE
  8
0
 62
     1
 10
297.127
 20
1.14377
 30
0.0
 11
296.967
 21
0.970139
 31
0.0
  0
LINE
  8
0
 62
     1
 10
296.967
 20
0.970139
 30
0.0
 11
296.794
 21
0.810288
 31
0.0
  0
LINE
  8
0
 62
     1
 10
296.794
 20
0.810288
 30
0.0
 11
296.609
 21
0.664214
 31
0.0
  0
LINE
  8
0
 62
     1
 10
296.609
 20
0.664214
 30
0.0
 11
296.413
 21
0.534681
 31
0.0
  0
LINE
  8
0
 62
     1
 10
296.413
 20
0.534681
 30
0.0
 11
296.207
 21
0.418924
 31
0.0
  0
LINE
  8
0
 62
     1
 10
296.207
 20
0.418924
 30
0.0
 11
295.994
 21
0.321083
 31
0.0
  0
LINE
  8
0
 62
     1
 10
295.994
 20
0.321083
 30
0.0
 11
295.772
 21
0.238401
 31
0.0
  0
LINE
  8
0
 62
     1
 10
295.772
 20
0.238401
 30
0.0
 11
295.545
 21
0.175011
 31
0.0
  0
LINE
  8
0
 62
     1
 10
295.545
 20
0.175011
 30
0.0
 11
295.315
 21
0.128157
 31
0.0
  0
LINE
  8
0
 62
     1
 10
295.315
 20
0.128157
 30
0.0
 11
295.081
 21
0.101975
 31
0.0
  0
LINE
  8
0
 62
     1
 10
295.081
 20
0.101975
 30
0.0
 11
294.846
 21
0.0909507
 31
0.0
  0
LINE
  8
0
 62
     1
 10
294.846
 20
0.0909507
 30
0.0
 11
3.09507
 21
0.0923286
 31
0.0
  0
LINE
  8
0
 62
     1
 10
3.09507
 20
0.0923286
 30
0.0
 11
2.85943
 21
0.101975
 31
0.0
  0
LINE
  8
0
 62
     1
 10
2.85943
 20
0.101975
 30
0.0
 11
2.62516
 21
0.128157
 31
0.0
  0
LINE
  8
0
 62
     1
 10
2.62516
 20
0.128157
 30
0.0
 11
2.39365
 21
0.175011
 31
0.0
  0
LINE
  8
0
 62
     1
 10
2.39365
 20
0.175011
 30
0.0
 11
2.16628
 21
0.238401
 31
0.0
  0
LINE
  8
0
 62
     1
 10
2.16628
 20
0.238401
 30
0.0
 11
1.94579
 21
0.321083
 31
0.0
  0
LINE
  8
0
 62
     1
 10
1.94579
 20
0.321083
 30
0.0
 11
1.7322
 21
0.418924
 31
0.0
  0
LINE
  8
0
 62
     1
 10
1.7322
 20
0.418924
 30
0.0
 11
1.52687
 21
0.534681
 31
0.0
  0
LINE
  8
0
 62
     1
 10
1.52687
 20
0.534681
 30
0.0
 11
1.33119
 21
0.664214
 31
0.0
  0
LINE
  8
0
 62
     1
 10
1.33119
 20
0.664214
 30
0.0
 11
1.14515
 21
0.810288
 31
0.0
  0
LINE
  8
0
 62
     1
 10
1.14515
 20
0.810288
 30
0.0
 11
0.972894
 21
0.970139
 31
0.0
  0
LINE
  8
0
 62
     1
 10
0.972894
 20
0.970139
 30
0.0
 11
0.813043
 21
1.14377
 31
0.0
  0
LINE
  8
0
 62
     1
 10
0.813043
 20
1.14377
 30
0.0
 11
0.666972
 21
1.32843
 31
0.0
  0
LINE
  8
0
 62
     1
 10
0.666972
 20
1.32843
 30
0.0
 11
0.537436
 21
1.52411
 31
0.0
  0
LINE
  8
0
 62
     1
 10
0.537436
 20
1.52411
 30
0.0
 11
0.420303
 21
1.73082
 31
0.0
  0
LINE
  8
0
 62
     1
 10
0.420303
 20
1.73082
 30
0.0
 11
0.322461
 21
1.94303
 31
0.0
  0
LINE
  8
0
 62
     1
 10
0.322461
 20
1.94303
 30
0.0
 11
0.241157
 21
2.1649
 31
0.0
  0
LINE
  8
0
 62
     1
 10
0.241157
 20
2.1649
 30
0.0
 11
0.176389
 21
2.39227
 31
0.0
  0
LINE
  8
0
 62
     1
 10
0.176389
 20
2.39227
 30
0.0
 11
0.130914
 21
2.62241
 31
0.0
  0
LINE
  8
0
 62
     1
 10
0.130914
 20
2.62241
 30
0.0
 11
0.103353
 21
2.85667
 31
0.0
  0
LINE
  8
0
 62
     1
 10
0.103353
 20
2.85667
 30
0.0
 11
0.0937066
 21
3.09232
 31
0.0
  0
LINE
  8
0
 62
     1
 10
0.0937066
 20
3.09232
 30
0.0
 11
0.0950846
 21
104.342
 31
0.0
  0
LINE
  8
0
 62
     1
 10
0.0950846
 20
104.342
 30
0.0
 11
0.103353
 21
104.578
 31
0.0
  0
LINE
  8
0
 62
     1
 10
0.103353
 20
104.578
 30
0.0
 11
0.130914
 21
104.812
 31
0.0
  0
LINE
  8
0
 62
     1
 10
0.130914
 20
104.812
 30
0.0
 11
0.176389
 21
105.044
 31
0.0
  0
LINE
  8
0
 62
     1
 10
0.176389
 20
105.044
 30
0.0
 11
0.241157
 21
105.271
 31
0.0
  0
LINE
  8
0
 62
     1
 10
0.241157
 20
105.271
 30
0.0
 11
0.322461
 21
105.491
 31
0.0
  0
LINE
  8
0
 62
     1
 10
0.322461
 20
105.491
 30
0.0
 11
0.420303
 21
105.705
 31
0.0
  0
LINE
  8
0
 62
     1
 10
0.420303
 20
105.705
 30
0.0
 11
0.537436
 21
105.911
 31
0.0
  0
LINE
  8
0
 62
     1
 10
0.537436
 20
105.911
 30
0.0
 11
0.666972
 21
106.106
 31
0.0
  0
LINE
  8
0
 62
     1
 10
0.666972
 20
106.106
 30
0.0
 11
0.813043
 21
106.292
 31
0.0
  0
LINE
  8
0
 62
     1
 10
0.813043
 20
106.292
 30
0.0
 11
0.972894
 21
106.464
 31
0.0
  0
LINE
  8
0
 62
     1
 10
0.972894
 20
106.464
 30
0.0
 11
1.14515
 21
106.624
 31
0.0
  0
LINE
  8
0
 62
     1
 10
1.14515
 20
106.624
 30
0.0
 11
1.33119
 21
106.77
 31
0.0
  0
LINE
  8
0
 62
     1
 10
1.33119
 20
106.77
 30
0.0
 11
1.52687
 21
106.9
 31
0.0
  0
LINE
  8
0
 62
     1
 10
1.52687
 20
106.9
 30
0.0
 11
1.7322
 21
107.017
 31
0.0
  0
LINE
  8
0
 62
     1
 10
1.7322
 20
107.017
 30
0.0
 11
1.94579
 21
107.115
 31
0.0
  0
LINE
  8
0
 62
     1
 10
1.94579
 20
107.115
 30
0.0
 11
2.16628
 21
107.196
 31
0.0
  0
LINE
  8
0
 62
     1
 10
2.16628
 20
107.196
 30
0.0
 11
2.39365
 21
107.261
 31
0.0
  0
LINE
  8
0
 62
     1
 10
2.39365
 20
107.261
 30
0.0
 11
2.62516
 21
107.307
 31
0.0
  0
LINE
  8
0
 62
     1
 10
2.62516
 20
107.307
 30
0.0
 11
2.85943
 21
107.334
 31
0.0
  0
LINE
  8
0
 62
     1
 10
2.85943
 20
107.334
 30
0.0
 11
3.09507
 21
107.344
 31
0.0
  0
LINE
  8
0
 62
     1
 10
3.09507
 20
107.344
 30
0.0
 11
294.846
 21
107.342
 31
0.0
  0
LINE
  8
0
 62
     1
 10
294.459
 20
4.28018
 30
0.0
 11
294.11
 21
4.10379
 31
0.0
  0
LINE
  8
0
 62
     1
 10
294.11
 20
4.10379
 30
0.0
 11
293.834
 21
3.82683
 31
0.0
  0
LINE
  8
0
 62
     1
 10
293.834
 20
3.82683
 30
0.0
 11
293.657
 21
3.47817
 31
0.0
  0
LINE
  8
0
 62
     1
 10
293.657
 20
3.47817
 30
0.0
 11
293.595
 21
3.09094
 31
0.0
  0
LINE
  8
0
 62
     1
 10
293.595
 20
3.09094
 30
0.0
 11
293.657
 21
2.70509
 31
0.0
  0
LINE
  8
0
 62
     1
 10
293.657
 20
2.70509
 30
0.0
 11
293.834
 21
2.35782
 31
0.0
  0
LINE
  8
0
 62
     1
 10
293.834
 20
2.35782
 30
0.0
 11
294.11
 21
2.08084
 31
0.0
  0
LINE
  8
0
 62
     1
 10
294.11
 20
2.08084
 30
0.0
 11
294.459
 21
1.90307
 31
0.0
  0
LINE
  8
0
 62
     1
 10
294.459
 20
1.90307
 30
0.0
 11
294.846
 21
1.84106
 31
0.0
  0
LINE
  8
0
 62
     1
 10
294.846
 20
1.84106
 30
0.0
 11
295.232
 21
1.90307
 31
0.0
  0
LINE
  8
0
 62
     1
 10
295.232
 20
1.90307
 30
0.0
 11
295.579
 21
2.08084
 31
0.0
  0
LINE
  8
0
 62
     1
 10
295.579
 20
2.08084
 30
0.0
 11
295.856
 21
2.35782
 31
0.0
  0
LINE
  8
0
 62
     1
 10
295.856
 20
2.35782
 30
0.0
 11
296.034
 21
2.70509
 31
0.0
  0
LINE
  8
0
 62
     1
 10
296.034
 20
2.70509
 30
0.0
 11
296.096
 21
3.09094
 31
0.0
  0
LINE
  8
0
 62
     1
 10
296.096
 20
3.09094
 30
0.0
 11
296.034
 21
3.47817
 31
0.0
  0
LINE
  8
0
 62
     1
 10
296.034
 20
3.47817
 30
0.0
 11
295.856
 21
3.82683
 31
0.0
  0
LINE
  8
0
 62
     1
 10
295.856
 20
3.82683
 30
0.0
 11
295.579
 21
4.10379
 31
0.0
  0
LINE
  8
0
 62
     1
 10
295.579
 20
4.10379
 30
0.0
 11
295.232
 21
4.28018
 31
0.0
  0
LINE
  8
0
 62
     1
 10
295.232
 20
4.28018
 30
0.0
 11
294.846
 21
4.3422
 31
0.0
  0
LINE
  8
0
 62
     1
 10
294.846
 20
4.3422
 30
0.0
 11
294.459
 21
4.28018
 31
0.0
  0
LINE
  8
0
 62
     1
 10
221.521
 20
4.28018
 30
0.0
 11
221.172
 21
4.10379
 31
0.0
  0
LINE
  8
0
 62
     1
 10
221.172
 20
4.10379
 30
0.0
 11
220.895
 21
3.82683
 31
0.0
  0
LINE
  8
0
 62
     1
 10
220.895
 20
3.82683
 30
0.0
 11
220.719
 21
3.47817
 31
0.0
  0
LINE
  8
0
 62
     1
 10
220.719
 20
3.47817
 30
0.0
 11
220.658
 21
3.09094
 31
0.0
  0
LINE
  8
0
 62
     1
 10
220.658
 20
3.09094
 30
0.0
 11
220.719
 21
2.70509
 31
0.0
  0
LINE
  8
0
 62
     1
 10
220.719
 20
2.70509
 30
0.0
 11
220.895
 21
2.35782
 31
0.0
  0
LINE
  8
0
 62
     1
 10
220.895
 20
2.35782
 30
0.0
 11
221.172
 21
2.08084
 31
0.0
  0
LINE
  8
0
 62
     1
 10
221.172
 20
2.08084
 30
0.0
 11
221.521
 21
1.90307
 31
0.0
  0
LINE
  8
0
 62
     1
 10
221.521
 20
1.90307
 30
0.0
 11
221.908
 21
1.84106
 31
0.0
  0
LINE
  8
0
 62
     1
 10
221.908
 20
1.84106
 30
0.0
 11
222.294
 21
1.90307
 31
0.0
  0
LINE
  8
0
 62
     1
 10
222.294
 20
1.90307
 30
0.0
 11
222.641
 21
2.08084
 31
0.0
  0
LINE
  8
0
 62
     1
 10
222.641
 20
2.08084
 30
0.0
 11
222.919
 21
2.35782
 31
0.0
  0
LINE
  8
0
 62
     1
 10
222.919
 20
2.35782
 30
0.0
 11
223.096
 21
2.70509
 31
0.0
  0
LINE
  8
0
 62
     1
 10
223.096
 20
2.70509
 30
0.0
 11
223.158
 21
3.09094
 31
0.0
  0
LINE
  8
0
 62
     1
 10
223.158
 20
3.09094
 30
0.0
 11
223.096
 21
3.47817
 31
0.0
  0
LINE
  8
0
 62
     1
 10
223.096
 20
3.47817
 30
0.0
 11
222.919
 21
3.82683
 31
0.0
  0
LINE
  8
0
 62
     1
 10
222.919
 20
3.82683
 30
0.0
 11
222.641
 21
4.10379
 31
0.0
  0
LINE
  8
0
 62
     1
 10
222.641
 20
4.10379
 30
0.0
 11
222.294
 21
4.28018
 31
0.0
  0
LINE
  8
0
 62
     1
 10
222.294
 20
4.28018
 30
0.0
 11
221.908
 21
4.3422
 31
0.0
  0
LINE
  8
0
 62
     1
 10
221.908
 20
4.3422
 30
0.0
 11
221.521
 21
4.28018
 31
0.0
  0
LINE
  8
0
 62
     1
 10
148.584
 20
4.28018
 30
0.0
 11
148.234
 21
4.10379
 31
0.0
  0
LINE
  8
0
 62
     1
 10
148.234
 20
4.10379
 30
0.0
 11
147.959
 21
3.82683
 31
0.0
  0
LINE
  8
0
 62
     1
 10
147.959
 20
3.82683
 30
0.0
 11
147.781
 21
3.47817
 31
0.0
  0
LINE
  8
0
 62
     1
 10
147.781
 20
3.47817
 30
0.0
 11
147.72
 21
3.09094
 31
0.0
  0
LINE
  8
0
 62
     1
 10
147.72
 20
3.09094
 30
0.0
 11
147.781
 21
2.70509
 31
0.0
  0
LINE
  8
0
 62
     1
 10
147.781
 20
2.70509
 30
0.0
 11
147.959
 21
2.35782
 31
0.0
  0
LINE
  8
0
 62
     1
 10
147.959
 20
2.35782
 30
0.0
 11
148.234
 21
2.08084
 31
0.0
  0
LINE
  8
0
 62
     1
 10
148.234
 20
2.08084
 30
0.0
 11
148.584
 21
1.90307
 31
0.0
  0
LINE
  8
0
 62
     1
 10
148.584
 20
1.90307
 30
0.0
 11
148.97
 21
1.84106
 31
0.0
  0
LINE
  8
0
 62
     1
 10
148.97
 20
1.84106
 30
0.0
 11
149.356
 21
1.90307
 31
0.0
  0
LINE
  8
0
 62
     1
 10
149.356
 20
1.90307
 30
0.0
 11
149.704
 21
2.08084
 31
0.0
  0
LINE
  8
0
 62
     1
 10
149.704
 20
2.08084
 30
0.0
 11
149.98
 21
2.35782
 31
0.0
  0
LINE
  8
0
 62
     1
 10
149.98
 20
2.35782
 30
0.0
 11
150.159
 21
2.70509
 31
0.0
  0
LINE
  8
0
 62
     1
 10
150.159
 20
2.70509
 30
0.0
 11
150.22
 21
3.09094
 31
0.0
  0
LINE
  8
0
 62
     1
 10
150.22
 20
3.09094
 30
0.0
 11
150.159
 21
3.47817
 31
0.0
  0
LINE
  8
0
 62
     1
 10
150.159
 20
3.47817
 30
0.0
 11
149.98
 21
3.82683
 31
0.0
  0
LINE
  8
0
 62
     1
 10
149.98
 20
3.82683
 30
0.0
 11
149.704
 21
4.10379
 31
0.0
  0
LINE
  8
0
 62
     1
 10
149.704
 20
4.10379
 30
0.0
 11
149.356
 21
4.28018
 31
0.0
  0
LINE
  8
0
 62
     1
 10
149.356
 20
4.28018
 30
0.0
 11
148.97
 21
4.3422
 31
0.0
  0
LINE
  8
0
 62
     1
 10
148.97
 20
4.3422
 30
0.0
 11
148.584
 21
4.28018
 31
0.0
  0
LINE
  8
0
 62
     1
 10
75.6461
 20
4.28018
 30
0.0
 11
75.2972
 21
4.10379
 31
0.0
  0
LINE
  8
0
 62
     1
 10
75.2972
 20
4.10379
 30
0.0
 11
75.0203
 21
3.82683
 31
0.0
  0
LINE
  8
0
 62
     1
 10
75.0203
 20
3.82683
 30
0.0
 11
74.8425
 21
3.47817
 31
0.0
  0
LINE
  8
0
 62
     1
 10
74.8425
 20
3.47817
 30
0.0
 11
74.7818
 21
3.09094
 31
0.0
  0
LINE
  8
0
 62
     1
 10
74.7818
 20
3.09094
 30
0.0
 11
74.8425
 21
2.70509
 31
0.0
  0
LINE
  8
0
 62
     1
 10
74.8425
 20
2.70509
 30
0.0
 11
75.0203
 21
2.35782
 31
0.0
  0
LINE
  8
0
 62
     1
 10
75.0203
 20
2.35782
 30
0.0
 11
75.2972
 21
2.08084
 31
0.0
  0
LINE
  8
0
 62
     1
 10
75.2972
 20
2.08084
 30
0.0
 11
75.6461
 21
1.90307
 31
0.0
  0
LINE
  8
0
 62
     1
 10
75.6461
 20
1.90307
 30
0.0
 11
76.0317
 21
1.84106
 31
0.0
  0
LINE
  8
0
 62
     1
 10
76.0317
 20
1.84106
 30
0.0
 11
76.4191
 21
1.90307
 31
0.0
  0
LINE
  8
0
 62
     1
 10
76.4191
 20
1.90307
 30
0.0
 11
76.7662
 21
2.08084
 31
0.0
  0
LINE
  8
0
 62
     1
 10
76.7662
 20
2.08084
 30
0.0
 11
77.0435
 21
2.35782
 31
0.0
  0
LINE
  8
0
 62
     1
 10
77.0435
 20
2.35782
 30
0.0
 11
77.2213
 21
2.70509
 31
0.0
  0
LINE
  8
0
 62
     1
 10
77.2213
 20
2.70509
 30
0.0
 11
77.2816
 21
3.09094
 31
0.0
  0
LINE
  8
0
 62
     1
 10
77.2816
 20
3.09094
 30
0.0
 11
77.2213
 21
3.47817
 31
0.0
  0
LINE
  8
0
 62
     1
 10
77.2213
 20
3.47817
 30
0.0
 11
77.0435
 21
3.82683
 31
0.0
  0
LINE
  8
0
 62
     1
 10
77.0435
 20
3.82683
 30
0.0
 11
76.7662
 21
4.10379
 31
0.0
  0
LINE
  8
0
 62
     1
 10
76.7662
 20
4.10379
 30
0.0
 11
76.4191
 21
4.28018
 31
0.0
  0
LINE
  8
0
 62
     1
 10
76.4191
 20
4.28018
 30
0.0
 11
76.0317
 21
4.3422
 31
0.0
  0
LINE
  8
0
 62
     1
 10
76.0317
 20
4.3422
 30
0.0
 11
75.6461
 21
4.28018
 31
0.0
  0
LINE
  8
0
 62
     1
 10
2.70784
 20
4.28018
 30
0.0
 11
2.3592
 21
4.10379
 31
0.0
  0
LINE
  8
0
 62
     1
 10
2.3592
 20
4.10379
 30
0.0
 11
2.08221
 21
3.82683
 31
0.0
  0
LINE
  8
0
 62
     1
 10
2.08221
 20
3.82683
 30
0.0
 11
1.90583
 21
3.47817
 31
0.0
  0
LINE
  8
0
 62
     1
 10
1.90583
 20
3.47817
 30
0.0
 11
1.84381
 21
3.09094
 31
0.0
  0
LINE
  8
0
 62
     1
 10
1.84381
 20
3.09094
 30
0.0
 11
1.90583
 21
2.70509
 31
0.0
  0
LINE
  8
0
 62
     1
 10
1.90583
 20
2.70509
 30
0.0
 11
2.08221
 21
2.35782
 31
0.0
  0
LINE
  8
0
 62
     1
 10
2.08221
 20
2.35782
 30
0.0
 11
2.3592
 21
2.08084
 31
0.0
  0
LINE
  8
0
 62
     1
 10
2.3592
 20
2.08084
 30
0.0
 11
2.70784
 21
1.90307
 31
0.0
  0
LINE
  8
0
 62
     1
 10
2.70784
 20
1.90307
 30
0.0
 11
3.09507
 21
1.84106
 31
0.0
  0
LINE
  8
0
 62
     1
 10
3.09507
 20
1.84106
 30
0.0
 11
3.48093
 21
1.90307
 31
0.0
  0
LINE
  8
0
 62
     1
 10
3.48093
 20
1.90307
 30
0.0
 11
3.8282
 21
2.08084
 31
0.0
  0
LINE
  8
0
 62
     1
 10
3.8282
 20
2.08084
 30
0.0
 11
4.10517
 21
2.35782
 31
0.0
  0
LINE
  8
0
 62
     1
 10
4.10517
 20
2.35782
 30
0.0
 11
4.28293
 21
2.70509
 31
0.0
  0
LINE
  8
0
 62
     1
 10
4.28293
 20
2.70509
 30
0.0
 11
4.34495
 21
3.09094
 31
0.0
  0
LINE
  8
0
 62
     1
 10
4.34495
 20
3.09094
 30
0.0
 11
4.28293
 21
3.47817
 31
0.0
  0
LINE
  8
0
 62
     1
 10
4.28293
 20
3.47817
 30
0.0
 11
4.10517
 21
3.82683
 31
0.0
  0
LINE
  8
0
 62
     1
 10
4.10517
 20
3.82683
 30
0.0
 11
3.8282
 21
4.10379
 31
0.0
  0
LINE
  8
0
 62
     1
 10
3.8282
 20
4.10379
 30
0.0
 11
3.48093
 21
4.28018
 31
0.0
  0
LINE
  8
0
 62
     1
 10
3.48093
 20
4.28018
 30
0.0
 11
3.09507
 21
4.3422
 31
0.0
  0
LINE
  8
0
 62
     1
 10
3.09507
 20
4.3422
 30
0.0
 11
2.70784
 21
4.28018
 31
0.0
  0
LINE
  8
0
 62
     1
 10
130.064
 20
22.6177
 30
0.0
 11
130.064
 21
17.9173
 31
0.0
  0
LINE
  8
0
 62
     1
 10
130.064
 20
17.9173
 30
0.0
 11
90.4378
 21
17.9173
 31
0.0
  0
LINE
  8
0
 62
     1
 10
90.4378
 20
17.9173
 30
0.0
 11
90.4378
 21
21.1474
 31
0.0
  0
LINE
  8
0
 62
     1
 10
90.4378
 20
21.1474
 30
0.0
 11
83.6884
 21
21.1474
 31
0.0
  0
LINE
  8
0
 62
     1
 10
83.6884
 20
21.1474
 30
0.0
 11
83.6884
 21
17.9173
 31
0.0
  0
LINE
  8
0
 62
     1
 10
83.6884
 20
17.9173
 30
0.0
 11
82.8629
 21
17.9173
 31
0.0
  0
LINE
  8
0
 62
     1
 10
82.8629
 20
17.9173
 30
0.0
 11
82.8629
 21
15.1171
 31
0.0
  0
LINE
  8
0
 62
     1
 10
82.8629
 20
15.1171
 30
0.0
 11
83.6884
 21
15.1171
 31
0.0
  0
LINE
  8
0
 62
     1
 10
83.6884
 20
15.1171
 30
0.0
 11
83.6884
 21
8.84837
 31
0.0
  0
LINE
  8
0
 62
     1
 10
83.6884
 20
8.84837
 30
0.0
 11
85.4121
 21
8.84837
 31
0.0
  0
LINE
  8
0
 62
     1
 10
85.4121
 20
8.84837
 30
0.0
 11
85.4121
 21
7.64812
 31
0.0
  0
LINE
  8
0
 62
     1
 10
85.4121
 20
7.64812
 30
0.0
 11
88.7127
 21
7.64812
 31
0.0
  0
LINE
  8
0
 62
     1
 10
88.7127
 20
7.64812
 30
0.0
 11
88.7127
 21
8.84837
 31
0.0
  0
LINE
  8
0
 62
     1
 10
88.7127
 20
8.84837
 30
0.0
 11
90.4378
 21
8.84837
 31
0.0
  0
LINE
  8
0
 62
     1
 10
90.4378
 20
8.84837
 30
0.0
 11
90.4378
 21
13.3187
 31
0.0
  0
LINE
  8
0
 62
     1
 10
90.4378
 20
13.3187
 30
0.0
 11
130.064
 21
13.3187
 31
0.0
  0
LINE
  8
0
 62
     1
 10
130.064
 20
13.3187
 30
0.0
 11
130.064
 21
8.61826
 31
0.0
  0
LINE
  8
0
 62
     1
 10
130.064
 20
8.61826
 30
0.0
 11
144.063
 21
8.61826
 31
0.0
  0
LINE
  8
0
 62
     1
 10
144.063
 20
8.61826
 30
0.0
 11
144.063
 21
13.3187
 31
0.0
  0
LINE
  8
0
 62
     1
 10
144.063
 20
13.3187
 30
0.0
 11
183.688
 21
13.3187
 31
0.0
  0
LINE
  8
0
 62
     1
 10
183.688
 20
13.3187
 30
0.0
 11
183.688
 21
8.84837
 31
0.0
  0
LINE
  8
0
 62
     1
 10
183.688
 20
8.84837
 30
0.0
 11
185.412
 21
8.84837
 31
0.0
  0
LINE
  8
0
 62
     1
 10
185.412
 20
8.84837
 30
0.0
 11
185.412
 21
7.64812
 31
0.0
  0
LINE
  8
0
 62
     1
 10
185.412
 20
7.64812
 30
0.0
 11
188.713
 21
7.64812
 31
0.0
  0
LINE
  8
0
 62
     1
 10
188.713
 20
7.64812
 30
0.0
 11
188.713
 21
8.84837
 31
0.0
  0
LINE
  8
0
 62
     1
 10
188.713
 20
8.84837
 30
0.0
 11
190.438
 21
8.84837
 31
0.0
  0
LINE
  8
0
 62
     1
 10
190.438
 20
8.84837
 30
0.0
 11
190.438
 21
15.1171
 31
0.0
  0
LINE
  8
0
 62
     1
 10
190.438
 20
15.1171
 30
0.0
 11
191.263
 21
15.1171
 31
0.0
  0
LINE
  8
0
 62
     1
 10
191.263
 20
15.1171
 30
0.0
 11
191.263
 21
17.9173
 31
0.0
  0
LINE
  8
0
 62
     1
 10
191.263
 20
17.9173
 30
0.0
 11
190.438
 21
17.9173
 31
0.0
  0
LINE
  8
0
 62
     1
 10
190.438
 20
17.9173
 30
0.0
 11
190.438
 21
21.1474
 31
0.0
  0
LINE
  8
0
 62
     1
 10
190.438
 20
21.1474
 30
0.0
 11
183.688
 21
21.1474
 31
0.0
  0
LINE
  8
0
 62
     1
 10
183.688
 20
21.1474
 30
0.0
 11
183.688
 21
17.9173
 31
0.0
  0
LINE
  8
0
 62
     1
 10
183.688
 20
17.9173
 30
0.0
 11
144.063
 21
17.9173
 31
0.0
  0
LINE
  8
0
 62
     1
 10
144.063
 20
17.9173
 30
0.0
 11
144.063
 21
22.6177
 31
0.0
  0
LINE
  8
0
 62
     1
 10
144.063
 20
22.6177
 30
0.0
 11
130.064
 21
22.6177
 31
0.0
  0
LINE
  8
0
 62
     1
 10
11.0009
 20
22.6177
 30
0.0
 11
25.0004
 21
22.6177
 31
0.0
  0
LINE
  8
0
 62
     1
 10
25.0004
 20
22.6177
 30
0.0
 11
25.0004
 21
8.61826
 31
0.0
  0
LINE
  8
0
 62
     1
 10
25.0004
 20
8.61826
 30
0.0
 11
11.0009
 21
8.61826
 31
0.0
  0
LINE
  8
0
 62
     1
 10
11.0009
 20
8.61826
 30
0.0
 11
11.0009
 21
22.6177
 31
0.0
  0
LINE
  8
0
 62
     1
 10
34.8134
 20
22.6177
 30
0.0
 11
48.8128
 21
22.6177
 31
0.0
  0
LINE
  8
0
 62
     1
 10
48.8128
 20
22.6177
 30
0.0
 11
48.8128
 21
8.61826
 31
0.0
  0
LINE
  8
0
 62
     1
 10
48.8128
 20
8.61826
 30
0.0
 11
34.8134
 21
8.61826
 31
0.0
  0
LINE
  8
0
 62
     1
 10
34.8134
 20
8.61826
 30
0.0
 11
34.8134
 21
22.6177
 31
0.0
  0
LINE
  8
0
 62
     1
 10
58.626
 20
22.6177
 30
0.0
 11
72.6253
 21
22.6177
 31
0.0
  0
LINE
  8
0
 62
     1
 10
72.6253
 20
22.6177
 30
0.0
 11
72.6253
 21
8.61826
 31
0.0
  0
LINE
  8
0
 62
     1
 10
72.6253
 20
8.61826
 30
0.0
 11
58.626
 21
8.61826
 31
0.0
  0
LINE
  8
0
 62
     1
 10
58.626
 20
8.61826
 30
0.0
 11
58.626
 21
22.6177
 31
0.0
  0
LINE
  8
0
 62
     1
 10
201.501
 20
22.6177
 30
0.0
 11
215.5
 21
22.6177
 31
0.0
  0
LINE
  8
0
 62
     1
 10
215.5
 20
22.6177
 30
0.0
 11
215.5
 21
8.61826
 31
0.0
  0
LINE
  8
0
 62
     1
 10
215.5
 20
8.61826
 30
0.0
 11
201.501
 21
8.61826
 31
0.0
  0
LINE
  8
0
 62
     1
 10
201.501
 20
8.61826
 30
0.0
 11
201.501
 21
22.6177
 31
0.0
  0
LINE
  8
0
 62
     1
 10
225.314
 20
22.6177
 30
0.0
 11
239.313
 21
22.6177
 31
0.0
  0
LINE
  8
0
 62
     1
 10
239.313
 20
22.6177
 30
0.0
 11
239.313
 21
8.61826
 31
0.0
  0
LINE
  8
0
 62
     1
 10
239.313
 20
8.61826
 30
0.0
 11
225.314
 21
8.61826
 31
0.0
  0
LINE
  8
0
 62
     1
 10
225.314
 20
8.61826
 30
0.0
 11
225.314
 21
22.6177
 31
0.0
  0
LINE
  8
0
 62
     1
 10
249.126
 20
22.6177
 30
0.0
 11
263.125
 21
22.6177
 31
0.0
  0
LINE
  8
0
 62
     1
 10
263.125
 20
22.6177
 30
0.0
 11
263.125
 21
8.61826
 31
0.0
  0
LINE
  8
0
 62
     1
 10
263.125
 20
8.61826
 30
0.0
 11
249.126
 21
8.61826
 31
0.0
  0
LINE
  8
0
 62
     1
 10
249.126
 20
8.61826
 30
0.0
 11
249.126
 21
22.6177
 31
0.0
  0
LINE
  8
0
 62
     1
 10
272.939
 20
22.6177
 30
0.0
 11
286.938
 21
22.6177
 31
0.0
  0
LINE
  8
0
 62
     1
 10
286.938
 20
22.6177
 30
0.0
 11
286.938
 21
8.61826
 31
0.0
  0
LINE
  8
0
 62
     1
 10
286.938
 20
8.61826
 30
0.0
 11
272.939
 21
8.61826
 31
0.0
  0
LINE
  8
0
 62
     1
 10
272.939
 20
8.61826
 30
0.0
 11
272.939
 21
22.6177
 31
0.0
  0
LINE
  8
0
 62
     1
 10
20.5259
 20
41.6676
 30
0.0
 11
20.5259
 21
36.9672
 31
0.0
  0
LINE
  8
0
 62
     1
 10
20.5259
 20
36.9672
 30
0.0
 11
19.0004
 21
36.9672
 31
0.0
  0
LINE
  8
0
 62
     1
 10
19.0004
 20
36.9672
 30
0.0
 11
19.0004
 21
40.1973
 31
0.0
  0
LINE
  8
0
 62
     1
 10
19.0004
 20
40.1973
 30
0.0
 11
12.2508
 21
40.1973
 31
0.0
  0
LINE
  8
0
 62
     1
 10
12.2508
 20
40.1973
 30
0.0
 11
12.2508
 21
36.9672
 31
0.0
  0
LINE
  8
0
 62
     1
 10
12.2508
 20
36.9672
 30
0.0
 11
11.4253
 21
36.9672
 31
0.0
  0
LINE
  8
0
 62
     1
 10
11.4253
 20
36.9672
 30
0.0
 11
11.4253
 21
34.1671
 31
0.0
  0
LINE
  8
0
 62
     1
 10
11.4253
 20
34.1671
 30
0.0
 11
12.2508
 21
34.1671
 31
0.0
  0
LINE
  8
0
 62
     1
 10
12.2508
 20
34.1671
 30
0.0
 11
12.2508
 21
27.897
 31
0.0
  0
LINE
  8
0
 62
     1
 10
12.2508
 20
27.897
 30
0.0
 11
13.9761
 21
27.897
 31
0.0
  0
LINE
  8
0
 62
     1
 10
13.9761
 20
27.897
 30
0.0
 11
13.9761
 21
26.6981
 31
0.0
  0
LINE
  8
0
 62
     1
 10
13.9761
 20
26.6981
 30
0.0
 11
17.2751
 21
26.6981
 31
0.0
  0
LINE
  8
0
 62
     1
 10
17.2751
 20
26.6981
 30
0.0
 11
17.2751
 21
27.897
 31
0.0
  0
LINE
  8
0
 62
     1
 10
17.2751
 20
27.897
 30
0.0
 11
19.0004
 21
27.897
 31
0.0
  0
LINE
  8
0
 62
     1
 10
19.0004
 20
27.897
 30
0.0
 11
19.0004
 21
32.3674
 31
0.0
  0
LINE
  8
0
 62
     1
 10
19.0004
 20
32.3674
 30
0.0
 11
20.5259
 21
32.3674
 31
0.0
  0
LINE
  8
0
 62
     1
 10
20.5259
 20
32.3674
 30
0.0
 11
20.5259
 21
27.6683
 31
0.0
  0
LINE
  8
0
 62
     1
 10
20.5259
 20
27.6683
 30
0.0
 11
34.5254
 21
27.6683
 31
0.0
  0
LINE
  8
0
 62
     1
 10
34.5254
 20
27.6683
 30
0.0
 11
34.5254
 21
32.3674
 31
0.0
  0
LINE
  8
0
 62
     1
 10
34.5254
 20
32.3674
 30
0.0
 11
36.0507
 21
32.3674
 31
0.0
  0
LINE
  8
0
 62
     1
 10
36.0507
 20
32.3674
 30
0.0
 11
36.0507
 21
27.897
 31
0.0
  0
LINE
  8
0
 62
     1
 10
36.0507
 20
27.897
 30
0.0
 11
37.7762
 21
27.897
 31
0.0
  0
LINE
  8
0
 62
     1
 10
37.7762
 20
27.897
 30
0.0
 11
37.7762
 21
26.6981
 31
0.0
  0
LINE
  8
0
 62
     1
 10
37.7762
 20
26.6981
 30
0.0
 11
41.0753
 21
26.6981
 31
0.0
  0
LINE
  8
0
 62
     1
 10
41.0753
 20
26.6981
 30
0.0
 11
41.0753
 21
27.897
 31
0.0
  0
LINE
  8
0
 62
     1
 10
41.0753
 20
27.897
 30
0.0
 11
42.8004
 21
27.897
 31
0.0
  0
LINE
  8
0
 62
     1
 10
42.8004
 20
27.897
 30
0.0
 11
42.8004
 21
34.1671
 31
0.0
  0
LINE
  8
0
 62
     1
 10
42.8004
 20
34.1671
 30
0.0
 11
43.6259
 21
34.1671
 31
0.0
  0
LINE
  8
0
 62
     1
 10
43.6259
 20
34.1671
 30
0.0
 11
43.6259
 21
36.9672
 31
0.0
  0
LINE
  8
0
 62
     1
 10
43.6259
 20
36.9672
 30
0.0
 11
42.8004
 21
36.9672
 31
0.0
  0
LINE
  8
0
 62
     1
 10
42.8004
 20
36.9672
 30
0.0
 11
42.8004
 21
40.1973
 31
0.0
  0
LINE
  8
0
 62
     1
 10
42.8004
 20
40.1973
 30
0.0
 11
36.0507
 21
40.1973
 31
0.0
  0
LINE
  8
0
 62
     1
 10
36.0507
 20
40.1973
 30
0.0
 11
36.0507
 21
36.9672
 31
0.0
  0
LINE
  8
0
 62
     1
 10
36.0507
 20
36.9672
 30
0.0
 11
34.5254
 21
36.9672
 31
0.0
  0
LINE
  8
0
 62
     1
 10
34.5254
 20
36.9672
 30
0.0
 11
34.5254
 21
41.6676
 31
0.0
  0
LINE
  8
0
 62
     1
 10
34.5254
 20
41.6676
 30
0.0
 11
20.5259
 21
41.6676
 31
0.0
  0
LINE
  8
0
 62
     1
 10
258.651
 20
41.6676
 30
0.0
 11
258.651
 21
36.9672
 31
0.0
  0
LINE
  8
0
 62
     1
 10
258.651
 20
36.9672
 30
0.0
 11
257.125
 21
36.9672
 31
0.0
  0
LINE
  8
0
 62
     1
 10
257.125
 20
36.9672
 30
0.0
 11
257.125
 21
40.1973
 31
0.0
  0
LINE
  8
0
 62
     1
 10
257.125
 20
40.1973
 30
0.0
 11
250.376
 21
40.1973
 31
0.0
  0
LINE
  8
0
 62
     1
 10
250.376
 20
40.1973
 30
0.0
 11
250.376
 21
36.9672
 31
0.0
  0
LINE
  8
0
 62
     1
 10
250.376
 20
36.9672
 30
0.0
 11
249.55
 21
36.9672
 31
0.0
  0
LINE
  8
0
 62
     1
 10
249.55
 20
36.9672
 30
0.0
 11
249.55
 21
34.1671
 31
0.0
  0
LINE
  8
0
 62
     1
 10
249.55
 20
34.1671
 30
0.0
 11
250.376
 21
34.1671
 31
0.0
  0
LINE
  8
0
 62
     1
 10
250.376
 20
34.1671
 30
0.0
 11
250.376
 21
27.897
 31
0.0
  0
LINE
  8
0
 62
     1
 10
250.376
 20
27.897
 30
0.0
 11
252.1
 21
27.897
 31
0.0
  0
LINE
  8
0
 62
     1
 10
252.1
 20
27.897
 30
0.0
 11
252.1
 21
26.6981
 31
0.0
  0
LINE
  8
0
 62
     1
 10
252.1
 20
26.6981
 30
0.0
 11
255.4
 21
26.6981
 31
0.0
  0
LINE
  8
0
 62
     1
 10
255.4
 20
26.6981
 30
0.0
 11
255.4
 21
27.897
 31
0.0
  0
LINE
  8
0
 62
     1
 10
255.4
 20
27.897
 30
0.0
 11
257.125
 21
27.897
 31
0.0
  0
LINE
  8
0
 62
     1
 10
257.125
 20
27.897
 30
0.0
 11
257.125
 21
32.3674
 31
0.0
  0
LINE
  8
0
 62
     1
 10
257.125
 20
32.3674
 30
0.0
 11
258.651
 21
32.3674
 31
0.0
  0
LINE
  8
0
 62
     1
 10
258.651
 20
32.3674
 30
0.0
 11
258.651
 21
27.6683
 31
0.0
  0
LINE
  8
0
 62
     1
 10
258.651
 20
27.6683
 30
0.0
 11
272.65
 21
27.6683
 31
0.0
  0
LINE
  8
0
 62
     1
 10
272.65
 20
27.6683
 30
0.0
 11
272.65
 21
32.3674
 31
0.0
  0
LINE
  8
0
 62
     1
 10
272.65
 20
32.3674
 30
0.0
 11
274.176
 21
32.3674
 31
0.0
  0
LINE
  8
0
 62
     1
 10
274.176
 20
32.3674
 30
0.0
 11
274.176
 21
27.897
 31
0.0
  0
LINE
  8
0
 62
     1
 10
274.176
 20
27.897
 30
0.0
 11
275.901
 21
27.897
 31
0.0
  0
LINE
  8
0
 62
     1
 10
275.901
 20
27.897
 30
0.0
 11
275.901
 21
26.6981
 31
0.0
  0
LINE
  8
0
 62
     1
 10
275.901
 20
26.6981
 30
0.0
 11
279.2
 21
26.6981
 31
0.0
  0
LINE
  8
0
 62
     1
 10
279.2
 20
26.6981
 30
0.0
 11
279.2
 21
27.897
 31
0.0
  0
LINE
  8
0
 62
     1
 10
279.2
 20
27.897
 30
0.0
 11
280.925
 21
27.897
 31
0.0
  0
LINE
  8
0
 62
     1
 10
280.925
 20
27.897
 30
0.0
 11
280.925
 21
34.1671
 31
0.0
  0
LINE
  8
0
 62
     1
 10
280.925
 20
34.1671
 30
0.0
 11
281.751
 21
34.1671
 31
0.0
  0
LINE
  8
0
 62
     1
 10
281.751
 20
34.1671
 30
0.0
 11
281.751
 21
36.9672
 31
0.0
  0
LINE
  8
0
 62
     1
 10
281.751
 20
36.9672
 30
0.0
 11
280.925
 21
36.9672
 31
0.0
  0
LINE
  8
0
 62
     1
 10
280.925
 20
36.9672
 30
0.0
 11
280.925
 21
40.1973
 31
0.0
  0
LINE
  8
0
 62
     1
 10
280.925
 20
40.1973
 30
0.0
 11
274.176
 21
40.1973
 31
0.0
  0
LINE
  8
0
 62
     1
 10
274.176
 20
40.1973
 30
0.0
 11
274.176
 21
36.9672
 31
0.0
  0
LINE
  8
0
 62
     1
 10
274.176
 20
36.9672
 30
0.0
 11
272.65
 21
36.9672
 31
0.0
  0
LINE
  8
0
 62
     1
 10
272.65
 20
36.9672
 30
0.0
 11
272.65
 21
41.6676
 31
0.0
  0
LINE
  8
0
 62
     1
 10
272.65
 20
41.6676
 30
0.0
 11
258.651
 21
41.6676
 31
0.0
  0
LINE
  8
0
 62
     1
 10
51.4823
 20
41.6676
 30
0.0
 11
65.4816
 21
41.6676
 31
0.0
  0
LINE
  8
0
 62
     1
 10
65.4816
 20
41.6676
 30
0.0
 11
65.4816
 21
27.6683
 31
0.0
  0
LINE
  8
0
 62
     1
 10
65.4816
 20
27.6683
 30
0.0
 11
51.4823
 21
27.6683
 31
0.0
  0
LINE
  8
0
 62
     1
 10
51.4823
 20
27.6683
 30
0.0
 11
51.4823
 21
41.6676
 31
0.0
  0
LINE
  8
0
 62
     1
 10
70.5323
 20
41.6676
 30
0.0
 11
84.5316
 21
41.6676
 31
0.0
  0
LINE
  8
0
 62
     1
 10
84.5316
 20
41.6676
 30
0.0
 11
84.5316
 21
27.6683
 31
0.0
  0
LINE
  8
0
 62
     1
 10
84.5316
 20
27.6683
 30
0.0
 11
70.5323
 21
27.6683
 31
0.0
  0
LINE
  8
0
 62
     1
 10
70.5323
 20
27.6683
 30
0.0
 11
70.5323
 21
41.6676
 31
0.0
  0
LINE
  8
0
 62
     1
 10
89.5823
 20
41.6676
 30
0.0
 11
103.582
 21
41.6676
 31
0.0
  0
LINE
  8
0
 62
     1
 10
103.582
 20
41.6676
 30
0.0
 11
103.582
 21
27.6683
 31
0.0
  0
LINE
  8
0
 62
     1
 10
103.582
 20
27.6683
 30
0.0
 11
89.5823
 21
27.6683
 31
0.0
  0
LINE
  8
0
 62
     1
 10
89.5823
 20
27.6683
 30
0.0
 11
89.5823
 21
41.6676
 31
0.0
  0
LINE
  8
0
 62
     1
 10
108.632
 20
41.6676
 30
0.0
 11
122.632
 21
41.6676
 31
0.0
  0
LINE
  8
0
 62
     1
 10
122.632
 20
41.6676
 30
0.0
 11
122.632
 21
27.6683
 31
0.0
  0
LINE
  8
0
 62
     1
 10
122.632
 20
27.6683
 30
0.0
 11
108.632
 21
27.6683
 31
0.0
  0
LINE
  8
0
 62
     1
 10
108.632
 20
27.6683
 30
0.0
 11
108.632
 21
41.6676
 31
0.0
  0
LINE
  8
0
 62
     1
 10
127.682
 20
41.6676
 30
0.0
 11
141.682
 21
41.6676
 31
0.0
  0
LINE
  8
0
 62
     1
 10
141.682
 20
41.6676
 30
0.0
 11
141.682
 21
27.6683
 31
0.0
  0
LINE
  8
0
 62
     1
 10
141.682
 20
27.6683
 30
0.0
 11
127.682
 21
27.6683
 31
0.0
  0
LINE
  8
0
 62
     1
 10
127.682
 20
27.6683
 30
0.0
 11
127.682
 21
41.6676
 31
0.0
  0
LINE
  8
0
 62
     1
 10
146.732
 20
41.6676
 30
0.0
 11
160.732
 21
41.6676
 31
0.0
  0
LINE
  8
0
 62
     1
 10
160.732
 20
41.6676
 30
0.0
 11
160.732
 21
27.6683
 31
0.0
  0
LINE
  8
0
 62
     1
 10
160.732
 20
27.6683
 30
0.0
 11
146.732
 21
27.6683
 31
0.0
  0
LINE
  8
0
 62
     1
 10
146.732
 20
27.6683
 30
0.0
 11
146.732
 21
41.6676
 31
0.0
  0
LINE
  8
0
 62
     1
 10
165.782
 20
41.6676
 30
0.0
 11
179.782
 21
41.6676
 31
0.0
  0
LINE
  8
0
 62
     1
 10
179.782
 20
41.6676
 30
0.0
 11
179.782
 21
27.6683
 31
0.0
  0
LINE
  8
0
 62
     1
 10
179.782
 20
27.6683
 30
0.0
 11
165.782
 21
27.6683
 31
0.0
  0
LINE
  8
0
 62
     1
 10
165.782
 20
27.6683
 30
0.0
 11
165.782
 21
41.6676
 31
0.0
  0
LINE
  8
0
 62
     1
 10
184.832
 20
41.6676
 30
0.0
 11
198.832
 21
41.6676
 31
0.0
  0
LINE
  8
0
 62
     1
 10
198.832
 20
41.6676
 30
0.0
 11
198.832
 21
27.6683
 31
0.0
  0
LINE
  8
0
 62
     1
 10
198.832
 20
27.6683
 30
0.0
 11
184.832
 21
27.6683
 31
0.0
  0
LINE
  8
0
 62
     1
 10
184.832
 20
27.6683
 30
0.0
 11
184.832
 21
41.6676
 31
0.0
  0
LINE
  8
0
 62
     1
 10
203.882
 20
41.6676
 30
0.0
 11
217.882
 21
41.6676
 31
0.0
  0
LINE
  8
0
 62
     1
 10
217.882
 20
41.6676
 30
0.0
 11
217.882
 21
27.6683
 31
0.0
  0
LINE
  8
0
 62
     1
 10
217.882
 20
27.6683
 30
0.0
 11
203.882
 21
27.6683
 31
0.0
  0
LINE
  8
0
 62
     1
 10
203.882
 20
27.6683
 30
0.0
 11
203.882
 21
41.6676
 31
0.0
  0
LINE
  8
0
 62
     1
 10
222.932
 20
41.6676
 30
0.0
 11
236.932
 21
41.6676
 31
0.0
  0
LINE
  8
0
 62
     1
 10
236.932
 20
41.6676
 30
0.0
 11
236.932
 21
27.6683
 31
0.0
  0
LINE
  8
0
 62
     1
 10
236.932
 20
27.6683
 30
0.0
 11
222.932
 21
27.6683
 31
0.0
  0
LINE
  8
0
 62
     1
 10
222.932
 20
27.6683
 30
0.0
 11
222.932
 21
41.6676
 31
0.0
  0
LINE
  8
0
 62
     1
 10
263.414
 20
60.7176
 30
0.0
 11
263.414
 21
56.0172
 31
0.0
  0
LINE
  8
0
 62
     1
 10
263.414
 20
56.0172
 30
0.0
 11
261.888
 21
56.0172
 31
0.0
  0
LINE
  8
0
 62
     1
 10
261.888
 20
56.0172
 30
0.0
 11
261.888
 21
59.2473
 31
0.0
  0
LINE
  8
0
 62
     1
 10
261.888
 20
59.2473
 30
0.0
 11
255.138
 21
59.2473
 31
0.0
  0
LINE
  8
0
 62
     1
 10
255.138
 20
59.2473
 30
0.0
 11
255.138
 21
56.0172
 31
0.0
  0
LINE
  8
0
 62
     1
 10
255.138
 20
56.0172
 30
0.0
 11
254.313
 21
56.0172
 31
0.0
  0
LINE
  8
0
 62
     1
 10
254.313
 20
56.0172
 30
0.0
 11
254.313
 21
53.2172
 31
0.0
  0
LINE
  8
0
 62
     1
 10
254.313
 20
53.2172
 30
0.0
 11
255.138
 21
53.2172
 31
0.0
  0
LINE
  8
0
 62
     1
 10
255.138
 20
53.2172
 30
0.0
 11
255.138
 21
46.9484
 31
0.0
  0
LINE
  8
0
 62
     1
 10
255.138
 20
46.9484
 30
0.0
 11
256.862
 21
46.9484
 31
0.0
  0
LINE
  8
0
 62
     1
 10
256.862
 20
46.9484
 30
0.0
 11
256.862
 21
45.7482
 31
0.0
  0
LINE
  8
0
 62
     1
 10
256.862
 20
45.7482
 30
0.0
 11
260.163
 21
45.7482
 31
0.0
  0
LINE
  8
0
 62
     1
 10
260.163
 20
45.7482
 30
0.0
 11
260.163
 21
46.9484
 31
0.0
  0
LINE
  8
0
 62
     1
 10
260.163
 20
46.9484
 30
0.0
 11
261.888
 21
46.9484
 31
0.0
  0
LINE
  8
0
 62
     1
 10
261.888
 20
46.9484
 30
0.0
 11
261.888
 21
51.4174
 31
0.0
  0
LINE
  8
0
 62
     1
 10
261.888
 20
51.4174
 30
0.0
 11
263.414
 21
51.4174
 31
0.0
  0
LINE
  8
0
 62
     1
 10
263.414
 20
51.4174
 30
0.0
 11
263.414
 21
46.7184
 31
0.0
  0
LINE
  8
0
 62
     1
 10
263.414
 20
46.7184
 30
0.0
 11
277.413
 21
46.7184
 31
0.0
  0
LINE
  8
0
 62
     1
 10
277.413
 20
46.7184
 30
0.0
 11
277.413
 21
51.4174
 31
0.0
  0
LINE
  8
0
 62
     1
 10
277.413
 20
51.4174
 30
0.0
 11
278.938
 21
51.4174
 31
0.0
  0
LINE
  8
0
 62
     1
 10
278.938
 20
51.4174
 30
0.0
 11
278.938
 21
46.9484
 31
0.0
  0
LINE
  8
0
 62
     1
 10
278.938
 20
46.9484
 30
0.0
 11
280.662
 21
46.9484
 31
0.0
  0
LINE
  8
0
 62
     1
 10
280.662
 20
46.9484
 30
0.0
 11
280.662
 21
45.7482
 31
0.0
  0
LINE
  8
0
 62
     1
 10
280.662
 20
45.7482
 30
0.0
 11
283.963
 21
45.7482
 31
0.0
  0
LINE
  8
0
 62
     1
 10
283.963
 20
45.7482
 30
0.0
 11
283.963
 21
46.9484
 31
0.0
  0
LINE
  8
0
 62
     1
 10
283.963
 20
46.9484
 30
0.0
 11
285.688
 21
46.9484
 31
0.0
  0
LINE
  8
0
 62
     1
 10
285.688
 20
46.9484
 30
0.0
 11
285.688
 21
53.2172
 31
0.0
  0
LINE
  8
0
 62
     1
 10
285.688
 20
53.2172
 30
0.0
 11
286.513
 21
53.2172
 31
0.0
  0
LINE
  8
0
 62
     1
 10
286.513
 20
53.2172
 30
0.0
 11
286.513
 21
56.0172
 31
0.0
  0
LINE
  8
0
 62
     1
 10
286.513
 20
56.0172
 30
0.0
 11
285.688
 21
56.0172
 31
0.0
  0
LINE
  8
0
 62
     1
 10
285.688
 20
56.0172
 30
0.0
 11
285.688
 21
59.2473
 31
0.0
  0
LINE
  8
0
 62
     1
 10
285.688
 20
59.2473
 30
0.0
 11
278.938
 21
59.2473
 31
0.0
  0
LINE
  8
0
 62
     1
 10
278.938
 20
59.2473
 30
0.0
 11
278.938
 21
56.0172
 31
0.0
  0
LINE
  8
0
 62
     1
 10
278.938
 20
56.0172
 30
0.0
 11
277.413
 21
56.0172
 31
0.0
  0
LINE
  8
0
 62
     1
 10
277.413
 20
56.0172
 30
0.0
 11
277.413
 21
60.7176
 31
0.0
  0
LINE
  8
0
 62
     1
 10
277.413
 20
60.7176
 30
0.0
 11
263.414
 21
60.7176
 31
0.0
  0
LINE
  8
0
 62
     1
 10
15.7634
 20
60.7176
 30
0.0
 11
29.7629
 21
60.7176
 31
0.0
  0
LINE
  8
0
 62
     1
 10
29.7629
 20
60.7176
 30
0.0
 11
29.7629
 21
46.7184
 31
0.0
  0
LINE
  8
0
 62
     1
 10
29.7629
 20
46.7184
 30
0.0
 11
15.7634
 21
46.7184
 31
0.0
  0
LINE
  8
0
 62
     1
 10
15.7634
 20
46.7184
 30
0.0
 11
15.7634
 21
60.7176
 31
0.0
  0
LINE
  8
0
 62
     1
 10
41.9573
 20
60.7176
 30
0.0
 11
55.9566
 21
60.7176
 31
0.0
  0
LINE
  8
0
 62
     1
 10
55.9566
 20
60.7176
 30
0.0
 11
55.9566
 21
46.7184
 31
0.0
  0
LINE
  8
0
 62
     1
 10
55.9566
 20
46.7184
 30
0.0
 11
41.9573
 21
46.7184
 31
0.0
  0
LINE
  8
0
 62
     1
 10
41.9573
 20
46.7184
 30
0.0
 11
41.9573
 21
60.7176
 31
0.0
  0
LINE
  8
0
 62
     1
 10
61.0073
 20
60.7176
 30
0.0
 11
75.0066
 21
60.7176
 31
0.0
  0
LINE
  8
0
 62
     1
 10
75.0066
 20
60.7176
 30
0.0
 11
75.0066
 21
46.7184
 31
0.0
  0
LINE
  8
0
 62
     1
 10
75.0066
 20
46.7184
 30
0.0
 11
61.0073
 21
46.7184
 31
0.0
  0
LINE
  8
0
 62
     1
 10
61.0073
 20
46.7184
 30
0.0
 11
61.0073
 21
60.7176
 31
0.0
  0
LINE
  8
0
 62
     1
 10
80.0573
 20
60.7176
 30
0.0
 11
94.0566
 21
60.7176
 31
0.0
  0
LINE
  8
0
 62
     1
 10
94.0566
 20
60.7176
 30
0.0
 11
94.0566
 21
46.7184
 31
0.0
  0
LINE
  8
0
 62
     1
 10
94.0566
 20
46.7184
 30
0.0
 11
80.0573
 21
46.7184
 31
0.0
  0
LINE
  8
0
 62
     1
 10
80.0573
 20
46.7184
 30
0.0
 11
80.0573
 21
60.7176
 31
0.0
  0
LINE
  8
0
 62
     1
 10
99.1073
 20
60.7176
 30
0.0
 11
113.107
 21
60.7176
 31
0.0
  0
LINE
  8
0
 62
     1
 10
113.107
 20
60.7176
 30
0.0
 11
113.107
 21
46.7184
 31
0.0
  0
LINE
  8
0
 62
     1
 10
113.107
 20
46.7184
 30
0.0
 11
99.1073
 21
46.7184
 31
0.0
  0
LINE
  8
0
 62
     1
 10
99.1073
 20
46.7184
 30
0.0
 11
99.1073
 21
60.7176
 31
0.0
  0
LINE
  8
0
 62
     1
 10
118.157
 20
60.7176
 30
0.0
 11
132.157
 21
60.7176
 31
0.0
  0
LINE
  8
0
 62
     1
 10
132.157
 20
60.7176
 30
0.0
 11
132.157
 21
46.7184
 31
0.0
  0
LINE
  8
0
 62
     1
 10
132.157
 20
46.7184
 30
0.0
 11
118.157
 21
46.7184
 31
0.0
  0
LINE
  8
0
 62
     1
 10
118.157
 20
46.7184
 30
0.0
 11
118.157
 21
60.7176
 31
0.0
  0
LINE
  8
0
 62
     1
 10
137.207
 20
60.7176
 30
0.0
 11
151.207
 21
60.7176
 31
0.0
  0
LINE
  8
0
 62
     1
 10
151.207
 20
60.7176
 30
0.0
 11
151.207
 21
46.7184
 31
0.0
  0
LINE
  8
0
 62
     1
 10
151.207
 20
46.7184
 30
0.0
 11
137.207
 21
46.7184
 31
0.0
  0
LINE
  8
0
 62
     1
 10
137.207
 20
46.7184
 30
0.0
 11
137.207
 21
60.7176
 31
0.0
  0
LINE
  8
0
 62
     1
 10
156.257
 20
60.7176
 30
0.0
 11
170.257
 21
60.7176
 31
0.0
  0
LINE
  8
0
 62
     1
 10
170.257
 20
60.7176
 30
0.0
 11
170.257
 21
46.7184
 31
0.0
  0
LINE
  8
0
 62
     1
 10
170.257
 20
46.7184
 30
0.0
 11
156.257
 21
46.7184
 31
0.0
  0
LINE
  8
0
 62
     1
 10
156.257
 20
46.7184
 30
0.0
 11
156.257
 21
60.7176
 31
0.0
  0
LINE
  8
0
 62
     1
 10
175.307
 20
60.7176
 30
0.0
 11
189.307
 21
60.7176
 31
0.0
  0
LINE
  8
0
 62
     1
 10
189.307
 20
60.7176
 30
0.0
 11
189.307
 21
46.7184
 31
0.0
  0
LINE
  8
0
 62
     1
 10
189.307
 20
46.7184
 30
0.0
 11
175.307
 21
46.7184
 31
0.0
  0
LINE
  8
0
 62
     1
 10
175.307
 20
46.7184
 30
0.0
 11
175.307
 21
60.7176
 31
0.0
  0
LINE
  8
0
 62
     1
 10
194.357
 20
60.7176
 30
0.0
 11
208.357
 21
60.7176
 31
0.0
  0
LINE
  8
0
 62
     1
 10
208.357
 20
60.7176
 30
0.0
 11
208.357
 21
46.7184
 31
0.0
  0
LINE
  8
0
 62
     1
 10
208.357
 20
46.7184
 30
0.0
 11
194.357
 21
46.7184
 31
0.0
  0
LINE
  8
0
 62
     1
 10
194.357
 20
46.7184
 30
0.0
 11
194.357
 21
60.7176
 31
0.0
  0
LINE
  8
0
 62
     1
 10
213.407
 20
60.7176
 30
0.0
 11
227.407
 21
60.7176
 31
0.0
  0
LINE
  8
0
 62
     1
 10
227.407
 20
60.7176
 30
0.0
 11
227.407
 21
46.7184
 31
0.0
  0
LINE
  8
0
 62
     1
 10
227.407
 20
46.7184
 30
0.0
 11
213.407
 21
46.7184
 31
0.0
  0
LINE
  8
0
 62
     1
 10
213.407
 20
46.7184
 30
0.0
 11
213.407
 21
60.7176
 31
0.0
  0
LINE
  8
0
 62
     1
 10
232.457
 20
60.7176
 30
0.0
 11
246.457
 21
60.7176
 31
0.0
  0
LINE
  8
0
 62
     1
 10
246.457
 20
60.7176
 30
0.0
 11
246.457
 21
46.7184
 31
0.0
  0
LINE
  8
0
 62
     1
 10
246.457
 20
46.7184
 30
0.0
 11
232.457
 21
46.7184
 31
0.0
  0
LINE
  8
0
 62
     1
 10
232.457
 20
46.7184
 30
0.0
 11
232.457
 21
60.7176
 31
0.0
  0
LINE
  8
0
 62
     1
 10
294.459
 20
54.9067
 30
0.0
 11
294.11
 21
54.7289
 31
0.0
  0
LINE
  8
0
 62
     1
 10
294.11
 20
54.7289
 30
0.0
 11
293.834
 21
54.453
 31
0.0
  0
LINE
  8
0
 62
     1
 10
293.834
 20
54.453
 30
0.0
 11
293.657
 21
54.1031
 31
0.0
  0
LINE
  8
0
 62
     1
 10
293.657
 20
54.1031
 30
0.0
 11
293.595
 21
53.7175
 31
0.0
  0
LINE
  8
0
 62
     1
 10
293.595
 20
53.7175
 30
0.0
 11
293.657
 21
53.3315
 31
0.0
  0
LINE
  8
0
 62
     1
 10
293.657
 20
53.3315
 30
0.0
 11
293.834
 21
52.983
 31
0.0
  0
LINE
  8
0
 62
     1
 10
293.834
 20
52.983
 30
0.0
 11
294.11
 21
52.7071
 31
0.0
  0
LINE
  8
0
 62
     1
 10
294.11
 20
52.7071
 30
0.0
 11
294.459
 21
52.5279
 31
0.0
  0
LINE
  8
0
 62
     1
 10
294.459
 20
52.5279
 30
0.0
 11
294.846
 21
52.4676
 31
0.0
  0
LINE
  8
0
 62
     1
 10
294.846
 20
52.4676
 30
0.0
 11
295.232
 21
52.5279
 31
0.0
  0
LINE
  8
0
 62
     1
 10
295.232
 20
52.5279
 30
0.0
 11
295.579
 21
52.7071
 31
0.0
  0
LINE
  8
0
 62
     1
 10
295.579
 20
52.7071
 30
0.0
 11
295.856
 21
52.983
 31
0.0
  0
LINE
  8
0
 62
     1
 10
295.856
 20
52.983
 30
0.0
 11
296.034
 21
53.3315
 31
0.0
  0
LINE
  8
0
 62
     1
 10
296.034
 20
53.3315
 30
0.0
 11
296.096
 21
53.7175
 31
0.0
  0
LINE
  8
0
 62
     1
 10
296.096
 20
53.7175
 30
0.0
 11
296.034
 21
54.1031
 31
0.0
  0
LINE
  8
0
 62
     1
 10
296.034
 20
54.1031
 30
0.0
 11
295.856
 21
54.453
 31
0.0
  0
LINE
  8
0
 62
     1
 10
295.856
 20
54.453
 30
0.0
 11
295.579
 21
54.7289
 31
0.0
  0
LINE
  8
0
 62
     1
 10
295.579
 20
54.7289
 30
0.0
 11
295.232
 21
54.9067
 31
0.0
  0
LINE
  8
0
 62
     1
 10
295.232
 20
54.9067
 30
0.0
 11
294.846
 21
54.9674
 31
0.0
  0
LINE
  8
0
 62
     1
 10
294.846
 20
54.9674
 30
0.0
 11
294.459
 21
54.9067
 31
0.0
  0
LINE
  8
0
 62
     1
 10
2.70784
 20
54.9067
 30
0.0
 11
2.3592
 21
54.7289
 31
0.0
  0
LINE
  8
0
 62
     1
 10
2.3592
 20
54.7289
 30
0.0
 11
2.08221
 21
54.453
 31
0.0
  0
LINE
  8
0
 62
     1
 10
2.08221
 20
54.453
 30
0.0
 11
1.90583
 21
54.1031
 31
0.0
  0
LINE
  8
0
 62
     1
 10
1.90583
 20
54.1031
 30
0.0
 11
1.84381
 21
53.7175
 31
0.0
  0
LINE
  8
0
 62
     1
 10
1.84381
 20
53.7175
 30
0.0
 11
1.90583
 21
53.3315
 31
0.0
  0
LINE
  8
0
 62
     1
 10
1.90583
 20
53.3315
 30
0.0
 11
2.08221
 21
52.983
 31
0.0
  0
LINE
  8
0
 62
     1
 10
2.08221
 20
52.983
 30
0.0
 11
2.3592
 21
52.7071
 31
0.0
  0
LINE
  8
0
 62
     1
 10
2.3592
 20
52.7071
 30
0.0
 11
2.70784
 21
52.5279
 31
0.0
  0
LINE
  8
0
 62
     1
 10
2.70784
 20
52.5279
 30
0.0
 11
3.09507
 21
52.4676
 31
0.0
  0
LINE
  8
0
 62
     1
 10
3.09507
 20
52.4676
 30
0.0
 11
3.48093
 21
52.5279
 31
0.0
  0
LINE
  8
0
 62
     1
 10
3.48093
 20
52.5279
 30
0.0
 11
3.8282
 21
52.7071
 31
0.0
  0
LINE
  8
0
 62
     1
 10
3.8282
 20
52.7071
 30
0.0
 11
4.10517
 21
52.983
 31
0.0
  0
LINE
  8
0
 62
     1
 10
4.10517
 20
52.983
 30
0.0
 11
4.28293
 21
53.3315
 31
0.0
  0
LINE
  8
0
 62
     1
 10
4.28293
 20
53.3315
 30
0.0
 11
4.34495
 21
53.7175
 31
0.0
  0
LINE
  8
0
 62
     1
 10
4.34495
 20
53.7175
 30
0.0
 11
4.28293
 21
54.1031
 31
0.0
  0
LINE
  8
0
 62
     1
 10
4.28293
 20
54.1031
 30
0.0
 11
4.10517
 21
54.453
 31
0.0
  0
LINE
  8
0
 62
     1
 10
4.10517
 20
54.453
 30
0.0
 11
3.8282
 21
54.7289
 31
0.0
  0
LINE
  8
0
 62
     1
 10
3.8282
 20
54.7289
 30
0.0
 11
3.48093
 21
54.9067
 31
0.0
  0
LINE
  8
0
 62
     1
 10
3.48093
 20
54.9067
 30
0.0
 11
3.09507
 21
54.9674
 31
0.0
  0
LINE
  8
0
 62
     1
 10
3.09507
 20
54.9674
 30
0.0
 11
2.70784
 21
54.9067
 31
0.0
  0
LINE
  8
0
 62
     1
 10
13.3821
 20
79.7676
 30
0.0
 11
27.3816
 21
79.7676
 31
0.0
  0
LINE
  8
0
 62
     1
 10
27.3816
 20
79.7676
 30
0.0
 11
27.3816
 21
65.7684
 31
0.0
  0
LINE
  8
0
 62
     1
 10
27.3816
 20
65.7684
 30
0.0
 11
13.3821
 21
65.7684
 31
0.0
  0
LINE
  8
0
 62
     1
 10
13.3821
 20
65.7684
 30
0.0
 11
13.3821
 21
79.7676
 31
0.0
  0
LINE
  8
0
 62
     1
 10
37.1948
 20
79.7676
 30
0.0
 11
51.1941
 21
79.7676
 31
0.0
  0
LINE
  8
0
 62
     1
 10
51.1941
 20
79.7676
 30
0.0
 11
51.1941
 21
65.7684
 31
0.0
  0
LINE
  8
0
 62
     1
 10
51.1941
 20
65.7684
 30
0.0
 11
37.1948
 21
65.7684
 31
0.0
  0
LINE
  8
0
 62
     1
 10
37.1948
 20
65.7684
 30
0.0
 11
37.1948
 21
79.7676
 31
0.0
  0
LINE
  8
0
 62
     1
 10
56.2448
 20
79.7676
 30
0.0
 11
70.2441
 21
79.7676
 31
0.0
  0
LINE
  8
0
 62
     1
 10
70.2441
 20
79.7676
 30
0.0
 11
70.2441
 21
65.7684
 31
0.0
  0
LINE
  8
0
 62
     1
 10
70.2441
 20
65.7684
 30
0.0
 11
56.2448
 21
65.7684
 31
0.0
  0
LINE
  8
0
 62
     1
 10
56.2448
 20
65.7684
 30
0.0
 11
56.2448
 21
79.7676
 31
0.0
  0
LINE
  8
0
 62
     1
 10
75.2948
 20
79.7676
 30
0.0
 11
89.2941
 21
79.7676
 31
0.0
  0
LINE
  8
0
 62
     1
 10
89.2941
 20
79.7676
 30
0.0
 11
89.2941
 21
65.7684
 31
0.0
  0
LINE
  8
0
 62
     1
 10
89.2941
 20
65.7684
 30
0.0
 11
75.2948
 21
65.7684
 31
0.0
  0
LINE
  8
0
 62
     1
 10
75.2948
 20
65.7684
 30
0.0
 11
75.2948
 21
79.7676
 31
0.0
  0
LINE
  8
0
 62
     1
 10
94.3448
 20
79.7676
 30
0.0
 11
108.344
 21
79.7676
 31
0.0
  0
LINE
  8
0
 62
     1
 10
108.344
 20
79.7676
 30
0.0
 11
108.344
 21
65.7684
 31
0.0
  0
LINE
  8
0
 62
     1
 10
108.344
 20
65.7684
 30
0.0
 11
94.3448
 21
65.7684
 31
0.0
  0
LINE
  8
0
 62
     1
 10
94.3448
 20
65.7684
 30
0.0
 11
94.3448
 21
79.7676
 31
0.0
  0
LINE
  8
0
 62
     1
 10
113.395
 20
79.7676
 30
0.0
 11
127.394
 21
79.7676
 31
0.0
  0
LINE
  8
0
 62
     1
 10
127.394
 20
79.7676
 30
0.0
 11
127.394
 21
65.7684
 31
0.0
  0
LINE
  8
0
 62
     1
 10
127.394
 20
65.7684
 30
0.0
 11
113.395
 21
65.7684
 31
0.0
  0
LINE
  8
0
 62
     1
 10
113.395
 20
65.7684
 30
0.0
 11
113.395
 21
79.7676
 31
0.0
  0
LINE
  8
0
 62
     1
 10
132.445
 20
79.7676
 30
0.0
 11
146.444
 21
79.7676
 31
0.0
  0
LINE
  8
0
 62
     1
 10
146.444
 20
79.7676
 30
0.0
 11
146.444
 21
65.7684
 31
0.0
  0
LINE
  8
0
 62
     1
 10
146.444
 20
65.7684
 30
0.0
 11
132.445
 21
65.7684
 31
0.0
  0
LINE
  8
0
 62
     1
 10
132.445
 20
65.7684
 30
0.0
 11
132.445
 21
79.7676
 31
0.0
  0
LINE
  8
0
 62
     1
 10
151.495
 20
79.7676
 30
0.0
 11
165.494
 21
79.7676
 31
0.0
  0
LINE
  8
0
 62
     1
 10
165.494
 20
79.7676
 30
0.0
 11
165.494
 21
65.7684
 31
0.0
  0
LINE
  8
0
 62
     1
 10
165.494
 20
65.7684
 30
0.0
 11
151.495
 21
65.7684
 31
0.0
  0
LINE
  8
0
 62
     1
 10
151.495
 20
65.7684
 30
0.0
 11
151.495
 21
79.7676
 31
0.0
  0
LINE
  8
0
 62
     1
 10
170.545
 20
79.7676
 30
0.0
 11
184.544
 21
79.7676
 31
0.0
  0
LINE
  8
0
 62
     1
 10
184.544
 20
79.7676
 30
0.0
 11
184.544
 21
65.7684
 31
0.0
  0
LINE
  8
0
 62
     1
 10
184.544
 20
65.7684
 30
0.0
 11
170.545
 21
65.7684
 31
0.0
  0
LINE
  8
0
 62
     1
 10
170.545
 20
65.7684
 30
0.0
 11
170.545
 21
79.7676
 31
0.0
  0
LINE
  8
0
 62
     1
 10
189.595
 20
79.7676
 30
0.0
 11
203.594
 21
79.7676
 31
0.0
  0
LINE
  8
0
 62
     1
 10
203.594
 20
79.7676
 30
0.0
 11
203.594
 21
65.7684
 31
0.0
  0
LINE
  8
0
 62
     1
 10
203.594
 20
65.7684
 30
0.0
 11
189.595
 21
65.7684
 31
0.0
  0
LINE
  8
0
 62
     1
 10
189.595
 20
65.7684
 30
0.0
 11
189.595
 21
79.7676
 31
0.0
  0
LINE
  8
0
 62
     1
 10
208.645
 20
79.7676
 30
0.0
 11
222.644
 21
79.7676
 31
0.0
  0
LINE
  8
0
 62
     1
 10
222.644
 20
79.7676
 30
0.0
 11
222.644
 21
65.7684
 31
0.0
  0
LINE
  8
0
 62
     1
 10
222.644
 20
65.7684
 30
0.0
 11
208.645
 21
65.7684
 31
0.0
  0
LINE
  8
0
 62
     1
 10
208.645
 20
65.7684
 30
0.0
 11
208.645
 21
79.7676
 31
0.0
  0
LINE
  8
0
 62
     1
 10
227.695
 20
79.7676
 30
0.0
 11
241.694
 21
79.7676
 31
0.0
  0
LINE
  8
0
 62
     1
 10
241.694
 20
79.7676
 30
0.0
 11
241.694
 21
65.7684
 31
0.0
  0
LINE
  8
0
 62
     1
 10
241.694
 20
65.7684
 30
0.0
 11
227.695
 21
65.7684
 31
0.0
  0
LINE
  8
0
 62
     1
 10
227.695
 20
65.7684
 30
0.0
 11
227.695
 21
79.7676
 31
0.0
  0
LINE
  8
0
 62
     1
 10
246.745
 20
79.7676
 30
0.0
 11
260.744
 21
79.7676
 31
0.0
  0
LINE
  8
0
 62
     1
 10
260.744
 20
79.7676
 30
0.0
 11
260.744
 21
65.7684
 31
0.0
  0
LINE
  8
0
 62
     1
 10
260.744
 20
65.7684
 30
0.0
 11
246.745
 21
65.7684
 31
0.0
  0
LINE
  8
0
 62
     1
 10
246.745
 20
65.7684
 30
0.0
 11
246.745
 21
79.7676
 31
0.0
  0
LINE
  8
0
 62
     1
 10
270.557
 20
79.7676
 30
0.0
 11
284.557
 21
79.7676
 31
0.0
  0
LINE
  8
0
 62
     1
 10
284.557
 20
79.7676
 30
0.0
 11
284.557
 21
65.7684
 31
0.0
  0
LINE
  8
0
 62
     1
 10
284.557
 20
65.7684
 30
0.0
 11
270.557
 21
65.7684
 31
0.0
  0
LINE
  8
0
 62
     1
 10
270.557
 20
65.7684
 30
0.0
 11
270.557
 21
79.7676
 31
0.0
  0
LINE
  8
0
 62
     1
 10
265.795
 20
98.8191
 30
0.0
 11
265.795
 21
94.1186
 31
0.0
  0
LINE
  8
0
 62
     1
 10
265.795
 20
94.1186
 30
0.0
 11
264.269
 21
94.1186
 31
0.0
  0
LINE
  8
0
 62
     1
 10
264.269
 20
94.1186
 30
0.0
 11
264.269
 21
97.3487
 31
0.0
  0
LINE
  8
0
 62
     1
 10
264.269
 20
97.3487
 30
0.0
 11
257.52
 21
97.3487
 31
0.0
  0
LINE
  8
0
 62
     1
 10
257.52
 20
97.3487
 30
0.0
 11
257.52
 21
94.1186
 31
0.0
  0
LINE
  8
0
 62
     1
 10
257.52
 20
94.1186
 30
0.0
 11
256.694
 21
94.1186
 31
0.0
  0
LINE
  8
0
 62
     1
 10
256.694
 20
94.1186
 30
0.0
 11
256.694
 21
91.3172
 31
0.0
  0
LINE
  8
0
 62
     1
 10
256.694
 20
91.3172
 30
0.0
 11
257.52
 21
91.3172
 31
0.0
  0
LINE
  8
0
 62
     1
 10
257.52
 20
91.3172
 30
0.0
 11
257.52
 21
85.0484
 31
0.0
  0
LINE
  8
0
 62
     1
 10
257.52
 20
85.0484
 30
0.0
 11
259.245
 21
85.0484
 31
0.0
  0
LINE
  8
0
 62
     1
 10
259.245
 20
85.0484
 30
0.0
 11
259.245
 21
83.8482
 31
0.0
  0
LINE
  8
0
 62
     1
 10
259.245
 20
83.8482
 30
0.0
 11
262.545
 21
83.8482
 31
0.0
  0
LINE
  8
0
 62
     1
 10
262.545
 20
83.8482
 30
0.0
 11
262.545
 21
85.0484
 31
0.0
  0
LINE
  8
0
 62
     1
 10
262.545
 20
85.0484
 30
0.0
 11
264.269
 21
85.0484
 31
0.0
  0
LINE
  8
0
 62
     1
 10
264.269
 20
85.0484
 30
0.0
 11
264.269
 21
89.5174
 31
0.0
  0
LINE
  8
0
 62
     1
 10
264.269
 20
89.5174
 30
0.0
 11
265.795
 21
89.5174
 31
0.0
  0
LINE
  8
0
 62
     1
 10
265.795
 20
89.5174
 30
0.0
 11
265.795
 21
84.8184
 31
0.0
  0
LINE
  8
0
 62
     1
 10
265.795
 20
84.8184
 30
0.0
 11
279.794
 21
84.8184
 31
0.0
  0
LINE
  8
0
 62
     1
 10
279.794
 20
84.8184
 30
0.0
 11
279.794
 21
89.5174
 31
0.0
  0
LINE
  8
0
 62
     1
 10
279.794
 20
89.5174
 30
0.0
 11
281.319
 21
89.5174
 31
0.0
  0
LINE
  8
0
 62
     1
 10
281.319
 20
89.5174
 30
0.0
 11
281.319
 21
85.0484
 31
0.0
  0
LINE
  8
0
 62
     1
 10
281.319
 20
85.0484
 30
0.0
 11
283.045
 21
85.0484
 31
0.0
  0
LINE
  8
0
 62
     1
 10
283.045
 20
85.0484
 30
0.0
 11
283.045
 21
83.8482
 31
0.0
  0
LINE
  8
0
 62
     1
 10
283.045
 20
83.8482
 30
0.0
 11
286.345
 21
83.8482
 31
0.0
  0
LINE
  8
0
 62
     1
 10
286.345
 20
83.8482
 30
0.0
 11
286.345
 21
85.0484
 31
0.0
  0
LINE
  8
0
 62
     1
 10
286.345
 20
85.0484
 30
0.0
 11
288.069
 21
85.0484
 31
0.0
  0
LINE
  8
0
 62
     1
 10
288.069
 20
85.0484
 30
0.0
 11
288.069
 21
91.3172
 31
0.0
  0
LINE
  8
0
 62
     1
 10
288.069
 20
91.3172
 30
0.0
 11
288.895
 21
91.3172
 31
0.0
  0
LINE
  8
0
 62
     1
 10
288.895
 20
91.3172
 30
0.0
 11
288.895
 21
94.1186
 31
0.0
  0
LINE
  8
0
 62
     1
 10
288.895
 20
94.1186
 30
0.0
 11
288.069
 21
94.1186
 31
0.0
  0
LINE
  8
0
 62
     1
 10
288.069
 20
94.1186
 30
0.0
 11
288.069
 21
97.3487
 31
0.0
  0
LINE
  8
0
 62
     1
 10
288.069
 20
97.3487
 30
0.0
 11
281.319
 21
97.3487
 31
0.0
  0
LINE
  8
0
 62
     1
 10
281.319
 20
97.3487
 30
0.0
 11
281.319
 21
94.1186
 31
0.0
  0
LINE
  8
0
 62
     1
 10
281.319
 20
94.1186
 30
0.0
 11
279.794
 21
94.1186
 31
0.0
  0
LINE
  8
0
 62
     1
 10
279.794
 20
94.1186
 30
0.0
 11
279.794
 21
98.8191
 31
0.0
  0
LINE
  8
0
 62
     1
 10
279.794
 20
98.8191
 30
0.0
 11
265.795
 21
98.8191
 31
0.0
  0
LINE
  8
0
 62
     1
 10
8.61826
 20
98.8191
 30
0.0
 11
22.6191
 21
98.8191
 31
0.0
  0
LINE
  8
0
 62
     1
 10
22.6191
 20
98.8191
 30
0.0
 11
22.6191
 21
84.8184
 31
0.0
  0
LINE
  8
0
 62
     1
 10
22.6191
 20
84.8184
 30
0.0
 11
8.61826
 21
84.8184
 31
0.0
  0
LINE
  8
0
 62
     1
 10
8.61826
 20
84.8184
 30
0.0
 11
8.61826
 21
98.8191
 31
0.0
  0
LINE
  8
0
 62
     1
 10
27.6696
 20
98.8191
 30
0.0
 11
41.6691
 21
98.8191
 31
0.0
  0
LINE
  8
0
 62
     1
 10
41.6691
 20
98.8191
 30
0.0
 11
41.6691
 21
84.8184
 31
0.0
  0
LINE
  8
0
 62
     1
 10
41.6691
 20
84.8184
 30
0.0
 11
27.6696
 21
84.8184
 31
0.0
  0
LINE
  8
0
 62
     1
 10
27.6696
 20
84.8184
 30
0.0
 11
27.6696
 21
98.8191
 31
0.0
  0
LINE
  8
0
 62
     1
 10
46.7198
 20
98.8191
 30
0.0
 11
60.7191
 21
98.8191
 31
0.0
  0
LINE
  8
0
 62
     1
 10
60.7191
 20
98.8191
 30
0.0
 11
60.7191
 21
84.8184
 31
0.0
  0
LINE
  8
0
 62
     1
 10
60.7191
 20
84.8184
 30
0.0
 11
46.7198
 21
84.8184
 31
0.0
  0
LINE
  8
0
 62
     1
 10
46.7198
 20
84.8184
 30
0.0
 11
46.7198
 21
98.8191
 31
0.0
  0
LINE
  8
0
 62
     1
 10
65.7698
 20
98.8191
 30
0.0
 11
79.7691
 21
98.8191
 31
0.0
  0
LINE
  8
0
 62
     1
 10
79.7691
 20
98.8191
 30
0.0
 11
79.7691
 21
84.8184
 31
0.0
  0
LINE
  8
0
 62
     1
 10
79.7691
 20
84.8184
 30
0.0
 11
65.7698
 21
84.8184
 31
0.0
  0
LINE
  8
0
 62
     1
 10
65.7698
 20
84.8184
 30
0.0
 11
65.7698
 21
98.8191
 31
0.0
  0
LINE
  8
0
 62
     1
 10
84.8198
 20
98.8191
 30
0.0
 11
98.8191
 21
98.8191
 31
0.0
  0
LINE
  8
0
 62
     1
 10
98.8191
 20
98.8191
 30
0.0
 11
98.8191
 21
84.8184
 31
0.0
  0
LINE
  8
0
 62
     1
 10
98.8191
 20
84.8184
 30
0.0
 11
84.8198
 21
84.8184
 31
0.0
  0
LINE
  8
0
 62
     1
 10
84.8198
 20
84.8184
 30
0.0
 11
84.8198
 21
98.8191
 31
0.0
  0
LINE
  8
0
 62
     1
 10
103.868
 20
98.8191
 30
0.0
 11
117.869
 21
98.8191
 31
0.0
  0
LINE
  8
0
 62
     1
 10
117.869
 20
98.8191
 30
0.0
 11
117.869
 21
84.8184
 31
0.0
  0
LINE
  8
0
 62
     1
 10
117.869
 20
84.8184
 30
0.0
 11
103.868
 21
84.8184
 31
0.0
  0
LINE
  8
0
 62
     1
 10
103.868
 20
84.8184
 30
0.0
 11
103.868
 21
98.8191
 31
0.0
  0
LINE
  8
0
 62
     1
 10
122.918
 20
98.8191
 30
0.0
 11
136.919
 21
98.8191
 31
0.0
  0
LINE
  8
0
 62
     1
 10
136.919
 20
98.8191
 30
0.0
 11
136.919
 21
84.8184
 31
0.0
  0
LINE
  8
0
 62
     1
 10
136.919
 20
84.8184
 30
0.0
 11
122.918
 21
84.8184
 31
0.0
  0
LINE
  8
0
 62
     1
 10
122.918
 20
84.8184
 30
0.0
 11
122.918
 21
98.8191
 31
0.0
  0
LINE
  8
0
 62
     1
 10
141.97
 20
98.8191
 30
0.0
 11
155.969
 21
98.8191
 31
0.0
  0
LINE
  8
0
 62
     1
 10
155.969
 20
98.8191
 30
0.0
 11
155.969
 21
84.8184
 31
0.0
  0
LINE
  8
0
 62
     1
 10
155.969
 20
84.8184
 30
0.0
 11
141.97
 21
84.8184
 31
0.0
  0
LINE
  8
0
 62
     1
 10
141.97
 20
84.8184
 30
0.0
 11
141.97
 21
98.8191
 31
0.0
  0
LINE
  8
0
 62
     1
 10
161.02
 20
98.8191
 30
0.0
 11
175.019
 21
98.8191
 31
0.0
  0
LINE
  8
0
 62
     1
 10
175.019
 20
98.8191
 30
0.0
 11
175.019
 21
84.8184
 31
0.0
  0
LINE
  8
0
 62
     1
 10
175.019
 20
84.8184
 30
0.0
 11
161.02
 21
84.8184
 31
0.0
  0
LINE
  8
0
 62
     1
 10
161.02
 20
84.8184
 30
0.0
 11
161.02
 21
98.8191
 31
0.0
  0
LINE
  8
0
 62
     1
 10
180.07
 20
98.8191
 30
0.0
 11
194.069
 21
98.8191
 31
0.0
  0
LINE
  8
0
 62
     1
 10
194.069
 20
98.8191
 30
0.0
 11
194.069
 21
84.8184
 31
0.0
  0
LINE
  8
0
 62
     1
 10
194.069
 20
84.8184
 30
0.0
 11
180.07
 21
84.8184
 31
0.0
  0
LINE
  8
0
 62
     1
 10
180.07
 20
84.8184
 30
0.0
 11
180.07
 21
98.8191
 31
0.0
  0
LINE
  8
0
 62
     1
 10
199.12
 20
98.8191
 30
0.0
 11
213.119
 21
98.8191
 31
0.0
  0
LINE
  8
0
 62
     1
 10
213.119
 20
98.8191
 30
0.0
 11
213.119
 21
84.8184
 31
0.0
  0
LINE
  8
0
 62
     1
 10
213.119
 20
84.8184
 30
0.0
 11
199.12
 21
84.8184
 31
0.0
  0
LINE
  8
0
 62
     1
 10
199.12
 20
84.8184
 30
0.0
 11
199.12
 21
98.8191
 31
0.0
  0
LINE
  8
0
 62
     1
 10
218.17
 20
98.8191
 30
0.0
 11
232.169
 21
98.8191
 31
0.0
  0
LINE
  8
0
 62
     1
 10
232.169
 20
98.8191
 30
0.0
 11
232.169
 21
84.8184
 31
0.0
  0
LINE
  8
0
 62
     1
 10
232.169
 20
84.8184
 30
0.0
 11
218.17
 21
84.8184
 31
0.0
  0
LINE
  8
0
 62
     1
 10
218.17
 20
84.8184
 30
0.0
 11
218.17
 21
98.8191
 31
0.0
  0
LINE
  8
0
 62
     1
 10
237.22
 20
98.8191
 30
0.0
 11
251.219
 21
98.8191
 31
0.0
  0
LINE
  8
0
 62
     1
 10
251.219
 20
98.8191
 30
0.0
 11
251.219
 21
84.8184
 31
0.0
  0
LINE
  8
0
 62
     1
 10
251.219
 20
84.8184
 30
0.0
 11
237.22
 21
84.8184
 31
0.0
  0
LINE
  8
0
 62
     1
 10
237.22
 20
84.8184
 30
0.0
 11
237.22
 21
98.8191
 31
0.0
  0
LINE
  8
0
 62
     1
 10
75.6461
 20
105.532
 30
0.0
 11
75.2972
 21
105.355
 31
0.0
  0
LINE
  8
0
 62
     1
 10
75.2972
 20
105.355
 30
0.0
 11
75.0203
 21
105.078
 31
0.0
  0
LINE
  8
0
 62
     1
 10
75.0203
 20
105.078
 30
0.0
 11
74.8425
 21
104.729
 31
0.0
  0
LINE
  8
0
 62
     1
 10
74.8425
 20
104.729
 30
0.0
 11
74.7818
 21
104.342
 31
0.0
  0
LINE
  8
0
 62
     1
 10
74.7818
 20
104.342
 30
0.0
 11
74.8425
 21
103.957
 31
0.0
  0
LINE
  8
0
 62
     1
 10
74.8425
 20
103.957
 30
0.0
 11
75.0203
 21
103.609
 31
0.0
  0
LINE
  8
0
 62
     1
 10
75.0203
 20
103.609
 30
0.0
 11
75.2972
 21
103.332
 31
0.0
  0
LINE
  8
0
 62
     1
 10
75.2972
 20
103.332
 30
0.0
 11
75.6461
 21
103.154
 31
0.0
  0
LINE
  8
0
 62
     1
 10
75.6461
 20
103.154
 30
0.0
 11
76.0317
 21
103.092
 31
0.0
  0
LINE
  8
0
 62
     1
 10
76.0317
 20
103.092
 30
0.0
 11
76.4191
 21
103.154
 31
0.0
  0
LINE
  8
0
 62
     1
 10
76.4191
 20
103.154
 30
0.0
 11
76.7662
 21
103.332
 31
0.0
  0
LINE
  8
0
 62
     1
 10
76.7662
 20
103.332
 30
0.0
 11
77.0435
 21
103.609
 31
0.0
  0
LINE
  8
0
 62
     1
 10
77.0435
 20
103.609
 30
0.0
 11
77.2213
 21
103.957
 31
0.0
  0
LINE
  8
0
 62
     1
 10
77.2213
 20
103.957
 30
0.0
 11
77.2816
 21
104.342
 31
0.0
  0
LINE
  8
0
 62
     1
 10
77.2816
 20
104.342
 30
0.0
 11
77.2213
 21
104.729
 31
0.0
  0
LINE
  8
0
 62
     1
 10
77.2213
 20
104.729
 30
0.0
 11
77.0435
 21
105.078
 31
0.0
  0
LINE
  8
0
 62
     1
 10
77.0435
 20
105.078
 30
0.0
 11
76.7662
 21
105.355
 31
0.0
  0
LINE
  8
0
 62
     1
 10
76.7662
 20
105.355
 30
0.0
 11
76.4191
 21
105.532
 31
0.0
  0
LINE
  8
0
 62
     1
 10
76.4191
 20
105.532
 30
0.0
 11
76.0317
 21
105.592
 31
0.0
  0
LINE
  8
0
 62
     1
 10
76.0317
 20
105.592
 30
0.0
 11
75.6461
 21
105.532
 31
0.0
  0
LINE
  8
0
 62
     1
 10
148.584
 20
105.532
 30
0.0
 11
148.234
 21
105.355
 31
0.0
  0
LINE
  8
0
 62
     1
 10
148.234
 20
105.355
 30
0.0
 11
147.959
 21
105.078
 31
0.0
  0
LINE
  8
0
 62
     1
 10
147.959
 20
105.078
 30
0.0
 11
147.781
 21
104.729
 31
0.0
  0
LINE
  8
0
 62
     1
 10
147.781
 20
104.729
 30
0.0
 11
147.72
 21
104.342
 31
0.0
  0
LINE
  8
0
 62
     1
 10
147.72
 20
104.342
 30
0.0
 11
147.781
 21
103.957
 31
0.0
  0
LINE
  8
0
 62
     1
 10
147.781
 20
103.957
 30
0.0
 11
147.959
 21
103.609
 31
0.0
  0
LINE
  8
0
 62
     1
 10
147.959
 20
103.609
 30
0.0
 11
148.234
 21
103.332
 31
0.0
  0
LINE
  8
0
 62
     1
 10
148.234
 20
103.332
 30
0.0
 11
148.584
 21
103.154
 31
0.0
  0
LINE
  8
0
 62
     1
 10
148.584
 20
103.154
 30
0.0
 11
148.97
 21
103.092
 31
0.0
  0
LINE
  8
0
 62
     1
 10
148.97
 20
103.092
 30
0.0
 11
149.356
 21
103.154
 31
0.0
  0
LINE
  8
0
 62
     1
 10
149.356
 20
103.154
 30
0.0
 11
149.704
 21
103.332
 31
0.0
  0
LINE
  8
0
 62
     1
 10
149.704
 20
103.332
 30
0.0
 11
149.98
 21
103.609
 31
0.0
  0
LINE
  8
0
 62
     1
 10
149.98
 20
103.609
 30
0.0
 11
150.159
 21
103.957
 31
0.0
  0
LINE
  8
0
 62
     1
 10
150.159
 20
103.957
 30
0.0
 11
150.22
 21
104.342
 31
0.0
  0
LINE
  8
0
 62
     1
 10
150.22
 20
104.342
 30
0.0
 11
150.159
 21
104.729
 31
0.0
  0
LINE
  8
0
 62
     1
 10
150.159
 20
104.729
 30
0.0
 11
149.98
 21
105.078
 31
0.0
  0
LINE
  8
0
 62
     1
 10
149.98
 20
105.078
 30
0.0
 11
149.704
 21
105.355
 31
0.0
  0
LINE
  8
0
 62
     1
 10
149.704
 20
105.355
 30
0.0
 11
149.356
 21
105.532
 31
0.0
  0
LINE
  8
0
 62
     1
 10
149.356
 20
105.532
 30
0.0
 11
148.97
 21
105.592
 31
0.0
  0
LINE
  8
0
 62
     1
 10
148.97
 20
105.592
 30
0.0
 11
148.584
 21
105.532
 31
0.0
  0
LINE
  8
0
 62
     1
 10
221.521
 20
105.532
 30
0.0
 11
221.172
 21
105.355
 31
0.0
  0
LINE
  8
0
 62
     1
 10
221.172
 20
105.355
 30
0.0
 11
220.895
 21
105.078
 31
0.0
  0
LINE
  8
0
 62
     1
 10
220.895
 20
105.078
 30
0.0
 11
220.719
 21
104.729
 31
0.0
  0
LINE
  8
0
 62
     1
 10
220.719
 20
104.729
 30
0.0
 11
220.658
 21
104.342
 31
0.0
  0
LINE
  8
0
 62
     1
 10
220.658
 20
104.342
 30
0.0
 11
220.719
 21
103.957
 31
0.0
  0
LINE
  8
0
 62
     1
 10
220.719
 20
103.957
 30
0.0
 11
220.895
 21
103.609
 31
0.0
  0
LINE
  8
0
 62
     1
 10
220.895
 20
103.609
 30
0.0
 11
221.172
 21
103.332
 31
0.0
  0
LINE
  8
0
 62
     1
 10
221.172
 20
103.332
 30
0.0
 11
221.521
 21
103.154
 31
0.0
  0
LINE
  8
0
 62
     1
 10
221.521
 20
103.154
 30
0.0
 11
221.908
 21
103.092
 31
0.0
  0
LINE
  8
0
 62
     1
 10
221.908
 20
103.092
 30
0.0
 11
222.294
 21
103.154
 31
0.0
  0
LINE
  8
0
 62
     1
 10
222.294
 20
103.154
 30
0.0
 11
222.641
 21
103.332
 31
0.0
  0
LINE
  8
0
 62
     1
 10
222.641
 20
103.332
 30
0.0
 11
222.919
 21
103.609
 31
0.0
  0
LINE
  8
0
 62
     1
 10
222.919
 20
103.609
 30
0.0
 11
223.096
 21
103.957
 31
0.0
  0
LINE
  8
0
 62
     1
 10
223.096
 20
103.957
 30
0.0
 11
223.158
 21
104.342
 31
0.0
  0
LINE
  8
0
 62
     1
 10
223.158
 20
104.342
 30
0.0
 11
223.096
 21
104.729
 31
0.0
  0
LINE
  8
0
 62
     1
 10
223.096
 20
104.729
 30
0.0
 11
222.919
 21
105.078
 31
0.0
  0
LINE
  8
0
 62
     1
 10
222.919
 20
105.078
 30
0.0
 11
222.641
 21
105.355
 31
0.0
  0
LINE
  8
0
 62
     1
 10
222.641
 20
105.355
 30
0.0
 11
222.294
 21
105.532
 31
0.0
  0
LINE
  8
0
 62
     1
 10
222.294
 20
105.532
 30
0.0
 11
221.908
 21
105.592
 31
0.0
  0
LINE
  8
0
 62
     1
 10
221.908
 20
105.592
 30
0.0
 11
221.521
 21
105.532
 31
0.0
  0
LINE
  8
0
 62
     1
 10
294.459
 20
105.532
 30
0.0
 11
294.11
 21
105.355
 31
0.0
  0
LINE
  8
0
 62
     1
 10
294.11
 20
105.355
 30
0.0
 11
293.834
 21
105.078
 31
0.0
  0
LINE
  8
0
 62
     1
 10
293.834
 20
105.078
 30
0.0
 11
293.657
 21
104.729
 31
0.0
  0
LINE
  8
0
 62
     1
 10
293.657
 20
104.729
 30
0.0
 11
293.595
 21
104.342
 31
0.0
  0
LINE
  8
0
 62
     1
 10
293.595
 20
104.342
 30
0.0
 11
293.657
 21
103.957
 31
0.0
  0
LINE
  8
0
 62
     1
 10
293.657
 20
103.957
 30
0.0
 11
293.834
 21
103.609
 31
0.0
  0
LINE
  8
0
 62
     1
 10
293.834
 20
103.609
 30
0.0
 11
294.11
 21
103.332
 31
0.0
  0
LINE
  8
0
 62
     1
 10
294.11
 20
103.332
 30
0.0
 11
294.459
 21
103.154
 31
0.0
  0
LINE
  8
0
 62
     1
 10
294.459
 20
103.154
 30
0.0
 11
294.846
 21
103.092
 31
0.0
  0
LINE
  8
0
 62
     1
 10
294.846
 20
103.092
 30
0.0
 11
295.232
 21
103.154
 31
0.0
  0
LINE
  8
0
 62
     1
 10
295.232
 20
103.154
 30
0.0
 11
295.579
 21
103.332
 31
0.0
  0
LINE
  8
0
 62
     1
 10
295.579
 20
103.332
 30
0.0
 11
295.856
 21
103.609
 31
0.0
  0
LINE
  8
0
 62
     1
 10
295.856
 20
103.609
 30
0.0
 11
296.034
 21
103.957
 31
0.0
  0
LINE
  8
0
 62
     1
 10
296.034
 20
103.957
 30
0.0
 11
296.096
 21
104.342
 31
0.0
  0
LINE
  8
0
 62
     1
 10
296.096
 20
104.342
 30
0.0
 11
296.034
 21
104.729
 31
0.0
  0
LINE
  8
0
 62
     1
 10
296.034
 20
104.729
 30
0.0
 11
295.856
 21
105.078
 31
0.0
  0
LINE
  8
0
 62
     1
 10
295.856
 20
105.078
 30
0.0
 11
295.579
 21
105.355
 31
0.0
  0
LINE
  8
0
 62
     1
 10
295.579
 20
105.355
 30
0.0
 11
295.232
 21
105.532
 31
0.0
  0
LINE
  8
0
 62
     1
 10
295.232
 20
105.532
 30
0.0
 11
294.846
 21
105.592
 31
0.0
  0
LINE
  8
0
 62
     1
 10
294.846
 20
105.592
 30
0.0
 11
294.459
 21
105.532
 31
0.0
  0
LINE
  8
0
 62
     1
 10
2.70784
 20
105.532
 30
0.0
 11
2.3592
 21
105.355
 31
0.0
  0
LINE
  8
0
 62
     1
 10
2.3592
 20
105.355
 30
0.0
 11
2.08221
 21
105.078
 31
0.0
  0
LINE
  8
0
 62
     1
 10
2.08221
 20
105.078
 30
0.0
 11
1.90583
 21
104.729
 31
0.0
  0
LINE
  8
0
 62
     1
 10
1.90583
 20
104.729
 30
0.0
 11
1.84381
 21
104.342
 31
0.0
  0
LINE
  8
0
 62
     1
 10
1.84381
 20
104.342
 30
0.0
 11
1.90583
 21
103.957
 31
0.0
  0
LINE
  8
0
 62
     1
 10
1.90583
 20
103.957
 30
0.0
 11
2.08221
 21
103.609
 31
0.0
  0
LINE
  8
0
 62
     1
 10
2.08221
 20
103.609
 30
0.0
 11
2.3592
 21
103.332
 31
0.0
  0
LINE
  8
0
 62
     1
 10
2.3592
 20
103.332
 30
0.0
 11
2.70784
 21
103.154
 31
0.0
  0
LINE
  8
0
 62
     1
 10
2.70784
 20
103.154
 30
0.0
 11
3.09507
 21
103.092
 31
0.0
  0
LINE
  8
0
 62
     1
 10
3.09507
 20
103.092
 30
0.0
 11
3.48093
 21
103.154
 31
0.0
  0
LINE
  8
0
 62
     1
 10
3.48093
 20
103.154
 30
0.0
 11
3.8282
 21
103.332
 31
0.0
  0
LINE
  8
0
 62
     1
 10
3.8282
 20
103.332
 30
0.0
 11
4.10517
 21
103.609
 31
0.0
  0
LINE
  8
0
 62
     1
 10
4.10517
 20
103.609
 30
0.0
 11
4.28293
 21
103.957
 31
0.0
  0
LINE
  8
0
 62
     1
 10
4.28293
 20
103.957
 30
0.0
 11
4.34495
 21
104.342
 31
0.0
  0
LINE
  8
0
 62
     1
 10
4.34495
 20
104.342
 30
0.0
 11
4.28293
 21
104.729
 31
0.0
  0
LINE
  8
0
 62
     1
 10
4.28293
 20
104.729
 30
0.0
 11
4.10517
 21
105.078
 31
0.0
  0
LINE
  8
0
 62
     1
 10
4.10517
 20
105.078
 30
0.0
 11
3.8282
 21
105.355
 31
0.0
  0
LINE
  8
0
 62
     1
 10
3.8282
 20
105.355
 30
0.0
 11
3.48093
 21
105.532
 31
0.0
  0
LINE
  8
0
 62
     1
 10
3.48093
 20
105.532
 30
0.0
 11
3.09507
 21
105.592
 31
0.0
  0
LINE
  8
0
 62
     1
 10
3.09507
 20
105.592
 30
0.0
 11
2.70784
 21
105.532
 31
0.0
  0
ENDSEC
  0
EOF
