G04 #@! TF.GenerationSoftware,KiCad,Pcbnew,5.0.1*
G04 #@! TF.CreationDate,2018-12-19T22:22:27+02:00*
G04 #@! TF.ProjectId,OH60,4F4836302E6B696361645F7063620000,rev?*
G04 #@! TF.SameCoordinates,Original*
G04 #@! TF.FileFunction,Legend,Top*
G04 #@! TF.FilePolarity,Positive*
%FSLAX46Y46*%
G04 Gerber Fmt 4.6, Leading zero omitted, Abs format (unit mm)*
G04 Created by KiCad (PCBNEW 5.0.1) date Wed 19 Dec 2018 22:22:27 SAST*
%MOMM*%
%LPD*%
G01*
G04 APERTURE LIST*
%ADD10C,0.300000*%
%ADD11C,0.381000*%
%ADD12C,0.120000*%
%ADD13C,0.150000*%
%ADD14C,0.203200*%
G04 APERTURE END LIST*
D10*
X204136571Y-119296571D02*
X203279428Y-119296571D01*
X203708000Y-119296571D02*
X203708000Y-117796571D01*
X203565142Y-118010857D01*
X203422285Y-118153714D01*
X203279428Y-118225142D01*
X198953714Y-117264571D02*
X198953714Y-115764571D01*
X200525142Y-117121714D02*
X200453714Y-117193142D01*
X200239428Y-117264571D01*
X200096571Y-117264571D01*
X199882285Y-117193142D01*
X199739428Y-117050285D01*
X199668000Y-116907428D01*
X199596571Y-116621714D01*
X199596571Y-116407428D01*
X199668000Y-116121714D01*
X199739428Y-115978857D01*
X199882285Y-115836000D01*
X200096571Y-115764571D01*
X200239428Y-115764571D01*
X200453714Y-115836000D01*
X200525142Y-115907428D01*
X201096571Y-117193142D02*
X201310857Y-117264571D01*
X201668000Y-117264571D01*
X201810857Y-117193142D01*
X201882285Y-117121714D01*
X201953714Y-116978857D01*
X201953714Y-116836000D01*
X201882285Y-116693142D01*
X201810857Y-116621714D01*
X201668000Y-116550285D01*
X201382285Y-116478857D01*
X201239428Y-116407428D01*
X201168000Y-116336000D01*
X201096571Y-116193142D01*
X201096571Y-116050285D01*
X201168000Y-115907428D01*
X201239428Y-115836000D01*
X201382285Y-115764571D01*
X201739428Y-115764571D01*
X201953714Y-115836000D01*
X202596571Y-117264571D02*
X202596571Y-115764571D01*
X203168000Y-115764571D01*
X203310857Y-115836000D01*
X203382285Y-115907428D01*
X203453714Y-116050285D01*
X203453714Y-116264571D01*
X203382285Y-116407428D01*
X203310857Y-116478857D01*
X203168000Y-116550285D01*
X202596571Y-116550285D01*
D11*
G04 #@! TO.C,SW22*
X176525000Y-54478000D02*
X176525000Y-52700000D01*
X176525000Y-65400000D02*
X176525000Y-63622000D01*
X178303000Y-65400000D02*
X176525000Y-65400000D01*
X189225000Y-65400000D02*
X187447000Y-65400000D01*
X189225000Y-63622000D02*
X189225000Y-65400000D01*
X189225000Y-52700000D02*
X189225000Y-54478000D01*
X187447000Y-52700000D02*
X189225000Y-52700000D01*
X176525000Y-52700000D02*
X178303000Y-52700000D01*
G04 #@! TO.C,SW9*
X186050000Y-33650000D02*
X187828000Y-33650000D01*
X196972000Y-33650000D02*
X198750000Y-33650000D01*
X198750000Y-33650000D02*
X198750000Y-35428000D01*
X198750000Y-44572000D02*
X198750000Y-46350000D01*
X198750000Y-46350000D02*
X196972000Y-46350000D01*
X187828000Y-46350000D02*
X186050000Y-46350000D01*
X186050000Y-46350000D02*
X186050000Y-44572000D01*
X186050000Y-35428000D02*
X186050000Y-33650000D01*
G04 #@! TO.C,SW1*
X33650000Y-33650000D02*
X35428000Y-33650000D01*
X44572000Y-33650000D02*
X46350000Y-33650000D01*
X46350000Y-33650000D02*
X46350000Y-35428000D01*
X46350000Y-44572000D02*
X46350000Y-46350000D01*
X46350000Y-46350000D02*
X44572000Y-46350000D01*
X35428000Y-46350000D02*
X33650000Y-46350000D01*
X33650000Y-46350000D02*
X33650000Y-44572000D01*
X33650000Y-35428000D02*
X33650000Y-33650000D01*
G04 #@! TO.C,SW16*
X62225000Y-54478000D02*
X62225000Y-52700000D01*
X62225000Y-65400000D02*
X62225000Y-63622000D01*
X64003000Y-65400000D02*
X62225000Y-65400000D01*
X74925000Y-65400000D02*
X73147000Y-65400000D01*
X74925000Y-63622000D02*
X74925000Y-65400000D01*
X74925000Y-52700000D02*
X74925000Y-54478000D01*
X73147000Y-52700000D02*
X74925000Y-52700000D01*
X62225000Y-52700000D02*
X64003000Y-52700000D01*
G04 #@! TO.C,SW21*
X157475000Y-52700000D02*
X159253000Y-52700000D01*
X168397000Y-52700000D02*
X170175000Y-52700000D01*
X170175000Y-52700000D02*
X170175000Y-54478000D01*
X170175000Y-63622000D02*
X170175000Y-65400000D01*
X170175000Y-65400000D02*
X168397000Y-65400000D01*
X159253000Y-65400000D02*
X157475000Y-65400000D01*
X157475000Y-65400000D02*
X157475000Y-63622000D01*
X157475000Y-54478000D02*
X157475000Y-52700000D01*
G04 #@! TO.C,SW30*
X66987500Y-73528000D02*
X66987500Y-71750000D01*
X66987500Y-84450000D02*
X66987500Y-82672000D01*
X68765500Y-84450000D02*
X66987500Y-84450000D01*
X79687500Y-84450000D02*
X77909500Y-84450000D01*
X79687500Y-82672000D02*
X79687500Y-84450000D01*
X79687500Y-71750000D02*
X79687500Y-73528000D01*
X77909500Y-71750000D02*
X79687500Y-71750000D01*
X66987500Y-71750000D02*
X68765500Y-71750000D01*
G04 #@! TO.C,SW43*
X76512500Y-90800000D02*
X78290500Y-90800000D01*
X87434500Y-90800000D02*
X89212500Y-90800000D01*
X89212500Y-90800000D02*
X89212500Y-92578000D01*
X89212500Y-101722000D02*
X89212500Y-103500000D01*
X89212500Y-103500000D02*
X87434500Y-103500000D01*
X78290500Y-103500000D02*
X76512500Y-103500000D01*
X76512500Y-103500000D02*
X76512500Y-101722000D01*
X76512500Y-92578000D02*
X76512500Y-90800000D01*
G04 #@! TO.C,SW54*
X36031250Y-111628000D02*
X36031250Y-109850000D01*
X36031250Y-122550000D02*
X36031250Y-120772000D01*
X37809250Y-122550000D02*
X36031250Y-122550000D01*
X48731250Y-122550000D02*
X46953250Y-122550000D01*
X48731250Y-120772000D02*
X48731250Y-122550000D01*
X48731250Y-109850000D02*
X48731250Y-111628000D01*
X46953250Y-109850000D02*
X48731250Y-109850000D01*
X36031250Y-109850000D02*
X37809250Y-109850000D01*
G04 #@! TO.C,SW58*
X226531250Y-109850000D02*
X228309250Y-109850000D01*
X237453250Y-109850000D02*
X239231250Y-109850000D01*
X239231250Y-109850000D02*
X239231250Y-111628000D01*
X239231250Y-120772000D02*
X239231250Y-122550000D01*
X239231250Y-122550000D02*
X237453250Y-122550000D01*
X228309250Y-122550000D02*
X226531250Y-122550000D01*
X226531250Y-122550000D02*
X226531250Y-120772000D01*
X226531250Y-111628000D02*
X226531250Y-109850000D01*
G04 #@! TO.C,SW15*
X38412500Y-52700000D02*
X40190500Y-52700000D01*
X49334500Y-52700000D02*
X51112500Y-52700000D01*
X51112500Y-52700000D02*
X51112500Y-54478000D01*
X51112500Y-63622000D02*
X51112500Y-65400000D01*
X51112500Y-65400000D02*
X49334500Y-65400000D01*
X40190500Y-65400000D02*
X38412500Y-65400000D01*
X38412500Y-65400000D02*
X38412500Y-63622000D01*
X38412500Y-54478000D02*
X38412500Y-52700000D01*
G04 #@! TO.C,SW28*
X295587500Y-54478000D02*
X295587500Y-52700000D01*
X295587500Y-65400000D02*
X295587500Y-63622000D01*
X297365500Y-65400000D02*
X295587500Y-65400000D01*
X308287500Y-65400000D02*
X306509500Y-65400000D01*
X308287500Y-63622000D02*
X308287500Y-65400000D01*
X308287500Y-52700000D02*
X308287500Y-54478000D01*
X306509500Y-52700000D02*
X308287500Y-52700000D01*
X295587500Y-52700000D02*
X297365500Y-52700000D01*
G04 #@! TO.C,SW20*
X138425000Y-52700000D02*
X140203000Y-52700000D01*
X149347000Y-52700000D02*
X151125000Y-52700000D01*
X151125000Y-52700000D02*
X151125000Y-54478000D01*
X151125000Y-63622000D02*
X151125000Y-65400000D01*
X151125000Y-65400000D02*
X149347000Y-65400000D01*
X140203000Y-65400000D02*
X138425000Y-65400000D01*
X138425000Y-65400000D02*
X138425000Y-63622000D01*
X138425000Y-54478000D02*
X138425000Y-52700000D01*
G04 #@! TO.C,SW29*
X40793750Y-71750000D02*
X42571750Y-71750000D01*
X51715750Y-71750000D02*
X53493750Y-71750000D01*
X53493750Y-71750000D02*
X53493750Y-73528000D01*
X53493750Y-82672000D02*
X53493750Y-84450000D01*
X53493750Y-84450000D02*
X51715750Y-84450000D01*
X42571750Y-84450000D02*
X40793750Y-84450000D01*
X40793750Y-84450000D02*
X40793750Y-82672000D01*
X40793750Y-73528000D02*
X40793750Y-71750000D01*
G04 #@! TO.C,SW14*
X290825000Y-33650000D02*
X292603000Y-33650000D01*
X301747000Y-33650000D02*
X303525000Y-33650000D01*
X303525000Y-33650000D02*
X303525000Y-35428000D01*
X303525000Y-44572000D02*
X303525000Y-46350000D01*
X303525000Y-46350000D02*
X301747000Y-46350000D01*
X292603000Y-46350000D02*
X290825000Y-46350000D01*
X290825000Y-46350000D02*
X290825000Y-44572000D01*
X290825000Y-35428000D02*
X290825000Y-33650000D01*
G04 #@! TO.C,SW41*
X288443750Y-71750000D02*
X290221750Y-71750000D01*
X299365750Y-71750000D02*
X301143750Y-71750000D01*
X301143750Y-71750000D02*
X301143750Y-73528000D01*
X301143750Y-82672000D02*
X301143750Y-84450000D01*
X301143750Y-84450000D02*
X299365750Y-84450000D01*
X290221750Y-84450000D02*
X288443750Y-84450000D01*
X288443750Y-84450000D02*
X288443750Y-82672000D01*
X288443750Y-73528000D02*
X288443750Y-71750000D01*
G04 #@! TO.C,SW53*
X283681250Y-90800000D02*
X285459250Y-90800000D01*
X294603250Y-90800000D02*
X296381250Y-90800000D01*
X296381250Y-90800000D02*
X296381250Y-92578000D01*
X296381250Y-101722000D02*
X296381250Y-103500000D01*
X296381250Y-103500000D02*
X294603250Y-103500000D01*
X285459250Y-103500000D02*
X283681250Y-103500000D01*
X283681250Y-103500000D02*
X283681250Y-101722000D01*
X283681250Y-92578000D02*
X283681250Y-90800000D01*
G04 #@! TO.C,SW57*
X155067000Y-109601000D02*
X156845000Y-109601000D01*
X165989000Y-109601000D02*
X167767000Y-109601000D01*
X167767000Y-109601000D02*
X167767000Y-111379000D01*
X167767000Y-120523000D02*
X167767000Y-122301000D01*
X167767000Y-122301000D02*
X165989000Y-122301000D01*
X156845000Y-122301000D02*
X155067000Y-122301000D01*
X155067000Y-122301000D02*
X155067000Y-120523000D01*
X155067000Y-111379000D02*
X155067000Y-109601000D01*
D12*
G04 #@! TO.C,J1*
X197171000Y-120336000D02*
X197171000Y-125536000D01*
X202311000Y-120336000D02*
X197171000Y-120336000D01*
X204911000Y-125536000D02*
X197171000Y-125536000D01*
X202311000Y-120336000D02*
X202311000Y-122936000D01*
X202311000Y-122936000D02*
X204911000Y-122936000D01*
X204911000Y-122936000D02*
X204911000Y-125536000D01*
X203581000Y-120336000D02*
X204911000Y-120336000D01*
X204911000Y-120336000D02*
X204911000Y-121666000D01*
G04 #@! TO.C,J2*
X186907000Y-31988500D02*
X186457000Y-31988500D01*
X186907000Y-30138500D02*
X186907000Y-31988500D01*
X179107000Y-27588500D02*
X179107000Y-27838500D01*
X186907000Y-27588500D02*
X186907000Y-27838500D01*
X179107000Y-30138500D02*
X179107000Y-31988500D01*
X179107000Y-31988500D02*
X179557000Y-31988500D01*
X184707000Y-32538500D02*
X184257000Y-32538500D01*
X184707000Y-32538500D02*
X184707000Y-32088500D01*
G04 #@! TO.C,F1*
X192161752Y-32571000D02*
X189389248Y-32571000D01*
X192161752Y-29151000D02*
X189389248Y-29151000D01*
G04 #@! TO.C,FB1*
X176328000Y-30396922D02*
X176328000Y-30914078D01*
X177748000Y-30396922D02*
X177748000Y-30914078D01*
G04 #@! TO.C,R4*
X184075000Y-36913078D02*
X184075000Y-36395922D01*
X185495000Y-36913078D02*
X185495000Y-36395922D01*
G04 #@! TO.C,R3*
X182701000Y-36913078D02*
X182701000Y-36395922D01*
X181281000Y-36913078D02*
X181281000Y-36395922D01*
D11*
G04 #@! TO.C,SW61*
X297968750Y-109850000D02*
X299746750Y-109850000D01*
X308890750Y-109850000D02*
X310668750Y-109850000D01*
X310668750Y-109850000D02*
X310668750Y-111628000D01*
X310668750Y-120772000D02*
X310668750Y-122550000D01*
X310668750Y-122550000D02*
X308890750Y-122550000D01*
X299746750Y-122550000D02*
X297968750Y-122550000D01*
X297968750Y-122550000D02*
X297968750Y-120772000D01*
X297968750Y-111628000D02*
X297968750Y-109850000D01*
G04 #@! TO.C,SW55*
X59843750Y-109850000D02*
X61621750Y-109850000D01*
X70765750Y-109850000D02*
X72543750Y-109850000D01*
X72543750Y-109850000D02*
X72543750Y-111628000D01*
X72543750Y-120772000D02*
X72543750Y-122550000D01*
X72543750Y-122550000D02*
X70765750Y-122550000D01*
X61621750Y-122550000D02*
X59843750Y-122550000D01*
X59843750Y-122550000D02*
X59843750Y-120772000D01*
X59843750Y-111628000D02*
X59843750Y-109850000D01*
G04 #@! TO.C,SW56*
X83656250Y-111628000D02*
X83656250Y-109850000D01*
X83656250Y-122550000D02*
X83656250Y-120772000D01*
X85434250Y-122550000D02*
X83656250Y-122550000D01*
X96356250Y-122550000D02*
X94578250Y-122550000D01*
X96356250Y-120772000D02*
X96356250Y-122550000D01*
X96356250Y-109850000D02*
X96356250Y-111628000D01*
X94578250Y-109850000D02*
X96356250Y-109850000D01*
X83656250Y-109850000D02*
X85434250Y-109850000D01*
G04 #@! TO.C,SW60*
X274156250Y-109850000D02*
X275934250Y-109850000D01*
X285078250Y-109850000D02*
X286856250Y-109850000D01*
X286856250Y-109850000D02*
X286856250Y-111628000D01*
X286856250Y-120772000D02*
X286856250Y-122550000D01*
X286856250Y-122550000D02*
X285078250Y-122550000D01*
X275934250Y-122550000D02*
X274156250Y-122550000D01*
X274156250Y-122550000D02*
X274156250Y-120772000D01*
X274156250Y-111628000D02*
X274156250Y-109850000D01*
G04 #@! TO.C,SW42*
X45556250Y-90800000D02*
X47334250Y-90800000D01*
X56478250Y-90800000D02*
X58256250Y-90800000D01*
X58256250Y-90800000D02*
X58256250Y-92578000D01*
X58256250Y-101722000D02*
X58256250Y-103500000D01*
X58256250Y-103500000D02*
X56478250Y-103500000D01*
X47334250Y-103500000D02*
X45556250Y-103500000D01*
X45556250Y-103500000D02*
X45556250Y-101722000D01*
X45556250Y-92578000D02*
X45556250Y-90800000D01*
G04 #@! TO.C,SW59*
X250343750Y-111628000D02*
X250343750Y-109850000D01*
X250343750Y-122550000D02*
X250343750Y-120772000D01*
X252121750Y-122550000D02*
X250343750Y-122550000D01*
X263043750Y-122550000D02*
X261265750Y-122550000D01*
X263043750Y-120772000D02*
X263043750Y-122550000D01*
X263043750Y-109850000D02*
X263043750Y-111628000D01*
X261265750Y-109850000D02*
X263043750Y-109850000D01*
X250343750Y-109850000D02*
X252121750Y-109850000D01*
G04 #@! TO.C,SW19*
X119375000Y-52700000D02*
X121153000Y-52700000D01*
X130297000Y-52700000D02*
X132075000Y-52700000D01*
X132075000Y-52700000D02*
X132075000Y-54478000D01*
X132075000Y-63622000D02*
X132075000Y-65400000D01*
X132075000Y-65400000D02*
X130297000Y-65400000D01*
X121153000Y-65400000D02*
X119375000Y-65400000D01*
X119375000Y-65400000D02*
X119375000Y-63622000D01*
X119375000Y-54478000D02*
X119375000Y-52700000D01*
G04 #@! TO.C,SW13*
X262250000Y-33650000D02*
X264028000Y-33650000D01*
X273172000Y-33650000D02*
X274950000Y-33650000D01*
X274950000Y-33650000D02*
X274950000Y-35428000D01*
X274950000Y-44572000D02*
X274950000Y-46350000D01*
X274950000Y-46350000D02*
X273172000Y-46350000D01*
X264028000Y-46350000D02*
X262250000Y-46350000D01*
X262250000Y-46350000D02*
X262250000Y-44572000D01*
X262250000Y-35428000D02*
X262250000Y-33650000D01*
G04 #@! TO.C,SW12*
X243200000Y-35428000D02*
X243200000Y-33650000D01*
X243200000Y-46350000D02*
X243200000Y-44572000D01*
X244978000Y-46350000D02*
X243200000Y-46350000D01*
X255900000Y-46350000D02*
X254122000Y-46350000D01*
X255900000Y-44572000D02*
X255900000Y-46350000D01*
X255900000Y-33650000D02*
X255900000Y-35428000D01*
X254122000Y-33650000D02*
X255900000Y-33650000D01*
X243200000Y-33650000D02*
X244978000Y-33650000D01*
G04 #@! TO.C,SW11*
X224150000Y-33650000D02*
X225928000Y-33650000D01*
X235072000Y-33650000D02*
X236850000Y-33650000D01*
X236850000Y-33650000D02*
X236850000Y-35428000D01*
X236850000Y-44572000D02*
X236850000Y-46350000D01*
X236850000Y-46350000D02*
X235072000Y-46350000D01*
X225928000Y-46350000D02*
X224150000Y-46350000D01*
X224150000Y-46350000D02*
X224150000Y-44572000D01*
X224150000Y-35428000D02*
X224150000Y-33650000D01*
G04 #@! TO.C,SW10*
X205100000Y-35428000D02*
X205100000Y-33650000D01*
X205100000Y-46350000D02*
X205100000Y-44572000D01*
X206878000Y-46350000D02*
X205100000Y-46350000D01*
X217800000Y-46350000D02*
X216022000Y-46350000D01*
X217800000Y-44572000D02*
X217800000Y-46350000D01*
X217800000Y-33650000D02*
X217800000Y-35428000D01*
X216022000Y-33650000D02*
X217800000Y-33650000D01*
X205100000Y-33650000D02*
X206878000Y-33650000D01*
G04 #@! TO.C,SW8*
X167000000Y-35428000D02*
X167000000Y-33650000D01*
X167000000Y-46350000D02*
X167000000Y-44572000D01*
X168778000Y-46350000D02*
X167000000Y-46350000D01*
X179700000Y-46350000D02*
X177922000Y-46350000D01*
X179700000Y-44572000D02*
X179700000Y-46350000D01*
X179700000Y-33650000D02*
X179700000Y-35428000D01*
X177922000Y-33650000D02*
X179700000Y-33650000D01*
X167000000Y-33650000D02*
X168778000Y-33650000D01*
G04 #@! TO.C,SW7*
X147950000Y-33650000D02*
X149728000Y-33650000D01*
X158872000Y-33650000D02*
X160650000Y-33650000D01*
X160650000Y-33650000D02*
X160650000Y-35428000D01*
X160650000Y-44572000D02*
X160650000Y-46350000D01*
X160650000Y-46350000D02*
X158872000Y-46350000D01*
X149728000Y-46350000D02*
X147950000Y-46350000D01*
X147950000Y-46350000D02*
X147950000Y-44572000D01*
X147950000Y-35428000D02*
X147950000Y-33650000D01*
G04 #@! TO.C,SW6*
X128900000Y-35428000D02*
X128900000Y-33650000D01*
X128900000Y-46350000D02*
X128900000Y-44572000D01*
X130678000Y-46350000D02*
X128900000Y-46350000D01*
X141600000Y-46350000D02*
X139822000Y-46350000D01*
X141600000Y-44572000D02*
X141600000Y-46350000D01*
X141600000Y-33650000D02*
X141600000Y-35428000D01*
X139822000Y-33650000D02*
X141600000Y-33650000D01*
X128900000Y-33650000D02*
X130678000Y-33650000D01*
G04 #@! TO.C,SW5*
X109850000Y-33650000D02*
X111628000Y-33650000D01*
X120772000Y-33650000D02*
X122550000Y-33650000D01*
X122550000Y-33650000D02*
X122550000Y-35428000D01*
X122550000Y-44572000D02*
X122550000Y-46350000D01*
X122550000Y-46350000D02*
X120772000Y-46350000D01*
X111628000Y-46350000D02*
X109850000Y-46350000D01*
X109850000Y-46350000D02*
X109850000Y-44572000D01*
X109850000Y-35428000D02*
X109850000Y-33650000D01*
G04 #@! TO.C,SW4*
X90800000Y-35428000D02*
X90800000Y-33650000D01*
X90800000Y-46350000D02*
X90800000Y-44572000D01*
X92578000Y-46350000D02*
X90800000Y-46350000D01*
X103500000Y-46350000D02*
X101722000Y-46350000D01*
X103500000Y-44572000D02*
X103500000Y-46350000D01*
X103500000Y-33650000D02*
X103500000Y-35428000D01*
X101722000Y-33650000D02*
X103500000Y-33650000D01*
X90800000Y-33650000D02*
X92578000Y-33650000D01*
G04 #@! TO.C,SW3*
X71750000Y-33650000D02*
X73528000Y-33650000D01*
X82672000Y-33650000D02*
X84450000Y-33650000D01*
X84450000Y-33650000D02*
X84450000Y-35428000D01*
X84450000Y-44572000D02*
X84450000Y-46350000D01*
X84450000Y-46350000D02*
X82672000Y-46350000D01*
X73528000Y-46350000D02*
X71750000Y-46350000D01*
X71750000Y-46350000D02*
X71750000Y-44572000D01*
X71750000Y-35428000D02*
X71750000Y-33650000D01*
G04 #@! TO.C,SW33*
X124137500Y-73528000D02*
X124137500Y-71750000D01*
X124137500Y-84450000D02*
X124137500Y-82672000D01*
X125915500Y-84450000D02*
X124137500Y-84450000D01*
X136837500Y-84450000D02*
X135059500Y-84450000D01*
X136837500Y-82672000D02*
X136837500Y-84450000D01*
X136837500Y-71750000D02*
X136837500Y-73528000D01*
X135059500Y-71750000D02*
X136837500Y-71750000D01*
X124137500Y-71750000D02*
X125915500Y-71750000D01*
G04 #@! TO.C,SW18*
X100325000Y-54478000D02*
X100325000Y-52700000D01*
X100325000Y-65400000D02*
X100325000Y-63622000D01*
X102103000Y-65400000D02*
X100325000Y-65400000D01*
X113025000Y-65400000D02*
X111247000Y-65400000D01*
X113025000Y-63622000D02*
X113025000Y-65400000D01*
X113025000Y-52700000D02*
X113025000Y-54478000D01*
X111247000Y-52700000D02*
X113025000Y-52700000D01*
X100325000Y-52700000D02*
X102103000Y-52700000D01*
G04 #@! TO.C,SW23*
X195575000Y-52700000D02*
X197353000Y-52700000D01*
X206497000Y-52700000D02*
X208275000Y-52700000D01*
X208275000Y-52700000D02*
X208275000Y-54478000D01*
X208275000Y-63622000D02*
X208275000Y-65400000D01*
X208275000Y-65400000D02*
X206497000Y-65400000D01*
X197353000Y-65400000D02*
X195575000Y-65400000D01*
X195575000Y-65400000D02*
X195575000Y-63622000D01*
X195575000Y-54478000D02*
X195575000Y-52700000D01*
G04 #@! TO.C,SW24*
X214625000Y-54478000D02*
X214625000Y-52700000D01*
X214625000Y-65400000D02*
X214625000Y-63622000D01*
X216403000Y-65400000D02*
X214625000Y-65400000D01*
X227325000Y-65400000D02*
X225547000Y-65400000D01*
X227325000Y-63622000D02*
X227325000Y-65400000D01*
X227325000Y-52700000D02*
X227325000Y-54478000D01*
X225547000Y-52700000D02*
X227325000Y-52700000D01*
X214625000Y-52700000D02*
X216403000Y-52700000D01*
G04 #@! TO.C,SW25*
X233675000Y-52700000D02*
X235453000Y-52700000D01*
X244597000Y-52700000D02*
X246375000Y-52700000D01*
X246375000Y-52700000D02*
X246375000Y-54478000D01*
X246375000Y-63622000D02*
X246375000Y-65400000D01*
X246375000Y-65400000D02*
X244597000Y-65400000D01*
X235453000Y-65400000D02*
X233675000Y-65400000D01*
X233675000Y-65400000D02*
X233675000Y-63622000D01*
X233675000Y-54478000D02*
X233675000Y-52700000D01*
G04 #@! TO.C,SW26*
X252725000Y-54478000D02*
X252725000Y-52700000D01*
X252725000Y-65400000D02*
X252725000Y-63622000D01*
X254503000Y-65400000D02*
X252725000Y-65400000D01*
X265425000Y-65400000D02*
X263647000Y-65400000D01*
X265425000Y-63622000D02*
X265425000Y-65400000D01*
X265425000Y-52700000D02*
X265425000Y-54478000D01*
X263647000Y-52700000D02*
X265425000Y-52700000D01*
X252725000Y-52700000D02*
X254503000Y-52700000D01*
G04 #@! TO.C,SW27*
X271775000Y-52700000D02*
X273553000Y-52700000D01*
X282697000Y-52700000D02*
X284475000Y-52700000D01*
X284475000Y-52700000D02*
X284475000Y-54478000D01*
X284475000Y-63622000D02*
X284475000Y-65400000D01*
X284475000Y-65400000D02*
X282697000Y-65400000D01*
X273553000Y-65400000D02*
X271775000Y-65400000D01*
X271775000Y-65400000D02*
X271775000Y-63622000D01*
X271775000Y-54478000D02*
X271775000Y-52700000D01*
G04 #@! TO.C,SW31*
X86037500Y-71750000D02*
X87815500Y-71750000D01*
X96959500Y-71750000D02*
X98737500Y-71750000D01*
X98737500Y-71750000D02*
X98737500Y-73528000D01*
X98737500Y-82672000D02*
X98737500Y-84450000D01*
X98737500Y-84450000D02*
X96959500Y-84450000D01*
X87815500Y-84450000D02*
X86037500Y-84450000D01*
X86037500Y-84450000D02*
X86037500Y-82672000D01*
X86037500Y-73528000D02*
X86037500Y-71750000D01*
G04 #@! TO.C,SW48*
X171762500Y-92578000D02*
X171762500Y-90800000D01*
X171762500Y-103500000D02*
X171762500Y-101722000D01*
X173540500Y-103500000D02*
X171762500Y-103500000D01*
X184462500Y-103500000D02*
X182684500Y-103500000D01*
X184462500Y-101722000D02*
X184462500Y-103500000D01*
X184462500Y-90800000D02*
X184462500Y-92578000D01*
X182684500Y-90800000D02*
X184462500Y-90800000D01*
X171762500Y-90800000D02*
X173540500Y-90800000D01*
G04 #@! TO.C,SW2*
X52700000Y-33650000D02*
X54478000Y-33650000D01*
X63622000Y-33650000D02*
X65400000Y-33650000D01*
X65400000Y-33650000D02*
X65400000Y-35428000D01*
X65400000Y-44572000D02*
X65400000Y-46350000D01*
X65400000Y-46350000D02*
X63622000Y-46350000D01*
X54478000Y-46350000D02*
X52700000Y-46350000D01*
X52700000Y-46350000D02*
X52700000Y-44572000D01*
X52700000Y-35428000D02*
X52700000Y-33650000D01*
G04 #@! TO.C,SW17*
X81275000Y-54478000D02*
X81275000Y-52700000D01*
X81275000Y-65400000D02*
X81275000Y-63622000D01*
X83053000Y-65400000D02*
X81275000Y-65400000D01*
X93975000Y-65400000D02*
X92197000Y-65400000D01*
X93975000Y-63622000D02*
X93975000Y-65400000D01*
X93975000Y-52700000D02*
X93975000Y-54478000D01*
X92197000Y-52700000D02*
X93975000Y-52700000D01*
X81275000Y-52700000D02*
X83053000Y-52700000D01*
G04 #@! TO.C,SW34*
X143187500Y-71750000D02*
X144965500Y-71750000D01*
X154109500Y-71750000D02*
X155887500Y-71750000D01*
X155887500Y-71750000D02*
X155887500Y-73528000D01*
X155887500Y-82672000D02*
X155887500Y-84450000D01*
X155887500Y-84450000D02*
X154109500Y-84450000D01*
X144965500Y-84450000D02*
X143187500Y-84450000D01*
X143187500Y-84450000D02*
X143187500Y-82672000D01*
X143187500Y-73528000D02*
X143187500Y-71750000D01*
G04 #@! TO.C,SW35*
X162237500Y-73528000D02*
X162237500Y-71750000D01*
X162237500Y-84450000D02*
X162237500Y-82672000D01*
X164015500Y-84450000D02*
X162237500Y-84450000D01*
X174937500Y-84450000D02*
X173159500Y-84450000D01*
X174937500Y-82672000D02*
X174937500Y-84450000D01*
X174937500Y-71750000D02*
X174937500Y-73528000D01*
X173159500Y-71750000D02*
X174937500Y-71750000D01*
X162237500Y-71750000D02*
X164015500Y-71750000D01*
G04 #@! TO.C,SW36*
X181287500Y-71650000D02*
X183065500Y-71650000D01*
X192209500Y-71650000D02*
X193987500Y-71650000D01*
X193987500Y-71650000D02*
X193987500Y-73428000D01*
X193987500Y-82572000D02*
X193987500Y-84350000D01*
X193987500Y-84350000D02*
X192209500Y-84350000D01*
X183065500Y-84350000D02*
X181287500Y-84350000D01*
X181287500Y-84350000D02*
X181287500Y-82572000D01*
X181287500Y-73428000D02*
X181287500Y-71650000D01*
G04 #@! TO.C,SW37*
X200337500Y-73428000D02*
X200337500Y-71650000D01*
X200337500Y-84350000D02*
X200337500Y-82572000D01*
X202115500Y-84350000D02*
X200337500Y-84350000D01*
X213037500Y-84350000D02*
X211259500Y-84350000D01*
X213037500Y-82572000D02*
X213037500Y-84350000D01*
X213037500Y-71650000D02*
X213037500Y-73428000D01*
X211259500Y-71650000D02*
X213037500Y-71650000D01*
X200337500Y-71650000D02*
X202115500Y-71650000D01*
G04 #@! TO.C,SW38*
X219387500Y-71750000D02*
X221165500Y-71750000D01*
X230309500Y-71750000D02*
X232087500Y-71750000D01*
X232087500Y-71750000D02*
X232087500Y-73528000D01*
X232087500Y-82672000D02*
X232087500Y-84450000D01*
X232087500Y-84450000D02*
X230309500Y-84450000D01*
X221165500Y-84450000D02*
X219387500Y-84450000D01*
X219387500Y-84450000D02*
X219387500Y-82672000D01*
X219387500Y-73528000D02*
X219387500Y-71750000D01*
G04 #@! TO.C,SW39*
X238437500Y-73528000D02*
X238437500Y-71750000D01*
X238437500Y-84450000D02*
X238437500Y-82672000D01*
X240215500Y-84450000D02*
X238437500Y-84450000D01*
X251137500Y-84450000D02*
X249359500Y-84450000D01*
X251137500Y-82672000D02*
X251137500Y-84450000D01*
X251137500Y-71750000D02*
X251137500Y-73528000D01*
X249359500Y-71750000D02*
X251137500Y-71750000D01*
X238437500Y-71750000D02*
X240215500Y-71750000D01*
G04 #@! TO.C,SW40*
X257487500Y-71750000D02*
X259265500Y-71750000D01*
X268409500Y-71750000D02*
X270187500Y-71750000D01*
X270187500Y-71750000D02*
X270187500Y-73528000D01*
X270187500Y-82672000D02*
X270187500Y-84450000D01*
X270187500Y-84450000D02*
X268409500Y-84450000D01*
X259265500Y-84450000D02*
X257487500Y-84450000D01*
X257487500Y-84450000D02*
X257487500Y-82672000D01*
X257487500Y-73528000D02*
X257487500Y-71750000D01*
G04 #@! TO.C,SW44*
X95562500Y-90800000D02*
X97340500Y-90800000D01*
X106484500Y-90800000D02*
X108262500Y-90800000D01*
X108262500Y-90800000D02*
X108262500Y-92578000D01*
X108262500Y-101722000D02*
X108262500Y-103500000D01*
X108262500Y-103500000D02*
X106484500Y-103500000D01*
X97340500Y-103500000D02*
X95562500Y-103500000D01*
X95562500Y-103500000D02*
X95562500Y-101722000D01*
X95562500Y-92578000D02*
X95562500Y-90800000D01*
G04 #@! TO.C,SW45*
X114612500Y-92578000D02*
X114612500Y-90800000D01*
X114612500Y-103500000D02*
X114612500Y-101722000D01*
X116390500Y-103500000D02*
X114612500Y-103500000D01*
X127312500Y-103500000D02*
X125534500Y-103500000D01*
X127312500Y-101722000D02*
X127312500Y-103500000D01*
X127312500Y-90800000D02*
X127312500Y-92578000D01*
X125534500Y-90800000D02*
X127312500Y-90800000D01*
X114612500Y-90800000D02*
X116390500Y-90800000D01*
G04 #@! TO.C,SW46*
X133662500Y-90800000D02*
X135440500Y-90800000D01*
X144584500Y-90800000D02*
X146362500Y-90800000D01*
X146362500Y-90800000D02*
X146362500Y-92578000D01*
X146362500Y-101722000D02*
X146362500Y-103500000D01*
X146362500Y-103500000D02*
X144584500Y-103500000D01*
X135440500Y-103500000D02*
X133662500Y-103500000D01*
X133662500Y-103500000D02*
X133662500Y-101722000D01*
X133662500Y-92578000D02*
X133662500Y-90800000D01*
G04 #@! TO.C,SW47*
X152712500Y-92578000D02*
X152712500Y-90800000D01*
X152712500Y-103500000D02*
X152712500Y-101722000D01*
X154490500Y-103500000D02*
X152712500Y-103500000D01*
X165412500Y-103500000D02*
X163634500Y-103500000D01*
X165412500Y-101722000D02*
X165412500Y-103500000D01*
X165412500Y-90800000D02*
X165412500Y-92578000D01*
X163634500Y-90800000D02*
X165412500Y-90800000D01*
X152712500Y-90800000D02*
X154490500Y-90800000D01*
G04 #@! TO.C,SW32*
X105087500Y-71750000D02*
X106865500Y-71750000D01*
X116009500Y-71750000D02*
X117787500Y-71750000D01*
X117787500Y-71750000D02*
X117787500Y-73528000D01*
X117787500Y-82672000D02*
X117787500Y-84450000D01*
X117787500Y-84450000D02*
X116009500Y-84450000D01*
X106865500Y-84450000D02*
X105087500Y-84450000D01*
X105087500Y-84450000D02*
X105087500Y-82672000D01*
X105087500Y-73528000D02*
X105087500Y-71750000D01*
G04 #@! TO.C,SW49*
X190812500Y-92578000D02*
X190812500Y-90800000D01*
X190812500Y-103500000D02*
X190812500Y-101722000D01*
X192590500Y-103500000D02*
X190812500Y-103500000D01*
X203512500Y-103500000D02*
X201734500Y-103500000D01*
X203512500Y-101722000D02*
X203512500Y-103500000D01*
X203512500Y-90800000D02*
X203512500Y-92578000D01*
X201734500Y-90800000D02*
X203512500Y-90800000D01*
X190812500Y-90800000D02*
X192590500Y-90800000D01*
G04 #@! TO.C,SW50*
X209862500Y-90800000D02*
X211640500Y-90800000D01*
X220784500Y-90800000D02*
X222562500Y-90800000D01*
X222562500Y-90800000D02*
X222562500Y-92578000D01*
X222562500Y-101722000D02*
X222562500Y-103500000D01*
X222562500Y-103500000D02*
X220784500Y-103500000D01*
X211640500Y-103500000D02*
X209862500Y-103500000D01*
X209862500Y-103500000D02*
X209862500Y-101722000D01*
X209862500Y-92578000D02*
X209862500Y-90800000D01*
G04 #@! TO.C,SW51*
X228912500Y-92578000D02*
X228912500Y-90800000D01*
X228912500Y-103500000D02*
X228912500Y-101722000D01*
X230690500Y-103500000D02*
X228912500Y-103500000D01*
X241612500Y-103500000D02*
X239834500Y-103500000D01*
X241612500Y-101722000D02*
X241612500Y-103500000D01*
X241612500Y-90800000D02*
X241612500Y-92578000D01*
X239834500Y-90800000D02*
X241612500Y-90800000D01*
X228912500Y-90800000D02*
X230690500Y-90800000D01*
G04 #@! TO.C,SW52*
X247962500Y-90800000D02*
X249740500Y-90800000D01*
X258884500Y-90800000D02*
X260662500Y-90800000D01*
X260662500Y-90800000D02*
X260662500Y-92578000D01*
X260662500Y-101722000D02*
X260662500Y-103500000D01*
X260662500Y-103500000D02*
X258884500Y-103500000D01*
X249740500Y-103500000D02*
X247962500Y-103500000D01*
X247962500Y-103500000D02*
X247962500Y-101722000D01*
X247962500Y-92578000D02*
X247962500Y-90800000D01*
G04 #@! TO.C,MH2*
D13*
X31527666Y-81311380D02*
X31527666Y-80311380D01*
X31861000Y-81025666D01*
X32194333Y-80311380D01*
X32194333Y-81311380D01*
X32670523Y-81311380D02*
X32670523Y-80311380D01*
X32670523Y-80787571D02*
X33241952Y-80787571D01*
X33241952Y-81311380D02*
X33241952Y-80311380D01*
X33670523Y-80406619D02*
X33718142Y-80359000D01*
X33813380Y-80311380D01*
X34051476Y-80311380D01*
X34146714Y-80359000D01*
X34194333Y-80406619D01*
X34241952Y-80501857D01*
X34241952Y-80597095D01*
X34194333Y-80739952D01*
X33622904Y-81311380D01*
X34241952Y-81311380D01*
G04 #@! TO.C,MH3*
X157727666Y-71811380D02*
X157727666Y-70811380D01*
X158061000Y-71525666D01*
X158394333Y-70811380D01*
X158394333Y-71811380D01*
X158870523Y-71811380D02*
X158870523Y-70811380D01*
X158870523Y-71287571D02*
X159441952Y-71287571D01*
X159441952Y-71811380D02*
X159441952Y-70811380D01*
X159822904Y-70811380D02*
X160441952Y-70811380D01*
X160108619Y-71192333D01*
X160251476Y-71192333D01*
X160346714Y-71239952D01*
X160394333Y-71287571D01*
X160441952Y-71382809D01*
X160441952Y-71620904D01*
X160394333Y-71716142D01*
X160346714Y-71763761D01*
X160251476Y-71811380D01*
X159965761Y-71811380D01*
X159870523Y-71763761D01*
X159822904Y-71716142D01*
G04 #@! TO.C,MH4*
X220027666Y-110011380D02*
X220027666Y-109011380D01*
X220361000Y-109725666D01*
X220694333Y-109011380D01*
X220694333Y-110011380D01*
X221170523Y-110011380D02*
X221170523Y-109011380D01*
X221170523Y-109487571D02*
X221741952Y-109487571D01*
X221741952Y-110011380D02*
X221741952Y-109011380D01*
X222646714Y-109344714D02*
X222646714Y-110011380D01*
X222408619Y-108963761D02*
X222170523Y-109678047D01*
X222789571Y-109678047D01*
G04 #@! TO.C,MH5*
X289565666Y-52711380D02*
X289565666Y-51711380D01*
X289899000Y-52425666D01*
X290232333Y-51711380D01*
X290232333Y-52711380D01*
X290708523Y-52711380D02*
X290708523Y-51711380D01*
X290708523Y-52187571D02*
X291279952Y-52187571D01*
X291279952Y-52711380D02*
X291279952Y-51711380D01*
X292232333Y-51711380D02*
X291756142Y-51711380D01*
X291708523Y-52187571D01*
X291756142Y-52139952D01*
X291851380Y-52092333D01*
X292089476Y-52092333D01*
X292184714Y-52139952D01*
X292232333Y-52187571D01*
X292279952Y-52282809D01*
X292279952Y-52520904D01*
X292232333Y-52616142D01*
X292184714Y-52663761D01*
X292089476Y-52711380D01*
X291851380Y-52711380D01*
X291756142Y-52663761D01*
X291708523Y-52616142D01*
G04 #@! TO.C,MH6*
X312527666Y-81311380D02*
X312527666Y-80311380D01*
X312861000Y-81025666D01*
X313194333Y-80311380D01*
X313194333Y-81311380D01*
X313670523Y-81311380D02*
X313670523Y-80311380D01*
X313670523Y-80787571D02*
X314241952Y-80787571D01*
X314241952Y-81311380D02*
X314241952Y-80311380D01*
X315146714Y-80311380D02*
X314956238Y-80311380D01*
X314861000Y-80359000D01*
X314813380Y-80406619D01*
X314718142Y-80549476D01*
X314670523Y-80739952D01*
X314670523Y-81120904D01*
X314718142Y-81216142D01*
X314765761Y-81263761D01*
X314861000Y-81311380D01*
X315051476Y-81311380D01*
X315146714Y-81263761D01*
X315194333Y-81216142D01*
X315241952Y-81120904D01*
X315241952Y-80882809D01*
X315194333Y-80787571D01*
X315146714Y-80739952D01*
X315051476Y-80692333D01*
X314861000Y-80692333D01*
X314765761Y-80739952D01*
X314718142Y-80787571D01*
X314670523Y-80882809D01*
G04 #@! TO.C,MH1*
X54527666Y-52711380D02*
X54527666Y-51711380D01*
X54861000Y-52425666D01*
X55194333Y-51711380D01*
X55194333Y-52711380D01*
X55670523Y-52711380D02*
X55670523Y-51711380D01*
X55670523Y-52187571D02*
X56241952Y-52187571D01*
X56241952Y-52711380D02*
X56241952Y-51711380D01*
X57241952Y-52711380D02*
X56670523Y-52711380D01*
X56956238Y-52711380D02*
X56956238Y-51711380D01*
X56861000Y-51854238D01*
X56765761Y-51949476D01*
X56670523Y-51997095D01*
G04 #@! TO.C,SW22*
D14*
X180122285Y-67316047D02*
X180340000Y-67376523D01*
X180702857Y-67376523D01*
X180848000Y-67316047D01*
X180920571Y-67255571D01*
X180993142Y-67134619D01*
X180993142Y-67013666D01*
X180920571Y-66892714D01*
X180848000Y-66832238D01*
X180702857Y-66771761D01*
X180412571Y-66711285D01*
X180267428Y-66650809D01*
X180194857Y-66590333D01*
X180122285Y-66469380D01*
X180122285Y-66348428D01*
X180194857Y-66227476D01*
X180267428Y-66167000D01*
X180412571Y-66106523D01*
X180775428Y-66106523D01*
X180993142Y-66167000D01*
X181501142Y-66106523D02*
X181864000Y-67376523D01*
X182154285Y-66469380D01*
X182444571Y-67376523D01*
X182807428Y-66106523D01*
X183315428Y-66227476D02*
X183388000Y-66167000D01*
X183533142Y-66106523D01*
X183896000Y-66106523D01*
X184041142Y-66167000D01*
X184113714Y-66227476D01*
X184186285Y-66348428D01*
X184186285Y-66469380D01*
X184113714Y-66650809D01*
X183242857Y-67376523D01*
X184186285Y-67376523D01*
X184766857Y-66227476D02*
X184839428Y-66167000D01*
X184984571Y-66106523D01*
X185347428Y-66106523D01*
X185492571Y-66167000D01*
X185565142Y-66227476D01*
X185637714Y-66348428D01*
X185637714Y-66469380D01*
X185565142Y-66650809D01*
X184694285Y-67376523D01*
X185637714Y-67376523D01*
G04 #@! TO.C,SW9*
X190500000Y-48266047D02*
X190717714Y-48326523D01*
X191080571Y-48326523D01*
X191225714Y-48266047D01*
X191298285Y-48205571D01*
X191370857Y-48084619D01*
X191370857Y-47963666D01*
X191298285Y-47842714D01*
X191225714Y-47782238D01*
X191080571Y-47721761D01*
X190790285Y-47661285D01*
X190645142Y-47600809D01*
X190572571Y-47540333D01*
X190500000Y-47419380D01*
X190500000Y-47298428D01*
X190572571Y-47177476D01*
X190645142Y-47117000D01*
X190790285Y-47056523D01*
X191153142Y-47056523D01*
X191370857Y-47117000D01*
X191878857Y-47056523D02*
X192241714Y-48326523D01*
X192532000Y-47419380D01*
X192822285Y-48326523D01*
X193185142Y-47056523D01*
X193838285Y-48326523D02*
X194128571Y-48326523D01*
X194273714Y-48266047D01*
X194346285Y-48205571D01*
X194491428Y-48024142D01*
X194564000Y-47782238D01*
X194564000Y-47298428D01*
X194491428Y-47177476D01*
X194418857Y-47117000D01*
X194273714Y-47056523D01*
X193983428Y-47056523D01*
X193838285Y-47117000D01*
X193765714Y-47177476D01*
X193693142Y-47298428D01*
X193693142Y-47600809D01*
X193765714Y-47721761D01*
X193838285Y-47782238D01*
X193983428Y-47842714D01*
X194273714Y-47842714D01*
X194418857Y-47782238D01*
X194491428Y-47721761D01*
X194564000Y-47600809D01*
G04 #@! TO.C,SW1*
X38100000Y-48012047D02*
X38317714Y-48072523D01*
X38680571Y-48072523D01*
X38825714Y-48012047D01*
X38898285Y-47951571D01*
X38970857Y-47830619D01*
X38970857Y-47709666D01*
X38898285Y-47588714D01*
X38825714Y-47528238D01*
X38680571Y-47467761D01*
X38390285Y-47407285D01*
X38245142Y-47346809D01*
X38172571Y-47286333D01*
X38100000Y-47165380D01*
X38100000Y-47044428D01*
X38172571Y-46923476D01*
X38245142Y-46863000D01*
X38390285Y-46802523D01*
X38753142Y-46802523D01*
X38970857Y-46863000D01*
X39478857Y-46802523D02*
X39841714Y-48072523D01*
X40132000Y-47165380D01*
X40422285Y-48072523D01*
X40785142Y-46802523D01*
X42164000Y-48072523D02*
X41293142Y-48072523D01*
X41728571Y-48072523D02*
X41728571Y-46802523D01*
X41583428Y-46983952D01*
X41438285Y-47104904D01*
X41293142Y-47165380D01*
G04 #@! TO.C,SW16*
X65817285Y-67189047D02*
X66035000Y-67249523D01*
X66397857Y-67249523D01*
X66543000Y-67189047D01*
X66615571Y-67128571D01*
X66688142Y-67007619D01*
X66688142Y-66886666D01*
X66615571Y-66765714D01*
X66543000Y-66705238D01*
X66397857Y-66644761D01*
X66107571Y-66584285D01*
X65962428Y-66523809D01*
X65889857Y-66463333D01*
X65817285Y-66342380D01*
X65817285Y-66221428D01*
X65889857Y-66100476D01*
X65962428Y-66040000D01*
X66107571Y-65979523D01*
X66470428Y-65979523D01*
X66688142Y-66040000D01*
X67196142Y-65979523D02*
X67559000Y-67249523D01*
X67849285Y-66342380D01*
X68139571Y-67249523D01*
X68502428Y-65979523D01*
X69881285Y-67249523D02*
X69010428Y-67249523D01*
X69445857Y-67249523D02*
X69445857Y-65979523D01*
X69300714Y-66160952D01*
X69155571Y-66281904D01*
X69010428Y-66342380D01*
X71187571Y-65979523D02*
X70897285Y-65979523D01*
X70752142Y-66040000D01*
X70679571Y-66100476D01*
X70534428Y-66281904D01*
X70461857Y-66523809D01*
X70461857Y-67007619D01*
X70534428Y-67128571D01*
X70607000Y-67189047D01*
X70752142Y-67249523D01*
X71042428Y-67249523D01*
X71187571Y-67189047D01*
X71260142Y-67128571D01*
X71332714Y-67007619D01*
X71332714Y-66705238D01*
X71260142Y-66584285D01*
X71187571Y-66523809D01*
X71042428Y-66463333D01*
X70752142Y-66463333D01*
X70607000Y-66523809D01*
X70534428Y-66584285D01*
X70461857Y-66705238D01*
G04 #@! TO.C,SW21*
X161067285Y-67316047D02*
X161285000Y-67376523D01*
X161647857Y-67376523D01*
X161793000Y-67316047D01*
X161865571Y-67255571D01*
X161938142Y-67134619D01*
X161938142Y-67013666D01*
X161865571Y-66892714D01*
X161793000Y-66832238D01*
X161647857Y-66771761D01*
X161357571Y-66711285D01*
X161212428Y-66650809D01*
X161139857Y-66590333D01*
X161067285Y-66469380D01*
X161067285Y-66348428D01*
X161139857Y-66227476D01*
X161212428Y-66167000D01*
X161357571Y-66106523D01*
X161720428Y-66106523D01*
X161938142Y-66167000D01*
X162446142Y-66106523D02*
X162809000Y-67376523D01*
X163099285Y-66469380D01*
X163389571Y-67376523D01*
X163752428Y-66106523D01*
X164260428Y-66227476D02*
X164333000Y-66167000D01*
X164478142Y-66106523D01*
X164841000Y-66106523D01*
X164986142Y-66167000D01*
X165058714Y-66227476D01*
X165131285Y-66348428D01*
X165131285Y-66469380D01*
X165058714Y-66650809D01*
X164187857Y-67376523D01*
X165131285Y-67376523D01*
X166582714Y-67376523D02*
X165711857Y-67376523D01*
X166147285Y-67376523D02*
X166147285Y-66106523D01*
X166002142Y-66287952D01*
X165857000Y-66408904D01*
X165711857Y-66469380D01*
G04 #@! TO.C,SW30*
X70579785Y-86493047D02*
X70797500Y-86553523D01*
X71160357Y-86553523D01*
X71305500Y-86493047D01*
X71378071Y-86432571D01*
X71450642Y-86311619D01*
X71450642Y-86190666D01*
X71378071Y-86069714D01*
X71305500Y-86009238D01*
X71160357Y-85948761D01*
X70870071Y-85888285D01*
X70724928Y-85827809D01*
X70652357Y-85767333D01*
X70579785Y-85646380D01*
X70579785Y-85525428D01*
X70652357Y-85404476D01*
X70724928Y-85344000D01*
X70870071Y-85283523D01*
X71232928Y-85283523D01*
X71450642Y-85344000D01*
X71958642Y-85283523D02*
X72321500Y-86553523D01*
X72611785Y-85646380D01*
X72902071Y-86553523D01*
X73264928Y-85283523D01*
X73700357Y-85283523D02*
X74643785Y-85283523D01*
X74135785Y-85767333D01*
X74353500Y-85767333D01*
X74498642Y-85827809D01*
X74571214Y-85888285D01*
X74643785Y-86009238D01*
X74643785Y-86311619D01*
X74571214Y-86432571D01*
X74498642Y-86493047D01*
X74353500Y-86553523D01*
X73918071Y-86553523D01*
X73772928Y-86493047D01*
X73700357Y-86432571D01*
X75587214Y-85283523D02*
X75732357Y-85283523D01*
X75877500Y-85344000D01*
X75950071Y-85404476D01*
X76022642Y-85525428D01*
X76095214Y-85767333D01*
X76095214Y-86069714D01*
X76022642Y-86311619D01*
X75950071Y-86432571D01*
X75877500Y-86493047D01*
X75732357Y-86553523D01*
X75587214Y-86553523D01*
X75442071Y-86493047D01*
X75369500Y-86432571D01*
X75296928Y-86311619D01*
X75224357Y-86069714D01*
X75224357Y-85767333D01*
X75296928Y-85525428D01*
X75369500Y-85404476D01*
X75442071Y-85344000D01*
X75587214Y-85283523D01*
G04 #@! TO.C,SW43*
X80173285Y-105289047D02*
X80391000Y-105349523D01*
X80753857Y-105349523D01*
X80899000Y-105289047D01*
X80971571Y-105228571D01*
X81044142Y-105107619D01*
X81044142Y-104986666D01*
X80971571Y-104865714D01*
X80899000Y-104805238D01*
X80753857Y-104744761D01*
X80463571Y-104684285D01*
X80318428Y-104623809D01*
X80245857Y-104563333D01*
X80173285Y-104442380D01*
X80173285Y-104321428D01*
X80245857Y-104200476D01*
X80318428Y-104140000D01*
X80463571Y-104079523D01*
X80826428Y-104079523D01*
X81044142Y-104140000D01*
X81552142Y-104079523D02*
X81915000Y-105349523D01*
X82205285Y-104442380D01*
X82495571Y-105349523D01*
X82858428Y-104079523D01*
X84092142Y-104502857D02*
X84092142Y-105349523D01*
X83729285Y-104019047D02*
X83366428Y-104926190D01*
X84309857Y-104926190D01*
X84745285Y-104079523D02*
X85688714Y-104079523D01*
X85180714Y-104563333D01*
X85398428Y-104563333D01*
X85543571Y-104623809D01*
X85616142Y-104684285D01*
X85688714Y-104805238D01*
X85688714Y-105107619D01*
X85616142Y-105228571D01*
X85543571Y-105289047D01*
X85398428Y-105349523D01*
X84963000Y-105349523D01*
X84817857Y-105289047D01*
X84745285Y-105228571D01*
G04 #@! TO.C,SW54*
X39660285Y-124593047D02*
X39878000Y-124653523D01*
X40240857Y-124653523D01*
X40386000Y-124593047D01*
X40458571Y-124532571D01*
X40531142Y-124411619D01*
X40531142Y-124290666D01*
X40458571Y-124169714D01*
X40386000Y-124109238D01*
X40240857Y-124048761D01*
X39950571Y-123988285D01*
X39805428Y-123927809D01*
X39732857Y-123867333D01*
X39660285Y-123746380D01*
X39660285Y-123625428D01*
X39732857Y-123504476D01*
X39805428Y-123444000D01*
X39950571Y-123383523D01*
X40313428Y-123383523D01*
X40531142Y-123444000D01*
X41039142Y-123383523D02*
X41402000Y-124653523D01*
X41692285Y-123746380D01*
X41982571Y-124653523D01*
X42345428Y-123383523D01*
X43651714Y-123383523D02*
X42926000Y-123383523D01*
X42853428Y-123988285D01*
X42926000Y-123927809D01*
X43071142Y-123867333D01*
X43434000Y-123867333D01*
X43579142Y-123927809D01*
X43651714Y-123988285D01*
X43724285Y-124109238D01*
X43724285Y-124411619D01*
X43651714Y-124532571D01*
X43579142Y-124593047D01*
X43434000Y-124653523D01*
X43071142Y-124653523D01*
X42926000Y-124593047D01*
X42853428Y-124532571D01*
X45030571Y-123806857D02*
X45030571Y-124653523D01*
X44667714Y-123323047D02*
X44304857Y-124230190D01*
X45248285Y-124230190D01*
G04 #@! TO.C,SW58*
X230123535Y-124593047D02*
X230341250Y-124653523D01*
X230704107Y-124653523D01*
X230849250Y-124593047D01*
X230921821Y-124532571D01*
X230994392Y-124411619D01*
X230994392Y-124290666D01*
X230921821Y-124169714D01*
X230849250Y-124109238D01*
X230704107Y-124048761D01*
X230413821Y-123988285D01*
X230268678Y-123927809D01*
X230196107Y-123867333D01*
X230123535Y-123746380D01*
X230123535Y-123625428D01*
X230196107Y-123504476D01*
X230268678Y-123444000D01*
X230413821Y-123383523D01*
X230776678Y-123383523D01*
X230994392Y-123444000D01*
X231502392Y-123383523D02*
X231865250Y-124653523D01*
X232155535Y-123746380D01*
X232445821Y-124653523D01*
X232808678Y-123383523D01*
X234114964Y-123383523D02*
X233389250Y-123383523D01*
X233316678Y-123988285D01*
X233389250Y-123927809D01*
X233534392Y-123867333D01*
X233897250Y-123867333D01*
X234042392Y-123927809D01*
X234114964Y-123988285D01*
X234187535Y-124109238D01*
X234187535Y-124411619D01*
X234114964Y-124532571D01*
X234042392Y-124593047D01*
X233897250Y-124653523D01*
X233534392Y-124653523D01*
X233389250Y-124593047D01*
X233316678Y-124532571D01*
X235058392Y-123927809D02*
X234913250Y-123867333D01*
X234840678Y-123806857D01*
X234768107Y-123685904D01*
X234768107Y-123625428D01*
X234840678Y-123504476D01*
X234913250Y-123444000D01*
X235058392Y-123383523D01*
X235348678Y-123383523D01*
X235493821Y-123444000D01*
X235566392Y-123504476D01*
X235638964Y-123625428D01*
X235638964Y-123685904D01*
X235566392Y-123806857D01*
X235493821Y-123867333D01*
X235348678Y-123927809D01*
X235058392Y-123927809D01*
X234913250Y-123988285D01*
X234840678Y-124048761D01*
X234768107Y-124169714D01*
X234768107Y-124411619D01*
X234840678Y-124532571D01*
X234913250Y-124593047D01*
X235058392Y-124653523D01*
X235348678Y-124653523D01*
X235493821Y-124593047D01*
X235566392Y-124532571D01*
X235638964Y-124411619D01*
X235638964Y-124169714D01*
X235566392Y-124048761D01*
X235493821Y-123988285D01*
X235348678Y-123927809D01*
G04 #@! TO.C,SW15*
X42004785Y-67443047D02*
X42222500Y-67503523D01*
X42585357Y-67503523D01*
X42730500Y-67443047D01*
X42803071Y-67382571D01*
X42875642Y-67261619D01*
X42875642Y-67140666D01*
X42803071Y-67019714D01*
X42730500Y-66959238D01*
X42585357Y-66898761D01*
X42295071Y-66838285D01*
X42149928Y-66777809D01*
X42077357Y-66717333D01*
X42004785Y-66596380D01*
X42004785Y-66475428D01*
X42077357Y-66354476D01*
X42149928Y-66294000D01*
X42295071Y-66233523D01*
X42657928Y-66233523D01*
X42875642Y-66294000D01*
X43383642Y-66233523D02*
X43746500Y-67503523D01*
X44036785Y-66596380D01*
X44327071Y-67503523D01*
X44689928Y-66233523D01*
X46068785Y-67503523D02*
X45197928Y-67503523D01*
X45633357Y-67503523D02*
X45633357Y-66233523D01*
X45488214Y-66414952D01*
X45343071Y-66535904D01*
X45197928Y-66596380D01*
X47447642Y-66233523D02*
X46721928Y-66233523D01*
X46649357Y-66838285D01*
X46721928Y-66777809D01*
X46867071Y-66717333D01*
X47229928Y-66717333D01*
X47375071Y-66777809D01*
X47447642Y-66838285D01*
X47520214Y-66959238D01*
X47520214Y-67261619D01*
X47447642Y-67382571D01*
X47375071Y-67443047D01*
X47229928Y-67503523D01*
X46867071Y-67503523D01*
X46721928Y-67443047D01*
X46649357Y-67382571D01*
G04 #@! TO.C,SW28*
X299248285Y-67443047D02*
X299466000Y-67503523D01*
X299828857Y-67503523D01*
X299974000Y-67443047D01*
X300046571Y-67382571D01*
X300119142Y-67261619D01*
X300119142Y-67140666D01*
X300046571Y-67019714D01*
X299974000Y-66959238D01*
X299828857Y-66898761D01*
X299538571Y-66838285D01*
X299393428Y-66777809D01*
X299320857Y-66717333D01*
X299248285Y-66596380D01*
X299248285Y-66475428D01*
X299320857Y-66354476D01*
X299393428Y-66294000D01*
X299538571Y-66233523D01*
X299901428Y-66233523D01*
X300119142Y-66294000D01*
X300627142Y-66233523D02*
X300990000Y-67503523D01*
X301280285Y-66596380D01*
X301570571Y-67503523D01*
X301933428Y-66233523D01*
X302441428Y-66354476D02*
X302514000Y-66294000D01*
X302659142Y-66233523D01*
X303022000Y-66233523D01*
X303167142Y-66294000D01*
X303239714Y-66354476D01*
X303312285Y-66475428D01*
X303312285Y-66596380D01*
X303239714Y-66777809D01*
X302368857Y-67503523D01*
X303312285Y-67503523D01*
X304183142Y-66777809D02*
X304038000Y-66717333D01*
X303965428Y-66656857D01*
X303892857Y-66535904D01*
X303892857Y-66475428D01*
X303965428Y-66354476D01*
X304038000Y-66294000D01*
X304183142Y-66233523D01*
X304473428Y-66233523D01*
X304618571Y-66294000D01*
X304691142Y-66354476D01*
X304763714Y-66475428D01*
X304763714Y-66535904D01*
X304691142Y-66656857D01*
X304618571Y-66717333D01*
X304473428Y-66777809D01*
X304183142Y-66777809D01*
X304038000Y-66838285D01*
X303965428Y-66898761D01*
X303892857Y-67019714D01*
X303892857Y-67261619D01*
X303965428Y-67382571D01*
X304038000Y-67443047D01*
X304183142Y-67503523D01*
X304473428Y-67503523D01*
X304618571Y-67443047D01*
X304691142Y-67382571D01*
X304763714Y-67261619D01*
X304763714Y-67019714D01*
X304691142Y-66898761D01*
X304618571Y-66838285D01*
X304473428Y-66777809D01*
G04 #@! TO.C,SW20*
X142022285Y-67316047D02*
X142240000Y-67376523D01*
X142602857Y-67376523D01*
X142748000Y-67316047D01*
X142820571Y-67255571D01*
X142893142Y-67134619D01*
X142893142Y-67013666D01*
X142820571Y-66892714D01*
X142748000Y-66832238D01*
X142602857Y-66771761D01*
X142312571Y-66711285D01*
X142167428Y-66650809D01*
X142094857Y-66590333D01*
X142022285Y-66469380D01*
X142022285Y-66348428D01*
X142094857Y-66227476D01*
X142167428Y-66167000D01*
X142312571Y-66106523D01*
X142675428Y-66106523D01*
X142893142Y-66167000D01*
X143401142Y-66106523D02*
X143764000Y-67376523D01*
X144054285Y-66469380D01*
X144344571Y-67376523D01*
X144707428Y-66106523D01*
X145215428Y-66227476D02*
X145288000Y-66167000D01*
X145433142Y-66106523D01*
X145796000Y-66106523D01*
X145941142Y-66167000D01*
X146013714Y-66227476D01*
X146086285Y-66348428D01*
X146086285Y-66469380D01*
X146013714Y-66650809D01*
X145142857Y-67376523D01*
X146086285Y-67376523D01*
X147029714Y-66106523D02*
X147174857Y-66106523D01*
X147320000Y-66167000D01*
X147392571Y-66227476D01*
X147465142Y-66348428D01*
X147537714Y-66590333D01*
X147537714Y-66892714D01*
X147465142Y-67134619D01*
X147392571Y-67255571D01*
X147320000Y-67316047D01*
X147174857Y-67376523D01*
X147029714Y-67376523D01*
X146884571Y-67316047D01*
X146812000Y-67255571D01*
X146739428Y-67134619D01*
X146666857Y-66892714D01*
X146666857Y-66590333D01*
X146739428Y-66348428D01*
X146812000Y-66227476D01*
X146884571Y-66167000D01*
X147029714Y-66106523D01*
G04 #@! TO.C,SW29*
X44359285Y-86493047D02*
X44577000Y-86553523D01*
X44939857Y-86553523D01*
X45085000Y-86493047D01*
X45157571Y-86432571D01*
X45230142Y-86311619D01*
X45230142Y-86190666D01*
X45157571Y-86069714D01*
X45085000Y-86009238D01*
X44939857Y-85948761D01*
X44649571Y-85888285D01*
X44504428Y-85827809D01*
X44431857Y-85767333D01*
X44359285Y-85646380D01*
X44359285Y-85525428D01*
X44431857Y-85404476D01*
X44504428Y-85344000D01*
X44649571Y-85283523D01*
X45012428Y-85283523D01*
X45230142Y-85344000D01*
X45738142Y-85283523D02*
X46101000Y-86553523D01*
X46391285Y-85646380D01*
X46681571Y-86553523D01*
X47044428Y-85283523D01*
X47552428Y-85404476D02*
X47625000Y-85344000D01*
X47770142Y-85283523D01*
X48133000Y-85283523D01*
X48278142Y-85344000D01*
X48350714Y-85404476D01*
X48423285Y-85525428D01*
X48423285Y-85646380D01*
X48350714Y-85827809D01*
X47479857Y-86553523D01*
X48423285Y-86553523D01*
X49149000Y-86553523D02*
X49439285Y-86553523D01*
X49584428Y-86493047D01*
X49657000Y-86432571D01*
X49802142Y-86251142D01*
X49874714Y-86009238D01*
X49874714Y-85525428D01*
X49802142Y-85404476D01*
X49729571Y-85344000D01*
X49584428Y-85283523D01*
X49294142Y-85283523D01*
X49149000Y-85344000D01*
X49076428Y-85404476D01*
X49003857Y-85525428D01*
X49003857Y-85827809D01*
X49076428Y-85948761D01*
X49149000Y-86009238D01*
X49294142Y-86069714D01*
X49584428Y-86069714D01*
X49729571Y-86009238D01*
X49802142Y-85948761D01*
X49874714Y-85827809D01*
G04 #@! TO.C,SW14*
X294422285Y-48393047D02*
X294640000Y-48453523D01*
X295002857Y-48453523D01*
X295148000Y-48393047D01*
X295220571Y-48332571D01*
X295293142Y-48211619D01*
X295293142Y-48090666D01*
X295220571Y-47969714D01*
X295148000Y-47909238D01*
X295002857Y-47848761D01*
X294712571Y-47788285D01*
X294567428Y-47727809D01*
X294494857Y-47667333D01*
X294422285Y-47546380D01*
X294422285Y-47425428D01*
X294494857Y-47304476D01*
X294567428Y-47244000D01*
X294712571Y-47183523D01*
X295075428Y-47183523D01*
X295293142Y-47244000D01*
X295801142Y-47183523D02*
X296164000Y-48453523D01*
X296454285Y-47546380D01*
X296744571Y-48453523D01*
X297107428Y-47183523D01*
X298486285Y-48453523D02*
X297615428Y-48453523D01*
X298050857Y-48453523D02*
X298050857Y-47183523D01*
X297905714Y-47364952D01*
X297760571Y-47485904D01*
X297615428Y-47546380D01*
X299792571Y-47606857D02*
X299792571Y-48453523D01*
X299429714Y-47123047D02*
X299066857Y-48030190D01*
X300010285Y-48030190D01*
G04 #@! TO.C,SW41*
X292036035Y-86112047D02*
X292253750Y-86172523D01*
X292616607Y-86172523D01*
X292761750Y-86112047D01*
X292834321Y-86051571D01*
X292906892Y-85930619D01*
X292906892Y-85809666D01*
X292834321Y-85688714D01*
X292761750Y-85628238D01*
X292616607Y-85567761D01*
X292326321Y-85507285D01*
X292181178Y-85446809D01*
X292108607Y-85386333D01*
X292036035Y-85265380D01*
X292036035Y-85144428D01*
X292108607Y-85023476D01*
X292181178Y-84963000D01*
X292326321Y-84902523D01*
X292689178Y-84902523D01*
X292906892Y-84963000D01*
X293414892Y-84902523D02*
X293777750Y-86172523D01*
X294068035Y-85265380D01*
X294358321Y-86172523D01*
X294721178Y-84902523D01*
X295954892Y-85325857D02*
X295954892Y-86172523D01*
X295592035Y-84842047D02*
X295229178Y-85749190D01*
X296172607Y-85749190D01*
X297551464Y-86172523D02*
X296680607Y-86172523D01*
X297116035Y-86172523D02*
X297116035Y-84902523D01*
X296970892Y-85083952D01*
X296825750Y-85204904D01*
X296680607Y-85265380D01*
G04 #@! TO.C,SW53*
X287310285Y-105543047D02*
X287528000Y-105603523D01*
X287890857Y-105603523D01*
X288036000Y-105543047D01*
X288108571Y-105482571D01*
X288181142Y-105361619D01*
X288181142Y-105240666D01*
X288108571Y-105119714D01*
X288036000Y-105059238D01*
X287890857Y-104998761D01*
X287600571Y-104938285D01*
X287455428Y-104877809D01*
X287382857Y-104817333D01*
X287310285Y-104696380D01*
X287310285Y-104575428D01*
X287382857Y-104454476D01*
X287455428Y-104394000D01*
X287600571Y-104333523D01*
X287963428Y-104333523D01*
X288181142Y-104394000D01*
X288689142Y-104333523D02*
X289052000Y-105603523D01*
X289342285Y-104696380D01*
X289632571Y-105603523D01*
X289995428Y-104333523D01*
X291301714Y-104333523D02*
X290576000Y-104333523D01*
X290503428Y-104938285D01*
X290576000Y-104877809D01*
X290721142Y-104817333D01*
X291084000Y-104817333D01*
X291229142Y-104877809D01*
X291301714Y-104938285D01*
X291374285Y-105059238D01*
X291374285Y-105361619D01*
X291301714Y-105482571D01*
X291229142Y-105543047D01*
X291084000Y-105603523D01*
X290721142Y-105603523D01*
X290576000Y-105543047D01*
X290503428Y-105482571D01*
X291882285Y-104333523D02*
X292825714Y-104333523D01*
X292317714Y-104817333D01*
X292535428Y-104817333D01*
X292680571Y-104877809D01*
X292753142Y-104938285D01*
X292825714Y-105059238D01*
X292825714Y-105361619D01*
X292753142Y-105482571D01*
X292680571Y-105543047D01*
X292535428Y-105603523D01*
X292100000Y-105603523D01*
X291954857Y-105543047D01*
X291882285Y-105482571D01*
G04 #@! TO.C,SW57*
X158659285Y-124593047D02*
X158877000Y-124653523D01*
X159239857Y-124653523D01*
X159385000Y-124593047D01*
X159457571Y-124532571D01*
X159530142Y-124411619D01*
X159530142Y-124290666D01*
X159457571Y-124169714D01*
X159385000Y-124109238D01*
X159239857Y-124048761D01*
X158949571Y-123988285D01*
X158804428Y-123927809D01*
X158731857Y-123867333D01*
X158659285Y-123746380D01*
X158659285Y-123625428D01*
X158731857Y-123504476D01*
X158804428Y-123444000D01*
X158949571Y-123383523D01*
X159312428Y-123383523D01*
X159530142Y-123444000D01*
X160038142Y-123383523D02*
X160401000Y-124653523D01*
X160691285Y-123746380D01*
X160981571Y-124653523D01*
X161344428Y-123383523D01*
X162650714Y-123383523D02*
X161925000Y-123383523D01*
X161852428Y-123988285D01*
X161925000Y-123927809D01*
X162070142Y-123867333D01*
X162433000Y-123867333D01*
X162578142Y-123927809D01*
X162650714Y-123988285D01*
X162723285Y-124109238D01*
X162723285Y-124411619D01*
X162650714Y-124532571D01*
X162578142Y-124593047D01*
X162433000Y-124653523D01*
X162070142Y-124653523D01*
X161925000Y-124593047D01*
X161852428Y-124532571D01*
X163231285Y-123383523D02*
X164247285Y-123383523D01*
X163594142Y-124653523D01*
G04 #@! TO.C,J1*
D13*
X206422666Y-124801380D02*
X206422666Y-125515666D01*
X206375047Y-125658523D01*
X206279809Y-125753761D01*
X206136952Y-125801380D01*
X206041714Y-125801380D01*
X207422666Y-125801380D02*
X206851238Y-125801380D01*
X207136952Y-125801380D02*
X207136952Y-124801380D01*
X207041714Y-124944238D01*
X206946476Y-125039476D01*
X206851238Y-125087095D01*
G04 #@! TO.C,J2*
X182673666Y-32790880D02*
X182673666Y-33505166D01*
X182626047Y-33648023D01*
X182530809Y-33743261D01*
X182387952Y-33790880D01*
X182292714Y-33790880D01*
X183102238Y-32886119D02*
X183149857Y-32838500D01*
X183245095Y-32790880D01*
X183483190Y-32790880D01*
X183578428Y-32838500D01*
X183626047Y-32886119D01*
X183673666Y-32981357D01*
X183673666Y-33076595D01*
X183626047Y-33219452D01*
X183054619Y-33790880D01*
X183673666Y-33790880D01*
G04 #@! TO.C,F1*
X194484666Y-29011571D02*
X194151333Y-29011571D01*
X194151333Y-29535380D02*
X194151333Y-28535380D01*
X194627523Y-28535380D01*
X195532285Y-29535380D02*
X194960857Y-29535380D01*
X195246571Y-29535380D02*
X195246571Y-28535380D01*
X195151333Y-28678238D01*
X195056095Y-28773476D01*
X194960857Y-28821095D01*
G04 #@! TO.C,FB1*
X173791666Y-29265571D02*
X173458333Y-29265571D01*
X173458333Y-29789380D02*
X173458333Y-28789380D01*
X173934523Y-28789380D01*
X174648809Y-29265571D02*
X174791666Y-29313190D01*
X174839285Y-29360809D01*
X174886904Y-29456047D01*
X174886904Y-29598904D01*
X174839285Y-29694142D01*
X174791666Y-29741761D01*
X174696428Y-29789380D01*
X174315476Y-29789380D01*
X174315476Y-28789380D01*
X174648809Y-28789380D01*
X174744047Y-28837000D01*
X174791666Y-28884619D01*
X174839285Y-28979857D01*
X174839285Y-29075095D01*
X174791666Y-29170333D01*
X174744047Y-29217952D01*
X174648809Y-29265571D01*
X174315476Y-29265571D01*
X175839285Y-29789380D02*
X175267857Y-29789380D01*
X175553571Y-29789380D02*
X175553571Y-28789380D01*
X175458333Y-28932238D01*
X175363095Y-29027476D01*
X175267857Y-29075095D01*
G04 #@! TO.C,R4*
X184745333Y-40838380D02*
X184412000Y-40362190D01*
X184173904Y-40838380D02*
X184173904Y-39838380D01*
X184554857Y-39838380D01*
X184650095Y-39886000D01*
X184697714Y-39933619D01*
X184745333Y-40028857D01*
X184745333Y-40171714D01*
X184697714Y-40266952D01*
X184650095Y-40314571D01*
X184554857Y-40362190D01*
X184173904Y-40362190D01*
X185602476Y-40171714D02*
X185602476Y-40838380D01*
X185364380Y-39790761D02*
X185126285Y-40505047D01*
X185745333Y-40505047D01*
G04 #@! TO.C,R3*
X181824333Y-40838380D02*
X181491000Y-40362190D01*
X181252904Y-40838380D02*
X181252904Y-39838380D01*
X181633857Y-39838380D01*
X181729095Y-39886000D01*
X181776714Y-39933619D01*
X181824333Y-40028857D01*
X181824333Y-40171714D01*
X181776714Y-40266952D01*
X181729095Y-40314571D01*
X181633857Y-40362190D01*
X181252904Y-40362190D01*
X182157666Y-39838380D02*
X182776714Y-39838380D01*
X182443380Y-40219333D01*
X182586238Y-40219333D01*
X182681476Y-40266952D01*
X182729095Y-40314571D01*
X182776714Y-40409809D01*
X182776714Y-40647904D01*
X182729095Y-40743142D01*
X182681476Y-40790761D01*
X182586238Y-40838380D01*
X182300523Y-40838380D01*
X182205285Y-40790761D01*
X182157666Y-40743142D01*
G04 #@! TO.C,SW61*
D14*
X301561035Y-124466047D02*
X301778750Y-124526523D01*
X302141607Y-124526523D01*
X302286750Y-124466047D01*
X302359321Y-124405571D01*
X302431892Y-124284619D01*
X302431892Y-124163666D01*
X302359321Y-124042714D01*
X302286750Y-123982238D01*
X302141607Y-123921761D01*
X301851321Y-123861285D01*
X301706178Y-123800809D01*
X301633607Y-123740333D01*
X301561035Y-123619380D01*
X301561035Y-123498428D01*
X301633607Y-123377476D01*
X301706178Y-123317000D01*
X301851321Y-123256523D01*
X302214178Y-123256523D01*
X302431892Y-123317000D01*
X302939892Y-123256523D02*
X303302750Y-124526523D01*
X303593035Y-123619380D01*
X303883321Y-124526523D01*
X304246178Y-123256523D01*
X305479892Y-123256523D02*
X305189607Y-123256523D01*
X305044464Y-123317000D01*
X304971892Y-123377476D01*
X304826750Y-123558904D01*
X304754178Y-123800809D01*
X304754178Y-124284619D01*
X304826750Y-124405571D01*
X304899321Y-124466047D01*
X305044464Y-124526523D01*
X305334750Y-124526523D01*
X305479892Y-124466047D01*
X305552464Y-124405571D01*
X305625035Y-124284619D01*
X305625035Y-123982238D01*
X305552464Y-123861285D01*
X305479892Y-123800809D01*
X305334750Y-123740333D01*
X305044464Y-123740333D01*
X304899321Y-123800809D01*
X304826750Y-123861285D01*
X304754178Y-123982238D01*
X307076464Y-124526523D02*
X306205607Y-124526523D01*
X306641035Y-124526523D02*
X306641035Y-123256523D01*
X306495892Y-123437952D01*
X306350750Y-123558904D01*
X306205607Y-123619380D01*
G04 #@! TO.C,SW55*
X63436035Y-124593047D02*
X63653750Y-124653523D01*
X64016607Y-124653523D01*
X64161750Y-124593047D01*
X64234321Y-124532571D01*
X64306892Y-124411619D01*
X64306892Y-124290666D01*
X64234321Y-124169714D01*
X64161750Y-124109238D01*
X64016607Y-124048761D01*
X63726321Y-123988285D01*
X63581178Y-123927809D01*
X63508607Y-123867333D01*
X63436035Y-123746380D01*
X63436035Y-123625428D01*
X63508607Y-123504476D01*
X63581178Y-123444000D01*
X63726321Y-123383523D01*
X64089178Y-123383523D01*
X64306892Y-123444000D01*
X64814892Y-123383523D02*
X65177750Y-124653523D01*
X65468035Y-123746380D01*
X65758321Y-124653523D01*
X66121178Y-123383523D01*
X67427464Y-123383523D02*
X66701750Y-123383523D01*
X66629178Y-123988285D01*
X66701750Y-123927809D01*
X66846892Y-123867333D01*
X67209750Y-123867333D01*
X67354892Y-123927809D01*
X67427464Y-123988285D01*
X67500035Y-124109238D01*
X67500035Y-124411619D01*
X67427464Y-124532571D01*
X67354892Y-124593047D01*
X67209750Y-124653523D01*
X66846892Y-124653523D01*
X66701750Y-124593047D01*
X66629178Y-124532571D01*
X68878892Y-123383523D02*
X68153178Y-123383523D01*
X68080607Y-123988285D01*
X68153178Y-123927809D01*
X68298321Y-123867333D01*
X68661178Y-123867333D01*
X68806321Y-123927809D01*
X68878892Y-123988285D01*
X68951464Y-124109238D01*
X68951464Y-124411619D01*
X68878892Y-124532571D01*
X68806321Y-124593047D01*
X68661178Y-124653523D01*
X68298321Y-124653523D01*
X68153178Y-124593047D01*
X68080607Y-124532571D01*
G04 #@! TO.C,SW56*
X87285285Y-124593047D02*
X87503000Y-124653523D01*
X87865857Y-124653523D01*
X88011000Y-124593047D01*
X88083571Y-124532571D01*
X88156142Y-124411619D01*
X88156142Y-124290666D01*
X88083571Y-124169714D01*
X88011000Y-124109238D01*
X87865857Y-124048761D01*
X87575571Y-123988285D01*
X87430428Y-123927809D01*
X87357857Y-123867333D01*
X87285285Y-123746380D01*
X87285285Y-123625428D01*
X87357857Y-123504476D01*
X87430428Y-123444000D01*
X87575571Y-123383523D01*
X87938428Y-123383523D01*
X88156142Y-123444000D01*
X88664142Y-123383523D02*
X89027000Y-124653523D01*
X89317285Y-123746380D01*
X89607571Y-124653523D01*
X89970428Y-123383523D01*
X91276714Y-123383523D02*
X90551000Y-123383523D01*
X90478428Y-123988285D01*
X90551000Y-123927809D01*
X90696142Y-123867333D01*
X91059000Y-123867333D01*
X91204142Y-123927809D01*
X91276714Y-123988285D01*
X91349285Y-124109238D01*
X91349285Y-124411619D01*
X91276714Y-124532571D01*
X91204142Y-124593047D01*
X91059000Y-124653523D01*
X90696142Y-124653523D01*
X90551000Y-124593047D01*
X90478428Y-124532571D01*
X92655571Y-123383523D02*
X92365285Y-123383523D01*
X92220142Y-123444000D01*
X92147571Y-123504476D01*
X92002428Y-123685904D01*
X91929857Y-123927809D01*
X91929857Y-124411619D01*
X92002428Y-124532571D01*
X92075000Y-124593047D01*
X92220142Y-124653523D01*
X92510428Y-124653523D01*
X92655571Y-124593047D01*
X92728142Y-124532571D01*
X92800714Y-124411619D01*
X92800714Y-124109238D01*
X92728142Y-123988285D01*
X92655571Y-123927809D01*
X92510428Y-123867333D01*
X92220142Y-123867333D01*
X92075000Y-123927809D01*
X92002428Y-123988285D01*
X91929857Y-124109238D01*
G04 #@! TO.C,SW60*
X277748535Y-124466047D02*
X277966250Y-124526523D01*
X278329107Y-124526523D01*
X278474250Y-124466047D01*
X278546821Y-124405571D01*
X278619392Y-124284619D01*
X278619392Y-124163666D01*
X278546821Y-124042714D01*
X278474250Y-123982238D01*
X278329107Y-123921761D01*
X278038821Y-123861285D01*
X277893678Y-123800809D01*
X277821107Y-123740333D01*
X277748535Y-123619380D01*
X277748535Y-123498428D01*
X277821107Y-123377476D01*
X277893678Y-123317000D01*
X278038821Y-123256523D01*
X278401678Y-123256523D01*
X278619392Y-123317000D01*
X279127392Y-123256523D02*
X279490250Y-124526523D01*
X279780535Y-123619380D01*
X280070821Y-124526523D01*
X280433678Y-123256523D01*
X281667392Y-123256523D02*
X281377107Y-123256523D01*
X281231964Y-123317000D01*
X281159392Y-123377476D01*
X281014250Y-123558904D01*
X280941678Y-123800809D01*
X280941678Y-124284619D01*
X281014250Y-124405571D01*
X281086821Y-124466047D01*
X281231964Y-124526523D01*
X281522250Y-124526523D01*
X281667392Y-124466047D01*
X281739964Y-124405571D01*
X281812535Y-124284619D01*
X281812535Y-123982238D01*
X281739964Y-123861285D01*
X281667392Y-123800809D01*
X281522250Y-123740333D01*
X281231964Y-123740333D01*
X281086821Y-123800809D01*
X281014250Y-123861285D01*
X280941678Y-123982238D01*
X282755964Y-123256523D02*
X282901107Y-123256523D01*
X283046250Y-123317000D01*
X283118821Y-123377476D01*
X283191392Y-123498428D01*
X283263964Y-123740333D01*
X283263964Y-124042714D01*
X283191392Y-124284619D01*
X283118821Y-124405571D01*
X283046250Y-124466047D01*
X282901107Y-124526523D01*
X282755964Y-124526523D01*
X282610821Y-124466047D01*
X282538250Y-124405571D01*
X282465678Y-124284619D01*
X282393107Y-124042714D01*
X282393107Y-123740333D01*
X282465678Y-123498428D01*
X282538250Y-123377476D01*
X282610821Y-123317000D01*
X282755964Y-123256523D01*
G04 #@! TO.C,SW42*
X49185285Y-105289047D02*
X49403000Y-105349523D01*
X49765857Y-105349523D01*
X49911000Y-105289047D01*
X49983571Y-105228571D01*
X50056142Y-105107619D01*
X50056142Y-104986666D01*
X49983571Y-104865714D01*
X49911000Y-104805238D01*
X49765857Y-104744761D01*
X49475571Y-104684285D01*
X49330428Y-104623809D01*
X49257857Y-104563333D01*
X49185285Y-104442380D01*
X49185285Y-104321428D01*
X49257857Y-104200476D01*
X49330428Y-104140000D01*
X49475571Y-104079523D01*
X49838428Y-104079523D01*
X50056142Y-104140000D01*
X50564142Y-104079523D02*
X50927000Y-105349523D01*
X51217285Y-104442380D01*
X51507571Y-105349523D01*
X51870428Y-104079523D01*
X53104142Y-104502857D02*
X53104142Y-105349523D01*
X52741285Y-104019047D02*
X52378428Y-104926190D01*
X53321857Y-104926190D01*
X53829857Y-104200476D02*
X53902428Y-104140000D01*
X54047571Y-104079523D01*
X54410428Y-104079523D01*
X54555571Y-104140000D01*
X54628142Y-104200476D01*
X54700714Y-104321428D01*
X54700714Y-104442380D01*
X54628142Y-104623809D01*
X53757285Y-105349523D01*
X54700714Y-105349523D01*
G04 #@! TO.C,SW59*
X253909285Y-124593047D02*
X254127000Y-124653523D01*
X254489857Y-124653523D01*
X254635000Y-124593047D01*
X254707571Y-124532571D01*
X254780142Y-124411619D01*
X254780142Y-124290666D01*
X254707571Y-124169714D01*
X254635000Y-124109238D01*
X254489857Y-124048761D01*
X254199571Y-123988285D01*
X254054428Y-123927809D01*
X253981857Y-123867333D01*
X253909285Y-123746380D01*
X253909285Y-123625428D01*
X253981857Y-123504476D01*
X254054428Y-123444000D01*
X254199571Y-123383523D01*
X254562428Y-123383523D01*
X254780142Y-123444000D01*
X255288142Y-123383523D02*
X255651000Y-124653523D01*
X255941285Y-123746380D01*
X256231571Y-124653523D01*
X256594428Y-123383523D01*
X257900714Y-123383523D02*
X257175000Y-123383523D01*
X257102428Y-123988285D01*
X257175000Y-123927809D01*
X257320142Y-123867333D01*
X257683000Y-123867333D01*
X257828142Y-123927809D01*
X257900714Y-123988285D01*
X257973285Y-124109238D01*
X257973285Y-124411619D01*
X257900714Y-124532571D01*
X257828142Y-124593047D01*
X257683000Y-124653523D01*
X257320142Y-124653523D01*
X257175000Y-124593047D01*
X257102428Y-124532571D01*
X258699000Y-124653523D02*
X258989285Y-124653523D01*
X259134428Y-124593047D01*
X259207000Y-124532571D01*
X259352142Y-124351142D01*
X259424714Y-124109238D01*
X259424714Y-123625428D01*
X259352142Y-123504476D01*
X259279571Y-123444000D01*
X259134428Y-123383523D01*
X258844142Y-123383523D01*
X258699000Y-123444000D01*
X258626428Y-123504476D01*
X258553857Y-123625428D01*
X258553857Y-123927809D01*
X258626428Y-124048761D01*
X258699000Y-124109238D01*
X258844142Y-124169714D01*
X259134428Y-124169714D01*
X259279571Y-124109238D01*
X259352142Y-124048761D01*
X259424714Y-123927809D01*
G04 #@! TO.C,SW19*
X122967285Y-67316047D02*
X123185000Y-67376523D01*
X123547857Y-67376523D01*
X123693000Y-67316047D01*
X123765571Y-67255571D01*
X123838142Y-67134619D01*
X123838142Y-67013666D01*
X123765571Y-66892714D01*
X123693000Y-66832238D01*
X123547857Y-66771761D01*
X123257571Y-66711285D01*
X123112428Y-66650809D01*
X123039857Y-66590333D01*
X122967285Y-66469380D01*
X122967285Y-66348428D01*
X123039857Y-66227476D01*
X123112428Y-66167000D01*
X123257571Y-66106523D01*
X123620428Y-66106523D01*
X123838142Y-66167000D01*
X124346142Y-66106523D02*
X124709000Y-67376523D01*
X124999285Y-66469380D01*
X125289571Y-67376523D01*
X125652428Y-66106523D01*
X127031285Y-67376523D02*
X126160428Y-67376523D01*
X126595857Y-67376523D02*
X126595857Y-66106523D01*
X126450714Y-66287952D01*
X126305571Y-66408904D01*
X126160428Y-66469380D01*
X127757000Y-67376523D02*
X128047285Y-67376523D01*
X128192428Y-67316047D01*
X128265000Y-67255571D01*
X128410142Y-67074142D01*
X128482714Y-66832238D01*
X128482714Y-66348428D01*
X128410142Y-66227476D01*
X128337571Y-66167000D01*
X128192428Y-66106523D01*
X127902142Y-66106523D01*
X127757000Y-66167000D01*
X127684428Y-66227476D01*
X127611857Y-66348428D01*
X127611857Y-66650809D01*
X127684428Y-66771761D01*
X127757000Y-66832238D01*
X127902142Y-66892714D01*
X128192428Y-66892714D01*
X128337571Y-66832238D01*
X128410142Y-66771761D01*
X128482714Y-66650809D01*
G04 #@! TO.C,SW13*
X265847285Y-48266047D02*
X266065000Y-48326523D01*
X266427857Y-48326523D01*
X266573000Y-48266047D01*
X266645571Y-48205571D01*
X266718142Y-48084619D01*
X266718142Y-47963666D01*
X266645571Y-47842714D01*
X266573000Y-47782238D01*
X266427857Y-47721761D01*
X266137571Y-47661285D01*
X265992428Y-47600809D01*
X265919857Y-47540333D01*
X265847285Y-47419380D01*
X265847285Y-47298428D01*
X265919857Y-47177476D01*
X265992428Y-47117000D01*
X266137571Y-47056523D01*
X266500428Y-47056523D01*
X266718142Y-47117000D01*
X267226142Y-47056523D02*
X267589000Y-48326523D01*
X267879285Y-47419380D01*
X268169571Y-48326523D01*
X268532428Y-47056523D01*
X269911285Y-48326523D02*
X269040428Y-48326523D01*
X269475857Y-48326523D02*
X269475857Y-47056523D01*
X269330714Y-47237952D01*
X269185571Y-47358904D01*
X269040428Y-47419380D01*
X270419285Y-47056523D02*
X271362714Y-47056523D01*
X270854714Y-47540333D01*
X271072428Y-47540333D01*
X271217571Y-47600809D01*
X271290142Y-47661285D01*
X271362714Y-47782238D01*
X271362714Y-48084619D01*
X271290142Y-48205571D01*
X271217571Y-48266047D01*
X271072428Y-48326523D01*
X270637000Y-48326523D01*
X270491857Y-48266047D01*
X270419285Y-48205571D01*
G04 #@! TO.C,SW12*
X246924285Y-48139047D02*
X247142000Y-48199523D01*
X247504857Y-48199523D01*
X247650000Y-48139047D01*
X247722571Y-48078571D01*
X247795142Y-47957619D01*
X247795142Y-47836666D01*
X247722571Y-47715714D01*
X247650000Y-47655238D01*
X247504857Y-47594761D01*
X247214571Y-47534285D01*
X247069428Y-47473809D01*
X246996857Y-47413333D01*
X246924285Y-47292380D01*
X246924285Y-47171428D01*
X246996857Y-47050476D01*
X247069428Y-46990000D01*
X247214571Y-46929523D01*
X247577428Y-46929523D01*
X247795142Y-46990000D01*
X248303142Y-46929523D02*
X248666000Y-48199523D01*
X248956285Y-47292380D01*
X249246571Y-48199523D01*
X249609428Y-46929523D01*
X250988285Y-48199523D02*
X250117428Y-48199523D01*
X250552857Y-48199523D02*
X250552857Y-46929523D01*
X250407714Y-47110952D01*
X250262571Y-47231904D01*
X250117428Y-47292380D01*
X251568857Y-47050476D02*
X251641428Y-46990000D01*
X251786571Y-46929523D01*
X252149428Y-46929523D01*
X252294571Y-46990000D01*
X252367142Y-47050476D01*
X252439714Y-47171428D01*
X252439714Y-47292380D01*
X252367142Y-47473809D01*
X251496285Y-48199523D01*
X252439714Y-48199523D01*
G04 #@! TO.C,SW11*
X227874285Y-48139047D02*
X228092000Y-48199523D01*
X228454857Y-48199523D01*
X228600000Y-48139047D01*
X228672571Y-48078571D01*
X228745142Y-47957619D01*
X228745142Y-47836666D01*
X228672571Y-47715714D01*
X228600000Y-47655238D01*
X228454857Y-47594761D01*
X228164571Y-47534285D01*
X228019428Y-47473809D01*
X227946857Y-47413333D01*
X227874285Y-47292380D01*
X227874285Y-47171428D01*
X227946857Y-47050476D01*
X228019428Y-46990000D01*
X228164571Y-46929523D01*
X228527428Y-46929523D01*
X228745142Y-46990000D01*
X229253142Y-46929523D02*
X229616000Y-48199523D01*
X229906285Y-47292380D01*
X230196571Y-48199523D01*
X230559428Y-46929523D01*
X231938285Y-48199523D02*
X231067428Y-48199523D01*
X231502857Y-48199523D02*
X231502857Y-46929523D01*
X231357714Y-47110952D01*
X231212571Y-47231904D01*
X231067428Y-47292380D01*
X233389714Y-48199523D02*
X232518857Y-48199523D01*
X232954285Y-48199523D02*
X232954285Y-46929523D01*
X232809142Y-47110952D01*
X232664000Y-47231904D01*
X232518857Y-47292380D01*
G04 #@! TO.C,SW10*
X208951285Y-48266047D02*
X209169000Y-48326523D01*
X209531857Y-48326523D01*
X209677000Y-48266047D01*
X209749571Y-48205571D01*
X209822142Y-48084619D01*
X209822142Y-47963666D01*
X209749571Y-47842714D01*
X209677000Y-47782238D01*
X209531857Y-47721761D01*
X209241571Y-47661285D01*
X209096428Y-47600809D01*
X209023857Y-47540333D01*
X208951285Y-47419380D01*
X208951285Y-47298428D01*
X209023857Y-47177476D01*
X209096428Y-47117000D01*
X209241571Y-47056523D01*
X209604428Y-47056523D01*
X209822142Y-47117000D01*
X210330142Y-47056523D02*
X210693000Y-48326523D01*
X210983285Y-47419380D01*
X211273571Y-48326523D01*
X211636428Y-47056523D01*
X213015285Y-48326523D02*
X212144428Y-48326523D01*
X212579857Y-48326523D02*
X212579857Y-47056523D01*
X212434714Y-47237952D01*
X212289571Y-47358904D01*
X212144428Y-47419380D01*
X213958714Y-47056523D02*
X214103857Y-47056523D01*
X214249000Y-47117000D01*
X214321571Y-47177476D01*
X214394142Y-47298428D01*
X214466714Y-47540333D01*
X214466714Y-47842714D01*
X214394142Y-48084619D01*
X214321571Y-48205571D01*
X214249000Y-48266047D01*
X214103857Y-48326523D01*
X213958714Y-48326523D01*
X213813571Y-48266047D01*
X213741000Y-48205571D01*
X213668428Y-48084619D01*
X213595857Y-47842714D01*
X213595857Y-47540333D01*
X213668428Y-47298428D01*
X213741000Y-47177476D01*
X213813571Y-47117000D01*
X213958714Y-47056523D01*
G04 #@! TO.C,SW8*
X171318000Y-48012047D02*
X171535714Y-48072523D01*
X171898571Y-48072523D01*
X172043714Y-48012047D01*
X172116285Y-47951571D01*
X172188857Y-47830619D01*
X172188857Y-47709666D01*
X172116285Y-47588714D01*
X172043714Y-47528238D01*
X171898571Y-47467761D01*
X171608285Y-47407285D01*
X171463142Y-47346809D01*
X171390571Y-47286333D01*
X171318000Y-47165380D01*
X171318000Y-47044428D01*
X171390571Y-46923476D01*
X171463142Y-46863000D01*
X171608285Y-46802523D01*
X171971142Y-46802523D01*
X172188857Y-46863000D01*
X172696857Y-46802523D02*
X173059714Y-48072523D01*
X173350000Y-47165380D01*
X173640285Y-48072523D01*
X174003142Y-46802523D01*
X174801428Y-47346809D02*
X174656285Y-47286333D01*
X174583714Y-47225857D01*
X174511142Y-47104904D01*
X174511142Y-47044428D01*
X174583714Y-46923476D01*
X174656285Y-46863000D01*
X174801428Y-46802523D01*
X175091714Y-46802523D01*
X175236857Y-46863000D01*
X175309428Y-46923476D01*
X175382000Y-47044428D01*
X175382000Y-47104904D01*
X175309428Y-47225857D01*
X175236857Y-47286333D01*
X175091714Y-47346809D01*
X174801428Y-47346809D01*
X174656285Y-47407285D01*
X174583714Y-47467761D01*
X174511142Y-47588714D01*
X174511142Y-47830619D01*
X174583714Y-47951571D01*
X174656285Y-48012047D01*
X174801428Y-48072523D01*
X175091714Y-48072523D01*
X175236857Y-48012047D01*
X175309428Y-47951571D01*
X175382000Y-47830619D01*
X175382000Y-47588714D01*
X175309428Y-47467761D01*
X175236857Y-47407285D01*
X175091714Y-47346809D01*
G04 #@! TO.C,SW7*
X152400000Y-48139047D02*
X152617714Y-48199523D01*
X152980571Y-48199523D01*
X153125714Y-48139047D01*
X153198285Y-48078571D01*
X153270857Y-47957619D01*
X153270857Y-47836666D01*
X153198285Y-47715714D01*
X153125714Y-47655238D01*
X152980571Y-47594761D01*
X152690285Y-47534285D01*
X152545142Y-47473809D01*
X152472571Y-47413333D01*
X152400000Y-47292380D01*
X152400000Y-47171428D01*
X152472571Y-47050476D01*
X152545142Y-46990000D01*
X152690285Y-46929523D01*
X153053142Y-46929523D01*
X153270857Y-46990000D01*
X153778857Y-46929523D02*
X154141714Y-48199523D01*
X154432000Y-47292380D01*
X154722285Y-48199523D01*
X155085142Y-46929523D01*
X155520571Y-46929523D02*
X156536571Y-46929523D01*
X155883428Y-48199523D01*
G04 #@! TO.C,SW6*
X133477000Y-48266047D02*
X133694714Y-48326523D01*
X134057571Y-48326523D01*
X134202714Y-48266047D01*
X134275285Y-48205571D01*
X134347857Y-48084619D01*
X134347857Y-47963666D01*
X134275285Y-47842714D01*
X134202714Y-47782238D01*
X134057571Y-47721761D01*
X133767285Y-47661285D01*
X133622142Y-47600809D01*
X133549571Y-47540333D01*
X133477000Y-47419380D01*
X133477000Y-47298428D01*
X133549571Y-47177476D01*
X133622142Y-47117000D01*
X133767285Y-47056523D01*
X134130142Y-47056523D01*
X134347857Y-47117000D01*
X134855857Y-47056523D02*
X135218714Y-48326523D01*
X135509000Y-47419380D01*
X135799285Y-48326523D01*
X136162142Y-47056523D01*
X137395857Y-47056523D02*
X137105571Y-47056523D01*
X136960428Y-47117000D01*
X136887857Y-47177476D01*
X136742714Y-47358904D01*
X136670142Y-47600809D01*
X136670142Y-48084619D01*
X136742714Y-48205571D01*
X136815285Y-48266047D01*
X136960428Y-48326523D01*
X137250714Y-48326523D01*
X137395857Y-48266047D01*
X137468428Y-48205571D01*
X137541000Y-48084619D01*
X137541000Y-47782238D01*
X137468428Y-47661285D01*
X137395857Y-47600809D01*
X137250714Y-47540333D01*
X136960428Y-47540333D01*
X136815285Y-47600809D01*
X136742714Y-47661285D01*
X136670142Y-47782238D01*
G04 #@! TO.C,SW5*
X114046000Y-48139047D02*
X114263714Y-48199523D01*
X114626571Y-48199523D01*
X114771714Y-48139047D01*
X114844285Y-48078571D01*
X114916857Y-47957619D01*
X114916857Y-47836666D01*
X114844285Y-47715714D01*
X114771714Y-47655238D01*
X114626571Y-47594761D01*
X114336285Y-47534285D01*
X114191142Y-47473809D01*
X114118571Y-47413333D01*
X114046000Y-47292380D01*
X114046000Y-47171428D01*
X114118571Y-47050476D01*
X114191142Y-46990000D01*
X114336285Y-46929523D01*
X114699142Y-46929523D01*
X114916857Y-46990000D01*
X115424857Y-46929523D02*
X115787714Y-48199523D01*
X116078000Y-47292380D01*
X116368285Y-48199523D01*
X116731142Y-46929523D01*
X118037428Y-46929523D02*
X117311714Y-46929523D01*
X117239142Y-47534285D01*
X117311714Y-47473809D01*
X117456857Y-47413333D01*
X117819714Y-47413333D01*
X117964857Y-47473809D01*
X118037428Y-47534285D01*
X118110000Y-47655238D01*
X118110000Y-47957619D01*
X118037428Y-48078571D01*
X117964857Y-48139047D01*
X117819714Y-48199523D01*
X117456857Y-48199523D01*
X117311714Y-48139047D01*
X117239142Y-48078571D01*
G04 #@! TO.C,SW4*
X95377000Y-48012047D02*
X95594714Y-48072523D01*
X95957571Y-48072523D01*
X96102714Y-48012047D01*
X96175285Y-47951571D01*
X96247857Y-47830619D01*
X96247857Y-47709666D01*
X96175285Y-47588714D01*
X96102714Y-47528238D01*
X95957571Y-47467761D01*
X95667285Y-47407285D01*
X95522142Y-47346809D01*
X95449571Y-47286333D01*
X95377000Y-47165380D01*
X95377000Y-47044428D01*
X95449571Y-46923476D01*
X95522142Y-46863000D01*
X95667285Y-46802523D01*
X96030142Y-46802523D01*
X96247857Y-46863000D01*
X96755857Y-46802523D02*
X97118714Y-48072523D01*
X97409000Y-47165380D01*
X97699285Y-48072523D01*
X98062142Y-46802523D01*
X99295857Y-47225857D02*
X99295857Y-48072523D01*
X98933000Y-46742047D02*
X98570142Y-47649190D01*
X99513571Y-47649190D01*
G04 #@! TO.C,SW3*
X76327000Y-48012047D02*
X76544714Y-48072523D01*
X76907571Y-48072523D01*
X77052714Y-48012047D01*
X77125285Y-47951571D01*
X77197857Y-47830619D01*
X77197857Y-47709666D01*
X77125285Y-47588714D01*
X77052714Y-47528238D01*
X76907571Y-47467761D01*
X76617285Y-47407285D01*
X76472142Y-47346809D01*
X76399571Y-47286333D01*
X76327000Y-47165380D01*
X76327000Y-47044428D01*
X76399571Y-46923476D01*
X76472142Y-46863000D01*
X76617285Y-46802523D01*
X76980142Y-46802523D01*
X77197857Y-46863000D01*
X77705857Y-46802523D02*
X78068714Y-48072523D01*
X78359000Y-47165380D01*
X78649285Y-48072523D01*
X79012142Y-46802523D01*
X79447571Y-46802523D02*
X80391000Y-46802523D01*
X79883000Y-47286333D01*
X80100714Y-47286333D01*
X80245857Y-47346809D01*
X80318428Y-47407285D01*
X80391000Y-47528238D01*
X80391000Y-47830619D01*
X80318428Y-47951571D01*
X80245857Y-48012047D01*
X80100714Y-48072523D01*
X79665285Y-48072523D01*
X79520142Y-48012047D01*
X79447571Y-47951571D01*
G04 #@! TO.C,SW33*
X127798285Y-86493047D02*
X128016000Y-86553523D01*
X128378857Y-86553523D01*
X128524000Y-86493047D01*
X128596571Y-86432571D01*
X128669142Y-86311619D01*
X128669142Y-86190666D01*
X128596571Y-86069714D01*
X128524000Y-86009238D01*
X128378857Y-85948761D01*
X128088571Y-85888285D01*
X127943428Y-85827809D01*
X127870857Y-85767333D01*
X127798285Y-85646380D01*
X127798285Y-85525428D01*
X127870857Y-85404476D01*
X127943428Y-85344000D01*
X128088571Y-85283523D01*
X128451428Y-85283523D01*
X128669142Y-85344000D01*
X129177142Y-85283523D02*
X129540000Y-86553523D01*
X129830285Y-85646380D01*
X130120571Y-86553523D01*
X130483428Y-85283523D01*
X130918857Y-85283523D02*
X131862285Y-85283523D01*
X131354285Y-85767333D01*
X131572000Y-85767333D01*
X131717142Y-85827809D01*
X131789714Y-85888285D01*
X131862285Y-86009238D01*
X131862285Y-86311619D01*
X131789714Y-86432571D01*
X131717142Y-86493047D01*
X131572000Y-86553523D01*
X131136571Y-86553523D01*
X130991428Y-86493047D01*
X130918857Y-86432571D01*
X132370285Y-85283523D02*
X133313714Y-85283523D01*
X132805714Y-85767333D01*
X133023428Y-85767333D01*
X133168571Y-85827809D01*
X133241142Y-85888285D01*
X133313714Y-86009238D01*
X133313714Y-86311619D01*
X133241142Y-86432571D01*
X133168571Y-86493047D01*
X133023428Y-86553523D01*
X132588000Y-86553523D01*
X132442857Y-86493047D01*
X132370285Y-86432571D01*
G04 #@! TO.C,SW18*
X104049285Y-67316047D02*
X104267000Y-67376523D01*
X104629857Y-67376523D01*
X104775000Y-67316047D01*
X104847571Y-67255571D01*
X104920142Y-67134619D01*
X104920142Y-67013666D01*
X104847571Y-66892714D01*
X104775000Y-66832238D01*
X104629857Y-66771761D01*
X104339571Y-66711285D01*
X104194428Y-66650809D01*
X104121857Y-66590333D01*
X104049285Y-66469380D01*
X104049285Y-66348428D01*
X104121857Y-66227476D01*
X104194428Y-66167000D01*
X104339571Y-66106523D01*
X104702428Y-66106523D01*
X104920142Y-66167000D01*
X105428142Y-66106523D02*
X105791000Y-67376523D01*
X106081285Y-66469380D01*
X106371571Y-67376523D01*
X106734428Y-66106523D01*
X108113285Y-67376523D02*
X107242428Y-67376523D01*
X107677857Y-67376523D02*
X107677857Y-66106523D01*
X107532714Y-66287952D01*
X107387571Y-66408904D01*
X107242428Y-66469380D01*
X108984142Y-66650809D02*
X108839000Y-66590333D01*
X108766428Y-66529857D01*
X108693857Y-66408904D01*
X108693857Y-66348428D01*
X108766428Y-66227476D01*
X108839000Y-66167000D01*
X108984142Y-66106523D01*
X109274428Y-66106523D01*
X109419571Y-66167000D01*
X109492142Y-66227476D01*
X109564714Y-66348428D01*
X109564714Y-66408904D01*
X109492142Y-66529857D01*
X109419571Y-66590333D01*
X109274428Y-66650809D01*
X108984142Y-66650809D01*
X108839000Y-66711285D01*
X108766428Y-66771761D01*
X108693857Y-66892714D01*
X108693857Y-67134619D01*
X108766428Y-67255571D01*
X108839000Y-67316047D01*
X108984142Y-67376523D01*
X109274428Y-67376523D01*
X109419571Y-67316047D01*
X109492142Y-67255571D01*
X109564714Y-67134619D01*
X109564714Y-66892714D01*
X109492142Y-66771761D01*
X109419571Y-66711285D01*
X109274428Y-66650809D01*
G04 #@! TO.C,SW23*
X199172285Y-67443047D02*
X199390000Y-67503523D01*
X199752857Y-67503523D01*
X199898000Y-67443047D01*
X199970571Y-67382571D01*
X200043142Y-67261619D01*
X200043142Y-67140666D01*
X199970571Y-67019714D01*
X199898000Y-66959238D01*
X199752857Y-66898761D01*
X199462571Y-66838285D01*
X199317428Y-66777809D01*
X199244857Y-66717333D01*
X199172285Y-66596380D01*
X199172285Y-66475428D01*
X199244857Y-66354476D01*
X199317428Y-66294000D01*
X199462571Y-66233523D01*
X199825428Y-66233523D01*
X200043142Y-66294000D01*
X200551142Y-66233523D02*
X200914000Y-67503523D01*
X201204285Y-66596380D01*
X201494571Y-67503523D01*
X201857428Y-66233523D01*
X202365428Y-66354476D02*
X202438000Y-66294000D01*
X202583142Y-66233523D01*
X202946000Y-66233523D01*
X203091142Y-66294000D01*
X203163714Y-66354476D01*
X203236285Y-66475428D01*
X203236285Y-66596380D01*
X203163714Y-66777809D01*
X202292857Y-67503523D01*
X203236285Y-67503523D01*
X203744285Y-66233523D02*
X204687714Y-66233523D01*
X204179714Y-66717333D01*
X204397428Y-66717333D01*
X204542571Y-66777809D01*
X204615142Y-66838285D01*
X204687714Y-66959238D01*
X204687714Y-67261619D01*
X204615142Y-67382571D01*
X204542571Y-67443047D01*
X204397428Y-67503523D01*
X203962000Y-67503523D01*
X203816857Y-67443047D01*
X203744285Y-67382571D01*
G04 #@! TO.C,SW24*
X218222285Y-67443047D02*
X218440000Y-67503523D01*
X218802857Y-67503523D01*
X218948000Y-67443047D01*
X219020571Y-67382571D01*
X219093142Y-67261619D01*
X219093142Y-67140666D01*
X219020571Y-67019714D01*
X218948000Y-66959238D01*
X218802857Y-66898761D01*
X218512571Y-66838285D01*
X218367428Y-66777809D01*
X218294857Y-66717333D01*
X218222285Y-66596380D01*
X218222285Y-66475428D01*
X218294857Y-66354476D01*
X218367428Y-66294000D01*
X218512571Y-66233523D01*
X218875428Y-66233523D01*
X219093142Y-66294000D01*
X219601142Y-66233523D02*
X219964000Y-67503523D01*
X220254285Y-66596380D01*
X220544571Y-67503523D01*
X220907428Y-66233523D01*
X221415428Y-66354476D02*
X221488000Y-66294000D01*
X221633142Y-66233523D01*
X221996000Y-66233523D01*
X222141142Y-66294000D01*
X222213714Y-66354476D01*
X222286285Y-66475428D01*
X222286285Y-66596380D01*
X222213714Y-66777809D01*
X221342857Y-67503523D01*
X222286285Y-67503523D01*
X223592571Y-66656857D02*
X223592571Y-67503523D01*
X223229714Y-66173047D02*
X222866857Y-67080190D01*
X223810285Y-67080190D01*
G04 #@! TO.C,SW25*
X237272285Y-67443047D02*
X237490000Y-67503523D01*
X237852857Y-67503523D01*
X237998000Y-67443047D01*
X238070571Y-67382571D01*
X238143142Y-67261619D01*
X238143142Y-67140666D01*
X238070571Y-67019714D01*
X237998000Y-66959238D01*
X237852857Y-66898761D01*
X237562571Y-66838285D01*
X237417428Y-66777809D01*
X237344857Y-66717333D01*
X237272285Y-66596380D01*
X237272285Y-66475428D01*
X237344857Y-66354476D01*
X237417428Y-66294000D01*
X237562571Y-66233523D01*
X237925428Y-66233523D01*
X238143142Y-66294000D01*
X238651142Y-66233523D02*
X239014000Y-67503523D01*
X239304285Y-66596380D01*
X239594571Y-67503523D01*
X239957428Y-66233523D01*
X240465428Y-66354476D02*
X240538000Y-66294000D01*
X240683142Y-66233523D01*
X241046000Y-66233523D01*
X241191142Y-66294000D01*
X241263714Y-66354476D01*
X241336285Y-66475428D01*
X241336285Y-66596380D01*
X241263714Y-66777809D01*
X240392857Y-67503523D01*
X241336285Y-67503523D01*
X242715142Y-66233523D02*
X241989428Y-66233523D01*
X241916857Y-66838285D01*
X241989428Y-66777809D01*
X242134571Y-66717333D01*
X242497428Y-66717333D01*
X242642571Y-66777809D01*
X242715142Y-66838285D01*
X242787714Y-66959238D01*
X242787714Y-67261619D01*
X242715142Y-67382571D01*
X242642571Y-67443047D01*
X242497428Y-67503523D01*
X242134571Y-67503523D01*
X241989428Y-67443047D01*
X241916857Y-67382571D01*
G04 #@! TO.C,SW26*
X256322285Y-67443047D02*
X256540000Y-67503523D01*
X256902857Y-67503523D01*
X257048000Y-67443047D01*
X257120571Y-67382571D01*
X257193142Y-67261619D01*
X257193142Y-67140666D01*
X257120571Y-67019714D01*
X257048000Y-66959238D01*
X256902857Y-66898761D01*
X256612571Y-66838285D01*
X256467428Y-66777809D01*
X256394857Y-66717333D01*
X256322285Y-66596380D01*
X256322285Y-66475428D01*
X256394857Y-66354476D01*
X256467428Y-66294000D01*
X256612571Y-66233523D01*
X256975428Y-66233523D01*
X257193142Y-66294000D01*
X257701142Y-66233523D02*
X258064000Y-67503523D01*
X258354285Y-66596380D01*
X258644571Y-67503523D01*
X259007428Y-66233523D01*
X259515428Y-66354476D02*
X259588000Y-66294000D01*
X259733142Y-66233523D01*
X260096000Y-66233523D01*
X260241142Y-66294000D01*
X260313714Y-66354476D01*
X260386285Y-66475428D01*
X260386285Y-66596380D01*
X260313714Y-66777809D01*
X259442857Y-67503523D01*
X260386285Y-67503523D01*
X261692571Y-66233523D02*
X261402285Y-66233523D01*
X261257142Y-66294000D01*
X261184571Y-66354476D01*
X261039428Y-66535904D01*
X260966857Y-66777809D01*
X260966857Y-67261619D01*
X261039428Y-67382571D01*
X261112000Y-67443047D01*
X261257142Y-67503523D01*
X261547428Y-67503523D01*
X261692571Y-67443047D01*
X261765142Y-67382571D01*
X261837714Y-67261619D01*
X261837714Y-66959238D01*
X261765142Y-66838285D01*
X261692571Y-66777809D01*
X261547428Y-66717333D01*
X261257142Y-66717333D01*
X261112000Y-66777809D01*
X261039428Y-66838285D01*
X260966857Y-66959238D01*
G04 #@! TO.C,SW27*
X275499285Y-67443047D02*
X275717000Y-67503523D01*
X276079857Y-67503523D01*
X276225000Y-67443047D01*
X276297571Y-67382571D01*
X276370142Y-67261619D01*
X276370142Y-67140666D01*
X276297571Y-67019714D01*
X276225000Y-66959238D01*
X276079857Y-66898761D01*
X275789571Y-66838285D01*
X275644428Y-66777809D01*
X275571857Y-66717333D01*
X275499285Y-66596380D01*
X275499285Y-66475428D01*
X275571857Y-66354476D01*
X275644428Y-66294000D01*
X275789571Y-66233523D01*
X276152428Y-66233523D01*
X276370142Y-66294000D01*
X276878142Y-66233523D02*
X277241000Y-67503523D01*
X277531285Y-66596380D01*
X277821571Y-67503523D01*
X278184428Y-66233523D01*
X278692428Y-66354476D02*
X278765000Y-66294000D01*
X278910142Y-66233523D01*
X279273000Y-66233523D01*
X279418142Y-66294000D01*
X279490714Y-66354476D01*
X279563285Y-66475428D01*
X279563285Y-66596380D01*
X279490714Y-66777809D01*
X278619857Y-67503523D01*
X279563285Y-67503523D01*
X280071285Y-66233523D02*
X281087285Y-66233523D01*
X280434142Y-67503523D01*
G04 #@! TO.C,SW31*
X89629785Y-86493047D02*
X89847500Y-86553523D01*
X90210357Y-86553523D01*
X90355500Y-86493047D01*
X90428071Y-86432571D01*
X90500642Y-86311619D01*
X90500642Y-86190666D01*
X90428071Y-86069714D01*
X90355500Y-86009238D01*
X90210357Y-85948761D01*
X89920071Y-85888285D01*
X89774928Y-85827809D01*
X89702357Y-85767333D01*
X89629785Y-85646380D01*
X89629785Y-85525428D01*
X89702357Y-85404476D01*
X89774928Y-85344000D01*
X89920071Y-85283523D01*
X90282928Y-85283523D01*
X90500642Y-85344000D01*
X91008642Y-85283523D02*
X91371500Y-86553523D01*
X91661785Y-85646380D01*
X91952071Y-86553523D01*
X92314928Y-85283523D01*
X92750357Y-85283523D02*
X93693785Y-85283523D01*
X93185785Y-85767333D01*
X93403500Y-85767333D01*
X93548642Y-85827809D01*
X93621214Y-85888285D01*
X93693785Y-86009238D01*
X93693785Y-86311619D01*
X93621214Y-86432571D01*
X93548642Y-86493047D01*
X93403500Y-86553523D01*
X92968071Y-86553523D01*
X92822928Y-86493047D01*
X92750357Y-86432571D01*
X95145214Y-86553523D02*
X94274357Y-86553523D01*
X94709785Y-86553523D02*
X94709785Y-85283523D01*
X94564642Y-85464952D01*
X94419500Y-85585904D01*
X94274357Y-85646380D01*
G04 #@! TO.C,SW48*
X177836285Y-106432047D02*
X178054000Y-106492523D01*
X178416857Y-106492523D01*
X178562000Y-106432047D01*
X178634571Y-106371571D01*
X178707142Y-106250619D01*
X178707142Y-106129666D01*
X178634571Y-106008714D01*
X178562000Y-105948238D01*
X178416857Y-105887761D01*
X178126571Y-105827285D01*
X177981428Y-105766809D01*
X177908857Y-105706333D01*
X177836285Y-105585380D01*
X177836285Y-105464428D01*
X177908857Y-105343476D01*
X177981428Y-105283000D01*
X178126571Y-105222523D01*
X178489428Y-105222523D01*
X178707142Y-105283000D01*
X179215142Y-105222523D02*
X179578000Y-106492523D01*
X179868285Y-105585380D01*
X180158571Y-106492523D01*
X180521428Y-105222523D01*
X181755142Y-105645857D02*
X181755142Y-106492523D01*
X181392285Y-105162047D02*
X181029428Y-106069190D01*
X181972857Y-106069190D01*
X182771142Y-105766809D02*
X182626000Y-105706333D01*
X182553428Y-105645857D01*
X182480857Y-105524904D01*
X182480857Y-105464428D01*
X182553428Y-105343476D01*
X182626000Y-105283000D01*
X182771142Y-105222523D01*
X183061428Y-105222523D01*
X183206571Y-105283000D01*
X183279142Y-105343476D01*
X183351714Y-105464428D01*
X183351714Y-105524904D01*
X183279142Y-105645857D01*
X183206571Y-105706333D01*
X183061428Y-105766809D01*
X182771142Y-105766809D01*
X182626000Y-105827285D01*
X182553428Y-105887761D01*
X182480857Y-106008714D01*
X182480857Y-106250619D01*
X182553428Y-106371571D01*
X182626000Y-106432047D01*
X182771142Y-106492523D01*
X183061428Y-106492523D01*
X183206571Y-106432047D01*
X183279142Y-106371571D01*
X183351714Y-106250619D01*
X183351714Y-106008714D01*
X183279142Y-105887761D01*
X183206571Y-105827285D01*
X183061428Y-105766809D01*
G04 #@! TO.C,SW2*
X57277000Y-48012047D02*
X57494714Y-48072523D01*
X57857571Y-48072523D01*
X58002714Y-48012047D01*
X58075285Y-47951571D01*
X58147857Y-47830619D01*
X58147857Y-47709666D01*
X58075285Y-47588714D01*
X58002714Y-47528238D01*
X57857571Y-47467761D01*
X57567285Y-47407285D01*
X57422142Y-47346809D01*
X57349571Y-47286333D01*
X57277000Y-47165380D01*
X57277000Y-47044428D01*
X57349571Y-46923476D01*
X57422142Y-46863000D01*
X57567285Y-46802523D01*
X57930142Y-46802523D01*
X58147857Y-46863000D01*
X58655857Y-46802523D02*
X59018714Y-48072523D01*
X59309000Y-47165380D01*
X59599285Y-48072523D01*
X59962142Y-46802523D01*
X60470142Y-46923476D02*
X60542714Y-46863000D01*
X60687857Y-46802523D01*
X61050714Y-46802523D01*
X61195857Y-46863000D01*
X61268428Y-46923476D01*
X61341000Y-47044428D01*
X61341000Y-47165380D01*
X61268428Y-47346809D01*
X60397571Y-48072523D01*
X61341000Y-48072523D01*
G04 #@! TO.C,SW17*
X84872285Y-67316047D02*
X85090000Y-67376523D01*
X85452857Y-67376523D01*
X85598000Y-67316047D01*
X85670571Y-67255571D01*
X85743142Y-67134619D01*
X85743142Y-67013666D01*
X85670571Y-66892714D01*
X85598000Y-66832238D01*
X85452857Y-66771761D01*
X85162571Y-66711285D01*
X85017428Y-66650809D01*
X84944857Y-66590333D01*
X84872285Y-66469380D01*
X84872285Y-66348428D01*
X84944857Y-66227476D01*
X85017428Y-66167000D01*
X85162571Y-66106523D01*
X85525428Y-66106523D01*
X85743142Y-66167000D01*
X86251142Y-66106523D02*
X86614000Y-67376523D01*
X86904285Y-66469380D01*
X87194571Y-67376523D01*
X87557428Y-66106523D01*
X88936285Y-67376523D02*
X88065428Y-67376523D01*
X88500857Y-67376523D02*
X88500857Y-66106523D01*
X88355714Y-66287952D01*
X88210571Y-66408904D01*
X88065428Y-66469380D01*
X89444285Y-66106523D02*
X90460285Y-66106523D01*
X89807142Y-67376523D01*
G04 #@! TO.C,SW34*
X146721285Y-86493047D02*
X146939000Y-86553523D01*
X147301857Y-86553523D01*
X147447000Y-86493047D01*
X147519571Y-86432571D01*
X147592142Y-86311619D01*
X147592142Y-86190666D01*
X147519571Y-86069714D01*
X147447000Y-86009238D01*
X147301857Y-85948761D01*
X147011571Y-85888285D01*
X146866428Y-85827809D01*
X146793857Y-85767333D01*
X146721285Y-85646380D01*
X146721285Y-85525428D01*
X146793857Y-85404476D01*
X146866428Y-85344000D01*
X147011571Y-85283523D01*
X147374428Y-85283523D01*
X147592142Y-85344000D01*
X148100142Y-85283523D02*
X148463000Y-86553523D01*
X148753285Y-85646380D01*
X149043571Y-86553523D01*
X149406428Y-85283523D01*
X149841857Y-85283523D02*
X150785285Y-85283523D01*
X150277285Y-85767333D01*
X150495000Y-85767333D01*
X150640142Y-85827809D01*
X150712714Y-85888285D01*
X150785285Y-86009238D01*
X150785285Y-86311619D01*
X150712714Y-86432571D01*
X150640142Y-86493047D01*
X150495000Y-86553523D01*
X150059571Y-86553523D01*
X149914428Y-86493047D01*
X149841857Y-86432571D01*
X152091571Y-85706857D02*
X152091571Y-86553523D01*
X151728714Y-85223047D02*
X151365857Y-86130190D01*
X152309285Y-86130190D01*
G04 #@! TO.C,SW35*
X165829785Y-86493047D02*
X166047500Y-86553523D01*
X166410357Y-86553523D01*
X166555500Y-86493047D01*
X166628071Y-86432571D01*
X166700642Y-86311619D01*
X166700642Y-86190666D01*
X166628071Y-86069714D01*
X166555500Y-86009238D01*
X166410357Y-85948761D01*
X166120071Y-85888285D01*
X165974928Y-85827809D01*
X165902357Y-85767333D01*
X165829785Y-85646380D01*
X165829785Y-85525428D01*
X165902357Y-85404476D01*
X165974928Y-85344000D01*
X166120071Y-85283523D01*
X166482928Y-85283523D01*
X166700642Y-85344000D01*
X167208642Y-85283523D02*
X167571500Y-86553523D01*
X167861785Y-85646380D01*
X168152071Y-86553523D01*
X168514928Y-85283523D01*
X168950357Y-85283523D02*
X169893785Y-85283523D01*
X169385785Y-85767333D01*
X169603500Y-85767333D01*
X169748642Y-85827809D01*
X169821214Y-85888285D01*
X169893785Y-86009238D01*
X169893785Y-86311619D01*
X169821214Y-86432571D01*
X169748642Y-86493047D01*
X169603500Y-86553523D01*
X169168071Y-86553523D01*
X169022928Y-86493047D01*
X168950357Y-86432571D01*
X171272642Y-85283523D02*
X170546928Y-85283523D01*
X170474357Y-85888285D01*
X170546928Y-85827809D01*
X170692071Y-85767333D01*
X171054928Y-85767333D01*
X171200071Y-85827809D01*
X171272642Y-85888285D01*
X171345214Y-86009238D01*
X171345214Y-86311619D01*
X171272642Y-86432571D01*
X171200071Y-86493047D01*
X171054928Y-86553523D01*
X170692071Y-86553523D01*
X170546928Y-86493047D01*
X170474357Y-86432571D01*
G04 #@! TO.C,SW36*
X184948285Y-86493047D02*
X185166000Y-86553523D01*
X185528857Y-86553523D01*
X185674000Y-86493047D01*
X185746571Y-86432571D01*
X185819142Y-86311619D01*
X185819142Y-86190666D01*
X185746571Y-86069714D01*
X185674000Y-86009238D01*
X185528857Y-85948761D01*
X185238571Y-85888285D01*
X185093428Y-85827809D01*
X185020857Y-85767333D01*
X184948285Y-85646380D01*
X184948285Y-85525428D01*
X185020857Y-85404476D01*
X185093428Y-85344000D01*
X185238571Y-85283523D01*
X185601428Y-85283523D01*
X185819142Y-85344000D01*
X186327142Y-85283523D02*
X186690000Y-86553523D01*
X186980285Y-85646380D01*
X187270571Y-86553523D01*
X187633428Y-85283523D01*
X188068857Y-85283523D02*
X189012285Y-85283523D01*
X188504285Y-85767333D01*
X188722000Y-85767333D01*
X188867142Y-85827809D01*
X188939714Y-85888285D01*
X189012285Y-86009238D01*
X189012285Y-86311619D01*
X188939714Y-86432571D01*
X188867142Y-86493047D01*
X188722000Y-86553523D01*
X188286571Y-86553523D01*
X188141428Y-86493047D01*
X188068857Y-86432571D01*
X190318571Y-85283523D02*
X190028285Y-85283523D01*
X189883142Y-85344000D01*
X189810571Y-85404476D01*
X189665428Y-85585904D01*
X189592857Y-85827809D01*
X189592857Y-86311619D01*
X189665428Y-86432571D01*
X189738000Y-86493047D01*
X189883142Y-86553523D01*
X190173428Y-86553523D01*
X190318571Y-86493047D01*
X190391142Y-86432571D01*
X190463714Y-86311619D01*
X190463714Y-86009238D01*
X190391142Y-85888285D01*
X190318571Y-85827809D01*
X190173428Y-85767333D01*
X189883142Y-85767333D01*
X189738000Y-85827809D01*
X189665428Y-85888285D01*
X189592857Y-86009238D01*
G04 #@! TO.C,SW37*
X203929785Y-86493047D02*
X204147500Y-86553523D01*
X204510357Y-86553523D01*
X204655500Y-86493047D01*
X204728071Y-86432571D01*
X204800642Y-86311619D01*
X204800642Y-86190666D01*
X204728071Y-86069714D01*
X204655500Y-86009238D01*
X204510357Y-85948761D01*
X204220071Y-85888285D01*
X204074928Y-85827809D01*
X204002357Y-85767333D01*
X203929785Y-85646380D01*
X203929785Y-85525428D01*
X204002357Y-85404476D01*
X204074928Y-85344000D01*
X204220071Y-85283523D01*
X204582928Y-85283523D01*
X204800642Y-85344000D01*
X205308642Y-85283523D02*
X205671500Y-86553523D01*
X205961785Y-85646380D01*
X206252071Y-86553523D01*
X206614928Y-85283523D01*
X207050357Y-85283523D02*
X207993785Y-85283523D01*
X207485785Y-85767333D01*
X207703500Y-85767333D01*
X207848642Y-85827809D01*
X207921214Y-85888285D01*
X207993785Y-86009238D01*
X207993785Y-86311619D01*
X207921214Y-86432571D01*
X207848642Y-86493047D01*
X207703500Y-86553523D01*
X207268071Y-86553523D01*
X207122928Y-86493047D01*
X207050357Y-86432571D01*
X208501785Y-85283523D02*
X209517785Y-85283523D01*
X208864642Y-86553523D01*
G04 #@! TO.C,SW38*
X222979785Y-86493047D02*
X223197500Y-86553523D01*
X223560357Y-86553523D01*
X223705500Y-86493047D01*
X223778071Y-86432571D01*
X223850642Y-86311619D01*
X223850642Y-86190666D01*
X223778071Y-86069714D01*
X223705500Y-86009238D01*
X223560357Y-85948761D01*
X223270071Y-85888285D01*
X223124928Y-85827809D01*
X223052357Y-85767333D01*
X222979785Y-85646380D01*
X222979785Y-85525428D01*
X223052357Y-85404476D01*
X223124928Y-85344000D01*
X223270071Y-85283523D01*
X223632928Y-85283523D01*
X223850642Y-85344000D01*
X224358642Y-85283523D02*
X224721500Y-86553523D01*
X225011785Y-85646380D01*
X225302071Y-86553523D01*
X225664928Y-85283523D01*
X226100357Y-85283523D02*
X227043785Y-85283523D01*
X226535785Y-85767333D01*
X226753500Y-85767333D01*
X226898642Y-85827809D01*
X226971214Y-85888285D01*
X227043785Y-86009238D01*
X227043785Y-86311619D01*
X226971214Y-86432571D01*
X226898642Y-86493047D01*
X226753500Y-86553523D01*
X226318071Y-86553523D01*
X226172928Y-86493047D01*
X226100357Y-86432571D01*
X227914642Y-85827809D02*
X227769500Y-85767333D01*
X227696928Y-85706857D01*
X227624357Y-85585904D01*
X227624357Y-85525428D01*
X227696928Y-85404476D01*
X227769500Y-85344000D01*
X227914642Y-85283523D01*
X228204928Y-85283523D01*
X228350071Y-85344000D01*
X228422642Y-85404476D01*
X228495214Y-85525428D01*
X228495214Y-85585904D01*
X228422642Y-85706857D01*
X228350071Y-85767333D01*
X228204928Y-85827809D01*
X227914642Y-85827809D01*
X227769500Y-85888285D01*
X227696928Y-85948761D01*
X227624357Y-86069714D01*
X227624357Y-86311619D01*
X227696928Y-86432571D01*
X227769500Y-86493047D01*
X227914642Y-86553523D01*
X228204928Y-86553523D01*
X228350071Y-86493047D01*
X228422642Y-86432571D01*
X228495214Y-86311619D01*
X228495214Y-86069714D01*
X228422642Y-85948761D01*
X228350071Y-85888285D01*
X228204928Y-85827809D01*
G04 #@! TO.C,SW39*
X242029785Y-86493047D02*
X242247500Y-86553523D01*
X242610357Y-86553523D01*
X242755500Y-86493047D01*
X242828071Y-86432571D01*
X242900642Y-86311619D01*
X242900642Y-86190666D01*
X242828071Y-86069714D01*
X242755500Y-86009238D01*
X242610357Y-85948761D01*
X242320071Y-85888285D01*
X242174928Y-85827809D01*
X242102357Y-85767333D01*
X242029785Y-85646380D01*
X242029785Y-85525428D01*
X242102357Y-85404476D01*
X242174928Y-85344000D01*
X242320071Y-85283523D01*
X242682928Y-85283523D01*
X242900642Y-85344000D01*
X243408642Y-85283523D02*
X243771500Y-86553523D01*
X244061785Y-85646380D01*
X244352071Y-86553523D01*
X244714928Y-85283523D01*
X245150357Y-85283523D02*
X246093785Y-85283523D01*
X245585785Y-85767333D01*
X245803500Y-85767333D01*
X245948642Y-85827809D01*
X246021214Y-85888285D01*
X246093785Y-86009238D01*
X246093785Y-86311619D01*
X246021214Y-86432571D01*
X245948642Y-86493047D01*
X245803500Y-86553523D01*
X245368071Y-86553523D01*
X245222928Y-86493047D01*
X245150357Y-86432571D01*
X246819500Y-86553523D02*
X247109785Y-86553523D01*
X247254928Y-86493047D01*
X247327500Y-86432571D01*
X247472642Y-86251142D01*
X247545214Y-86009238D01*
X247545214Y-85525428D01*
X247472642Y-85404476D01*
X247400071Y-85344000D01*
X247254928Y-85283523D01*
X246964642Y-85283523D01*
X246819500Y-85344000D01*
X246746928Y-85404476D01*
X246674357Y-85525428D01*
X246674357Y-85827809D01*
X246746928Y-85948761D01*
X246819500Y-86009238D01*
X246964642Y-86069714D01*
X247254928Y-86069714D01*
X247400071Y-86009238D01*
X247472642Y-85948761D01*
X247545214Y-85827809D01*
G04 #@! TO.C,SW40*
X261148285Y-86366047D02*
X261366000Y-86426523D01*
X261728857Y-86426523D01*
X261874000Y-86366047D01*
X261946571Y-86305571D01*
X262019142Y-86184619D01*
X262019142Y-86063666D01*
X261946571Y-85942714D01*
X261874000Y-85882238D01*
X261728857Y-85821761D01*
X261438571Y-85761285D01*
X261293428Y-85700809D01*
X261220857Y-85640333D01*
X261148285Y-85519380D01*
X261148285Y-85398428D01*
X261220857Y-85277476D01*
X261293428Y-85217000D01*
X261438571Y-85156523D01*
X261801428Y-85156523D01*
X262019142Y-85217000D01*
X262527142Y-85156523D02*
X262890000Y-86426523D01*
X263180285Y-85519380D01*
X263470571Y-86426523D01*
X263833428Y-85156523D01*
X265067142Y-85579857D02*
X265067142Y-86426523D01*
X264704285Y-85096047D02*
X264341428Y-86003190D01*
X265284857Y-86003190D01*
X266155714Y-85156523D02*
X266300857Y-85156523D01*
X266446000Y-85217000D01*
X266518571Y-85277476D01*
X266591142Y-85398428D01*
X266663714Y-85640333D01*
X266663714Y-85942714D01*
X266591142Y-86184619D01*
X266518571Y-86305571D01*
X266446000Y-86366047D01*
X266300857Y-86426523D01*
X266155714Y-86426523D01*
X266010571Y-86366047D01*
X265938000Y-86305571D01*
X265865428Y-86184619D01*
X265792857Y-85942714D01*
X265792857Y-85640333D01*
X265865428Y-85398428D01*
X265938000Y-85277476D01*
X266010571Y-85217000D01*
X266155714Y-85156523D01*
G04 #@! TO.C,SW44*
X99096285Y-105162047D02*
X99314000Y-105222523D01*
X99676857Y-105222523D01*
X99822000Y-105162047D01*
X99894571Y-105101571D01*
X99967142Y-104980619D01*
X99967142Y-104859666D01*
X99894571Y-104738714D01*
X99822000Y-104678238D01*
X99676857Y-104617761D01*
X99386571Y-104557285D01*
X99241428Y-104496809D01*
X99168857Y-104436333D01*
X99096285Y-104315380D01*
X99096285Y-104194428D01*
X99168857Y-104073476D01*
X99241428Y-104013000D01*
X99386571Y-103952523D01*
X99749428Y-103952523D01*
X99967142Y-104013000D01*
X100475142Y-103952523D02*
X100838000Y-105222523D01*
X101128285Y-104315380D01*
X101418571Y-105222523D01*
X101781428Y-103952523D01*
X103015142Y-104375857D02*
X103015142Y-105222523D01*
X102652285Y-103892047D02*
X102289428Y-104799190D01*
X103232857Y-104799190D01*
X104466571Y-104375857D02*
X104466571Y-105222523D01*
X104103714Y-103892047D02*
X103740857Y-104799190D01*
X104684285Y-104799190D01*
G04 #@! TO.C,SW45*
X118204785Y-105543047D02*
X118422500Y-105603523D01*
X118785357Y-105603523D01*
X118930500Y-105543047D01*
X119003071Y-105482571D01*
X119075642Y-105361619D01*
X119075642Y-105240666D01*
X119003071Y-105119714D01*
X118930500Y-105059238D01*
X118785357Y-104998761D01*
X118495071Y-104938285D01*
X118349928Y-104877809D01*
X118277357Y-104817333D01*
X118204785Y-104696380D01*
X118204785Y-104575428D01*
X118277357Y-104454476D01*
X118349928Y-104394000D01*
X118495071Y-104333523D01*
X118857928Y-104333523D01*
X119075642Y-104394000D01*
X119583642Y-104333523D02*
X119946500Y-105603523D01*
X120236785Y-104696380D01*
X120527071Y-105603523D01*
X120889928Y-104333523D01*
X122123642Y-104756857D02*
X122123642Y-105603523D01*
X121760785Y-104273047D02*
X121397928Y-105180190D01*
X122341357Y-105180190D01*
X123647642Y-104333523D02*
X122921928Y-104333523D01*
X122849357Y-104938285D01*
X122921928Y-104877809D01*
X123067071Y-104817333D01*
X123429928Y-104817333D01*
X123575071Y-104877809D01*
X123647642Y-104938285D01*
X123720214Y-105059238D01*
X123720214Y-105361619D01*
X123647642Y-105482571D01*
X123575071Y-105543047D01*
X123429928Y-105603523D01*
X123067071Y-105603523D01*
X122921928Y-105543047D01*
X122849357Y-105482571D01*
G04 #@! TO.C,SW46*
X137254785Y-105543047D02*
X137472500Y-105603523D01*
X137835357Y-105603523D01*
X137980500Y-105543047D01*
X138053071Y-105482571D01*
X138125642Y-105361619D01*
X138125642Y-105240666D01*
X138053071Y-105119714D01*
X137980500Y-105059238D01*
X137835357Y-104998761D01*
X137545071Y-104938285D01*
X137399928Y-104877809D01*
X137327357Y-104817333D01*
X137254785Y-104696380D01*
X137254785Y-104575428D01*
X137327357Y-104454476D01*
X137399928Y-104394000D01*
X137545071Y-104333523D01*
X137907928Y-104333523D01*
X138125642Y-104394000D01*
X138633642Y-104333523D02*
X138996500Y-105603523D01*
X139286785Y-104696380D01*
X139577071Y-105603523D01*
X139939928Y-104333523D01*
X141173642Y-104756857D02*
X141173642Y-105603523D01*
X140810785Y-104273047D02*
X140447928Y-105180190D01*
X141391357Y-105180190D01*
X142625071Y-104333523D02*
X142334785Y-104333523D01*
X142189642Y-104394000D01*
X142117071Y-104454476D01*
X141971928Y-104635904D01*
X141899357Y-104877809D01*
X141899357Y-105361619D01*
X141971928Y-105482571D01*
X142044500Y-105543047D01*
X142189642Y-105603523D01*
X142479928Y-105603523D01*
X142625071Y-105543047D01*
X142697642Y-105482571D01*
X142770214Y-105361619D01*
X142770214Y-105059238D01*
X142697642Y-104938285D01*
X142625071Y-104877809D01*
X142479928Y-104817333D01*
X142189642Y-104817333D01*
X142044500Y-104877809D01*
X141971928Y-104938285D01*
X141899357Y-105059238D01*
G04 #@! TO.C,SW47*
X156304785Y-105543047D02*
X156522500Y-105603523D01*
X156885357Y-105603523D01*
X157030500Y-105543047D01*
X157103071Y-105482571D01*
X157175642Y-105361619D01*
X157175642Y-105240666D01*
X157103071Y-105119714D01*
X157030500Y-105059238D01*
X156885357Y-104998761D01*
X156595071Y-104938285D01*
X156449928Y-104877809D01*
X156377357Y-104817333D01*
X156304785Y-104696380D01*
X156304785Y-104575428D01*
X156377357Y-104454476D01*
X156449928Y-104394000D01*
X156595071Y-104333523D01*
X156957928Y-104333523D01*
X157175642Y-104394000D01*
X157683642Y-104333523D02*
X158046500Y-105603523D01*
X158336785Y-104696380D01*
X158627071Y-105603523D01*
X158989928Y-104333523D01*
X160223642Y-104756857D02*
X160223642Y-105603523D01*
X159860785Y-104273047D02*
X159497928Y-105180190D01*
X160441357Y-105180190D01*
X160876785Y-104333523D02*
X161892785Y-104333523D01*
X161239642Y-105603523D01*
G04 #@! TO.C,SW32*
X108679785Y-86493047D02*
X108897500Y-86553523D01*
X109260357Y-86553523D01*
X109405500Y-86493047D01*
X109478071Y-86432571D01*
X109550642Y-86311619D01*
X109550642Y-86190666D01*
X109478071Y-86069714D01*
X109405500Y-86009238D01*
X109260357Y-85948761D01*
X108970071Y-85888285D01*
X108824928Y-85827809D01*
X108752357Y-85767333D01*
X108679785Y-85646380D01*
X108679785Y-85525428D01*
X108752357Y-85404476D01*
X108824928Y-85344000D01*
X108970071Y-85283523D01*
X109332928Y-85283523D01*
X109550642Y-85344000D01*
X110058642Y-85283523D02*
X110421500Y-86553523D01*
X110711785Y-85646380D01*
X111002071Y-86553523D01*
X111364928Y-85283523D01*
X111800357Y-85283523D02*
X112743785Y-85283523D01*
X112235785Y-85767333D01*
X112453500Y-85767333D01*
X112598642Y-85827809D01*
X112671214Y-85888285D01*
X112743785Y-86009238D01*
X112743785Y-86311619D01*
X112671214Y-86432571D01*
X112598642Y-86493047D01*
X112453500Y-86553523D01*
X112018071Y-86553523D01*
X111872928Y-86493047D01*
X111800357Y-86432571D01*
X113324357Y-85404476D02*
X113396928Y-85344000D01*
X113542071Y-85283523D01*
X113904928Y-85283523D01*
X114050071Y-85344000D01*
X114122642Y-85404476D01*
X114195214Y-85525428D01*
X114195214Y-85646380D01*
X114122642Y-85827809D01*
X113251785Y-86553523D01*
X114195214Y-86553523D01*
G04 #@! TO.C,SW49*
X190536285Y-105543047D02*
X190754000Y-105603523D01*
X191116857Y-105603523D01*
X191262000Y-105543047D01*
X191334571Y-105482571D01*
X191407142Y-105361619D01*
X191407142Y-105240666D01*
X191334571Y-105119714D01*
X191262000Y-105059238D01*
X191116857Y-104998761D01*
X190826571Y-104938285D01*
X190681428Y-104877809D01*
X190608857Y-104817333D01*
X190536285Y-104696380D01*
X190536285Y-104575428D01*
X190608857Y-104454476D01*
X190681428Y-104394000D01*
X190826571Y-104333523D01*
X191189428Y-104333523D01*
X191407142Y-104394000D01*
X191915142Y-104333523D02*
X192278000Y-105603523D01*
X192568285Y-104696380D01*
X192858571Y-105603523D01*
X193221428Y-104333523D01*
X194455142Y-104756857D02*
X194455142Y-105603523D01*
X194092285Y-104273047D02*
X193729428Y-105180190D01*
X194672857Y-105180190D01*
X195326000Y-105603523D02*
X195616285Y-105603523D01*
X195761428Y-105543047D01*
X195834000Y-105482571D01*
X195979142Y-105301142D01*
X196051714Y-105059238D01*
X196051714Y-104575428D01*
X195979142Y-104454476D01*
X195906571Y-104394000D01*
X195761428Y-104333523D01*
X195471142Y-104333523D01*
X195326000Y-104394000D01*
X195253428Y-104454476D01*
X195180857Y-104575428D01*
X195180857Y-104877809D01*
X195253428Y-104998761D01*
X195326000Y-105059238D01*
X195471142Y-105119714D01*
X195761428Y-105119714D01*
X195906571Y-105059238D01*
X195979142Y-104998761D01*
X196051714Y-104877809D01*
G04 #@! TO.C,SW50*
X213523285Y-105543047D02*
X213741000Y-105603523D01*
X214103857Y-105603523D01*
X214249000Y-105543047D01*
X214321571Y-105482571D01*
X214394142Y-105361619D01*
X214394142Y-105240666D01*
X214321571Y-105119714D01*
X214249000Y-105059238D01*
X214103857Y-104998761D01*
X213813571Y-104938285D01*
X213668428Y-104877809D01*
X213595857Y-104817333D01*
X213523285Y-104696380D01*
X213523285Y-104575428D01*
X213595857Y-104454476D01*
X213668428Y-104394000D01*
X213813571Y-104333523D01*
X214176428Y-104333523D01*
X214394142Y-104394000D01*
X214902142Y-104333523D02*
X215265000Y-105603523D01*
X215555285Y-104696380D01*
X215845571Y-105603523D01*
X216208428Y-104333523D01*
X217514714Y-104333523D02*
X216789000Y-104333523D01*
X216716428Y-104938285D01*
X216789000Y-104877809D01*
X216934142Y-104817333D01*
X217297000Y-104817333D01*
X217442142Y-104877809D01*
X217514714Y-104938285D01*
X217587285Y-105059238D01*
X217587285Y-105361619D01*
X217514714Y-105482571D01*
X217442142Y-105543047D01*
X217297000Y-105603523D01*
X216934142Y-105603523D01*
X216789000Y-105543047D01*
X216716428Y-105482571D01*
X218530714Y-104333523D02*
X218675857Y-104333523D01*
X218821000Y-104394000D01*
X218893571Y-104454476D01*
X218966142Y-104575428D01*
X219038714Y-104817333D01*
X219038714Y-105119714D01*
X218966142Y-105361619D01*
X218893571Y-105482571D01*
X218821000Y-105543047D01*
X218675857Y-105603523D01*
X218530714Y-105603523D01*
X218385571Y-105543047D01*
X218313000Y-105482571D01*
X218240428Y-105361619D01*
X218167857Y-105119714D01*
X218167857Y-104817333D01*
X218240428Y-104575428D01*
X218313000Y-104454476D01*
X218385571Y-104394000D01*
X218530714Y-104333523D01*
G04 #@! TO.C,SW51*
X232504785Y-105543047D02*
X232722500Y-105603523D01*
X233085357Y-105603523D01*
X233230500Y-105543047D01*
X233303071Y-105482571D01*
X233375642Y-105361619D01*
X233375642Y-105240666D01*
X233303071Y-105119714D01*
X233230500Y-105059238D01*
X233085357Y-104998761D01*
X232795071Y-104938285D01*
X232649928Y-104877809D01*
X232577357Y-104817333D01*
X232504785Y-104696380D01*
X232504785Y-104575428D01*
X232577357Y-104454476D01*
X232649928Y-104394000D01*
X232795071Y-104333523D01*
X233157928Y-104333523D01*
X233375642Y-104394000D01*
X233883642Y-104333523D02*
X234246500Y-105603523D01*
X234536785Y-104696380D01*
X234827071Y-105603523D01*
X235189928Y-104333523D01*
X236496214Y-104333523D02*
X235770500Y-104333523D01*
X235697928Y-104938285D01*
X235770500Y-104877809D01*
X235915642Y-104817333D01*
X236278500Y-104817333D01*
X236423642Y-104877809D01*
X236496214Y-104938285D01*
X236568785Y-105059238D01*
X236568785Y-105361619D01*
X236496214Y-105482571D01*
X236423642Y-105543047D01*
X236278500Y-105603523D01*
X235915642Y-105603523D01*
X235770500Y-105543047D01*
X235697928Y-105482571D01*
X238020214Y-105603523D02*
X237149357Y-105603523D01*
X237584785Y-105603523D02*
X237584785Y-104333523D01*
X237439642Y-104514952D01*
X237294500Y-104635904D01*
X237149357Y-104696380D01*
G04 #@! TO.C,SW52*
X251554785Y-105543047D02*
X251772500Y-105603523D01*
X252135357Y-105603523D01*
X252280500Y-105543047D01*
X252353071Y-105482571D01*
X252425642Y-105361619D01*
X252425642Y-105240666D01*
X252353071Y-105119714D01*
X252280500Y-105059238D01*
X252135357Y-104998761D01*
X251845071Y-104938285D01*
X251699928Y-104877809D01*
X251627357Y-104817333D01*
X251554785Y-104696380D01*
X251554785Y-104575428D01*
X251627357Y-104454476D01*
X251699928Y-104394000D01*
X251845071Y-104333523D01*
X252207928Y-104333523D01*
X252425642Y-104394000D01*
X252933642Y-104333523D02*
X253296500Y-105603523D01*
X253586785Y-104696380D01*
X253877071Y-105603523D01*
X254239928Y-104333523D01*
X255546214Y-104333523D02*
X254820500Y-104333523D01*
X254747928Y-104938285D01*
X254820500Y-104877809D01*
X254965642Y-104817333D01*
X255328500Y-104817333D01*
X255473642Y-104877809D01*
X255546214Y-104938285D01*
X255618785Y-105059238D01*
X255618785Y-105361619D01*
X255546214Y-105482571D01*
X255473642Y-105543047D01*
X255328500Y-105603523D01*
X254965642Y-105603523D01*
X254820500Y-105543047D01*
X254747928Y-105482571D01*
X256199357Y-104454476D02*
X256271928Y-104394000D01*
X256417071Y-104333523D01*
X256779928Y-104333523D01*
X256925071Y-104394000D01*
X256997642Y-104454476D01*
X257070214Y-104575428D01*
X257070214Y-104696380D01*
X256997642Y-104877809D01*
X256126785Y-105603523D01*
X257070214Y-105603523D01*
G04 #@! TD*
M02*
