G04 #@! TF.GenerationSoftware,KiCad,Pcbnew,5.0.1*
G04 #@! TF.CreationDate,2018-12-19T22:22:27+02:00*
G04 #@! TF.ProjectId,OH60,4F4836302E6B696361645F7063620000,rev?*
G04 #@! TF.SameCoordinates,Original*
G04 #@! TF.FileFunction,Legend,Bot*
G04 #@! TF.FilePolarity,Positive*
%FSLAX46Y46*%
G04 Gerber Fmt 4.6, Leading zero omitted, Abs format (unit mm)*
G04 Created by KiCad (PCBNEW 5.0.1) date Wed 19 Dec 2018 22:22:27 SAST*
%MOMM*%
%LPD*%
G01*
G04 APERTURE LIST*
%ADD10C,0.300000*%
%ADD11C,0.500000*%
%ADD12C,0.200000*%
%ADD13C,0.120000*%
%ADD14C,0.150000*%
%ADD15C,0.010000*%
G04 APERTURE END LIST*
D10*
X137524428Y-113176857D02*
X137024428Y-113176857D01*
X136810142Y-113962571D02*
X137524428Y-113962571D01*
X137524428Y-112462571D01*
X136810142Y-112462571D01*
X136167285Y-113819714D02*
X136095857Y-113891142D01*
X136167285Y-113962571D01*
X136238714Y-113891142D01*
X136167285Y-113819714D01*
X136167285Y-113962571D01*
X134381571Y-113891142D02*
X134167285Y-113962571D01*
X133810142Y-113962571D01*
X133667285Y-113891142D01*
X133595857Y-113819714D01*
X133524428Y-113676857D01*
X133524428Y-113534000D01*
X133595857Y-113391142D01*
X133667285Y-113319714D01*
X133810142Y-113248285D01*
X134095857Y-113176857D01*
X134238714Y-113105428D01*
X134310142Y-113034000D01*
X134381571Y-112891142D01*
X134381571Y-112748285D01*
X134310142Y-112605428D01*
X134238714Y-112534000D01*
X134095857Y-112462571D01*
X133738714Y-112462571D01*
X133524428Y-112534000D01*
X132881571Y-112962571D02*
X132881571Y-113962571D01*
X132881571Y-113105428D02*
X132810142Y-113034000D01*
X132667285Y-112962571D01*
X132453000Y-112962571D01*
X132310142Y-113034000D01*
X132238714Y-113176857D01*
X132238714Y-113962571D01*
X131667285Y-112962571D02*
X131310142Y-113962571D01*
X130953000Y-112962571D02*
X131310142Y-113962571D01*
X131453000Y-114319714D01*
X131524428Y-114391142D01*
X131667285Y-114462571D01*
X130381571Y-113962571D02*
X130381571Y-112962571D01*
X130381571Y-113105428D02*
X130310142Y-113034000D01*
X130167285Y-112962571D01*
X129953000Y-112962571D01*
X129810142Y-113034000D01*
X129738714Y-113176857D01*
X129738714Y-113962571D01*
X129738714Y-113176857D02*
X129667285Y-113034000D01*
X129524428Y-112962571D01*
X129310142Y-112962571D01*
X129167285Y-113034000D01*
X129095857Y-113176857D01*
X129095857Y-113962571D01*
X127738714Y-113962571D02*
X127738714Y-113176857D01*
X127810142Y-113034000D01*
X127953000Y-112962571D01*
X128238714Y-112962571D01*
X128381571Y-113034000D01*
X127738714Y-113891142D02*
X127881571Y-113962571D01*
X128238714Y-113962571D01*
X128381571Y-113891142D01*
X128453000Y-113748285D01*
X128453000Y-113605428D01*
X128381571Y-113462571D01*
X128238714Y-113391142D01*
X127881571Y-113391142D01*
X127738714Y-113319714D01*
X127024428Y-112962571D02*
X127024428Y-113962571D01*
X127024428Y-113105428D02*
X126953000Y-113034000D01*
X126810142Y-112962571D01*
X126595857Y-112962571D01*
X126453000Y-113034000D01*
X126381571Y-113176857D01*
X126381571Y-113962571D01*
D11*
X137175285Y-107450142D02*
X136603857Y-107450142D01*
X136318142Y-107593000D01*
X136032428Y-107878714D01*
X135889571Y-108450142D01*
X135889571Y-109450142D01*
X136032428Y-110021571D01*
X136318142Y-110307285D01*
X136603857Y-110450142D01*
X137175285Y-110450142D01*
X137461000Y-110307285D01*
X137746714Y-110021571D01*
X137889571Y-109450142D01*
X137889571Y-108450142D01*
X137746714Y-107878714D01*
X137461000Y-107593000D01*
X137175285Y-107450142D01*
X134603857Y-110450142D02*
X134603857Y-107450142D01*
X134603857Y-108878714D02*
X132889571Y-108878714D01*
X132889571Y-110450142D02*
X132889571Y-107450142D01*
X130175285Y-107450142D02*
X130746714Y-107450142D01*
X131032428Y-107593000D01*
X131175285Y-107735857D01*
X131461000Y-108164428D01*
X131603857Y-108735857D01*
X131603857Y-109878714D01*
X131461000Y-110164428D01*
X131318142Y-110307285D01*
X131032428Y-110450142D01*
X130461000Y-110450142D01*
X130175285Y-110307285D01*
X130032428Y-110164428D01*
X129889571Y-109878714D01*
X129889571Y-109164428D01*
X130032428Y-108878714D01*
X130175285Y-108735857D01*
X130461000Y-108593000D01*
X131032428Y-108593000D01*
X131318142Y-108735857D01*
X131461000Y-108878714D01*
X131603857Y-109164428D01*
X128032428Y-107450142D02*
X127746714Y-107450142D01*
X127461000Y-107593000D01*
X127318142Y-107735857D01*
X127175285Y-108021571D01*
X127032428Y-108593000D01*
X127032428Y-109307285D01*
X127175285Y-109878714D01*
X127318142Y-110164428D01*
X127461000Y-110307285D01*
X127746714Y-110450142D01*
X128032428Y-110450142D01*
X128318142Y-110307285D01*
X128461000Y-110164428D01*
X128603857Y-109878714D01*
X128746714Y-109307285D01*
X128746714Y-108593000D01*
X128603857Y-108021571D01*
X128461000Y-107735857D01*
X128318142Y-107593000D01*
X128032428Y-107450142D01*
D12*
X181131981Y-118999000D02*
G75*
G03X181131981Y-118999000I-283981J0D01*
G01*
X180975000Y-118999000D02*
G75*
G03X180975000Y-118999000I-127000J0D01*
G01*
D13*
G04 #@! TO.C,C8*
X185600078Y-102795000D02*
X185082922Y-102795000D01*
X185600078Y-104215000D02*
X185082922Y-104215000D01*
G04 #@! TO.C,C11*
X177980078Y-110184000D02*
X177462922Y-110184000D01*
X177980078Y-108764000D02*
X177462922Y-108764000D01*
G04 #@! TO.C,C12*
X191462922Y-35254000D02*
X191980078Y-35254000D01*
X191462922Y-33834000D02*
X191980078Y-33834000D01*
G04 #@! TO.C,C10*
X177764064Y-111104000D02*
X176559936Y-111104000D01*
X177764064Y-112924000D02*
X176559936Y-112924000D01*
G04 #@! TO.C,RESET_SW1*
X174497000Y-103081000D02*
X174497000Y-103381000D01*
X174497000Y-103381000D02*
X171197000Y-103381000D01*
X171197000Y-103381000D02*
X171197000Y-103081000D01*
X174497000Y-100881000D02*
X174497000Y-100581000D01*
X174497000Y-100581000D02*
X171197000Y-100581000D01*
X171197000Y-100581000D02*
X171197000Y-100881000D01*
G04 #@! TO.C,C7*
X189430922Y-102795000D02*
X189948078Y-102795000D01*
X189430922Y-104215000D02*
X189948078Y-104215000D01*
G04 #@! TO.C,C9*
X184203078Y-120575000D02*
X183685922Y-120575000D01*
X184203078Y-121995000D02*
X183685922Y-121995000D01*
G04 #@! TO.C,R2*
X179661078Y-34596000D02*
X179143922Y-34596000D01*
X179661078Y-36016000D02*
X179143922Y-36016000D01*
G04 #@! TO.C,C2*
X198193922Y-107136000D02*
X198711078Y-107136000D01*
X198193922Y-105716000D02*
X198711078Y-105716000D01*
G04 #@! TO.C,C3*
X192077078Y-121995000D02*
X191559922Y-121995000D01*
X192077078Y-120575000D02*
X191559922Y-120575000D01*
G04 #@! TO.C,C4*
X178058578Y-114479000D02*
X177541422Y-114479000D01*
X178058578Y-115899000D02*
X177541422Y-115899000D01*
G04 #@! TO.C,C5*
X188472578Y-35254000D02*
X187955422Y-35254000D01*
X188472578Y-33834000D02*
X187955422Y-33834000D01*
G04 #@! TO.C,C6*
X180647078Y-103430000D02*
X180129922Y-103430000D01*
X180647078Y-104850000D02*
X180129922Y-104850000D01*
G04 #@! TO.C,C1*
X197263936Y-107802000D02*
X198468064Y-107802000D01*
X197263936Y-109622000D02*
X198468064Y-109622000D01*
G04 #@! TO.C,Y1*
X190101000Y-98496000D02*
X190101000Y-102196000D01*
X190101000Y-102196000D02*
X184801000Y-102196000D01*
G04 #@! TO.C,D62*
X175479000Y-104029000D02*
X175479000Y-106029000D01*
X175479000Y-106029000D02*
X171579000Y-106029000D01*
X175479000Y-104029000D02*
X171579000Y-104029000D01*
D14*
G04 #@! TO.C,U1*
X182912000Y-117189000D02*
X182912000Y-116614000D01*
X193262000Y-117189000D02*
X193262000Y-116514000D01*
X193262000Y-106839000D02*
X193262000Y-107514000D01*
X182912000Y-106839000D02*
X182912000Y-107514000D01*
X182912000Y-117189000D02*
X183587000Y-117189000D01*
X182912000Y-106839000D02*
X183587000Y-106839000D01*
X193262000Y-106839000D02*
X192587000Y-106839000D01*
X193262000Y-117189000D02*
X192587000Y-117189000D01*
X182912000Y-116614000D02*
X181637000Y-116614000D01*
D13*
G04 #@! TO.C,R1*
X173613578Y-106605000D02*
X173096422Y-106605000D01*
X173613578Y-108025000D02*
X173096422Y-108025000D01*
G04 #@! TO.C,D3*
X75850000Y-32000000D02*
X79750000Y-32000000D01*
X75850000Y-30000000D02*
X79750000Y-30000000D01*
X75850000Y-32000000D02*
X75850000Y-30000000D01*
G04 #@! TO.C,D4*
X94900000Y-32000000D02*
X94900000Y-30000000D01*
X94900000Y-30000000D02*
X98800000Y-30000000D01*
X94900000Y-32000000D02*
X98800000Y-32000000D01*
G04 #@! TO.C,D5*
X113950000Y-32000000D02*
X117850000Y-32000000D01*
X113950000Y-30000000D02*
X117850000Y-30000000D01*
X113950000Y-32000000D02*
X113950000Y-30000000D01*
G04 #@! TO.C,D6*
X133000000Y-32000000D02*
X133000000Y-30000000D01*
X133000000Y-30000000D02*
X136900000Y-30000000D01*
X133000000Y-32000000D02*
X136900000Y-32000000D01*
G04 #@! TO.C,D7*
X152050000Y-32000000D02*
X155950000Y-32000000D01*
X152050000Y-30000000D02*
X155950000Y-30000000D01*
X152050000Y-32000000D02*
X152050000Y-30000000D01*
G04 #@! TO.C,D8*
X171100000Y-32000000D02*
X171100000Y-30000000D01*
X171100000Y-30000000D02*
X175000000Y-30000000D01*
X171100000Y-32000000D02*
X175000000Y-32000000D01*
G04 #@! TO.C,D9*
X190150000Y-32000000D02*
X194050000Y-32000000D01*
X190150000Y-30000000D02*
X194050000Y-30000000D01*
X190150000Y-32000000D02*
X190150000Y-30000000D01*
G04 #@! TO.C,D10*
X209200000Y-32000000D02*
X209200000Y-30000000D01*
X209200000Y-30000000D02*
X213100000Y-30000000D01*
X209200000Y-32000000D02*
X213100000Y-32000000D01*
G04 #@! TO.C,D11*
X228250000Y-32000000D02*
X232150000Y-32000000D01*
X228250000Y-30000000D02*
X232150000Y-30000000D01*
X228250000Y-32000000D02*
X228250000Y-30000000D01*
G04 #@! TO.C,D12*
X247300000Y-32000000D02*
X247300000Y-30000000D01*
X247300000Y-30000000D02*
X251200000Y-30000000D01*
X247300000Y-32000000D02*
X251200000Y-32000000D01*
G04 #@! TO.C,D13*
X266350000Y-32000000D02*
X270250000Y-32000000D01*
X266350000Y-30000000D02*
X270250000Y-30000000D01*
X266350000Y-32000000D02*
X266350000Y-30000000D01*
G04 #@! TO.C,D14*
X294925000Y-32000000D02*
X294925000Y-30000000D01*
X294925000Y-30000000D02*
X298825000Y-30000000D01*
X294925000Y-32000000D02*
X298825000Y-32000000D01*
G04 #@! TO.C,D15*
X42512500Y-51050000D02*
X46412500Y-51050000D01*
X42512500Y-49050000D02*
X46412500Y-49050000D01*
X42512500Y-51050000D02*
X42512500Y-49050000D01*
G04 #@! TO.C,D32*
X109187500Y-70100000D02*
X109187500Y-68100000D01*
X109187500Y-68100000D02*
X113087500Y-68100000D01*
X109187500Y-70100000D02*
X113087500Y-70100000D01*
G04 #@! TO.C,D2*
X56800000Y-32000000D02*
X60700000Y-32000000D01*
X56800000Y-30000000D02*
X60700000Y-30000000D01*
X56800000Y-32000000D02*
X56800000Y-30000000D01*
G04 #@! TO.C,D18*
X104425000Y-51050000D02*
X104425000Y-49050000D01*
X104425000Y-49050000D02*
X108325000Y-49050000D01*
X104425000Y-51050000D02*
X108325000Y-51050000D01*
G04 #@! TO.C,D19*
X123475000Y-51050000D02*
X127375000Y-51050000D01*
X123475000Y-49050000D02*
X127375000Y-49050000D01*
X123475000Y-51050000D02*
X123475000Y-49050000D01*
G04 #@! TO.C,D20*
X142525000Y-51050000D02*
X142525000Y-49050000D01*
X142525000Y-49050000D02*
X146425000Y-49050000D01*
X142525000Y-51050000D02*
X146425000Y-51050000D01*
G04 #@! TO.C,D21*
X161575000Y-51050000D02*
X165475000Y-51050000D01*
X161575000Y-49050000D02*
X165475000Y-49050000D01*
X161575000Y-51050000D02*
X161575000Y-49050000D01*
G04 #@! TO.C,D22*
X180625000Y-51050000D02*
X180625000Y-49050000D01*
X180625000Y-49050000D02*
X184525000Y-49050000D01*
X180625000Y-51050000D02*
X184525000Y-51050000D01*
G04 #@! TO.C,D23*
X199675000Y-51050000D02*
X203575000Y-51050000D01*
X199675000Y-49050000D02*
X203575000Y-49050000D01*
X199675000Y-51050000D02*
X199675000Y-49050000D01*
G04 #@! TO.C,D24*
X218725000Y-51050000D02*
X218725000Y-49050000D01*
X218725000Y-49050000D02*
X222625000Y-49050000D01*
X218725000Y-51050000D02*
X222625000Y-51050000D01*
G04 #@! TO.C,D25*
X237775000Y-51050000D02*
X241675000Y-51050000D01*
X237775000Y-49050000D02*
X241675000Y-49050000D01*
X237775000Y-51050000D02*
X237775000Y-49050000D01*
G04 #@! TO.C,D26*
X256825000Y-51050000D02*
X256825000Y-49050000D01*
X256825000Y-49050000D02*
X260725000Y-49050000D01*
X256825000Y-51050000D02*
X260725000Y-51050000D01*
G04 #@! TO.C,D27*
X275875000Y-51050000D02*
X279775000Y-51050000D01*
X275875000Y-49050000D02*
X279775000Y-49050000D01*
X275875000Y-51050000D02*
X275875000Y-49050000D01*
G04 #@! TO.C,D28*
X299687500Y-51050000D02*
X299687500Y-49050000D01*
X299687500Y-49050000D02*
X303587500Y-49050000D01*
X299687500Y-51050000D02*
X303587500Y-51050000D01*
G04 #@! TO.C,D29*
X44893750Y-70100000D02*
X48793750Y-70100000D01*
X44893750Y-68100000D02*
X48793750Y-68100000D01*
X44893750Y-70100000D02*
X44893750Y-68100000D01*
G04 #@! TO.C,D30*
X71087500Y-70100000D02*
X71087500Y-68100000D01*
X71087500Y-68100000D02*
X74987500Y-68100000D01*
X71087500Y-70100000D02*
X74987500Y-70100000D01*
G04 #@! TO.C,D31*
X90137500Y-70100000D02*
X94037500Y-70100000D01*
X90137500Y-68100000D02*
X94037500Y-68100000D01*
X90137500Y-70100000D02*
X90137500Y-68100000D01*
G04 #@! TO.C,D16*
X66325000Y-51050000D02*
X66325000Y-49050000D01*
X66325000Y-49050000D02*
X70225000Y-49050000D01*
X66325000Y-51050000D02*
X70225000Y-51050000D01*
G04 #@! TO.C,D17*
X85375000Y-51050000D02*
X89275000Y-51050000D01*
X85375000Y-49050000D02*
X89275000Y-49050000D01*
X85375000Y-51050000D02*
X85375000Y-49050000D01*
G04 #@! TO.C,D33*
X128237500Y-70100000D02*
X128237500Y-68100000D01*
X128237500Y-68100000D02*
X132137500Y-68100000D01*
X128237500Y-70100000D02*
X132137500Y-70100000D01*
G04 #@! TO.C,D34*
X147287500Y-70100000D02*
X151187500Y-70100000D01*
X147287500Y-68100000D02*
X151187500Y-68100000D01*
X147287500Y-70100000D02*
X147287500Y-68100000D01*
G04 #@! TO.C,D35*
X166337500Y-70100000D02*
X166337500Y-68100000D01*
X166337500Y-68100000D02*
X170237500Y-68100000D01*
X166337500Y-70100000D02*
X170237500Y-70100000D01*
G04 #@! TO.C,D36*
X185387500Y-70000000D02*
X189287500Y-70000000D01*
X185387500Y-68000000D02*
X189287500Y-68000000D01*
X185387500Y-70000000D02*
X185387500Y-68000000D01*
G04 #@! TO.C,D37*
X204437500Y-70000000D02*
X204437500Y-68000000D01*
X204437500Y-68000000D02*
X208337500Y-68000000D01*
X204437500Y-70000000D02*
X208337500Y-70000000D01*
G04 #@! TO.C,D38*
X223487500Y-70100000D02*
X227387500Y-70100000D01*
X223487500Y-68100000D02*
X227387500Y-68100000D01*
X223487500Y-70100000D02*
X223487500Y-68100000D01*
G04 #@! TO.C,D39*
X242537500Y-70100000D02*
X242537500Y-68100000D01*
X242537500Y-68100000D02*
X246437500Y-68100000D01*
X242537500Y-70100000D02*
X246437500Y-70100000D01*
G04 #@! TO.C,D40*
X261587500Y-70100000D02*
X265487500Y-70100000D01*
X261587500Y-68100000D02*
X265487500Y-68100000D01*
X261587500Y-70100000D02*
X261587500Y-68100000D01*
G04 #@! TO.C,D41*
X292543750Y-70100000D02*
X292543750Y-68100000D01*
X292543750Y-68100000D02*
X296443750Y-68100000D01*
X292543750Y-70100000D02*
X296443750Y-70100000D01*
G04 #@! TO.C,D42*
X49656250Y-89150000D02*
X53556250Y-89150000D01*
X49656250Y-87150000D02*
X53556250Y-87150000D01*
X49656250Y-89150000D02*
X49656250Y-87150000D01*
G04 #@! TO.C,D44*
X99662500Y-89150000D02*
X99662500Y-87150000D01*
X99662500Y-87150000D02*
X103562500Y-87150000D01*
X99662500Y-89150000D02*
X103562500Y-89150000D01*
G04 #@! TO.C,D45*
X118712500Y-89150000D02*
X122612500Y-89150000D01*
X118712500Y-87150000D02*
X122612500Y-87150000D01*
X118712500Y-89150000D02*
X118712500Y-87150000D01*
G04 #@! TO.C,D46*
X137762500Y-89150000D02*
X137762500Y-87150000D01*
X137762500Y-87150000D02*
X141662500Y-87150000D01*
X137762500Y-89150000D02*
X141662500Y-89150000D01*
G04 #@! TO.C,D1*
X37750000Y-32000000D02*
X41650000Y-32000000D01*
X37750000Y-30000000D02*
X41650000Y-30000000D01*
X37750000Y-32000000D02*
X37750000Y-30000000D01*
G04 #@! TO.C,D47*
X156812500Y-89150000D02*
X156812500Y-87150000D01*
X156812500Y-87150000D02*
X160712500Y-87150000D01*
X156812500Y-89150000D02*
X160712500Y-89150000D01*
G04 #@! TO.C,D61*
X307068750Y-108200000D02*
X310968750Y-108200000D01*
X307068750Y-106200000D02*
X310968750Y-106200000D01*
X307068750Y-108200000D02*
X307068750Y-106200000D01*
G04 #@! TO.C,D60*
X283256250Y-108200000D02*
X283256250Y-106200000D01*
X283256250Y-106200000D02*
X287156250Y-106200000D01*
X283256250Y-108200000D02*
X287156250Y-108200000D01*
G04 #@! TO.C,D59*
X254443750Y-108200000D02*
X258343750Y-108200000D01*
X254443750Y-106200000D02*
X258343750Y-106200000D01*
X254443750Y-108200000D02*
X254443750Y-106200000D01*
G04 #@! TO.C,D58*
X230631250Y-108200000D02*
X230631250Y-106200000D01*
X230631250Y-106200000D02*
X234531250Y-106200000D01*
X230631250Y-108200000D02*
X234531250Y-108200000D01*
G04 #@! TO.C,D57*
X159193750Y-108200000D02*
X163093750Y-108200000D01*
X159193750Y-106200000D02*
X163093750Y-106200000D01*
X159193750Y-108200000D02*
X159193750Y-106200000D01*
G04 #@! TO.C,D56*
X87756250Y-108200000D02*
X87756250Y-106200000D01*
X87756250Y-106200000D02*
X91656250Y-106200000D01*
X87756250Y-108200000D02*
X91656250Y-108200000D01*
G04 #@! TO.C,D55*
X73443750Y-106200000D02*
X69543750Y-106200000D01*
X73443750Y-108200000D02*
X69543750Y-108200000D01*
X73443750Y-106200000D02*
X73443750Y-108200000D01*
G04 #@! TO.C,D54*
X49631250Y-106200000D02*
X49631250Y-108200000D01*
X49631250Y-108200000D02*
X45731250Y-108200000D01*
X49631250Y-106200000D02*
X45731250Y-106200000D01*
G04 #@! TO.C,D53*
X287781250Y-89150000D02*
X291681250Y-89150000D01*
X287781250Y-87150000D02*
X291681250Y-87150000D01*
X287781250Y-89150000D02*
X287781250Y-87150000D01*
G04 #@! TO.C,D52*
X252062500Y-89150000D02*
X252062500Y-87150000D01*
X252062500Y-87150000D02*
X255962500Y-87150000D01*
X252062500Y-89150000D02*
X255962500Y-89150000D01*
G04 #@! TO.C,D51*
X233012500Y-89150000D02*
X236912500Y-89150000D01*
X233012500Y-87150000D02*
X236912500Y-87150000D01*
X233012500Y-89150000D02*
X233012500Y-87150000D01*
G04 #@! TO.C,D50*
X213962500Y-89150000D02*
X213962500Y-87150000D01*
X213962500Y-87150000D02*
X217862500Y-87150000D01*
X213962500Y-89150000D02*
X217862500Y-89150000D01*
G04 #@! TO.C,D49*
X194912500Y-89150000D02*
X198812500Y-89150000D01*
X194912500Y-87150000D02*
X198812500Y-87150000D01*
X194912500Y-89150000D02*
X194912500Y-87150000D01*
G04 #@! TO.C,D48*
X175862500Y-89150000D02*
X175862500Y-87150000D01*
X175862500Y-87150000D02*
X179762500Y-87150000D01*
X175862500Y-89150000D02*
X179762500Y-89150000D01*
G04 #@! TO.C,D43*
X80612500Y-89150000D02*
X84512500Y-89150000D01*
X80612500Y-87150000D02*
X84512500Y-87150000D01*
X80612500Y-89150000D02*
X80612500Y-87150000D01*
D15*
G04 #@! TO.C,REF\002A\002A*
G36*
X147364986Y-106339998D02*
X147206994Y-106340863D01*
X147092653Y-106343205D01*
X147014593Y-106347762D01*
X146965446Y-106355270D01*
X146937841Y-106366466D01*
X146924408Y-106382088D01*
X146917779Y-106402873D01*
X146917135Y-106405563D01*
X146907065Y-106454113D01*
X146888425Y-106549905D01*
X146863155Y-106682743D01*
X146833193Y-106842431D01*
X146800478Y-107018774D01*
X146799336Y-107024967D01*
X146766567Y-107197782D01*
X146735907Y-107350469D01*
X146709336Y-107473871D01*
X146688833Y-107558831D01*
X146676374Y-107596190D01*
X146675780Y-107596852D01*
X146639081Y-107615095D01*
X146563414Y-107645497D01*
X146465122Y-107681493D01*
X146464575Y-107681685D01*
X146340767Y-107728222D01*
X146194804Y-107787504D01*
X146057219Y-107847109D01*
X146050707Y-107850056D01*
X145826610Y-107951765D01*
X145330381Y-107612897D01*
X145178154Y-107509592D01*
X145040259Y-107417237D01*
X144924685Y-107341084D01*
X144839421Y-107286385D01*
X144792456Y-107258393D01*
X144787996Y-107256317D01*
X144753866Y-107265560D01*
X144690119Y-107310156D01*
X144594269Y-107392209D01*
X144463831Y-107513821D01*
X144330672Y-107643205D01*
X144202306Y-107770702D01*
X144087419Y-107887046D01*
X143992927Y-107985052D01*
X143925747Y-108057536D01*
X143892794Y-108097313D01*
X143891568Y-108099361D01*
X143887926Y-108126656D01*
X143901650Y-108171234D01*
X143936131Y-108239112D01*
X143994761Y-108336311D01*
X144080930Y-108468851D01*
X144195800Y-108639476D01*
X144297746Y-108789655D01*
X144388877Y-108924350D01*
X144463927Y-109035740D01*
X144517631Y-109116005D01*
X144544720Y-109157325D01*
X144546426Y-109160130D01*
X144543118Y-109199721D01*
X144518047Y-109276669D01*
X144476202Y-109376432D01*
X144461288Y-109408291D01*
X144396214Y-109550226D01*
X144326788Y-109711273D01*
X144270391Y-109850621D01*
X144229753Y-109954044D01*
X144197474Y-110032642D01*
X144178822Y-110073720D01*
X144176503Y-110076885D01*
X144142197Y-110082128D01*
X144061331Y-110096494D01*
X143944657Y-110117937D01*
X143802925Y-110144413D01*
X143646890Y-110173877D01*
X143487302Y-110204283D01*
X143334915Y-110233588D01*
X143200479Y-110259745D01*
X143094748Y-110280710D01*
X143028474Y-110294439D01*
X143012218Y-110298320D01*
X142995427Y-110307900D01*
X142982751Y-110329536D01*
X142973622Y-110370531D01*
X142967469Y-110438189D01*
X142963720Y-110539812D01*
X142961808Y-110682703D01*
X142961160Y-110874165D01*
X142961126Y-110952645D01*
X142961126Y-111590906D01*
X143114402Y-111621160D01*
X143199678Y-111637564D01*
X143326930Y-111661509D01*
X143480685Y-111690107D01*
X143645466Y-111720467D01*
X143691011Y-111728806D01*
X143843068Y-111758370D01*
X143975532Y-111787442D01*
X144077286Y-111813329D01*
X144137212Y-111833337D01*
X144147195Y-111839301D01*
X144171707Y-111881534D01*
X144206852Y-111963370D01*
X144245827Y-112068683D01*
X144253558Y-112091368D01*
X144304640Y-112232018D01*
X144368046Y-112390714D01*
X144430096Y-112533225D01*
X144430402Y-112533886D01*
X144533733Y-112757440D01*
X143854039Y-113757232D01*
X144290379Y-114194300D01*
X144422351Y-114324381D01*
X144542721Y-114439048D01*
X144644727Y-114532181D01*
X144721609Y-114597658D01*
X144766607Y-114629357D01*
X144773062Y-114631368D01*
X144810960Y-114615529D01*
X144888292Y-114571496D01*
X144996611Y-114504490D01*
X145127468Y-114419734D01*
X145268948Y-114324816D01*
X145412539Y-114227998D01*
X145540565Y-114143751D01*
X145644895Y-114077258D01*
X145717400Y-114033702D01*
X145749842Y-114018264D01*
X145789424Y-114031328D01*
X145864481Y-114065750D01*
X145959532Y-114114380D01*
X145969608Y-114119785D01*
X146097609Y-114183980D01*
X146185382Y-114215463D01*
X146239972Y-114215798D01*
X146268425Y-114186548D01*
X146268590Y-114186138D01*
X146282812Y-114151498D01*
X146316731Y-114069269D01*
X146367716Y-113945814D01*
X146433138Y-113787498D01*
X146510366Y-113600686D01*
X146596771Y-113391742D01*
X146680449Y-113189446D01*
X146772412Y-112966200D01*
X146856850Y-112759392D01*
X146931231Y-112575362D01*
X146993026Y-112420451D01*
X147039703Y-112300996D01*
X147068732Y-112223339D01*
X147077678Y-112194356D01*
X147055244Y-112161110D01*
X146996561Y-112108123D01*
X146918311Y-112049704D01*
X146695466Y-111864952D01*
X146521282Y-111653182D01*
X146397846Y-111418856D01*
X146327246Y-111166434D01*
X146311569Y-110900377D01*
X146322964Y-110777575D01*
X146385050Y-110522793D01*
X146491977Y-110297801D01*
X146637111Y-110104817D01*
X146813822Y-109946061D01*
X147015478Y-109823750D01*
X147235446Y-109740105D01*
X147467094Y-109697344D01*
X147703791Y-109697687D01*
X147938905Y-109743352D01*
X148165804Y-109836559D01*
X148377856Y-109979527D01*
X148466364Y-110060383D01*
X148636111Y-110268007D01*
X148754301Y-110494895D01*
X148821722Y-110734433D01*
X148839160Y-110980007D01*
X148807402Y-111225003D01*
X148727235Y-111462808D01*
X148599445Y-111686807D01*
X148424820Y-111890387D01*
X148229688Y-112049704D01*
X148148409Y-112110602D01*
X148090991Y-112163015D01*
X148070322Y-112194406D01*
X148081144Y-112228639D01*
X148111923Y-112310419D01*
X148160126Y-112433407D01*
X148223222Y-112591263D01*
X148298678Y-112777649D01*
X148383962Y-112986226D01*
X148467781Y-113189496D01*
X148560255Y-113412933D01*
X148645911Y-113619984D01*
X148722118Y-113804286D01*
X148786247Y-113959475D01*
X148835668Y-114079188D01*
X148867752Y-114157061D01*
X148879641Y-114186138D01*
X148907726Y-114215677D01*
X148962051Y-114215591D01*
X149049605Y-114184326D01*
X149177381Y-114120329D01*
X149178392Y-114119785D01*
X149274598Y-114070121D01*
X149352369Y-114033945D01*
X149396223Y-114018408D01*
X149398158Y-114018264D01*
X149431171Y-114034024D01*
X149504054Y-114077850D01*
X149608678Y-114144557D01*
X149736910Y-114228964D01*
X149879052Y-114324816D01*
X150023767Y-114421867D01*
X150154196Y-114506270D01*
X150261890Y-114572801D01*
X150338402Y-114616238D01*
X150374938Y-114631368D01*
X150408582Y-114611482D01*
X150476224Y-114555903D01*
X150571107Y-114470754D01*
X150686470Y-114362153D01*
X150815555Y-114236221D01*
X150857771Y-114194149D01*
X151294261Y-113756931D01*
X150962023Y-113269340D01*
X150861054Y-113119605D01*
X150772438Y-112985220D01*
X150701146Y-112873969D01*
X150652150Y-112793639D01*
X150630422Y-112752014D01*
X150629785Y-112749053D01*
X150641240Y-112709818D01*
X150672051Y-112630895D01*
X150716884Y-112525509D01*
X150748353Y-112454954D01*
X150807192Y-112319876D01*
X150862604Y-112183409D01*
X150905564Y-112068103D01*
X150917234Y-112032977D01*
X150950389Y-111939174D01*
X150982799Y-111866694D01*
X151000601Y-111839301D01*
X151039886Y-111822536D01*
X151125626Y-111798770D01*
X151246697Y-111770697D01*
X151391973Y-111741009D01*
X151456988Y-111728806D01*
X151622087Y-111698468D01*
X151780448Y-111669093D01*
X151916596Y-111643569D01*
X152015057Y-111624785D01*
X152033598Y-111621160D01*
X152186873Y-111590906D01*
X152186873Y-110952645D01*
X152186529Y-110742770D01*
X152185116Y-110583980D01*
X152182064Y-110468973D01*
X152176803Y-110390446D01*
X152168763Y-110341096D01*
X152157373Y-110313619D01*
X152142063Y-110300713D01*
X152135782Y-110298320D01*
X152097896Y-110289833D01*
X152014195Y-110272900D01*
X151895433Y-110249566D01*
X151752361Y-110221875D01*
X151595732Y-110191873D01*
X151436297Y-110161604D01*
X151284809Y-110133115D01*
X151152019Y-110108449D01*
X151048681Y-110089651D01*
X150985545Y-110078767D01*
X150971497Y-110076885D01*
X150958770Y-110051704D01*
X150930600Y-109984622D01*
X150892252Y-109888333D01*
X150877609Y-109850621D01*
X150818548Y-109704921D01*
X150749000Y-109543951D01*
X150686712Y-109408291D01*
X150640879Y-109304561D01*
X150610387Y-109219326D01*
X150600208Y-109167126D01*
X150601831Y-109160130D01*
X150623343Y-109127102D01*
X150672465Y-109053643D01*
X150743923Y-108947577D01*
X150832445Y-108816726D01*
X150932759Y-108668912D01*
X150952594Y-108639734D01*
X151068988Y-108466863D01*
X151154548Y-108335226D01*
X151212684Y-108238761D01*
X151246808Y-108171408D01*
X151260331Y-108127106D01*
X151256664Y-108099794D01*
X151256570Y-108099620D01*
X151227707Y-108063746D01*
X151163867Y-107994391D01*
X151071969Y-107898745D01*
X150958933Y-107783999D01*
X150831679Y-107657341D01*
X150817328Y-107643205D01*
X150656957Y-107487903D01*
X150533195Y-107373870D01*
X150443555Y-107299002D01*
X150385552Y-107261196D01*
X150360004Y-107256317D01*
X150322718Y-107277603D01*
X150245343Y-107326773D01*
X150135867Y-107398575D01*
X150002280Y-107487755D01*
X149852570Y-107589063D01*
X149817618Y-107612897D01*
X149321390Y-107951765D01*
X149097293Y-107850056D01*
X148961011Y-107790783D01*
X148814724Y-107731170D01*
X148688965Y-107683640D01*
X148683425Y-107681685D01*
X148585057Y-107645677D01*
X148509229Y-107615229D01*
X148472282Y-107596905D01*
X148472220Y-107596852D01*
X148460496Y-107563729D01*
X148440568Y-107482267D01*
X148414413Y-107361625D01*
X148384010Y-107210959D01*
X148351337Y-107039428D01*
X148348664Y-107024967D01*
X148315890Y-106848235D01*
X148285802Y-106687810D01*
X148260339Y-106553888D01*
X148241441Y-106456663D01*
X148231047Y-106406332D01*
X148230865Y-106405563D01*
X148224539Y-106384153D01*
X148212239Y-106367988D01*
X148186594Y-106356331D01*
X148140235Y-106348445D01*
X148065792Y-106343593D01*
X147955895Y-106341039D01*
X147803175Y-106340045D01*
X147600262Y-106339874D01*
X147574000Y-106339874D01*
X147364986Y-106339998D01*
X147364986Y-106339998D01*
G37*
X147364986Y-106339998D02*
X147206994Y-106340863D01*
X147092653Y-106343205D01*
X147014593Y-106347762D01*
X146965446Y-106355270D01*
X146937841Y-106366466D01*
X146924408Y-106382088D01*
X146917779Y-106402873D01*
X146917135Y-106405563D01*
X146907065Y-106454113D01*
X146888425Y-106549905D01*
X146863155Y-106682743D01*
X146833193Y-106842431D01*
X146800478Y-107018774D01*
X146799336Y-107024967D01*
X146766567Y-107197782D01*
X146735907Y-107350469D01*
X146709336Y-107473871D01*
X146688833Y-107558831D01*
X146676374Y-107596190D01*
X146675780Y-107596852D01*
X146639081Y-107615095D01*
X146563414Y-107645497D01*
X146465122Y-107681493D01*
X146464575Y-107681685D01*
X146340767Y-107728222D01*
X146194804Y-107787504D01*
X146057219Y-107847109D01*
X146050707Y-107850056D01*
X145826610Y-107951765D01*
X145330381Y-107612897D01*
X145178154Y-107509592D01*
X145040259Y-107417237D01*
X144924685Y-107341084D01*
X144839421Y-107286385D01*
X144792456Y-107258393D01*
X144787996Y-107256317D01*
X144753866Y-107265560D01*
X144690119Y-107310156D01*
X144594269Y-107392209D01*
X144463831Y-107513821D01*
X144330672Y-107643205D01*
X144202306Y-107770702D01*
X144087419Y-107887046D01*
X143992927Y-107985052D01*
X143925747Y-108057536D01*
X143892794Y-108097313D01*
X143891568Y-108099361D01*
X143887926Y-108126656D01*
X143901650Y-108171234D01*
X143936131Y-108239112D01*
X143994761Y-108336311D01*
X144080930Y-108468851D01*
X144195800Y-108639476D01*
X144297746Y-108789655D01*
X144388877Y-108924350D01*
X144463927Y-109035740D01*
X144517631Y-109116005D01*
X144544720Y-109157325D01*
X144546426Y-109160130D01*
X144543118Y-109199721D01*
X144518047Y-109276669D01*
X144476202Y-109376432D01*
X144461288Y-109408291D01*
X144396214Y-109550226D01*
X144326788Y-109711273D01*
X144270391Y-109850621D01*
X144229753Y-109954044D01*
X144197474Y-110032642D01*
X144178822Y-110073720D01*
X144176503Y-110076885D01*
X144142197Y-110082128D01*
X144061331Y-110096494D01*
X143944657Y-110117937D01*
X143802925Y-110144413D01*
X143646890Y-110173877D01*
X143487302Y-110204283D01*
X143334915Y-110233588D01*
X143200479Y-110259745D01*
X143094748Y-110280710D01*
X143028474Y-110294439D01*
X143012218Y-110298320D01*
X142995427Y-110307900D01*
X142982751Y-110329536D01*
X142973622Y-110370531D01*
X142967469Y-110438189D01*
X142963720Y-110539812D01*
X142961808Y-110682703D01*
X142961160Y-110874165D01*
X142961126Y-110952645D01*
X142961126Y-111590906D01*
X143114402Y-111621160D01*
X143199678Y-111637564D01*
X143326930Y-111661509D01*
X143480685Y-111690107D01*
X143645466Y-111720467D01*
X143691011Y-111728806D01*
X143843068Y-111758370D01*
X143975532Y-111787442D01*
X144077286Y-111813329D01*
X144137212Y-111833337D01*
X144147195Y-111839301D01*
X144171707Y-111881534D01*
X144206852Y-111963370D01*
X144245827Y-112068683D01*
X144253558Y-112091368D01*
X144304640Y-112232018D01*
X144368046Y-112390714D01*
X144430096Y-112533225D01*
X144430402Y-112533886D01*
X144533733Y-112757440D01*
X143854039Y-113757232D01*
X144290379Y-114194300D01*
X144422351Y-114324381D01*
X144542721Y-114439048D01*
X144644727Y-114532181D01*
X144721609Y-114597658D01*
X144766607Y-114629357D01*
X144773062Y-114631368D01*
X144810960Y-114615529D01*
X144888292Y-114571496D01*
X144996611Y-114504490D01*
X145127468Y-114419734D01*
X145268948Y-114324816D01*
X145412539Y-114227998D01*
X145540565Y-114143751D01*
X145644895Y-114077258D01*
X145717400Y-114033702D01*
X145749842Y-114018264D01*
X145789424Y-114031328D01*
X145864481Y-114065750D01*
X145959532Y-114114380D01*
X145969608Y-114119785D01*
X146097609Y-114183980D01*
X146185382Y-114215463D01*
X146239972Y-114215798D01*
X146268425Y-114186548D01*
X146268590Y-114186138D01*
X146282812Y-114151498D01*
X146316731Y-114069269D01*
X146367716Y-113945814D01*
X146433138Y-113787498D01*
X146510366Y-113600686D01*
X146596771Y-113391742D01*
X146680449Y-113189446D01*
X146772412Y-112966200D01*
X146856850Y-112759392D01*
X146931231Y-112575362D01*
X146993026Y-112420451D01*
X147039703Y-112300996D01*
X147068732Y-112223339D01*
X147077678Y-112194356D01*
X147055244Y-112161110D01*
X146996561Y-112108123D01*
X146918311Y-112049704D01*
X146695466Y-111864952D01*
X146521282Y-111653182D01*
X146397846Y-111418856D01*
X146327246Y-111166434D01*
X146311569Y-110900377D01*
X146322964Y-110777575D01*
X146385050Y-110522793D01*
X146491977Y-110297801D01*
X146637111Y-110104817D01*
X146813822Y-109946061D01*
X147015478Y-109823750D01*
X147235446Y-109740105D01*
X147467094Y-109697344D01*
X147703791Y-109697687D01*
X147938905Y-109743352D01*
X148165804Y-109836559D01*
X148377856Y-109979527D01*
X148466364Y-110060383D01*
X148636111Y-110268007D01*
X148754301Y-110494895D01*
X148821722Y-110734433D01*
X148839160Y-110980007D01*
X148807402Y-111225003D01*
X148727235Y-111462808D01*
X148599445Y-111686807D01*
X148424820Y-111890387D01*
X148229688Y-112049704D01*
X148148409Y-112110602D01*
X148090991Y-112163015D01*
X148070322Y-112194406D01*
X148081144Y-112228639D01*
X148111923Y-112310419D01*
X148160126Y-112433407D01*
X148223222Y-112591263D01*
X148298678Y-112777649D01*
X148383962Y-112986226D01*
X148467781Y-113189496D01*
X148560255Y-113412933D01*
X148645911Y-113619984D01*
X148722118Y-113804286D01*
X148786247Y-113959475D01*
X148835668Y-114079188D01*
X148867752Y-114157061D01*
X148879641Y-114186138D01*
X148907726Y-114215677D01*
X148962051Y-114215591D01*
X149049605Y-114184326D01*
X149177381Y-114120329D01*
X149178392Y-114119785D01*
X149274598Y-114070121D01*
X149352369Y-114033945D01*
X149396223Y-114018408D01*
X149398158Y-114018264D01*
X149431171Y-114034024D01*
X149504054Y-114077850D01*
X149608678Y-114144557D01*
X149736910Y-114228964D01*
X149879052Y-114324816D01*
X150023767Y-114421867D01*
X150154196Y-114506270D01*
X150261890Y-114572801D01*
X150338402Y-114616238D01*
X150374938Y-114631368D01*
X150408582Y-114611482D01*
X150476224Y-114555903D01*
X150571107Y-114470754D01*
X150686470Y-114362153D01*
X150815555Y-114236221D01*
X150857771Y-114194149D01*
X151294261Y-113756931D01*
X150962023Y-113269340D01*
X150861054Y-113119605D01*
X150772438Y-112985220D01*
X150701146Y-112873969D01*
X150652150Y-112793639D01*
X150630422Y-112752014D01*
X150629785Y-112749053D01*
X150641240Y-112709818D01*
X150672051Y-112630895D01*
X150716884Y-112525509D01*
X150748353Y-112454954D01*
X150807192Y-112319876D01*
X150862604Y-112183409D01*
X150905564Y-112068103D01*
X150917234Y-112032977D01*
X150950389Y-111939174D01*
X150982799Y-111866694D01*
X151000601Y-111839301D01*
X151039886Y-111822536D01*
X151125626Y-111798770D01*
X151246697Y-111770697D01*
X151391973Y-111741009D01*
X151456988Y-111728806D01*
X151622087Y-111698468D01*
X151780448Y-111669093D01*
X151916596Y-111643569D01*
X152015057Y-111624785D01*
X152033598Y-111621160D01*
X152186873Y-111590906D01*
X152186873Y-110952645D01*
X152186529Y-110742770D01*
X152185116Y-110583980D01*
X152182064Y-110468973D01*
X152176803Y-110390446D01*
X152168763Y-110341096D01*
X152157373Y-110313619D01*
X152142063Y-110300713D01*
X152135782Y-110298320D01*
X152097896Y-110289833D01*
X152014195Y-110272900D01*
X151895433Y-110249566D01*
X151752361Y-110221875D01*
X151595732Y-110191873D01*
X151436297Y-110161604D01*
X151284809Y-110133115D01*
X151152019Y-110108449D01*
X151048681Y-110089651D01*
X150985545Y-110078767D01*
X150971497Y-110076885D01*
X150958770Y-110051704D01*
X150930600Y-109984622D01*
X150892252Y-109888333D01*
X150877609Y-109850621D01*
X150818548Y-109704921D01*
X150749000Y-109543951D01*
X150686712Y-109408291D01*
X150640879Y-109304561D01*
X150610387Y-109219326D01*
X150600208Y-109167126D01*
X150601831Y-109160130D01*
X150623343Y-109127102D01*
X150672465Y-109053643D01*
X150743923Y-108947577D01*
X150832445Y-108816726D01*
X150932759Y-108668912D01*
X150952594Y-108639734D01*
X151068988Y-108466863D01*
X151154548Y-108335226D01*
X151212684Y-108238761D01*
X151246808Y-108171408D01*
X151260331Y-108127106D01*
X151256664Y-108099794D01*
X151256570Y-108099620D01*
X151227707Y-108063746D01*
X151163867Y-107994391D01*
X151071969Y-107898745D01*
X150958933Y-107783999D01*
X150831679Y-107657341D01*
X150817328Y-107643205D01*
X150656957Y-107487903D01*
X150533195Y-107373870D01*
X150443555Y-107299002D01*
X150385552Y-107261196D01*
X150360004Y-107256317D01*
X150322718Y-107277603D01*
X150245343Y-107326773D01*
X150135867Y-107398575D01*
X150002280Y-107487755D01*
X149852570Y-107589063D01*
X149817618Y-107612897D01*
X149321390Y-107951765D01*
X149097293Y-107850056D01*
X148961011Y-107790783D01*
X148814724Y-107731170D01*
X148688965Y-107683640D01*
X148683425Y-107681685D01*
X148585057Y-107645677D01*
X148509229Y-107615229D01*
X148472282Y-107596905D01*
X148472220Y-107596852D01*
X148460496Y-107563729D01*
X148440568Y-107482267D01*
X148414413Y-107361625D01*
X148384010Y-107210959D01*
X148351337Y-107039428D01*
X148348664Y-107024967D01*
X148315890Y-106848235D01*
X148285802Y-106687810D01*
X148260339Y-106553888D01*
X148241441Y-106456663D01*
X148231047Y-106406332D01*
X148230865Y-106405563D01*
X148224539Y-106384153D01*
X148212239Y-106367988D01*
X148186594Y-106356331D01*
X148140235Y-106348445D01*
X148065792Y-106343593D01*
X147955895Y-106341039D01*
X147803175Y-106340045D01*
X147600262Y-106339874D01*
X147574000Y-106339874D01*
X147364986Y-106339998D01*
G36*
X141230561Y-115843540D02*
X141115050Y-115919034D01*
X141059336Y-115986617D01*
X141015196Y-116109255D01*
X141011691Y-116206298D01*
X141019632Y-116336056D01*
X141318885Y-116467039D01*
X141464389Y-116533958D01*
X141559463Y-116587790D01*
X141608899Y-116634416D01*
X141617489Y-116679720D01*
X141590028Y-116729582D01*
X141559747Y-116762632D01*
X141471637Y-116815633D01*
X141375804Y-116819347D01*
X141287788Y-116778041D01*
X141223131Y-116695983D01*
X141211567Y-116667008D01*
X141156175Y-116576509D01*
X141092447Y-116537940D01*
X141005034Y-116504946D01*
X141005034Y-116630034D01*
X141012762Y-116715156D01*
X141043034Y-116786938D01*
X141106482Y-116869356D01*
X141115912Y-116880066D01*
X141186487Y-116953391D01*
X141247153Y-116992742D01*
X141323050Y-117010845D01*
X141385970Y-117016774D01*
X141498513Y-117018251D01*
X141578630Y-116999535D01*
X141628610Y-116971747D01*
X141707162Y-116910641D01*
X141761537Y-116844554D01*
X141795948Y-116761441D01*
X141814612Y-116649254D01*
X141821744Y-116495946D01*
X141822313Y-116418136D01*
X141820378Y-116324853D01*
X141644101Y-116324853D01*
X141642056Y-116374896D01*
X141636961Y-116383092D01*
X141603334Y-116371958D01*
X141530970Y-116342493D01*
X141434253Y-116300601D01*
X141414027Y-116291597D01*
X141291797Y-116229442D01*
X141224453Y-116174815D01*
X141209652Y-116123649D01*
X141245053Y-116071876D01*
X141274289Y-116049000D01*
X141379784Y-116003250D01*
X141478524Y-116010808D01*
X141561188Y-116066651D01*
X141618452Y-116165753D01*
X141636812Y-116244414D01*
X141644101Y-116324853D01*
X141820378Y-116324853D01*
X141818541Y-116236351D01*
X141804641Y-116101853D01*
X141777106Y-116003916D01*
X141732428Y-115931811D01*
X141667099Y-115874813D01*
X141638617Y-115856393D01*
X141509237Y-115808422D01*
X141367588Y-115805403D01*
X141230561Y-115843540D01*
X141230561Y-115843540D01*
G37*
X141230561Y-115843540D02*
X141115050Y-115919034D01*
X141059336Y-115986617D01*
X141015196Y-116109255D01*
X141011691Y-116206298D01*
X141019632Y-116336056D01*
X141318885Y-116467039D01*
X141464389Y-116533958D01*
X141559463Y-116587790D01*
X141608899Y-116634416D01*
X141617489Y-116679720D01*
X141590028Y-116729582D01*
X141559747Y-116762632D01*
X141471637Y-116815633D01*
X141375804Y-116819347D01*
X141287788Y-116778041D01*
X141223131Y-116695983D01*
X141211567Y-116667008D01*
X141156175Y-116576509D01*
X141092447Y-116537940D01*
X141005034Y-116504946D01*
X141005034Y-116630034D01*
X141012762Y-116715156D01*
X141043034Y-116786938D01*
X141106482Y-116869356D01*
X141115912Y-116880066D01*
X141186487Y-116953391D01*
X141247153Y-116992742D01*
X141323050Y-117010845D01*
X141385970Y-117016774D01*
X141498513Y-117018251D01*
X141578630Y-116999535D01*
X141628610Y-116971747D01*
X141707162Y-116910641D01*
X141761537Y-116844554D01*
X141795948Y-116761441D01*
X141814612Y-116649254D01*
X141821744Y-116495946D01*
X141822313Y-116418136D01*
X141820378Y-116324853D01*
X141644101Y-116324853D01*
X141642056Y-116374896D01*
X141636961Y-116383092D01*
X141603334Y-116371958D01*
X141530970Y-116342493D01*
X141434253Y-116300601D01*
X141414027Y-116291597D01*
X141291797Y-116229442D01*
X141224453Y-116174815D01*
X141209652Y-116123649D01*
X141245053Y-116071876D01*
X141274289Y-116049000D01*
X141379784Y-116003250D01*
X141478524Y-116010808D01*
X141561188Y-116066651D01*
X141618452Y-116165753D01*
X141636812Y-116244414D01*
X141644101Y-116324853D01*
X141820378Y-116324853D01*
X141818541Y-116236351D01*
X141804641Y-116101853D01*
X141777106Y-116003916D01*
X141732428Y-115931811D01*
X141667099Y-115874813D01*
X141638617Y-115856393D01*
X141509237Y-115808422D01*
X141367588Y-115805403D01*
X141230561Y-115843540D01*
G36*
X142238310Y-115827018D02*
X142203415Y-115842269D01*
X142120123Y-115908235D01*
X142048897Y-116003618D01*
X142004847Y-116105406D01*
X141997678Y-116155587D01*
X142021715Y-116225647D01*
X142074439Y-116262717D01*
X142130969Y-116285164D01*
X142156854Y-116289300D01*
X142169458Y-116259283D01*
X142194346Y-116193961D01*
X142205265Y-116164445D01*
X142266492Y-116062348D01*
X142355139Y-116011423D01*
X142468807Y-116012989D01*
X142477226Y-116014994D01*
X142537912Y-116043767D01*
X142582526Y-116099859D01*
X142612998Y-116190163D01*
X142631256Y-116321571D01*
X142639229Y-116500974D01*
X142639977Y-116596433D01*
X142640348Y-116746913D01*
X142642777Y-116849495D01*
X142649240Y-116914672D01*
X142661712Y-116952938D01*
X142682167Y-116974785D01*
X142712581Y-116990707D01*
X142714339Y-116991509D01*
X142772909Y-117016272D01*
X142801925Y-117025391D01*
X142806384Y-116997822D01*
X142810201Y-116921620D01*
X142813101Y-116806541D01*
X142814809Y-116662341D01*
X142815149Y-116556814D01*
X142813412Y-116352613D01*
X142806618Y-116197697D01*
X142792393Y-116083024D01*
X142768362Y-115999551D01*
X142732152Y-115938236D01*
X142681388Y-115890034D01*
X142631261Y-115856393D01*
X142510725Y-115811619D01*
X142370443Y-115801521D01*
X142238310Y-115827018D01*
X142238310Y-115827018D01*
G37*
X142238310Y-115827018D02*
X142203415Y-115842269D01*
X142120123Y-115908235D01*
X142048897Y-116003618D01*
X142004847Y-116105406D01*
X141997678Y-116155587D01*
X142021715Y-116225647D01*
X142074439Y-116262717D01*
X142130969Y-116285164D01*
X142156854Y-116289300D01*
X142169458Y-116259283D01*
X142194346Y-116193961D01*
X142205265Y-116164445D01*
X142266492Y-116062348D01*
X142355139Y-116011423D01*
X142468807Y-116012989D01*
X142477226Y-116014994D01*
X142537912Y-116043767D01*
X142582526Y-116099859D01*
X142612998Y-116190163D01*
X142631256Y-116321571D01*
X142639229Y-116500974D01*
X142639977Y-116596433D01*
X142640348Y-116746913D01*
X142642777Y-116849495D01*
X142649240Y-116914672D01*
X142661712Y-116952938D01*
X142682167Y-116974785D01*
X142712581Y-116990707D01*
X142714339Y-116991509D01*
X142772909Y-117016272D01*
X142801925Y-117025391D01*
X142806384Y-116997822D01*
X142810201Y-116921620D01*
X142813101Y-116806541D01*
X142814809Y-116662341D01*
X142815149Y-116556814D01*
X142813412Y-116352613D01*
X142806618Y-116197697D01*
X142792393Y-116083024D01*
X142768362Y-115999551D01*
X142732152Y-115938236D01*
X142681388Y-115890034D01*
X142631261Y-115856393D01*
X142510725Y-115811619D01*
X142370443Y-115801521D01*
X142238310Y-115827018D01*
G36*
X143259594Y-115822156D02*
X143175531Y-115860393D01*
X143109550Y-115906726D01*
X143061206Y-115958532D01*
X143027828Y-116025363D01*
X143006747Y-116116769D01*
X142995293Y-116242301D01*
X142990797Y-116411508D01*
X142990322Y-116522933D01*
X142990322Y-116957627D01*
X143064684Y-116991509D01*
X143123254Y-117016272D01*
X143152270Y-117025391D01*
X143157821Y-116998257D01*
X143162225Y-116925094D01*
X143164922Y-116818263D01*
X143165494Y-116733437D01*
X143167954Y-116610887D01*
X143174588Y-116513668D01*
X143184274Y-116454134D01*
X143191968Y-116441483D01*
X143243689Y-116454402D01*
X143324883Y-116487539D01*
X143418898Y-116532461D01*
X143509083Y-116580735D01*
X143578785Y-116623928D01*
X143611352Y-116653608D01*
X143611481Y-116653929D01*
X143608680Y-116708857D01*
X143583561Y-116761292D01*
X143539459Y-116803881D01*
X143475091Y-116818126D01*
X143420079Y-116816466D01*
X143342165Y-116815245D01*
X143301268Y-116833498D01*
X143276705Y-116881726D01*
X143273608Y-116890820D01*
X143262960Y-116959598D01*
X143291435Y-117001360D01*
X143365656Y-117021263D01*
X143445832Y-117024944D01*
X143590110Y-116997658D01*
X143664797Y-116958690D01*
X143757037Y-116867148D01*
X143805957Y-116754782D01*
X143810346Y-116636051D01*
X143768999Y-116525411D01*
X143706803Y-116456080D01*
X143644706Y-116417265D01*
X143547105Y-116368125D01*
X143433368Y-116318292D01*
X143414410Y-116310677D01*
X143289479Y-116255545D01*
X143217461Y-116206954D01*
X143194300Y-116158647D01*
X143215936Y-116104370D01*
X143253080Y-116061943D01*
X143340873Y-116009702D01*
X143437470Y-116005784D01*
X143526056Y-116046041D01*
X143589814Y-116126326D01*
X143598183Y-116147040D01*
X143646904Y-116223225D01*
X143718035Y-116279785D01*
X143807793Y-116326201D01*
X143807793Y-116194584D01*
X143802510Y-116114168D01*
X143779858Y-116050786D01*
X143729633Y-115983163D01*
X143681418Y-115931076D01*
X143606446Y-115857322D01*
X143548194Y-115817702D01*
X143485628Y-115801810D01*
X143414807Y-115799184D01*
X143259594Y-115822156D01*
X143259594Y-115822156D01*
G37*
X143259594Y-115822156D02*
X143175531Y-115860393D01*
X143109550Y-115906726D01*
X143061206Y-115958532D01*
X143027828Y-116025363D01*
X143006747Y-116116769D01*
X142995293Y-116242301D01*
X142990797Y-116411508D01*
X142990322Y-116522933D01*
X142990322Y-116957627D01*
X143064684Y-116991509D01*
X143123254Y-117016272D01*
X143152270Y-117025391D01*
X143157821Y-116998257D01*
X143162225Y-116925094D01*
X143164922Y-116818263D01*
X143165494Y-116733437D01*
X143167954Y-116610887D01*
X143174588Y-116513668D01*
X143184274Y-116454134D01*
X143191968Y-116441483D01*
X143243689Y-116454402D01*
X143324883Y-116487539D01*
X143418898Y-116532461D01*
X143509083Y-116580735D01*
X143578785Y-116623928D01*
X143611352Y-116653608D01*
X143611481Y-116653929D01*
X143608680Y-116708857D01*
X143583561Y-116761292D01*
X143539459Y-116803881D01*
X143475091Y-116818126D01*
X143420079Y-116816466D01*
X143342165Y-116815245D01*
X143301268Y-116833498D01*
X143276705Y-116881726D01*
X143273608Y-116890820D01*
X143262960Y-116959598D01*
X143291435Y-117001360D01*
X143365656Y-117021263D01*
X143445832Y-117024944D01*
X143590110Y-116997658D01*
X143664797Y-116958690D01*
X143757037Y-116867148D01*
X143805957Y-116754782D01*
X143810346Y-116636051D01*
X143768999Y-116525411D01*
X143706803Y-116456080D01*
X143644706Y-116417265D01*
X143547105Y-116368125D01*
X143433368Y-116318292D01*
X143414410Y-116310677D01*
X143289479Y-116255545D01*
X143217461Y-116206954D01*
X143194300Y-116158647D01*
X143215936Y-116104370D01*
X143253080Y-116061943D01*
X143340873Y-116009702D01*
X143437470Y-116005784D01*
X143526056Y-116046041D01*
X143589814Y-116126326D01*
X143598183Y-116147040D01*
X143646904Y-116223225D01*
X143718035Y-116279785D01*
X143807793Y-116326201D01*
X143807793Y-116194584D01*
X143802510Y-116114168D01*
X143779858Y-116050786D01*
X143729633Y-115983163D01*
X143681418Y-115931076D01*
X143606446Y-115857322D01*
X143548194Y-115817702D01*
X143485628Y-115801810D01*
X143414807Y-115799184D01*
X143259594Y-115822156D01*
G36*
X143993876Y-115826840D02*
X143989421Y-115903653D01*
X143985929Y-116020391D01*
X143983685Y-116167821D01*
X143982965Y-116322455D01*
X143982965Y-116845727D01*
X144075355Y-116938117D01*
X144139022Y-116995047D01*
X144194911Y-117018107D01*
X144271298Y-117016647D01*
X144301620Y-117012934D01*
X144396390Y-117002126D01*
X144474778Y-116995933D01*
X144493885Y-116995361D01*
X144558301Y-116999102D01*
X144650429Y-117008494D01*
X144686150Y-117012934D01*
X144773886Y-117019801D01*
X144832847Y-117004885D01*
X144891310Y-116958835D01*
X144912415Y-116938117D01*
X145004805Y-116845727D01*
X145004805Y-115866947D01*
X144930442Y-115833066D01*
X144866410Y-115807970D01*
X144828948Y-115799184D01*
X144819343Y-115826950D01*
X144810365Y-115904530D01*
X144802614Y-116023348D01*
X144796686Y-116174828D01*
X144793827Y-116302805D01*
X144785839Y-116806425D01*
X144716152Y-116816278D01*
X144652771Y-116809389D01*
X144621714Y-116787083D01*
X144613033Y-116745379D01*
X144605622Y-116656544D01*
X144600069Y-116531834D01*
X144596964Y-116382507D01*
X144596516Y-116305661D01*
X144596069Y-115863287D01*
X144504126Y-115831235D01*
X144439051Y-115809443D01*
X144403653Y-115799281D01*
X144402632Y-115799184D01*
X144399080Y-115826809D01*
X144395177Y-115903411D01*
X144391249Y-116019579D01*
X144387624Y-116165904D01*
X144385092Y-116302805D01*
X144377103Y-116806425D01*
X144201931Y-116806425D01*
X144193893Y-116346965D01*
X144185854Y-115887505D01*
X144100457Y-115843344D01*
X144037407Y-115813019D01*
X144000090Y-115799258D01*
X143999013Y-115799184D01*
X143993876Y-115826840D01*
X143993876Y-115826840D01*
G37*
X143993876Y-115826840D02*
X143989421Y-115903653D01*
X143985929Y-116020391D01*
X143983685Y-116167821D01*
X143982965Y-116322455D01*
X143982965Y-116845727D01*
X144075355Y-116938117D01*
X144139022Y-116995047D01*
X144194911Y-117018107D01*
X144271298Y-117016647D01*
X144301620Y-117012934D01*
X144396390Y-117002126D01*
X144474778Y-116995933D01*
X144493885Y-116995361D01*
X144558301Y-116999102D01*
X144650429Y-117008494D01*
X144686150Y-117012934D01*
X144773886Y-117019801D01*
X144832847Y-117004885D01*
X144891310Y-116958835D01*
X144912415Y-116938117D01*
X145004805Y-116845727D01*
X145004805Y-115866947D01*
X144930442Y-115833066D01*
X144866410Y-115807970D01*
X144828948Y-115799184D01*
X144819343Y-115826950D01*
X144810365Y-115904530D01*
X144802614Y-116023348D01*
X144796686Y-116174828D01*
X144793827Y-116302805D01*
X144785839Y-116806425D01*
X144716152Y-116816278D01*
X144652771Y-116809389D01*
X144621714Y-116787083D01*
X144613033Y-116745379D01*
X144605622Y-116656544D01*
X144600069Y-116531834D01*
X144596964Y-116382507D01*
X144596516Y-116305661D01*
X144596069Y-115863287D01*
X144504126Y-115831235D01*
X144439051Y-115809443D01*
X144403653Y-115799281D01*
X144402632Y-115799184D01*
X144399080Y-115826809D01*
X144395177Y-115903411D01*
X144391249Y-116019579D01*
X144387624Y-116165904D01*
X144385092Y-116302805D01*
X144377103Y-116806425D01*
X144201931Y-116806425D01*
X144193893Y-116346965D01*
X144185854Y-115887505D01*
X144100457Y-115843344D01*
X144037407Y-115813019D01*
X144000090Y-115799258D01*
X143999013Y-115799184D01*
X143993876Y-115826840D01*
G36*
X145180086Y-116041455D02*
X145180457Y-116259661D01*
X145181892Y-116427519D01*
X145184998Y-116553070D01*
X145190378Y-116644355D01*
X145198638Y-116709415D01*
X145210384Y-116756291D01*
X145226219Y-116793024D01*
X145238210Y-116813991D01*
X145337510Y-116927694D01*
X145463412Y-116998965D01*
X145602709Y-117024538D01*
X145742195Y-117001150D01*
X145825257Y-116959119D01*
X145912455Y-116886411D01*
X145971883Y-116797612D01*
X146007739Y-116681320D01*
X146024219Y-116526135D01*
X146026553Y-116412287D01*
X146026239Y-116404106D01*
X145822276Y-116404106D01*
X145821030Y-116534657D01*
X145815322Y-116621080D01*
X145802196Y-116677618D01*
X145778694Y-116718514D01*
X145750614Y-116749362D01*
X145656312Y-116808905D01*
X145555060Y-116813992D01*
X145459364Y-116764279D01*
X145451916Y-116757543D01*
X145420126Y-116722502D01*
X145400192Y-116680811D01*
X145389400Y-116618762D01*
X145385035Y-116522644D01*
X145384345Y-116416379D01*
X145385841Y-116282880D01*
X145392036Y-116193822D01*
X145405486Y-116135293D01*
X145428749Y-116093382D01*
X145447825Y-116071123D01*
X145536437Y-116014985D01*
X145638492Y-116008235D01*
X145735905Y-116051114D01*
X145754704Y-116067032D01*
X145786707Y-116102382D01*
X145806682Y-116144502D01*
X145817407Y-116207251D01*
X145821661Y-116304487D01*
X145822276Y-116404106D01*
X146026239Y-116404106D01*
X146019496Y-116228947D01*
X145995528Y-116091195D01*
X145950452Y-115987632D01*
X145880072Y-115906856D01*
X145825257Y-115865455D01*
X145725624Y-115820728D01*
X145610145Y-115799967D01*
X145502801Y-115805525D01*
X145442736Y-115827943D01*
X145419165Y-115834323D01*
X145403523Y-115810535D01*
X145392605Y-115746788D01*
X145384345Y-115649687D01*
X145375301Y-115541541D01*
X145362739Y-115476475D01*
X145339881Y-115439268D01*
X145299949Y-115414699D01*
X145274862Y-115403819D01*
X145179977Y-115364072D01*
X145180086Y-116041455D01*
X145180086Y-116041455D01*
G37*
X145180086Y-116041455D02*
X145180457Y-116259661D01*
X145181892Y-116427519D01*
X145184998Y-116553070D01*
X145190378Y-116644355D01*
X145198638Y-116709415D01*
X145210384Y-116756291D01*
X145226219Y-116793024D01*
X145238210Y-116813991D01*
X145337510Y-116927694D01*
X145463412Y-116998965D01*
X145602709Y-117024538D01*
X145742195Y-117001150D01*
X145825257Y-116959119D01*
X145912455Y-116886411D01*
X145971883Y-116797612D01*
X146007739Y-116681320D01*
X146024219Y-116526135D01*
X146026553Y-116412287D01*
X146026239Y-116404106D01*
X145822276Y-116404106D01*
X145821030Y-116534657D01*
X145815322Y-116621080D01*
X145802196Y-116677618D01*
X145778694Y-116718514D01*
X145750614Y-116749362D01*
X145656312Y-116808905D01*
X145555060Y-116813992D01*
X145459364Y-116764279D01*
X145451916Y-116757543D01*
X145420126Y-116722502D01*
X145400192Y-116680811D01*
X145389400Y-116618762D01*
X145385035Y-116522644D01*
X145384345Y-116416379D01*
X145385841Y-116282880D01*
X145392036Y-116193822D01*
X145405486Y-116135293D01*
X145428749Y-116093382D01*
X145447825Y-116071123D01*
X145536437Y-116014985D01*
X145638492Y-116008235D01*
X145735905Y-116051114D01*
X145754704Y-116067032D01*
X145786707Y-116102382D01*
X145806682Y-116144502D01*
X145817407Y-116207251D01*
X145821661Y-116304487D01*
X145822276Y-116404106D01*
X146026239Y-116404106D01*
X146019496Y-116228947D01*
X145995528Y-116091195D01*
X145950452Y-115987632D01*
X145880072Y-115906856D01*
X145825257Y-115865455D01*
X145725624Y-115820728D01*
X145610145Y-115799967D01*
X145502801Y-115805525D01*
X145442736Y-115827943D01*
X145419165Y-115834323D01*
X145403523Y-115810535D01*
X145392605Y-115746788D01*
X145384345Y-115649687D01*
X145375301Y-115541541D01*
X145362739Y-115476475D01*
X145339881Y-115439268D01*
X145299949Y-115414699D01*
X145274862Y-115403819D01*
X145179977Y-115364072D01*
X145180086Y-116041455D01*
G36*
X146508057Y-115808920D02*
X146375435Y-115857859D01*
X146267990Y-115944419D01*
X146225968Y-116005352D01*
X146180157Y-116117161D01*
X146181109Y-116198006D01*
X146229192Y-116252378D01*
X146246983Y-116261624D01*
X146323796Y-116290450D01*
X146363024Y-116283065D01*
X146376311Y-116234658D01*
X146376988Y-116207920D01*
X146401314Y-116109548D01*
X146464719Y-116040734D01*
X146552846Y-116007498D01*
X146651337Y-116015861D01*
X146731398Y-116059296D01*
X146758439Y-116084072D01*
X146777606Y-116114129D01*
X146790554Y-116159565D01*
X146798936Y-116230476D01*
X146804407Y-116336960D01*
X146808622Y-116489112D01*
X146809713Y-116537287D01*
X146813693Y-116702095D01*
X146818219Y-116818088D01*
X146825005Y-116894833D01*
X146835769Y-116941893D01*
X146852227Y-116968835D01*
X146876094Y-116985223D01*
X146891374Y-116992463D01*
X146956267Y-117017220D01*
X146994466Y-117025391D01*
X147007088Y-116998103D01*
X147014792Y-116915603D01*
X147017620Y-116776941D01*
X147015614Y-116581162D01*
X147014989Y-116550965D01*
X147010579Y-116372349D01*
X147005365Y-116241923D01*
X146997945Y-116149492D01*
X146986918Y-116084858D01*
X146970883Y-116037825D01*
X146948439Y-115998196D01*
X146936698Y-115981215D01*
X146869381Y-115906080D01*
X146794090Y-115847638D01*
X146784872Y-115842536D01*
X146649867Y-115802260D01*
X146508057Y-115808920D01*
X146508057Y-115808920D01*
G37*
X146508057Y-115808920D02*
X146375435Y-115857859D01*
X146267990Y-115944419D01*
X146225968Y-116005352D01*
X146180157Y-116117161D01*
X146181109Y-116198006D01*
X146229192Y-116252378D01*
X146246983Y-116261624D01*
X146323796Y-116290450D01*
X146363024Y-116283065D01*
X146376311Y-116234658D01*
X146376988Y-116207920D01*
X146401314Y-116109548D01*
X146464719Y-116040734D01*
X146552846Y-116007498D01*
X146651337Y-116015861D01*
X146731398Y-116059296D01*
X146758439Y-116084072D01*
X146777606Y-116114129D01*
X146790554Y-116159565D01*
X146798936Y-116230476D01*
X146804407Y-116336960D01*
X146808622Y-116489112D01*
X146809713Y-116537287D01*
X146813693Y-116702095D01*
X146818219Y-116818088D01*
X146825005Y-116894833D01*
X146835769Y-116941893D01*
X146852227Y-116968835D01*
X146876094Y-116985223D01*
X146891374Y-116992463D01*
X146956267Y-117017220D01*
X146994466Y-117025391D01*
X147007088Y-116998103D01*
X147014792Y-116915603D01*
X147017620Y-116776941D01*
X147015614Y-116581162D01*
X147014989Y-116550965D01*
X147010579Y-116372349D01*
X147005365Y-116241923D01*
X146997945Y-116149492D01*
X146986918Y-116084858D01*
X146970883Y-116037825D01*
X146948439Y-115998196D01*
X146936698Y-115981215D01*
X146869381Y-115906080D01*
X146794090Y-115847638D01*
X146784872Y-115842536D01*
X146649867Y-115802260D01*
X146508057Y-115808920D01*
G36*
X147494056Y-115811360D02*
X147379657Y-115853842D01*
X147378348Y-115854658D01*
X147307597Y-115906730D01*
X147255364Y-115967584D01*
X147218629Y-116046887D01*
X147194366Y-116154309D01*
X147179555Y-116299517D01*
X147171171Y-116492179D01*
X147170436Y-116519628D01*
X147159880Y-116933521D01*
X147248709Y-116979456D01*
X147312982Y-117010498D01*
X147351790Y-117025206D01*
X147353585Y-117025391D01*
X147360300Y-116998250D01*
X147365635Y-116925041D01*
X147368917Y-116818081D01*
X147369632Y-116731469D01*
X147369649Y-116591162D01*
X147376063Y-116503051D01*
X147398420Y-116461025D01*
X147446268Y-116458975D01*
X147529151Y-116490790D01*
X147654287Y-116549272D01*
X147746303Y-116597845D01*
X147793629Y-116639986D01*
X147807542Y-116685916D01*
X147807563Y-116688189D01*
X147784605Y-116767311D01*
X147716630Y-116810055D01*
X147612602Y-116816246D01*
X147537670Y-116815172D01*
X147498161Y-116836753D01*
X147473522Y-116888591D01*
X147459341Y-116954632D01*
X147479777Y-116992104D01*
X147487472Y-116997467D01*
X147559917Y-117019006D01*
X147661367Y-117022055D01*
X147765843Y-117007778D01*
X147839875Y-116981688D01*
X147942228Y-116894785D01*
X148000409Y-116773816D01*
X148011931Y-116679308D01*
X148003138Y-116594062D01*
X147971320Y-116524476D01*
X147908316Y-116462672D01*
X147805969Y-116400772D01*
X147656118Y-116330897D01*
X147646988Y-116326948D01*
X147512003Y-116264588D01*
X147428706Y-116213446D01*
X147393003Y-116167488D01*
X147400797Y-116120683D01*
X147447993Y-116066998D01*
X147462106Y-116054644D01*
X147556641Y-116006741D01*
X147654594Y-116008758D01*
X147739903Y-116055724D01*
X147796504Y-116142669D01*
X147801763Y-116159734D01*
X147852977Y-116242504D01*
X147917963Y-116282372D01*
X148011931Y-116321882D01*
X148011931Y-116219658D01*
X147983347Y-116071072D01*
X147898505Y-115934784D01*
X147854355Y-115889191D01*
X147753995Y-115830674D01*
X147626365Y-115804184D01*
X147494056Y-115811360D01*
X147494056Y-115811360D01*
G37*
X147494056Y-115811360D02*
X147379657Y-115853842D01*
X147378348Y-115854658D01*
X147307597Y-115906730D01*
X147255364Y-115967584D01*
X147218629Y-116046887D01*
X147194366Y-116154309D01*
X147179555Y-116299517D01*
X147171171Y-116492179D01*
X147170436Y-116519628D01*
X147159880Y-116933521D01*
X147248709Y-116979456D01*
X147312982Y-117010498D01*
X147351790Y-117025206D01*
X147353585Y-117025391D01*
X147360300Y-116998250D01*
X147365635Y-116925041D01*
X147368917Y-116818081D01*
X147369632Y-116731469D01*
X147369649Y-116591162D01*
X147376063Y-116503051D01*
X147398420Y-116461025D01*
X147446268Y-116458975D01*
X147529151Y-116490790D01*
X147654287Y-116549272D01*
X147746303Y-116597845D01*
X147793629Y-116639986D01*
X147807542Y-116685916D01*
X147807563Y-116688189D01*
X147784605Y-116767311D01*
X147716630Y-116810055D01*
X147612602Y-116816246D01*
X147537670Y-116815172D01*
X147498161Y-116836753D01*
X147473522Y-116888591D01*
X147459341Y-116954632D01*
X147479777Y-116992104D01*
X147487472Y-116997467D01*
X147559917Y-117019006D01*
X147661367Y-117022055D01*
X147765843Y-117007778D01*
X147839875Y-116981688D01*
X147942228Y-116894785D01*
X148000409Y-116773816D01*
X148011931Y-116679308D01*
X148003138Y-116594062D01*
X147971320Y-116524476D01*
X147908316Y-116462672D01*
X147805969Y-116400772D01*
X147656118Y-116330897D01*
X147646988Y-116326948D01*
X147512003Y-116264588D01*
X147428706Y-116213446D01*
X147393003Y-116167488D01*
X147400797Y-116120683D01*
X147447993Y-116066998D01*
X147462106Y-116054644D01*
X147556641Y-116006741D01*
X147654594Y-116008758D01*
X147739903Y-116055724D01*
X147796504Y-116142669D01*
X147801763Y-116159734D01*
X147852977Y-116242504D01*
X147917963Y-116282372D01*
X148011931Y-116321882D01*
X148011931Y-116219658D01*
X147983347Y-116071072D01*
X147898505Y-115934784D01*
X147854355Y-115889191D01*
X147753995Y-115830674D01*
X147626365Y-115804184D01*
X147494056Y-115811360D01*
G36*
X148829402Y-115610857D02*
X148820846Y-115730188D01*
X148811019Y-115800506D01*
X148797401Y-115831179D01*
X148777473Y-115831571D01*
X148771011Y-115827910D01*
X148685060Y-115801398D01*
X148573255Y-115802946D01*
X148459586Y-115830199D01*
X148388490Y-115865455D01*
X148315595Y-115921778D01*
X148262307Y-115985519D01*
X148225725Y-116066510D01*
X148202950Y-116174586D01*
X148191081Y-116319580D01*
X148187218Y-116511326D01*
X148187149Y-116548109D01*
X148187103Y-116961288D01*
X148279046Y-116993339D01*
X148344348Y-117015144D01*
X148380176Y-117025297D01*
X148381230Y-117025391D01*
X148384758Y-116997860D01*
X148387761Y-116921923D01*
X148390010Y-116807565D01*
X148391276Y-116664769D01*
X148391471Y-116577951D01*
X148391877Y-116406773D01*
X148393968Y-116284088D01*
X148399053Y-116200000D01*
X148408440Y-116144614D01*
X148423439Y-116108032D01*
X148445358Y-116080359D01*
X148459043Y-116067032D01*
X148553051Y-116013328D01*
X148655636Y-116009307D01*
X148748710Y-116054725D01*
X148765922Y-116071123D01*
X148791168Y-116101957D01*
X148808680Y-116138531D01*
X148819858Y-116191415D01*
X148826104Y-116271177D01*
X148828818Y-116388385D01*
X148829402Y-116549991D01*
X148829402Y-116961288D01*
X148921345Y-116993339D01*
X148986647Y-117015144D01*
X149022475Y-117025297D01*
X149023529Y-117025391D01*
X149026225Y-116997448D01*
X149028655Y-116918630D01*
X149030722Y-116796453D01*
X149032329Y-116638432D01*
X149033377Y-116452083D01*
X149033769Y-116244920D01*
X149033770Y-116235706D01*
X149033770Y-115446020D01*
X148938885Y-115405997D01*
X148844000Y-115365973D01*
X148829402Y-115610857D01*
X148829402Y-115610857D01*
G37*
X148829402Y-115610857D02*
X148820846Y-115730188D01*
X148811019Y-115800506D01*
X148797401Y-115831179D01*
X148777473Y-115831571D01*
X148771011Y-115827910D01*
X148685060Y-115801398D01*
X148573255Y-115802946D01*
X148459586Y-115830199D01*
X148388490Y-115865455D01*
X148315595Y-115921778D01*
X148262307Y-115985519D01*
X148225725Y-116066510D01*
X148202950Y-116174586D01*
X148191081Y-116319580D01*
X148187218Y-116511326D01*
X148187149Y-116548109D01*
X148187103Y-116961288D01*
X148279046Y-116993339D01*
X148344348Y-117015144D01*
X148380176Y-117025297D01*
X148381230Y-117025391D01*
X148384758Y-116997860D01*
X148387761Y-116921923D01*
X148390010Y-116807565D01*
X148391276Y-116664769D01*
X148391471Y-116577951D01*
X148391877Y-116406773D01*
X148393968Y-116284088D01*
X148399053Y-116200000D01*
X148408440Y-116144614D01*
X148423439Y-116108032D01*
X148445358Y-116080359D01*
X148459043Y-116067032D01*
X148553051Y-116013328D01*
X148655636Y-116009307D01*
X148748710Y-116054725D01*
X148765922Y-116071123D01*
X148791168Y-116101957D01*
X148808680Y-116138531D01*
X148819858Y-116191415D01*
X148826104Y-116271177D01*
X148828818Y-116388385D01*
X148829402Y-116549991D01*
X148829402Y-116961288D01*
X148921345Y-116993339D01*
X148986647Y-117015144D01*
X149022475Y-117025297D01*
X149023529Y-117025391D01*
X149026225Y-116997448D01*
X149028655Y-116918630D01*
X149030722Y-116796453D01*
X149032329Y-116638432D01*
X149033377Y-116452083D01*
X149033769Y-116244920D01*
X149033770Y-116235706D01*
X149033770Y-115446020D01*
X148938885Y-115405997D01*
X148844000Y-115365973D01*
X148829402Y-115610857D01*
G36*
X151258448Y-115771676D02*
X151143342Y-115849111D01*
X151054389Y-115960949D01*
X151001251Y-116103265D01*
X150990503Y-116208015D01*
X150991724Y-116251726D01*
X151001944Y-116285194D01*
X151030039Y-116315179D01*
X151084884Y-116348440D01*
X151175355Y-116391738D01*
X151310328Y-116451833D01*
X151311011Y-116452134D01*
X151435249Y-116509037D01*
X151537127Y-116559565D01*
X151606233Y-116598280D01*
X151632154Y-116619740D01*
X151632161Y-116619913D01*
X151609315Y-116666644D01*
X151555891Y-116718154D01*
X151494558Y-116755261D01*
X151463485Y-116762632D01*
X151378711Y-116737138D01*
X151305707Y-116673291D01*
X151270087Y-116603094D01*
X151235820Y-116551343D01*
X151168697Y-116492409D01*
X151089792Y-116441496D01*
X151020179Y-116413809D01*
X151005623Y-116412287D01*
X150989237Y-116437321D01*
X150988250Y-116501311D01*
X151000292Y-116587593D01*
X151022993Y-116679501D01*
X151053986Y-116760369D01*
X151055552Y-116763509D01*
X151148819Y-116893734D01*
X151269696Y-116982311D01*
X151406973Y-117025786D01*
X151549440Y-117020706D01*
X151685888Y-116963616D01*
X151691955Y-116959602D01*
X151799290Y-116862326D01*
X151869868Y-116735409D01*
X151908926Y-116568526D01*
X151914168Y-116521639D01*
X151923452Y-116300329D01*
X151912322Y-116197124D01*
X151632161Y-116197124D01*
X151628521Y-116261503D01*
X151608611Y-116280291D01*
X151558974Y-116266235D01*
X151480733Y-116233009D01*
X151393274Y-116191359D01*
X151391101Y-116190256D01*
X151316970Y-116151265D01*
X151287219Y-116125244D01*
X151294555Y-116097965D01*
X151325447Y-116062121D01*
X151404040Y-116010251D01*
X151488677Y-116006439D01*
X151564597Y-116044189D01*
X151617035Y-116117001D01*
X151632161Y-116197124D01*
X151912322Y-116197124D01*
X151904356Y-116123261D01*
X151855366Y-115982829D01*
X151787164Y-115884447D01*
X151664065Y-115785030D01*
X151528472Y-115735711D01*
X151390045Y-115732568D01*
X151258448Y-115771676D01*
X151258448Y-115771676D01*
G37*
X151258448Y-115771676D02*
X151143342Y-115849111D01*
X151054389Y-115960949D01*
X151001251Y-116103265D01*
X150990503Y-116208015D01*
X150991724Y-116251726D01*
X151001944Y-116285194D01*
X151030039Y-116315179D01*
X151084884Y-116348440D01*
X151175355Y-116391738D01*
X151310328Y-116451833D01*
X151311011Y-116452134D01*
X151435249Y-116509037D01*
X151537127Y-116559565D01*
X151606233Y-116598280D01*
X151632154Y-116619740D01*
X151632161Y-116619913D01*
X151609315Y-116666644D01*
X151555891Y-116718154D01*
X151494558Y-116755261D01*
X151463485Y-116762632D01*
X151378711Y-116737138D01*
X151305707Y-116673291D01*
X151270087Y-116603094D01*
X151235820Y-116551343D01*
X151168697Y-116492409D01*
X151089792Y-116441496D01*
X151020179Y-116413809D01*
X151005623Y-116412287D01*
X150989237Y-116437321D01*
X150988250Y-116501311D01*
X151000292Y-116587593D01*
X151022993Y-116679501D01*
X151053986Y-116760369D01*
X151055552Y-116763509D01*
X151148819Y-116893734D01*
X151269696Y-116982311D01*
X151406973Y-117025786D01*
X151549440Y-117020706D01*
X151685888Y-116963616D01*
X151691955Y-116959602D01*
X151799290Y-116862326D01*
X151869868Y-116735409D01*
X151908926Y-116568526D01*
X151914168Y-116521639D01*
X151923452Y-116300329D01*
X151912322Y-116197124D01*
X151632161Y-116197124D01*
X151628521Y-116261503D01*
X151608611Y-116280291D01*
X151558974Y-116266235D01*
X151480733Y-116233009D01*
X151393274Y-116191359D01*
X151391101Y-116190256D01*
X151316970Y-116151265D01*
X151287219Y-116125244D01*
X151294555Y-116097965D01*
X151325447Y-116062121D01*
X151404040Y-116010251D01*
X151488677Y-116006439D01*
X151564597Y-116044189D01*
X151617035Y-116117001D01*
X151632161Y-116197124D01*
X151912322Y-116197124D01*
X151904356Y-116123261D01*
X151855366Y-115982829D01*
X151787164Y-115884447D01*
X151664065Y-115785030D01*
X151528472Y-115735711D01*
X151390045Y-115732568D01*
X151258448Y-115771676D01*
G36*
X153525779Y-115753015D02*
X153388939Y-115824968D01*
X153287949Y-115940766D01*
X153252075Y-116015213D01*
X153224161Y-116126992D01*
X153209871Y-116268227D01*
X153208516Y-116422371D01*
X153219405Y-116572879D01*
X153241847Y-116703205D01*
X153275150Y-116796803D01*
X153285385Y-116812922D01*
X153406618Y-116933249D01*
X153550613Y-117005317D01*
X153706861Y-117026408D01*
X153864852Y-116993802D01*
X153908820Y-116974253D01*
X153994444Y-116914012D01*
X154069592Y-116834135D01*
X154076694Y-116824004D01*
X154105561Y-116775181D01*
X154124643Y-116722990D01*
X154135916Y-116654285D01*
X154141355Y-116555918D01*
X154142938Y-116414744D01*
X154142965Y-116383092D01*
X154142893Y-116373019D01*
X153851011Y-116373019D01*
X153849313Y-116506256D01*
X153842628Y-116594674D01*
X153828575Y-116651785D01*
X153804771Y-116691102D01*
X153792621Y-116704241D01*
X153722764Y-116754172D01*
X153654941Y-116751895D01*
X153586365Y-116708584D01*
X153545465Y-116662346D01*
X153521242Y-116594857D01*
X153507639Y-116488433D01*
X153506706Y-116476020D01*
X153504384Y-116283147D01*
X153528650Y-116139900D01*
X153579176Y-116047160D01*
X153655632Y-116005807D01*
X153682924Y-116003552D01*
X153754589Y-116014893D01*
X153803610Y-116054184D01*
X153833582Y-116129326D01*
X153848101Y-116248222D01*
X153851011Y-116373019D01*
X154142893Y-116373019D01*
X154141878Y-116232659D01*
X154137312Y-116127549D01*
X154127312Y-116054714D01*
X154109921Y-116001108D01*
X154083184Y-115953681D01*
X154077276Y-115944864D01*
X153977968Y-115826007D01*
X153869758Y-115757008D01*
X153738019Y-115729619D01*
X153693283Y-115728281D01*
X153525779Y-115753015D01*
X153525779Y-115753015D01*
G37*
X153525779Y-115753015D02*
X153388939Y-115824968D01*
X153287949Y-115940766D01*
X153252075Y-116015213D01*
X153224161Y-116126992D01*
X153209871Y-116268227D01*
X153208516Y-116422371D01*
X153219405Y-116572879D01*
X153241847Y-116703205D01*
X153275150Y-116796803D01*
X153285385Y-116812922D01*
X153406618Y-116933249D01*
X153550613Y-117005317D01*
X153706861Y-117026408D01*
X153864852Y-116993802D01*
X153908820Y-116974253D01*
X153994444Y-116914012D01*
X154069592Y-116834135D01*
X154076694Y-116824004D01*
X154105561Y-116775181D01*
X154124643Y-116722990D01*
X154135916Y-116654285D01*
X154141355Y-116555918D01*
X154142938Y-116414744D01*
X154142965Y-116383092D01*
X154142893Y-116373019D01*
X153851011Y-116373019D01*
X153849313Y-116506256D01*
X153842628Y-116594674D01*
X153828575Y-116651785D01*
X153804771Y-116691102D01*
X153792621Y-116704241D01*
X153722764Y-116754172D01*
X153654941Y-116751895D01*
X153586365Y-116708584D01*
X153545465Y-116662346D01*
X153521242Y-116594857D01*
X153507639Y-116488433D01*
X153506706Y-116476020D01*
X153504384Y-116283147D01*
X153528650Y-116139900D01*
X153579176Y-116047160D01*
X153655632Y-116005807D01*
X153682924Y-116003552D01*
X153754589Y-116014893D01*
X153803610Y-116054184D01*
X153833582Y-116129326D01*
X153848101Y-116248222D01*
X153851011Y-116373019D01*
X154142893Y-116373019D01*
X154141878Y-116232659D01*
X154137312Y-116127549D01*
X154127312Y-116054714D01*
X154109921Y-116001108D01*
X154083184Y-115953681D01*
X154077276Y-115944864D01*
X153977968Y-115826007D01*
X153869758Y-115757008D01*
X153738019Y-115729619D01*
X153693283Y-115728281D01*
X153525779Y-115753015D01*
G36*
X150156571Y-115764719D02*
X150062877Y-115818914D01*
X149997736Y-115872707D01*
X149950093Y-115929066D01*
X149917272Y-115997987D01*
X149896594Y-116089468D01*
X149885380Y-116213506D01*
X149880951Y-116380098D01*
X149880437Y-116499851D01*
X149880437Y-116940659D01*
X150004517Y-116996283D01*
X150128598Y-117051907D01*
X150143195Y-116569095D01*
X150149227Y-116388779D01*
X150155555Y-116257901D01*
X150163394Y-116167511D01*
X150173963Y-116108664D01*
X150188477Y-116072413D01*
X150208152Y-116049810D01*
X150214465Y-116044917D01*
X150310112Y-116006706D01*
X150406793Y-116021827D01*
X150464345Y-116061943D01*
X150487755Y-116090370D01*
X150503961Y-116127672D01*
X150514259Y-116184223D01*
X150519951Y-116270394D01*
X150522336Y-116396558D01*
X150522736Y-116528042D01*
X150522814Y-116692999D01*
X150525639Y-116809761D01*
X150535093Y-116888510D01*
X150555060Y-116939431D01*
X150589424Y-116972706D01*
X150642068Y-116998520D01*
X150712383Y-117025344D01*
X150789180Y-117054542D01*
X150780038Y-116536346D01*
X150776357Y-116349539D01*
X150772050Y-116211490D01*
X150765877Y-116112568D01*
X150756598Y-116043145D01*
X150742973Y-115993590D01*
X150723761Y-115954273D01*
X150700598Y-115919584D01*
X150588848Y-115808770D01*
X150452487Y-115744689D01*
X150304175Y-115729339D01*
X150156571Y-115764719D01*
X150156571Y-115764719D01*
G37*
X150156571Y-115764719D02*
X150062877Y-115818914D01*
X149997736Y-115872707D01*
X149950093Y-115929066D01*
X149917272Y-115997987D01*
X149896594Y-116089468D01*
X149885380Y-116213506D01*
X149880951Y-116380098D01*
X149880437Y-116499851D01*
X149880437Y-116940659D01*
X150004517Y-116996283D01*
X150128598Y-117051907D01*
X150143195Y-116569095D01*
X150149227Y-116388779D01*
X150155555Y-116257901D01*
X150163394Y-116167511D01*
X150173963Y-116108664D01*
X150188477Y-116072413D01*
X150208152Y-116049810D01*
X150214465Y-116044917D01*
X150310112Y-116006706D01*
X150406793Y-116021827D01*
X150464345Y-116061943D01*
X150487755Y-116090370D01*
X150503961Y-116127672D01*
X150514259Y-116184223D01*
X150519951Y-116270394D01*
X150522336Y-116396558D01*
X150522736Y-116528042D01*
X150522814Y-116692999D01*
X150525639Y-116809761D01*
X150535093Y-116888510D01*
X150555060Y-116939431D01*
X150589424Y-116972706D01*
X150642068Y-116998520D01*
X150712383Y-117025344D01*
X150789180Y-117054542D01*
X150780038Y-116536346D01*
X150776357Y-116349539D01*
X150772050Y-116211490D01*
X150765877Y-116112568D01*
X150756598Y-116043145D01*
X150742973Y-115993590D01*
X150723761Y-115954273D01*
X150700598Y-115919584D01*
X150588848Y-115808770D01*
X150452487Y-115744689D01*
X150304175Y-115729339D01*
X150156571Y-115764719D01*
G36*
X152402100Y-115748903D02*
X152290550Y-115804522D01*
X152192092Y-115906931D01*
X152164977Y-115944864D01*
X152135438Y-115994500D01*
X152116272Y-116048412D01*
X152105307Y-116120364D01*
X152100371Y-116224122D01*
X152099287Y-116361101D01*
X152104182Y-116548815D01*
X152121196Y-116689758D01*
X152153823Y-116794908D01*
X152205558Y-116875243D01*
X152279896Y-116941741D01*
X152285358Y-116945678D01*
X152358620Y-116985953D01*
X152446840Y-117005880D01*
X152559038Y-117010793D01*
X152741433Y-117010793D01*
X152741509Y-117187857D01*
X152743207Y-117286470D01*
X152753550Y-117344314D01*
X152780578Y-117379006D01*
X152832332Y-117408164D01*
X152844761Y-117414121D01*
X152902923Y-117442039D01*
X152947956Y-117459672D01*
X152981441Y-117461194D01*
X153004962Y-117440781D01*
X153020100Y-117392607D01*
X153028437Y-117310846D01*
X153031556Y-117189672D01*
X153031040Y-117023260D01*
X153028471Y-116805785D01*
X153027668Y-116740736D01*
X153024778Y-116516502D01*
X153022188Y-116369821D01*
X152741586Y-116369821D01*
X152740009Y-116494326D01*
X152733000Y-116575787D01*
X152717142Y-116629515D01*
X152689019Y-116670823D01*
X152669925Y-116690971D01*
X152591865Y-116749921D01*
X152522753Y-116754720D01*
X152451440Y-116706038D01*
X152449632Y-116704241D01*
X152420617Y-116666618D01*
X152402967Y-116615484D01*
X152394064Y-116536738D01*
X152391291Y-116416276D01*
X152391241Y-116389588D01*
X152397942Y-116223583D01*
X152419752Y-116108505D01*
X152459235Y-116038254D01*
X152518956Y-116006729D01*
X152553472Y-116003552D01*
X152635389Y-116018460D01*
X152691579Y-116067548D01*
X152725402Y-116157362D01*
X152740220Y-116294445D01*
X152741586Y-116369821D01*
X153022188Y-116369821D01*
X153021713Y-116342952D01*
X153017753Y-116212382D01*
X153012174Y-116117087D01*
X153004254Y-116049364D01*
X152993269Y-116001507D01*
X152978499Y-115965813D01*
X152959218Y-115934578D01*
X152950951Y-115922824D01*
X152841288Y-115811797D01*
X152702635Y-115748847D01*
X152542246Y-115731297D01*
X152402100Y-115748903D01*
X152402100Y-115748903D01*
G37*
X152402100Y-115748903D02*
X152290550Y-115804522D01*
X152192092Y-115906931D01*
X152164977Y-115944864D01*
X152135438Y-115994500D01*
X152116272Y-116048412D01*
X152105307Y-116120364D01*
X152100371Y-116224122D01*
X152099287Y-116361101D01*
X152104182Y-116548815D01*
X152121196Y-116689758D01*
X152153823Y-116794908D01*
X152205558Y-116875243D01*
X152279896Y-116941741D01*
X152285358Y-116945678D01*
X152358620Y-116985953D01*
X152446840Y-117005880D01*
X152559038Y-117010793D01*
X152741433Y-117010793D01*
X152741509Y-117187857D01*
X152743207Y-117286470D01*
X152753550Y-117344314D01*
X152780578Y-117379006D01*
X152832332Y-117408164D01*
X152844761Y-117414121D01*
X152902923Y-117442039D01*
X152947956Y-117459672D01*
X152981441Y-117461194D01*
X153004962Y-117440781D01*
X153020100Y-117392607D01*
X153028437Y-117310846D01*
X153031556Y-117189672D01*
X153031040Y-117023260D01*
X153028471Y-116805785D01*
X153027668Y-116740736D01*
X153024778Y-116516502D01*
X153022188Y-116369821D01*
X152741586Y-116369821D01*
X152740009Y-116494326D01*
X152733000Y-116575787D01*
X152717142Y-116629515D01*
X152689019Y-116670823D01*
X152669925Y-116690971D01*
X152591865Y-116749921D01*
X152522753Y-116754720D01*
X152451440Y-116706038D01*
X152449632Y-116704241D01*
X152420617Y-116666618D01*
X152402967Y-116615484D01*
X152394064Y-116536738D01*
X152391291Y-116416276D01*
X152391241Y-116389588D01*
X152397942Y-116223583D01*
X152419752Y-116108505D01*
X152459235Y-116038254D01*
X152518956Y-116006729D01*
X152553472Y-116003552D01*
X152635389Y-116018460D01*
X152691579Y-116067548D01*
X152725402Y-116157362D01*
X152740220Y-116294445D01*
X152741586Y-116369821D01*
X153022188Y-116369821D01*
X153021713Y-116342952D01*
X153017753Y-116212382D01*
X153012174Y-116117087D01*
X153004254Y-116049364D01*
X152993269Y-116001507D01*
X152978499Y-115965813D01*
X152959218Y-115934578D01*
X152950951Y-115922824D01*
X152841288Y-115811797D01*
X152702635Y-115748847D01*
X152542246Y-115731297D01*
X152402100Y-115748903D01*
G04 #@! TO.C,C8*
D14*
X183808666Y-102338142D02*
X183856285Y-102385761D01*
X183999142Y-102433380D01*
X184094380Y-102433380D01*
X184237238Y-102385761D01*
X184332476Y-102290523D01*
X184380095Y-102195285D01*
X184427714Y-102004809D01*
X184427714Y-101861952D01*
X184380095Y-101671476D01*
X184332476Y-101576238D01*
X184237238Y-101481000D01*
X184094380Y-101433380D01*
X183999142Y-101433380D01*
X183856285Y-101481000D01*
X183808666Y-101528619D01*
X183237238Y-101861952D02*
X183332476Y-101814333D01*
X183380095Y-101766714D01*
X183427714Y-101671476D01*
X183427714Y-101623857D01*
X183380095Y-101528619D01*
X183332476Y-101481000D01*
X183237238Y-101433380D01*
X183046761Y-101433380D01*
X182951523Y-101481000D01*
X182903904Y-101528619D01*
X182856285Y-101623857D01*
X182856285Y-101671476D01*
X182903904Y-101766714D01*
X182951523Y-101814333D01*
X183046761Y-101861952D01*
X183237238Y-101861952D01*
X183332476Y-101909571D01*
X183380095Y-101957190D01*
X183427714Y-102052428D01*
X183427714Y-102242904D01*
X183380095Y-102338142D01*
X183332476Y-102385761D01*
X183237238Y-102433380D01*
X183046761Y-102433380D01*
X182951523Y-102385761D01*
X182903904Y-102338142D01*
X182856285Y-102242904D01*
X182856285Y-102052428D01*
X182903904Y-101957190D01*
X182951523Y-101909571D01*
X183046761Y-101861952D01*
G04 #@! TO.C,C11*
X178364357Y-108181142D02*
X178411976Y-108228761D01*
X178554833Y-108276380D01*
X178650071Y-108276380D01*
X178792928Y-108228761D01*
X178888166Y-108133523D01*
X178935785Y-108038285D01*
X178983404Y-107847809D01*
X178983404Y-107704952D01*
X178935785Y-107514476D01*
X178888166Y-107419238D01*
X178792928Y-107324000D01*
X178650071Y-107276380D01*
X178554833Y-107276380D01*
X178411976Y-107324000D01*
X178364357Y-107371619D01*
X177411976Y-108276380D02*
X177983404Y-108276380D01*
X177697690Y-108276380D02*
X177697690Y-107276380D01*
X177792928Y-107419238D01*
X177888166Y-107514476D01*
X177983404Y-107562095D01*
X176459595Y-108276380D02*
X177031023Y-108276380D01*
X176745309Y-108276380D02*
X176745309Y-107276380D01*
X176840547Y-107419238D01*
X176935785Y-107514476D01*
X177031023Y-107562095D01*
G04 #@! TO.C,C12*
X192364357Y-36551142D02*
X192411976Y-36598761D01*
X192554833Y-36646380D01*
X192650071Y-36646380D01*
X192792928Y-36598761D01*
X192888166Y-36503523D01*
X192935785Y-36408285D01*
X192983404Y-36217809D01*
X192983404Y-36074952D01*
X192935785Y-35884476D01*
X192888166Y-35789238D01*
X192792928Y-35694000D01*
X192650071Y-35646380D01*
X192554833Y-35646380D01*
X192411976Y-35694000D01*
X192364357Y-35741619D01*
X191411976Y-36646380D02*
X191983404Y-36646380D01*
X191697690Y-36646380D02*
X191697690Y-35646380D01*
X191792928Y-35789238D01*
X191888166Y-35884476D01*
X191983404Y-35932095D01*
X191031023Y-35741619D02*
X190983404Y-35694000D01*
X190888166Y-35646380D01*
X190650071Y-35646380D01*
X190554833Y-35694000D01*
X190507214Y-35741619D01*
X190459595Y-35836857D01*
X190459595Y-35932095D01*
X190507214Y-36074952D01*
X191078642Y-36646380D01*
X190459595Y-36646380D01*
G04 #@! TO.C,C10*
X173997857Y-112244142D02*
X174045476Y-112291761D01*
X174188333Y-112339380D01*
X174283571Y-112339380D01*
X174426428Y-112291761D01*
X174521666Y-112196523D01*
X174569285Y-112101285D01*
X174616904Y-111910809D01*
X174616904Y-111767952D01*
X174569285Y-111577476D01*
X174521666Y-111482238D01*
X174426428Y-111387000D01*
X174283571Y-111339380D01*
X174188333Y-111339380D01*
X174045476Y-111387000D01*
X173997857Y-111434619D01*
X173045476Y-112339380D02*
X173616904Y-112339380D01*
X173331190Y-112339380D02*
X173331190Y-111339380D01*
X173426428Y-111482238D01*
X173521666Y-111577476D01*
X173616904Y-111625095D01*
X172426428Y-111339380D02*
X172331190Y-111339380D01*
X172235952Y-111387000D01*
X172188333Y-111434619D01*
X172140714Y-111529857D01*
X172093095Y-111720333D01*
X172093095Y-111958428D01*
X172140714Y-112148904D01*
X172188333Y-112244142D01*
X172235952Y-112291761D01*
X172331190Y-112339380D01*
X172426428Y-112339380D01*
X172521666Y-112291761D01*
X172569285Y-112244142D01*
X172616904Y-112148904D01*
X172664523Y-111958428D01*
X172664523Y-111720333D01*
X172616904Y-111529857D01*
X172569285Y-111434619D01*
X172521666Y-111387000D01*
X172426428Y-111339380D01*
G04 #@! TO.C,RESET_SW1*
X174045142Y-100020380D02*
X174378476Y-99544190D01*
X174616571Y-100020380D02*
X174616571Y-99020380D01*
X174235619Y-99020380D01*
X174140380Y-99068000D01*
X174092761Y-99115619D01*
X174045142Y-99210857D01*
X174045142Y-99353714D01*
X174092761Y-99448952D01*
X174140380Y-99496571D01*
X174235619Y-99544190D01*
X174616571Y-99544190D01*
X173616571Y-99496571D02*
X173283238Y-99496571D01*
X173140380Y-100020380D02*
X173616571Y-100020380D01*
X173616571Y-99020380D01*
X173140380Y-99020380D01*
X172759428Y-99972761D02*
X172616571Y-100020380D01*
X172378476Y-100020380D01*
X172283238Y-99972761D01*
X172235619Y-99925142D01*
X172188000Y-99829904D01*
X172188000Y-99734666D01*
X172235619Y-99639428D01*
X172283238Y-99591809D01*
X172378476Y-99544190D01*
X172568952Y-99496571D01*
X172664190Y-99448952D01*
X172711809Y-99401333D01*
X172759428Y-99306095D01*
X172759428Y-99210857D01*
X172711809Y-99115619D01*
X172664190Y-99068000D01*
X172568952Y-99020380D01*
X172330857Y-99020380D01*
X172188000Y-99068000D01*
X171759428Y-99496571D02*
X171426095Y-99496571D01*
X171283238Y-100020380D02*
X171759428Y-100020380D01*
X171759428Y-99020380D01*
X171283238Y-99020380D01*
X170997523Y-99020380D02*
X170426095Y-99020380D01*
X170711809Y-100020380D02*
X170711809Y-99020380D01*
X170330857Y-100115619D02*
X169568952Y-100115619D01*
X169378476Y-99972761D02*
X169235619Y-100020380D01*
X168997523Y-100020380D01*
X168902285Y-99972761D01*
X168854666Y-99925142D01*
X168807047Y-99829904D01*
X168807047Y-99734666D01*
X168854666Y-99639428D01*
X168902285Y-99591809D01*
X168997523Y-99544190D01*
X169188000Y-99496571D01*
X169283238Y-99448952D01*
X169330857Y-99401333D01*
X169378476Y-99306095D01*
X169378476Y-99210857D01*
X169330857Y-99115619D01*
X169283238Y-99068000D01*
X169188000Y-99020380D01*
X168949904Y-99020380D01*
X168807047Y-99068000D01*
X168473714Y-99020380D02*
X168235619Y-100020380D01*
X168045142Y-99306095D01*
X167854666Y-100020380D01*
X167616571Y-99020380D01*
X166711809Y-100020380D02*
X167283238Y-100020380D01*
X166997523Y-100020380D02*
X166997523Y-99020380D01*
X167092761Y-99163238D01*
X167188000Y-99258476D01*
X167283238Y-99306095D01*
G04 #@! TO.C,C7*
X192698666Y-104243142D02*
X192746285Y-104290761D01*
X192889142Y-104338380D01*
X192984380Y-104338380D01*
X193127238Y-104290761D01*
X193222476Y-104195523D01*
X193270095Y-104100285D01*
X193317714Y-103909809D01*
X193317714Y-103766952D01*
X193270095Y-103576476D01*
X193222476Y-103481238D01*
X193127238Y-103386000D01*
X192984380Y-103338380D01*
X192889142Y-103338380D01*
X192746285Y-103386000D01*
X192698666Y-103433619D01*
X192365333Y-103338380D02*
X191698666Y-103338380D01*
X192127238Y-104338380D01*
G04 #@! TO.C,C9*
X184062666Y-123547142D02*
X184110285Y-123594761D01*
X184253142Y-123642380D01*
X184348380Y-123642380D01*
X184491238Y-123594761D01*
X184586476Y-123499523D01*
X184634095Y-123404285D01*
X184681714Y-123213809D01*
X184681714Y-123070952D01*
X184634095Y-122880476D01*
X184586476Y-122785238D01*
X184491238Y-122690000D01*
X184348380Y-122642380D01*
X184253142Y-122642380D01*
X184110285Y-122690000D01*
X184062666Y-122737619D01*
X183586476Y-123642380D02*
X183396000Y-123642380D01*
X183300761Y-123594761D01*
X183253142Y-123547142D01*
X183157904Y-123404285D01*
X183110285Y-123213809D01*
X183110285Y-122832857D01*
X183157904Y-122737619D01*
X183205523Y-122690000D01*
X183300761Y-122642380D01*
X183491238Y-122642380D01*
X183586476Y-122690000D01*
X183634095Y-122737619D01*
X183681714Y-122832857D01*
X183681714Y-123070952D01*
X183634095Y-123166190D01*
X183586476Y-123213809D01*
X183491238Y-123261428D01*
X183300761Y-123261428D01*
X183205523Y-123213809D01*
X183157904Y-123166190D01*
X183110285Y-123070952D01*
G04 #@! TO.C,R2*
X179490666Y-37663380D02*
X179824000Y-37187190D01*
X180062095Y-37663380D02*
X180062095Y-36663380D01*
X179681142Y-36663380D01*
X179585904Y-36711000D01*
X179538285Y-36758619D01*
X179490666Y-36853857D01*
X179490666Y-36996714D01*
X179538285Y-37091952D01*
X179585904Y-37139571D01*
X179681142Y-37187190D01*
X180062095Y-37187190D01*
X179109714Y-36758619D02*
X179062095Y-36711000D01*
X178966857Y-36663380D01*
X178728761Y-36663380D01*
X178633523Y-36711000D01*
X178585904Y-36758619D01*
X178538285Y-36853857D01*
X178538285Y-36949095D01*
X178585904Y-37091952D01*
X179157333Y-37663380D01*
X178538285Y-37663380D01*
G04 #@! TO.C,C2*
X199683666Y-105005142D02*
X199731285Y-105052761D01*
X199874142Y-105100380D01*
X199969380Y-105100380D01*
X200112238Y-105052761D01*
X200207476Y-104957523D01*
X200255095Y-104862285D01*
X200302714Y-104671809D01*
X200302714Y-104528952D01*
X200255095Y-104338476D01*
X200207476Y-104243238D01*
X200112238Y-104148000D01*
X199969380Y-104100380D01*
X199874142Y-104100380D01*
X199731285Y-104148000D01*
X199683666Y-104195619D01*
X199302714Y-104195619D02*
X199255095Y-104148000D01*
X199159857Y-104100380D01*
X198921761Y-104100380D01*
X198826523Y-104148000D01*
X198778904Y-104195619D01*
X198731285Y-104290857D01*
X198731285Y-104386095D01*
X198778904Y-104528952D01*
X199350333Y-105100380D01*
X198731285Y-105100380D01*
G04 #@! TO.C,C3*
X192190666Y-123547142D02*
X192238285Y-123594761D01*
X192381142Y-123642380D01*
X192476380Y-123642380D01*
X192619238Y-123594761D01*
X192714476Y-123499523D01*
X192762095Y-123404285D01*
X192809714Y-123213809D01*
X192809714Y-123070952D01*
X192762095Y-122880476D01*
X192714476Y-122785238D01*
X192619238Y-122690000D01*
X192476380Y-122642380D01*
X192381142Y-122642380D01*
X192238285Y-122690000D01*
X192190666Y-122737619D01*
X191857333Y-122642380D02*
X191238285Y-122642380D01*
X191571619Y-123023333D01*
X191428761Y-123023333D01*
X191333523Y-123070952D01*
X191285904Y-123118571D01*
X191238285Y-123213809D01*
X191238285Y-123451904D01*
X191285904Y-123547142D01*
X191333523Y-123594761D01*
X191428761Y-123642380D01*
X191714476Y-123642380D01*
X191809714Y-123594761D01*
X191857333Y-123547142D01*
G04 #@! TO.C,C4*
X177839666Y-117451142D02*
X177887285Y-117498761D01*
X178030142Y-117546380D01*
X178125380Y-117546380D01*
X178268238Y-117498761D01*
X178363476Y-117403523D01*
X178411095Y-117308285D01*
X178458714Y-117117809D01*
X178458714Y-116974952D01*
X178411095Y-116784476D01*
X178363476Y-116689238D01*
X178268238Y-116594000D01*
X178125380Y-116546380D01*
X178030142Y-116546380D01*
X177887285Y-116594000D01*
X177839666Y-116641619D01*
X176982523Y-116879714D02*
X176982523Y-117546380D01*
X177220619Y-116498761D02*
X177458714Y-117213047D01*
X176839666Y-117213047D01*
G04 #@! TO.C,C5*
X188380666Y-36552142D02*
X188428285Y-36599761D01*
X188571142Y-36647380D01*
X188666380Y-36647380D01*
X188809238Y-36599761D01*
X188904476Y-36504523D01*
X188952095Y-36409285D01*
X188999714Y-36218809D01*
X188999714Y-36075952D01*
X188952095Y-35885476D01*
X188904476Y-35790238D01*
X188809238Y-35695000D01*
X188666380Y-35647380D01*
X188571142Y-35647380D01*
X188428285Y-35695000D01*
X188380666Y-35742619D01*
X187475904Y-35647380D02*
X187952095Y-35647380D01*
X187999714Y-36123571D01*
X187952095Y-36075952D01*
X187856857Y-36028333D01*
X187618761Y-36028333D01*
X187523523Y-36075952D01*
X187475904Y-36123571D01*
X187428285Y-36218809D01*
X187428285Y-36456904D01*
X187475904Y-36552142D01*
X187523523Y-36599761D01*
X187618761Y-36647380D01*
X187856857Y-36647380D01*
X187952095Y-36599761D01*
X187999714Y-36552142D01*
G04 #@! TO.C,C6*
X180555166Y-102847142D02*
X180602785Y-102894761D01*
X180745642Y-102942380D01*
X180840880Y-102942380D01*
X180983738Y-102894761D01*
X181078976Y-102799523D01*
X181126595Y-102704285D01*
X181174214Y-102513809D01*
X181174214Y-102370952D01*
X181126595Y-102180476D01*
X181078976Y-102085238D01*
X180983738Y-101990000D01*
X180840880Y-101942380D01*
X180745642Y-101942380D01*
X180602785Y-101990000D01*
X180555166Y-102037619D01*
X179698023Y-101942380D02*
X179888500Y-101942380D01*
X179983738Y-101990000D01*
X180031357Y-102037619D01*
X180126595Y-102180476D01*
X180174214Y-102370952D01*
X180174214Y-102751904D01*
X180126595Y-102847142D01*
X180078976Y-102894761D01*
X179983738Y-102942380D01*
X179793261Y-102942380D01*
X179698023Y-102894761D01*
X179650404Y-102847142D01*
X179602785Y-102751904D01*
X179602785Y-102513809D01*
X179650404Y-102418571D01*
X179698023Y-102370952D01*
X179793261Y-102323333D01*
X179983738Y-102323333D01*
X180078976Y-102370952D01*
X180126595Y-102418571D01*
X180174214Y-102513809D01*
G04 #@! TO.C,C1*
X198032666Y-110889142D02*
X198080285Y-110936761D01*
X198223142Y-110984380D01*
X198318380Y-110984380D01*
X198461238Y-110936761D01*
X198556476Y-110841523D01*
X198604095Y-110746285D01*
X198651714Y-110555809D01*
X198651714Y-110412952D01*
X198604095Y-110222476D01*
X198556476Y-110127238D01*
X198461238Y-110032000D01*
X198318380Y-109984380D01*
X198223142Y-109984380D01*
X198080285Y-110032000D01*
X198032666Y-110079619D01*
X197080285Y-110984380D02*
X197651714Y-110984380D01*
X197366000Y-110984380D02*
X197366000Y-109984380D01*
X197461238Y-110127238D01*
X197556476Y-110222476D01*
X197651714Y-110270095D01*
G04 #@! TO.C,Y1*
X187927190Y-97522190D02*
X187927190Y-97998380D01*
X188260523Y-96998380D02*
X187927190Y-97522190D01*
X187593857Y-96998380D01*
X186736714Y-97998380D02*
X187308142Y-97998380D01*
X187022428Y-97998380D02*
X187022428Y-96998380D01*
X187117666Y-97141238D01*
X187212904Y-97236476D01*
X187308142Y-97284095D01*
G04 #@! TO.C,D62*
X169743285Y-105608380D02*
X169743285Y-104608380D01*
X169505190Y-104608380D01*
X169362333Y-104656000D01*
X169267095Y-104751238D01*
X169219476Y-104846476D01*
X169171857Y-105036952D01*
X169171857Y-105179809D01*
X169219476Y-105370285D01*
X169267095Y-105465523D01*
X169362333Y-105560761D01*
X169505190Y-105608380D01*
X169743285Y-105608380D01*
X168314714Y-104608380D02*
X168505190Y-104608380D01*
X168600428Y-104656000D01*
X168648047Y-104703619D01*
X168743285Y-104846476D01*
X168790904Y-105036952D01*
X168790904Y-105417904D01*
X168743285Y-105513142D01*
X168695666Y-105560761D01*
X168600428Y-105608380D01*
X168409952Y-105608380D01*
X168314714Y-105560761D01*
X168267095Y-105513142D01*
X168219476Y-105417904D01*
X168219476Y-105179809D01*
X168267095Y-105084571D01*
X168314714Y-105036952D01*
X168409952Y-104989333D01*
X168600428Y-104989333D01*
X168695666Y-105036952D01*
X168743285Y-105084571D01*
X168790904Y-105179809D01*
X167838523Y-104703619D02*
X167790904Y-104656000D01*
X167695666Y-104608380D01*
X167457571Y-104608380D01*
X167362333Y-104656000D01*
X167314714Y-104703619D01*
X167267095Y-104798857D01*
X167267095Y-104894095D01*
X167314714Y-105036952D01*
X167886142Y-105608380D01*
X167267095Y-105608380D01*
G04 #@! TO.C,U1*
X188848904Y-118916380D02*
X188848904Y-119725904D01*
X188801285Y-119821142D01*
X188753666Y-119868761D01*
X188658428Y-119916380D01*
X188467952Y-119916380D01*
X188372714Y-119868761D01*
X188325095Y-119821142D01*
X188277476Y-119725904D01*
X188277476Y-118916380D01*
X187277476Y-119916380D02*
X187848904Y-119916380D01*
X187563190Y-119916380D02*
X187563190Y-118916380D01*
X187658428Y-119059238D01*
X187753666Y-119154476D01*
X187848904Y-119202095D01*
G04 #@! TO.C,R1*
X173521666Y-109418380D02*
X173855000Y-108942190D01*
X174093095Y-109418380D02*
X174093095Y-108418380D01*
X173712142Y-108418380D01*
X173616904Y-108466000D01*
X173569285Y-108513619D01*
X173521666Y-108608857D01*
X173521666Y-108751714D01*
X173569285Y-108846952D01*
X173616904Y-108894571D01*
X173712142Y-108942190D01*
X174093095Y-108942190D01*
X172569285Y-109418380D02*
X173140714Y-109418380D01*
X172855000Y-109418380D02*
X172855000Y-108418380D01*
X172950238Y-108561238D01*
X173045476Y-108656476D01*
X173140714Y-108704095D01*
G04 #@! TO.C,D3*
X78838095Y-33452380D02*
X78838095Y-32452380D01*
X78600000Y-32452380D01*
X78457142Y-32500000D01*
X78361904Y-32595238D01*
X78314285Y-32690476D01*
X78266666Y-32880952D01*
X78266666Y-33023809D01*
X78314285Y-33214285D01*
X78361904Y-33309523D01*
X78457142Y-33404761D01*
X78600000Y-33452380D01*
X78838095Y-33452380D01*
X77933333Y-32452380D02*
X77314285Y-32452380D01*
X77647619Y-32833333D01*
X77504761Y-32833333D01*
X77409523Y-32880952D01*
X77361904Y-32928571D01*
X77314285Y-33023809D01*
X77314285Y-33261904D01*
X77361904Y-33357142D01*
X77409523Y-33404761D01*
X77504761Y-33452380D01*
X77790476Y-33452380D01*
X77885714Y-33404761D01*
X77933333Y-33357142D01*
G04 #@! TO.C,D4*
X97888095Y-33452380D02*
X97888095Y-32452380D01*
X97650000Y-32452380D01*
X97507142Y-32500000D01*
X97411904Y-32595238D01*
X97364285Y-32690476D01*
X97316666Y-32880952D01*
X97316666Y-33023809D01*
X97364285Y-33214285D01*
X97411904Y-33309523D01*
X97507142Y-33404761D01*
X97650000Y-33452380D01*
X97888095Y-33452380D01*
X96459523Y-32785714D02*
X96459523Y-33452380D01*
X96697619Y-32404761D02*
X96935714Y-33119047D01*
X96316666Y-33119047D01*
G04 #@! TO.C,D5*
X116938095Y-33452380D02*
X116938095Y-32452380D01*
X116700000Y-32452380D01*
X116557142Y-32500000D01*
X116461904Y-32595238D01*
X116414285Y-32690476D01*
X116366666Y-32880952D01*
X116366666Y-33023809D01*
X116414285Y-33214285D01*
X116461904Y-33309523D01*
X116557142Y-33404761D01*
X116700000Y-33452380D01*
X116938095Y-33452380D01*
X115461904Y-32452380D02*
X115938095Y-32452380D01*
X115985714Y-32928571D01*
X115938095Y-32880952D01*
X115842857Y-32833333D01*
X115604761Y-32833333D01*
X115509523Y-32880952D01*
X115461904Y-32928571D01*
X115414285Y-33023809D01*
X115414285Y-33261904D01*
X115461904Y-33357142D01*
X115509523Y-33404761D01*
X115604761Y-33452380D01*
X115842857Y-33452380D01*
X115938095Y-33404761D01*
X115985714Y-33357142D01*
G04 #@! TO.C,D6*
X135988095Y-33452380D02*
X135988095Y-32452380D01*
X135750000Y-32452380D01*
X135607142Y-32500000D01*
X135511904Y-32595238D01*
X135464285Y-32690476D01*
X135416666Y-32880952D01*
X135416666Y-33023809D01*
X135464285Y-33214285D01*
X135511904Y-33309523D01*
X135607142Y-33404761D01*
X135750000Y-33452380D01*
X135988095Y-33452380D01*
X134559523Y-32452380D02*
X134750000Y-32452380D01*
X134845238Y-32500000D01*
X134892857Y-32547619D01*
X134988095Y-32690476D01*
X135035714Y-32880952D01*
X135035714Y-33261904D01*
X134988095Y-33357142D01*
X134940476Y-33404761D01*
X134845238Y-33452380D01*
X134654761Y-33452380D01*
X134559523Y-33404761D01*
X134511904Y-33357142D01*
X134464285Y-33261904D01*
X134464285Y-33023809D01*
X134511904Y-32928571D01*
X134559523Y-32880952D01*
X134654761Y-32833333D01*
X134845238Y-32833333D01*
X134940476Y-32880952D01*
X134988095Y-32928571D01*
X135035714Y-33023809D01*
G04 #@! TO.C,D7*
X155038095Y-33452380D02*
X155038095Y-32452380D01*
X154800000Y-32452380D01*
X154657142Y-32500000D01*
X154561904Y-32595238D01*
X154514285Y-32690476D01*
X154466666Y-32880952D01*
X154466666Y-33023809D01*
X154514285Y-33214285D01*
X154561904Y-33309523D01*
X154657142Y-33404761D01*
X154800000Y-33452380D01*
X155038095Y-33452380D01*
X154133333Y-32452380D02*
X153466666Y-32452380D01*
X153895238Y-33452380D01*
G04 #@! TO.C,D8*
X174088095Y-33452380D02*
X174088095Y-32452380D01*
X173850000Y-32452380D01*
X173707142Y-32500000D01*
X173611904Y-32595238D01*
X173564285Y-32690476D01*
X173516666Y-32880952D01*
X173516666Y-33023809D01*
X173564285Y-33214285D01*
X173611904Y-33309523D01*
X173707142Y-33404761D01*
X173850000Y-33452380D01*
X174088095Y-33452380D01*
X172945238Y-32880952D02*
X173040476Y-32833333D01*
X173088095Y-32785714D01*
X173135714Y-32690476D01*
X173135714Y-32642857D01*
X173088095Y-32547619D01*
X173040476Y-32500000D01*
X172945238Y-32452380D01*
X172754761Y-32452380D01*
X172659523Y-32500000D01*
X172611904Y-32547619D01*
X172564285Y-32642857D01*
X172564285Y-32690476D01*
X172611904Y-32785714D01*
X172659523Y-32833333D01*
X172754761Y-32880952D01*
X172945238Y-32880952D01*
X173040476Y-32928571D01*
X173088095Y-32976190D01*
X173135714Y-33071428D01*
X173135714Y-33261904D01*
X173088095Y-33357142D01*
X173040476Y-33404761D01*
X172945238Y-33452380D01*
X172754761Y-33452380D01*
X172659523Y-33404761D01*
X172611904Y-33357142D01*
X172564285Y-33261904D01*
X172564285Y-33071428D01*
X172611904Y-32976190D01*
X172659523Y-32928571D01*
X172754761Y-32880952D01*
G04 #@! TO.C,D9*
X193016095Y-29535380D02*
X193016095Y-28535380D01*
X192778000Y-28535380D01*
X192635142Y-28583000D01*
X192539904Y-28678238D01*
X192492285Y-28773476D01*
X192444666Y-28963952D01*
X192444666Y-29106809D01*
X192492285Y-29297285D01*
X192539904Y-29392523D01*
X192635142Y-29487761D01*
X192778000Y-29535380D01*
X193016095Y-29535380D01*
X191968476Y-29535380D02*
X191778000Y-29535380D01*
X191682761Y-29487761D01*
X191635142Y-29440142D01*
X191539904Y-29297285D01*
X191492285Y-29106809D01*
X191492285Y-28725857D01*
X191539904Y-28630619D01*
X191587523Y-28583000D01*
X191682761Y-28535380D01*
X191873238Y-28535380D01*
X191968476Y-28583000D01*
X192016095Y-28630619D01*
X192063714Y-28725857D01*
X192063714Y-28963952D01*
X192016095Y-29059190D01*
X191968476Y-29106809D01*
X191873238Y-29154428D01*
X191682761Y-29154428D01*
X191587523Y-29106809D01*
X191539904Y-29059190D01*
X191492285Y-28963952D01*
G04 #@! TO.C,D10*
X212664285Y-33452380D02*
X212664285Y-32452380D01*
X212426190Y-32452380D01*
X212283333Y-32500000D01*
X212188095Y-32595238D01*
X212140476Y-32690476D01*
X212092857Y-32880952D01*
X212092857Y-33023809D01*
X212140476Y-33214285D01*
X212188095Y-33309523D01*
X212283333Y-33404761D01*
X212426190Y-33452380D01*
X212664285Y-33452380D01*
X211140476Y-33452380D02*
X211711904Y-33452380D01*
X211426190Y-33452380D02*
X211426190Y-32452380D01*
X211521428Y-32595238D01*
X211616666Y-32690476D01*
X211711904Y-32738095D01*
X210521428Y-32452380D02*
X210426190Y-32452380D01*
X210330952Y-32500000D01*
X210283333Y-32547619D01*
X210235714Y-32642857D01*
X210188095Y-32833333D01*
X210188095Y-33071428D01*
X210235714Y-33261904D01*
X210283333Y-33357142D01*
X210330952Y-33404761D01*
X210426190Y-33452380D01*
X210521428Y-33452380D01*
X210616666Y-33404761D01*
X210664285Y-33357142D01*
X210711904Y-33261904D01*
X210759523Y-33071428D01*
X210759523Y-32833333D01*
X210711904Y-32642857D01*
X210664285Y-32547619D01*
X210616666Y-32500000D01*
X210521428Y-32452380D01*
G04 #@! TO.C,D11*
X231714285Y-33452380D02*
X231714285Y-32452380D01*
X231476190Y-32452380D01*
X231333333Y-32500000D01*
X231238095Y-32595238D01*
X231190476Y-32690476D01*
X231142857Y-32880952D01*
X231142857Y-33023809D01*
X231190476Y-33214285D01*
X231238095Y-33309523D01*
X231333333Y-33404761D01*
X231476190Y-33452380D01*
X231714285Y-33452380D01*
X230190476Y-33452380D02*
X230761904Y-33452380D01*
X230476190Y-33452380D02*
X230476190Y-32452380D01*
X230571428Y-32595238D01*
X230666666Y-32690476D01*
X230761904Y-32738095D01*
X229238095Y-33452380D02*
X229809523Y-33452380D01*
X229523809Y-33452380D02*
X229523809Y-32452380D01*
X229619047Y-32595238D01*
X229714285Y-32690476D01*
X229809523Y-32738095D01*
G04 #@! TO.C,D12*
X250764285Y-33452380D02*
X250764285Y-32452380D01*
X250526190Y-32452380D01*
X250383333Y-32500000D01*
X250288095Y-32595238D01*
X250240476Y-32690476D01*
X250192857Y-32880952D01*
X250192857Y-33023809D01*
X250240476Y-33214285D01*
X250288095Y-33309523D01*
X250383333Y-33404761D01*
X250526190Y-33452380D01*
X250764285Y-33452380D01*
X249240476Y-33452380D02*
X249811904Y-33452380D01*
X249526190Y-33452380D02*
X249526190Y-32452380D01*
X249621428Y-32595238D01*
X249716666Y-32690476D01*
X249811904Y-32738095D01*
X248859523Y-32547619D02*
X248811904Y-32500000D01*
X248716666Y-32452380D01*
X248478571Y-32452380D01*
X248383333Y-32500000D01*
X248335714Y-32547619D01*
X248288095Y-32642857D01*
X248288095Y-32738095D01*
X248335714Y-32880952D01*
X248907142Y-33452380D01*
X248288095Y-33452380D01*
G04 #@! TO.C,D13*
X269814285Y-33452380D02*
X269814285Y-32452380D01*
X269576190Y-32452380D01*
X269433333Y-32500000D01*
X269338095Y-32595238D01*
X269290476Y-32690476D01*
X269242857Y-32880952D01*
X269242857Y-33023809D01*
X269290476Y-33214285D01*
X269338095Y-33309523D01*
X269433333Y-33404761D01*
X269576190Y-33452380D01*
X269814285Y-33452380D01*
X268290476Y-33452380D02*
X268861904Y-33452380D01*
X268576190Y-33452380D02*
X268576190Y-32452380D01*
X268671428Y-32595238D01*
X268766666Y-32690476D01*
X268861904Y-32738095D01*
X267957142Y-32452380D02*
X267338095Y-32452380D01*
X267671428Y-32833333D01*
X267528571Y-32833333D01*
X267433333Y-32880952D01*
X267385714Y-32928571D01*
X267338095Y-33023809D01*
X267338095Y-33261904D01*
X267385714Y-33357142D01*
X267433333Y-33404761D01*
X267528571Y-33452380D01*
X267814285Y-33452380D01*
X267909523Y-33404761D01*
X267957142Y-33357142D01*
G04 #@! TO.C,D14*
X298389285Y-33452380D02*
X298389285Y-32452380D01*
X298151190Y-32452380D01*
X298008333Y-32500000D01*
X297913095Y-32595238D01*
X297865476Y-32690476D01*
X297817857Y-32880952D01*
X297817857Y-33023809D01*
X297865476Y-33214285D01*
X297913095Y-33309523D01*
X298008333Y-33404761D01*
X298151190Y-33452380D01*
X298389285Y-33452380D01*
X296865476Y-33452380D02*
X297436904Y-33452380D01*
X297151190Y-33452380D02*
X297151190Y-32452380D01*
X297246428Y-32595238D01*
X297341666Y-32690476D01*
X297436904Y-32738095D01*
X296008333Y-32785714D02*
X296008333Y-33452380D01*
X296246428Y-32404761D02*
X296484523Y-33119047D01*
X295865476Y-33119047D01*
G04 #@! TO.C,D15*
X45976785Y-52502380D02*
X45976785Y-51502380D01*
X45738690Y-51502380D01*
X45595833Y-51550000D01*
X45500595Y-51645238D01*
X45452976Y-51740476D01*
X45405357Y-51930952D01*
X45405357Y-52073809D01*
X45452976Y-52264285D01*
X45500595Y-52359523D01*
X45595833Y-52454761D01*
X45738690Y-52502380D01*
X45976785Y-52502380D01*
X44452976Y-52502380D02*
X45024404Y-52502380D01*
X44738690Y-52502380D02*
X44738690Y-51502380D01*
X44833928Y-51645238D01*
X44929166Y-51740476D01*
X45024404Y-51788095D01*
X43548214Y-51502380D02*
X44024404Y-51502380D01*
X44072023Y-51978571D01*
X44024404Y-51930952D01*
X43929166Y-51883333D01*
X43691071Y-51883333D01*
X43595833Y-51930952D01*
X43548214Y-51978571D01*
X43500595Y-52073809D01*
X43500595Y-52311904D01*
X43548214Y-52407142D01*
X43595833Y-52454761D01*
X43691071Y-52502380D01*
X43929166Y-52502380D01*
X44024404Y-52454761D01*
X44072023Y-52407142D01*
G04 #@! TO.C,D32*
X112651785Y-71552380D02*
X112651785Y-70552380D01*
X112413690Y-70552380D01*
X112270833Y-70600000D01*
X112175595Y-70695238D01*
X112127976Y-70790476D01*
X112080357Y-70980952D01*
X112080357Y-71123809D01*
X112127976Y-71314285D01*
X112175595Y-71409523D01*
X112270833Y-71504761D01*
X112413690Y-71552380D01*
X112651785Y-71552380D01*
X111747023Y-70552380D02*
X111127976Y-70552380D01*
X111461309Y-70933333D01*
X111318452Y-70933333D01*
X111223214Y-70980952D01*
X111175595Y-71028571D01*
X111127976Y-71123809D01*
X111127976Y-71361904D01*
X111175595Y-71457142D01*
X111223214Y-71504761D01*
X111318452Y-71552380D01*
X111604166Y-71552380D01*
X111699404Y-71504761D01*
X111747023Y-71457142D01*
X110747023Y-70647619D02*
X110699404Y-70600000D01*
X110604166Y-70552380D01*
X110366071Y-70552380D01*
X110270833Y-70600000D01*
X110223214Y-70647619D01*
X110175595Y-70742857D01*
X110175595Y-70838095D01*
X110223214Y-70980952D01*
X110794642Y-71552380D01*
X110175595Y-71552380D01*
G04 #@! TO.C,D2*
X59788095Y-33452380D02*
X59788095Y-32452380D01*
X59550000Y-32452380D01*
X59407142Y-32500000D01*
X59311904Y-32595238D01*
X59264285Y-32690476D01*
X59216666Y-32880952D01*
X59216666Y-33023809D01*
X59264285Y-33214285D01*
X59311904Y-33309523D01*
X59407142Y-33404761D01*
X59550000Y-33452380D01*
X59788095Y-33452380D01*
X58835714Y-32547619D02*
X58788095Y-32500000D01*
X58692857Y-32452380D01*
X58454761Y-32452380D01*
X58359523Y-32500000D01*
X58311904Y-32547619D01*
X58264285Y-32642857D01*
X58264285Y-32738095D01*
X58311904Y-32880952D01*
X58883333Y-33452380D01*
X58264285Y-33452380D01*
G04 #@! TO.C,D18*
X107889285Y-52502380D02*
X107889285Y-51502380D01*
X107651190Y-51502380D01*
X107508333Y-51550000D01*
X107413095Y-51645238D01*
X107365476Y-51740476D01*
X107317857Y-51930952D01*
X107317857Y-52073809D01*
X107365476Y-52264285D01*
X107413095Y-52359523D01*
X107508333Y-52454761D01*
X107651190Y-52502380D01*
X107889285Y-52502380D01*
X106365476Y-52502380D02*
X106936904Y-52502380D01*
X106651190Y-52502380D02*
X106651190Y-51502380D01*
X106746428Y-51645238D01*
X106841666Y-51740476D01*
X106936904Y-51788095D01*
X105794047Y-51930952D02*
X105889285Y-51883333D01*
X105936904Y-51835714D01*
X105984523Y-51740476D01*
X105984523Y-51692857D01*
X105936904Y-51597619D01*
X105889285Y-51550000D01*
X105794047Y-51502380D01*
X105603571Y-51502380D01*
X105508333Y-51550000D01*
X105460714Y-51597619D01*
X105413095Y-51692857D01*
X105413095Y-51740476D01*
X105460714Y-51835714D01*
X105508333Y-51883333D01*
X105603571Y-51930952D01*
X105794047Y-51930952D01*
X105889285Y-51978571D01*
X105936904Y-52026190D01*
X105984523Y-52121428D01*
X105984523Y-52311904D01*
X105936904Y-52407142D01*
X105889285Y-52454761D01*
X105794047Y-52502380D01*
X105603571Y-52502380D01*
X105508333Y-52454761D01*
X105460714Y-52407142D01*
X105413095Y-52311904D01*
X105413095Y-52121428D01*
X105460714Y-52026190D01*
X105508333Y-51978571D01*
X105603571Y-51930952D01*
G04 #@! TO.C,D19*
X126939285Y-52502380D02*
X126939285Y-51502380D01*
X126701190Y-51502380D01*
X126558333Y-51550000D01*
X126463095Y-51645238D01*
X126415476Y-51740476D01*
X126367857Y-51930952D01*
X126367857Y-52073809D01*
X126415476Y-52264285D01*
X126463095Y-52359523D01*
X126558333Y-52454761D01*
X126701190Y-52502380D01*
X126939285Y-52502380D01*
X125415476Y-52502380D02*
X125986904Y-52502380D01*
X125701190Y-52502380D02*
X125701190Y-51502380D01*
X125796428Y-51645238D01*
X125891666Y-51740476D01*
X125986904Y-51788095D01*
X124939285Y-52502380D02*
X124748809Y-52502380D01*
X124653571Y-52454761D01*
X124605952Y-52407142D01*
X124510714Y-52264285D01*
X124463095Y-52073809D01*
X124463095Y-51692857D01*
X124510714Y-51597619D01*
X124558333Y-51550000D01*
X124653571Y-51502380D01*
X124844047Y-51502380D01*
X124939285Y-51550000D01*
X124986904Y-51597619D01*
X125034523Y-51692857D01*
X125034523Y-51930952D01*
X124986904Y-52026190D01*
X124939285Y-52073809D01*
X124844047Y-52121428D01*
X124653571Y-52121428D01*
X124558333Y-52073809D01*
X124510714Y-52026190D01*
X124463095Y-51930952D01*
G04 #@! TO.C,D20*
X145989285Y-52502380D02*
X145989285Y-51502380D01*
X145751190Y-51502380D01*
X145608333Y-51550000D01*
X145513095Y-51645238D01*
X145465476Y-51740476D01*
X145417857Y-51930952D01*
X145417857Y-52073809D01*
X145465476Y-52264285D01*
X145513095Y-52359523D01*
X145608333Y-52454761D01*
X145751190Y-52502380D01*
X145989285Y-52502380D01*
X145036904Y-51597619D02*
X144989285Y-51550000D01*
X144894047Y-51502380D01*
X144655952Y-51502380D01*
X144560714Y-51550000D01*
X144513095Y-51597619D01*
X144465476Y-51692857D01*
X144465476Y-51788095D01*
X144513095Y-51930952D01*
X145084523Y-52502380D01*
X144465476Y-52502380D01*
X143846428Y-51502380D02*
X143751190Y-51502380D01*
X143655952Y-51550000D01*
X143608333Y-51597619D01*
X143560714Y-51692857D01*
X143513095Y-51883333D01*
X143513095Y-52121428D01*
X143560714Y-52311904D01*
X143608333Y-52407142D01*
X143655952Y-52454761D01*
X143751190Y-52502380D01*
X143846428Y-52502380D01*
X143941666Y-52454761D01*
X143989285Y-52407142D01*
X144036904Y-52311904D01*
X144084523Y-52121428D01*
X144084523Y-51883333D01*
X144036904Y-51692857D01*
X143989285Y-51597619D01*
X143941666Y-51550000D01*
X143846428Y-51502380D01*
G04 #@! TO.C,D21*
X165039285Y-52502380D02*
X165039285Y-51502380D01*
X164801190Y-51502380D01*
X164658333Y-51550000D01*
X164563095Y-51645238D01*
X164515476Y-51740476D01*
X164467857Y-51930952D01*
X164467857Y-52073809D01*
X164515476Y-52264285D01*
X164563095Y-52359523D01*
X164658333Y-52454761D01*
X164801190Y-52502380D01*
X165039285Y-52502380D01*
X164086904Y-51597619D02*
X164039285Y-51550000D01*
X163944047Y-51502380D01*
X163705952Y-51502380D01*
X163610714Y-51550000D01*
X163563095Y-51597619D01*
X163515476Y-51692857D01*
X163515476Y-51788095D01*
X163563095Y-51930952D01*
X164134523Y-52502380D01*
X163515476Y-52502380D01*
X162563095Y-52502380D02*
X163134523Y-52502380D01*
X162848809Y-52502380D02*
X162848809Y-51502380D01*
X162944047Y-51645238D01*
X163039285Y-51740476D01*
X163134523Y-51788095D01*
G04 #@! TO.C,D22*
X184089285Y-52502380D02*
X184089285Y-51502380D01*
X183851190Y-51502380D01*
X183708333Y-51550000D01*
X183613095Y-51645238D01*
X183565476Y-51740476D01*
X183517857Y-51930952D01*
X183517857Y-52073809D01*
X183565476Y-52264285D01*
X183613095Y-52359523D01*
X183708333Y-52454761D01*
X183851190Y-52502380D01*
X184089285Y-52502380D01*
X183136904Y-51597619D02*
X183089285Y-51550000D01*
X182994047Y-51502380D01*
X182755952Y-51502380D01*
X182660714Y-51550000D01*
X182613095Y-51597619D01*
X182565476Y-51692857D01*
X182565476Y-51788095D01*
X182613095Y-51930952D01*
X183184523Y-52502380D01*
X182565476Y-52502380D01*
X182184523Y-51597619D02*
X182136904Y-51550000D01*
X182041666Y-51502380D01*
X181803571Y-51502380D01*
X181708333Y-51550000D01*
X181660714Y-51597619D01*
X181613095Y-51692857D01*
X181613095Y-51788095D01*
X181660714Y-51930952D01*
X182232142Y-52502380D01*
X181613095Y-52502380D01*
G04 #@! TO.C,D23*
X203139285Y-52502380D02*
X203139285Y-51502380D01*
X202901190Y-51502380D01*
X202758333Y-51550000D01*
X202663095Y-51645238D01*
X202615476Y-51740476D01*
X202567857Y-51930952D01*
X202567857Y-52073809D01*
X202615476Y-52264285D01*
X202663095Y-52359523D01*
X202758333Y-52454761D01*
X202901190Y-52502380D01*
X203139285Y-52502380D01*
X202186904Y-51597619D02*
X202139285Y-51550000D01*
X202044047Y-51502380D01*
X201805952Y-51502380D01*
X201710714Y-51550000D01*
X201663095Y-51597619D01*
X201615476Y-51692857D01*
X201615476Y-51788095D01*
X201663095Y-51930952D01*
X202234523Y-52502380D01*
X201615476Y-52502380D01*
X201282142Y-51502380D02*
X200663095Y-51502380D01*
X200996428Y-51883333D01*
X200853571Y-51883333D01*
X200758333Y-51930952D01*
X200710714Y-51978571D01*
X200663095Y-52073809D01*
X200663095Y-52311904D01*
X200710714Y-52407142D01*
X200758333Y-52454761D01*
X200853571Y-52502380D01*
X201139285Y-52502380D01*
X201234523Y-52454761D01*
X201282142Y-52407142D01*
G04 #@! TO.C,D24*
X222189285Y-52502380D02*
X222189285Y-51502380D01*
X221951190Y-51502380D01*
X221808333Y-51550000D01*
X221713095Y-51645238D01*
X221665476Y-51740476D01*
X221617857Y-51930952D01*
X221617857Y-52073809D01*
X221665476Y-52264285D01*
X221713095Y-52359523D01*
X221808333Y-52454761D01*
X221951190Y-52502380D01*
X222189285Y-52502380D01*
X221236904Y-51597619D02*
X221189285Y-51550000D01*
X221094047Y-51502380D01*
X220855952Y-51502380D01*
X220760714Y-51550000D01*
X220713095Y-51597619D01*
X220665476Y-51692857D01*
X220665476Y-51788095D01*
X220713095Y-51930952D01*
X221284523Y-52502380D01*
X220665476Y-52502380D01*
X219808333Y-51835714D02*
X219808333Y-52502380D01*
X220046428Y-51454761D02*
X220284523Y-52169047D01*
X219665476Y-52169047D01*
G04 #@! TO.C,D25*
X241239285Y-52502380D02*
X241239285Y-51502380D01*
X241001190Y-51502380D01*
X240858333Y-51550000D01*
X240763095Y-51645238D01*
X240715476Y-51740476D01*
X240667857Y-51930952D01*
X240667857Y-52073809D01*
X240715476Y-52264285D01*
X240763095Y-52359523D01*
X240858333Y-52454761D01*
X241001190Y-52502380D01*
X241239285Y-52502380D01*
X240286904Y-51597619D02*
X240239285Y-51550000D01*
X240144047Y-51502380D01*
X239905952Y-51502380D01*
X239810714Y-51550000D01*
X239763095Y-51597619D01*
X239715476Y-51692857D01*
X239715476Y-51788095D01*
X239763095Y-51930952D01*
X240334523Y-52502380D01*
X239715476Y-52502380D01*
X238810714Y-51502380D02*
X239286904Y-51502380D01*
X239334523Y-51978571D01*
X239286904Y-51930952D01*
X239191666Y-51883333D01*
X238953571Y-51883333D01*
X238858333Y-51930952D01*
X238810714Y-51978571D01*
X238763095Y-52073809D01*
X238763095Y-52311904D01*
X238810714Y-52407142D01*
X238858333Y-52454761D01*
X238953571Y-52502380D01*
X239191666Y-52502380D01*
X239286904Y-52454761D01*
X239334523Y-52407142D01*
G04 #@! TO.C,D26*
X260289285Y-52502380D02*
X260289285Y-51502380D01*
X260051190Y-51502380D01*
X259908333Y-51550000D01*
X259813095Y-51645238D01*
X259765476Y-51740476D01*
X259717857Y-51930952D01*
X259717857Y-52073809D01*
X259765476Y-52264285D01*
X259813095Y-52359523D01*
X259908333Y-52454761D01*
X260051190Y-52502380D01*
X260289285Y-52502380D01*
X259336904Y-51597619D02*
X259289285Y-51550000D01*
X259194047Y-51502380D01*
X258955952Y-51502380D01*
X258860714Y-51550000D01*
X258813095Y-51597619D01*
X258765476Y-51692857D01*
X258765476Y-51788095D01*
X258813095Y-51930952D01*
X259384523Y-52502380D01*
X258765476Y-52502380D01*
X257908333Y-51502380D02*
X258098809Y-51502380D01*
X258194047Y-51550000D01*
X258241666Y-51597619D01*
X258336904Y-51740476D01*
X258384523Y-51930952D01*
X258384523Y-52311904D01*
X258336904Y-52407142D01*
X258289285Y-52454761D01*
X258194047Y-52502380D01*
X258003571Y-52502380D01*
X257908333Y-52454761D01*
X257860714Y-52407142D01*
X257813095Y-52311904D01*
X257813095Y-52073809D01*
X257860714Y-51978571D01*
X257908333Y-51930952D01*
X258003571Y-51883333D01*
X258194047Y-51883333D01*
X258289285Y-51930952D01*
X258336904Y-51978571D01*
X258384523Y-52073809D01*
G04 #@! TO.C,D27*
X279339285Y-52502380D02*
X279339285Y-51502380D01*
X279101190Y-51502380D01*
X278958333Y-51550000D01*
X278863095Y-51645238D01*
X278815476Y-51740476D01*
X278767857Y-51930952D01*
X278767857Y-52073809D01*
X278815476Y-52264285D01*
X278863095Y-52359523D01*
X278958333Y-52454761D01*
X279101190Y-52502380D01*
X279339285Y-52502380D01*
X278386904Y-51597619D02*
X278339285Y-51550000D01*
X278244047Y-51502380D01*
X278005952Y-51502380D01*
X277910714Y-51550000D01*
X277863095Y-51597619D01*
X277815476Y-51692857D01*
X277815476Y-51788095D01*
X277863095Y-51930952D01*
X278434523Y-52502380D01*
X277815476Y-52502380D01*
X277482142Y-51502380D02*
X276815476Y-51502380D01*
X277244047Y-52502380D01*
G04 #@! TO.C,D28*
X303151785Y-52502380D02*
X303151785Y-51502380D01*
X302913690Y-51502380D01*
X302770833Y-51550000D01*
X302675595Y-51645238D01*
X302627976Y-51740476D01*
X302580357Y-51930952D01*
X302580357Y-52073809D01*
X302627976Y-52264285D01*
X302675595Y-52359523D01*
X302770833Y-52454761D01*
X302913690Y-52502380D01*
X303151785Y-52502380D01*
X302199404Y-51597619D02*
X302151785Y-51550000D01*
X302056547Y-51502380D01*
X301818452Y-51502380D01*
X301723214Y-51550000D01*
X301675595Y-51597619D01*
X301627976Y-51692857D01*
X301627976Y-51788095D01*
X301675595Y-51930952D01*
X302247023Y-52502380D01*
X301627976Y-52502380D01*
X301056547Y-51930952D02*
X301151785Y-51883333D01*
X301199404Y-51835714D01*
X301247023Y-51740476D01*
X301247023Y-51692857D01*
X301199404Y-51597619D01*
X301151785Y-51550000D01*
X301056547Y-51502380D01*
X300866071Y-51502380D01*
X300770833Y-51550000D01*
X300723214Y-51597619D01*
X300675595Y-51692857D01*
X300675595Y-51740476D01*
X300723214Y-51835714D01*
X300770833Y-51883333D01*
X300866071Y-51930952D01*
X301056547Y-51930952D01*
X301151785Y-51978571D01*
X301199404Y-52026190D01*
X301247023Y-52121428D01*
X301247023Y-52311904D01*
X301199404Y-52407142D01*
X301151785Y-52454761D01*
X301056547Y-52502380D01*
X300866071Y-52502380D01*
X300770833Y-52454761D01*
X300723214Y-52407142D01*
X300675595Y-52311904D01*
X300675595Y-52121428D01*
X300723214Y-52026190D01*
X300770833Y-51978571D01*
X300866071Y-51930952D01*
G04 #@! TO.C,D29*
X48358035Y-71552380D02*
X48358035Y-70552380D01*
X48119940Y-70552380D01*
X47977083Y-70600000D01*
X47881845Y-70695238D01*
X47834226Y-70790476D01*
X47786607Y-70980952D01*
X47786607Y-71123809D01*
X47834226Y-71314285D01*
X47881845Y-71409523D01*
X47977083Y-71504761D01*
X48119940Y-71552380D01*
X48358035Y-71552380D01*
X47405654Y-70647619D02*
X47358035Y-70600000D01*
X47262797Y-70552380D01*
X47024702Y-70552380D01*
X46929464Y-70600000D01*
X46881845Y-70647619D01*
X46834226Y-70742857D01*
X46834226Y-70838095D01*
X46881845Y-70980952D01*
X47453273Y-71552380D01*
X46834226Y-71552380D01*
X46358035Y-71552380D02*
X46167559Y-71552380D01*
X46072321Y-71504761D01*
X46024702Y-71457142D01*
X45929464Y-71314285D01*
X45881845Y-71123809D01*
X45881845Y-70742857D01*
X45929464Y-70647619D01*
X45977083Y-70600000D01*
X46072321Y-70552380D01*
X46262797Y-70552380D01*
X46358035Y-70600000D01*
X46405654Y-70647619D01*
X46453273Y-70742857D01*
X46453273Y-70980952D01*
X46405654Y-71076190D01*
X46358035Y-71123809D01*
X46262797Y-71171428D01*
X46072321Y-71171428D01*
X45977083Y-71123809D01*
X45929464Y-71076190D01*
X45881845Y-70980952D01*
G04 #@! TO.C,D30*
X74551785Y-71552380D02*
X74551785Y-70552380D01*
X74313690Y-70552380D01*
X74170833Y-70600000D01*
X74075595Y-70695238D01*
X74027976Y-70790476D01*
X73980357Y-70980952D01*
X73980357Y-71123809D01*
X74027976Y-71314285D01*
X74075595Y-71409523D01*
X74170833Y-71504761D01*
X74313690Y-71552380D01*
X74551785Y-71552380D01*
X73647023Y-70552380D02*
X73027976Y-70552380D01*
X73361309Y-70933333D01*
X73218452Y-70933333D01*
X73123214Y-70980952D01*
X73075595Y-71028571D01*
X73027976Y-71123809D01*
X73027976Y-71361904D01*
X73075595Y-71457142D01*
X73123214Y-71504761D01*
X73218452Y-71552380D01*
X73504166Y-71552380D01*
X73599404Y-71504761D01*
X73647023Y-71457142D01*
X72408928Y-70552380D02*
X72313690Y-70552380D01*
X72218452Y-70600000D01*
X72170833Y-70647619D01*
X72123214Y-70742857D01*
X72075595Y-70933333D01*
X72075595Y-71171428D01*
X72123214Y-71361904D01*
X72170833Y-71457142D01*
X72218452Y-71504761D01*
X72313690Y-71552380D01*
X72408928Y-71552380D01*
X72504166Y-71504761D01*
X72551785Y-71457142D01*
X72599404Y-71361904D01*
X72647023Y-71171428D01*
X72647023Y-70933333D01*
X72599404Y-70742857D01*
X72551785Y-70647619D01*
X72504166Y-70600000D01*
X72408928Y-70552380D01*
G04 #@! TO.C,D31*
X93601785Y-71552380D02*
X93601785Y-70552380D01*
X93363690Y-70552380D01*
X93220833Y-70600000D01*
X93125595Y-70695238D01*
X93077976Y-70790476D01*
X93030357Y-70980952D01*
X93030357Y-71123809D01*
X93077976Y-71314285D01*
X93125595Y-71409523D01*
X93220833Y-71504761D01*
X93363690Y-71552380D01*
X93601785Y-71552380D01*
X92697023Y-70552380D02*
X92077976Y-70552380D01*
X92411309Y-70933333D01*
X92268452Y-70933333D01*
X92173214Y-70980952D01*
X92125595Y-71028571D01*
X92077976Y-71123809D01*
X92077976Y-71361904D01*
X92125595Y-71457142D01*
X92173214Y-71504761D01*
X92268452Y-71552380D01*
X92554166Y-71552380D01*
X92649404Y-71504761D01*
X92697023Y-71457142D01*
X91125595Y-71552380D02*
X91697023Y-71552380D01*
X91411309Y-71552380D02*
X91411309Y-70552380D01*
X91506547Y-70695238D01*
X91601785Y-70790476D01*
X91697023Y-70838095D01*
G04 #@! TO.C,D16*
X69789285Y-52502380D02*
X69789285Y-51502380D01*
X69551190Y-51502380D01*
X69408333Y-51550000D01*
X69313095Y-51645238D01*
X69265476Y-51740476D01*
X69217857Y-51930952D01*
X69217857Y-52073809D01*
X69265476Y-52264285D01*
X69313095Y-52359523D01*
X69408333Y-52454761D01*
X69551190Y-52502380D01*
X69789285Y-52502380D01*
X68265476Y-52502380D02*
X68836904Y-52502380D01*
X68551190Y-52502380D02*
X68551190Y-51502380D01*
X68646428Y-51645238D01*
X68741666Y-51740476D01*
X68836904Y-51788095D01*
X67408333Y-51502380D02*
X67598809Y-51502380D01*
X67694047Y-51550000D01*
X67741666Y-51597619D01*
X67836904Y-51740476D01*
X67884523Y-51930952D01*
X67884523Y-52311904D01*
X67836904Y-52407142D01*
X67789285Y-52454761D01*
X67694047Y-52502380D01*
X67503571Y-52502380D01*
X67408333Y-52454761D01*
X67360714Y-52407142D01*
X67313095Y-52311904D01*
X67313095Y-52073809D01*
X67360714Y-51978571D01*
X67408333Y-51930952D01*
X67503571Y-51883333D01*
X67694047Y-51883333D01*
X67789285Y-51930952D01*
X67836904Y-51978571D01*
X67884523Y-52073809D01*
G04 #@! TO.C,D17*
X88839285Y-52502380D02*
X88839285Y-51502380D01*
X88601190Y-51502380D01*
X88458333Y-51550000D01*
X88363095Y-51645238D01*
X88315476Y-51740476D01*
X88267857Y-51930952D01*
X88267857Y-52073809D01*
X88315476Y-52264285D01*
X88363095Y-52359523D01*
X88458333Y-52454761D01*
X88601190Y-52502380D01*
X88839285Y-52502380D01*
X87315476Y-52502380D02*
X87886904Y-52502380D01*
X87601190Y-52502380D02*
X87601190Y-51502380D01*
X87696428Y-51645238D01*
X87791666Y-51740476D01*
X87886904Y-51788095D01*
X86982142Y-51502380D02*
X86315476Y-51502380D01*
X86744047Y-52502380D01*
G04 #@! TO.C,D33*
X131701785Y-71552380D02*
X131701785Y-70552380D01*
X131463690Y-70552380D01*
X131320833Y-70600000D01*
X131225595Y-70695238D01*
X131177976Y-70790476D01*
X131130357Y-70980952D01*
X131130357Y-71123809D01*
X131177976Y-71314285D01*
X131225595Y-71409523D01*
X131320833Y-71504761D01*
X131463690Y-71552380D01*
X131701785Y-71552380D01*
X130797023Y-70552380D02*
X130177976Y-70552380D01*
X130511309Y-70933333D01*
X130368452Y-70933333D01*
X130273214Y-70980952D01*
X130225595Y-71028571D01*
X130177976Y-71123809D01*
X130177976Y-71361904D01*
X130225595Y-71457142D01*
X130273214Y-71504761D01*
X130368452Y-71552380D01*
X130654166Y-71552380D01*
X130749404Y-71504761D01*
X130797023Y-71457142D01*
X129844642Y-70552380D02*
X129225595Y-70552380D01*
X129558928Y-70933333D01*
X129416071Y-70933333D01*
X129320833Y-70980952D01*
X129273214Y-71028571D01*
X129225595Y-71123809D01*
X129225595Y-71361904D01*
X129273214Y-71457142D01*
X129320833Y-71504761D01*
X129416071Y-71552380D01*
X129701785Y-71552380D01*
X129797023Y-71504761D01*
X129844642Y-71457142D01*
G04 #@! TO.C,D34*
X150751785Y-71552380D02*
X150751785Y-70552380D01*
X150513690Y-70552380D01*
X150370833Y-70600000D01*
X150275595Y-70695238D01*
X150227976Y-70790476D01*
X150180357Y-70980952D01*
X150180357Y-71123809D01*
X150227976Y-71314285D01*
X150275595Y-71409523D01*
X150370833Y-71504761D01*
X150513690Y-71552380D01*
X150751785Y-71552380D01*
X149847023Y-70552380D02*
X149227976Y-70552380D01*
X149561309Y-70933333D01*
X149418452Y-70933333D01*
X149323214Y-70980952D01*
X149275595Y-71028571D01*
X149227976Y-71123809D01*
X149227976Y-71361904D01*
X149275595Y-71457142D01*
X149323214Y-71504761D01*
X149418452Y-71552380D01*
X149704166Y-71552380D01*
X149799404Y-71504761D01*
X149847023Y-71457142D01*
X148370833Y-70885714D02*
X148370833Y-71552380D01*
X148608928Y-70504761D02*
X148847023Y-71219047D01*
X148227976Y-71219047D01*
G04 #@! TO.C,D35*
X169801785Y-71552380D02*
X169801785Y-70552380D01*
X169563690Y-70552380D01*
X169420833Y-70600000D01*
X169325595Y-70695238D01*
X169277976Y-70790476D01*
X169230357Y-70980952D01*
X169230357Y-71123809D01*
X169277976Y-71314285D01*
X169325595Y-71409523D01*
X169420833Y-71504761D01*
X169563690Y-71552380D01*
X169801785Y-71552380D01*
X168897023Y-70552380D02*
X168277976Y-70552380D01*
X168611309Y-70933333D01*
X168468452Y-70933333D01*
X168373214Y-70980952D01*
X168325595Y-71028571D01*
X168277976Y-71123809D01*
X168277976Y-71361904D01*
X168325595Y-71457142D01*
X168373214Y-71504761D01*
X168468452Y-71552380D01*
X168754166Y-71552380D01*
X168849404Y-71504761D01*
X168897023Y-71457142D01*
X167373214Y-70552380D02*
X167849404Y-70552380D01*
X167897023Y-71028571D01*
X167849404Y-70980952D01*
X167754166Y-70933333D01*
X167516071Y-70933333D01*
X167420833Y-70980952D01*
X167373214Y-71028571D01*
X167325595Y-71123809D01*
X167325595Y-71361904D01*
X167373214Y-71457142D01*
X167420833Y-71504761D01*
X167516071Y-71552380D01*
X167754166Y-71552380D01*
X167849404Y-71504761D01*
X167897023Y-71457142D01*
G04 #@! TO.C,D36*
X188851785Y-71452380D02*
X188851785Y-70452380D01*
X188613690Y-70452380D01*
X188470833Y-70500000D01*
X188375595Y-70595238D01*
X188327976Y-70690476D01*
X188280357Y-70880952D01*
X188280357Y-71023809D01*
X188327976Y-71214285D01*
X188375595Y-71309523D01*
X188470833Y-71404761D01*
X188613690Y-71452380D01*
X188851785Y-71452380D01*
X187947023Y-70452380D02*
X187327976Y-70452380D01*
X187661309Y-70833333D01*
X187518452Y-70833333D01*
X187423214Y-70880952D01*
X187375595Y-70928571D01*
X187327976Y-71023809D01*
X187327976Y-71261904D01*
X187375595Y-71357142D01*
X187423214Y-71404761D01*
X187518452Y-71452380D01*
X187804166Y-71452380D01*
X187899404Y-71404761D01*
X187947023Y-71357142D01*
X186470833Y-70452380D02*
X186661309Y-70452380D01*
X186756547Y-70500000D01*
X186804166Y-70547619D01*
X186899404Y-70690476D01*
X186947023Y-70880952D01*
X186947023Y-71261904D01*
X186899404Y-71357142D01*
X186851785Y-71404761D01*
X186756547Y-71452380D01*
X186566071Y-71452380D01*
X186470833Y-71404761D01*
X186423214Y-71357142D01*
X186375595Y-71261904D01*
X186375595Y-71023809D01*
X186423214Y-70928571D01*
X186470833Y-70880952D01*
X186566071Y-70833333D01*
X186756547Y-70833333D01*
X186851785Y-70880952D01*
X186899404Y-70928571D01*
X186947023Y-71023809D01*
G04 #@! TO.C,D37*
X207901785Y-71452380D02*
X207901785Y-70452380D01*
X207663690Y-70452380D01*
X207520833Y-70500000D01*
X207425595Y-70595238D01*
X207377976Y-70690476D01*
X207330357Y-70880952D01*
X207330357Y-71023809D01*
X207377976Y-71214285D01*
X207425595Y-71309523D01*
X207520833Y-71404761D01*
X207663690Y-71452380D01*
X207901785Y-71452380D01*
X206997023Y-70452380D02*
X206377976Y-70452380D01*
X206711309Y-70833333D01*
X206568452Y-70833333D01*
X206473214Y-70880952D01*
X206425595Y-70928571D01*
X206377976Y-71023809D01*
X206377976Y-71261904D01*
X206425595Y-71357142D01*
X206473214Y-71404761D01*
X206568452Y-71452380D01*
X206854166Y-71452380D01*
X206949404Y-71404761D01*
X206997023Y-71357142D01*
X206044642Y-70452380D02*
X205377976Y-70452380D01*
X205806547Y-71452380D01*
G04 #@! TO.C,D38*
X226951785Y-71552380D02*
X226951785Y-70552380D01*
X226713690Y-70552380D01*
X226570833Y-70600000D01*
X226475595Y-70695238D01*
X226427976Y-70790476D01*
X226380357Y-70980952D01*
X226380357Y-71123809D01*
X226427976Y-71314285D01*
X226475595Y-71409523D01*
X226570833Y-71504761D01*
X226713690Y-71552380D01*
X226951785Y-71552380D01*
X226047023Y-70552380D02*
X225427976Y-70552380D01*
X225761309Y-70933333D01*
X225618452Y-70933333D01*
X225523214Y-70980952D01*
X225475595Y-71028571D01*
X225427976Y-71123809D01*
X225427976Y-71361904D01*
X225475595Y-71457142D01*
X225523214Y-71504761D01*
X225618452Y-71552380D01*
X225904166Y-71552380D01*
X225999404Y-71504761D01*
X226047023Y-71457142D01*
X224856547Y-70980952D02*
X224951785Y-70933333D01*
X224999404Y-70885714D01*
X225047023Y-70790476D01*
X225047023Y-70742857D01*
X224999404Y-70647619D01*
X224951785Y-70600000D01*
X224856547Y-70552380D01*
X224666071Y-70552380D01*
X224570833Y-70600000D01*
X224523214Y-70647619D01*
X224475595Y-70742857D01*
X224475595Y-70790476D01*
X224523214Y-70885714D01*
X224570833Y-70933333D01*
X224666071Y-70980952D01*
X224856547Y-70980952D01*
X224951785Y-71028571D01*
X224999404Y-71076190D01*
X225047023Y-71171428D01*
X225047023Y-71361904D01*
X224999404Y-71457142D01*
X224951785Y-71504761D01*
X224856547Y-71552380D01*
X224666071Y-71552380D01*
X224570833Y-71504761D01*
X224523214Y-71457142D01*
X224475595Y-71361904D01*
X224475595Y-71171428D01*
X224523214Y-71076190D01*
X224570833Y-71028571D01*
X224666071Y-70980952D01*
G04 #@! TO.C,D39*
X246001785Y-71552380D02*
X246001785Y-70552380D01*
X245763690Y-70552380D01*
X245620833Y-70600000D01*
X245525595Y-70695238D01*
X245477976Y-70790476D01*
X245430357Y-70980952D01*
X245430357Y-71123809D01*
X245477976Y-71314285D01*
X245525595Y-71409523D01*
X245620833Y-71504761D01*
X245763690Y-71552380D01*
X246001785Y-71552380D01*
X245097023Y-70552380D02*
X244477976Y-70552380D01*
X244811309Y-70933333D01*
X244668452Y-70933333D01*
X244573214Y-70980952D01*
X244525595Y-71028571D01*
X244477976Y-71123809D01*
X244477976Y-71361904D01*
X244525595Y-71457142D01*
X244573214Y-71504761D01*
X244668452Y-71552380D01*
X244954166Y-71552380D01*
X245049404Y-71504761D01*
X245097023Y-71457142D01*
X244001785Y-71552380D02*
X243811309Y-71552380D01*
X243716071Y-71504761D01*
X243668452Y-71457142D01*
X243573214Y-71314285D01*
X243525595Y-71123809D01*
X243525595Y-70742857D01*
X243573214Y-70647619D01*
X243620833Y-70600000D01*
X243716071Y-70552380D01*
X243906547Y-70552380D01*
X244001785Y-70600000D01*
X244049404Y-70647619D01*
X244097023Y-70742857D01*
X244097023Y-70980952D01*
X244049404Y-71076190D01*
X244001785Y-71123809D01*
X243906547Y-71171428D01*
X243716071Y-71171428D01*
X243620833Y-71123809D01*
X243573214Y-71076190D01*
X243525595Y-70980952D01*
G04 #@! TO.C,D40*
X265051785Y-71552380D02*
X265051785Y-70552380D01*
X264813690Y-70552380D01*
X264670833Y-70600000D01*
X264575595Y-70695238D01*
X264527976Y-70790476D01*
X264480357Y-70980952D01*
X264480357Y-71123809D01*
X264527976Y-71314285D01*
X264575595Y-71409523D01*
X264670833Y-71504761D01*
X264813690Y-71552380D01*
X265051785Y-71552380D01*
X263623214Y-70885714D02*
X263623214Y-71552380D01*
X263861309Y-70504761D02*
X264099404Y-71219047D01*
X263480357Y-71219047D01*
X262908928Y-70552380D02*
X262813690Y-70552380D01*
X262718452Y-70600000D01*
X262670833Y-70647619D01*
X262623214Y-70742857D01*
X262575595Y-70933333D01*
X262575595Y-71171428D01*
X262623214Y-71361904D01*
X262670833Y-71457142D01*
X262718452Y-71504761D01*
X262813690Y-71552380D01*
X262908928Y-71552380D01*
X263004166Y-71504761D01*
X263051785Y-71457142D01*
X263099404Y-71361904D01*
X263147023Y-71171428D01*
X263147023Y-70933333D01*
X263099404Y-70742857D01*
X263051785Y-70647619D01*
X263004166Y-70600000D01*
X262908928Y-70552380D01*
G04 #@! TO.C,D41*
X296008035Y-71552380D02*
X296008035Y-70552380D01*
X295769940Y-70552380D01*
X295627083Y-70600000D01*
X295531845Y-70695238D01*
X295484226Y-70790476D01*
X295436607Y-70980952D01*
X295436607Y-71123809D01*
X295484226Y-71314285D01*
X295531845Y-71409523D01*
X295627083Y-71504761D01*
X295769940Y-71552380D01*
X296008035Y-71552380D01*
X294579464Y-70885714D02*
X294579464Y-71552380D01*
X294817559Y-70504761D02*
X295055654Y-71219047D01*
X294436607Y-71219047D01*
X293531845Y-71552380D02*
X294103273Y-71552380D01*
X293817559Y-71552380D02*
X293817559Y-70552380D01*
X293912797Y-70695238D01*
X294008035Y-70790476D01*
X294103273Y-70838095D01*
G04 #@! TO.C,D42*
X53120535Y-90602380D02*
X53120535Y-89602380D01*
X52882440Y-89602380D01*
X52739583Y-89650000D01*
X52644345Y-89745238D01*
X52596726Y-89840476D01*
X52549107Y-90030952D01*
X52549107Y-90173809D01*
X52596726Y-90364285D01*
X52644345Y-90459523D01*
X52739583Y-90554761D01*
X52882440Y-90602380D01*
X53120535Y-90602380D01*
X51691964Y-89935714D02*
X51691964Y-90602380D01*
X51930059Y-89554761D02*
X52168154Y-90269047D01*
X51549107Y-90269047D01*
X51215773Y-89697619D02*
X51168154Y-89650000D01*
X51072916Y-89602380D01*
X50834821Y-89602380D01*
X50739583Y-89650000D01*
X50691964Y-89697619D01*
X50644345Y-89792857D01*
X50644345Y-89888095D01*
X50691964Y-90030952D01*
X51263392Y-90602380D01*
X50644345Y-90602380D01*
G04 #@! TO.C,D44*
X103126785Y-90602380D02*
X103126785Y-89602380D01*
X102888690Y-89602380D01*
X102745833Y-89650000D01*
X102650595Y-89745238D01*
X102602976Y-89840476D01*
X102555357Y-90030952D01*
X102555357Y-90173809D01*
X102602976Y-90364285D01*
X102650595Y-90459523D01*
X102745833Y-90554761D01*
X102888690Y-90602380D01*
X103126785Y-90602380D01*
X101698214Y-89935714D02*
X101698214Y-90602380D01*
X101936309Y-89554761D02*
X102174404Y-90269047D01*
X101555357Y-90269047D01*
X100745833Y-89935714D02*
X100745833Y-90602380D01*
X100983928Y-89554761D02*
X101222023Y-90269047D01*
X100602976Y-90269047D01*
G04 #@! TO.C,D45*
X122176785Y-90602380D02*
X122176785Y-89602380D01*
X121938690Y-89602380D01*
X121795833Y-89650000D01*
X121700595Y-89745238D01*
X121652976Y-89840476D01*
X121605357Y-90030952D01*
X121605357Y-90173809D01*
X121652976Y-90364285D01*
X121700595Y-90459523D01*
X121795833Y-90554761D01*
X121938690Y-90602380D01*
X122176785Y-90602380D01*
X120748214Y-89935714D02*
X120748214Y-90602380D01*
X120986309Y-89554761D02*
X121224404Y-90269047D01*
X120605357Y-90269047D01*
X119748214Y-89602380D02*
X120224404Y-89602380D01*
X120272023Y-90078571D01*
X120224404Y-90030952D01*
X120129166Y-89983333D01*
X119891071Y-89983333D01*
X119795833Y-90030952D01*
X119748214Y-90078571D01*
X119700595Y-90173809D01*
X119700595Y-90411904D01*
X119748214Y-90507142D01*
X119795833Y-90554761D01*
X119891071Y-90602380D01*
X120129166Y-90602380D01*
X120224404Y-90554761D01*
X120272023Y-90507142D01*
G04 #@! TO.C,D46*
X141226785Y-90602380D02*
X141226785Y-89602380D01*
X140988690Y-89602380D01*
X140845833Y-89650000D01*
X140750595Y-89745238D01*
X140702976Y-89840476D01*
X140655357Y-90030952D01*
X140655357Y-90173809D01*
X140702976Y-90364285D01*
X140750595Y-90459523D01*
X140845833Y-90554761D01*
X140988690Y-90602380D01*
X141226785Y-90602380D01*
X139798214Y-89935714D02*
X139798214Y-90602380D01*
X140036309Y-89554761D02*
X140274404Y-90269047D01*
X139655357Y-90269047D01*
X138845833Y-89602380D02*
X139036309Y-89602380D01*
X139131547Y-89650000D01*
X139179166Y-89697619D01*
X139274404Y-89840476D01*
X139322023Y-90030952D01*
X139322023Y-90411904D01*
X139274404Y-90507142D01*
X139226785Y-90554761D01*
X139131547Y-90602380D01*
X138941071Y-90602380D01*
X138845833Y-90554761D01*
X138798214Y-90507142D01*
X138750595Y-90411904D01*
X138750595Y-90173809D01*
X138798214Y-90078571D01*
X138845833Y-90030952D01*
X138941071Y-89983333D01*
X139131547Y-89983333D01*
X139226785Y-90030952D01*
X139274404Y-90078571D01*
X139322023Y-90173809D01*
G04 #@! TO.C,D1*
X40738095Y-33452380D02*
X40738095Y-32452380D01*
X40500000Y-32452380D01*
X40357142Y-32500000D01*
X40261904Y-32595238D01*
X40214285Y-32690476D01*
X40166666Y-32880952D01*
X40166666Y-33023809D01*
X40214285Y-33214285D01*
X40261904Y-33309523D01*
X40357142Y-33404761D01*
X40500000Y-33452380D01*
X40738095Y-33452380D01*
X39214285Y-33452380D02*
X39785714Y-33452380D01*
X39500000Y-33452380D02*
X39500000Y-32452380D01*
X39595238Y-32595238D01*
X39690476Y-32690476D01*
X39785714Y-32738095D01*
G04 #@! TO.C,D47*
X160276785Y-90602380D02*
X160276785Y-89602380D01*
X160038690Y-89602380D01*
X159895833Y-89650000D01*
X159800595Y-89745238D01*
X159752976Y-89840476D01*
X159705357Y-90030952D01*
X159705357Y-90173809D01*
X159752976Y-90364285D01*
X159800595Y-90459523D01*
X159895833Y-90554761D01*
X160038690Y-90602380D01*
X160276785Y-90602380D01*
X158848214Y-89935714D02*
X158848214Y-90602380D01*
X159086309Y-89554761D02*
X159324404Y-90269047D01*
X158705357Y-90269047D01*
X158419642Y-89602380D02*
X157752976Y-89602380D01*
X158181547Y-90602380D01*
G04 #@! TO.C,D61*
X310533035Y-109652380D02*
X310533035Y-108652380D01*
X310294940Y-108652380D01*
X310152083Y-108700000D01*
X310056845Y-108795238D01*
X310009226Y-108890476D01*
X309961607Y-109080952D01*
X309961607Y-109223809D01*
X310009226Y-109414285D01*
X310056845Y-109509523D01*
X310152083Y-109604761D01*
X310294940Y-109652380D01*
X310533035Y-109652380D01*
X309104464Y-108652380D02*
X309294940Y-108652380D01*
X309390178Y-108700000D01*
X309437797Y-108747619D01*
X309533035Y-108890476D01*
X309580654Y-109080952D01*
X309580654Y-109461904D01*
X309533035Y-109557142D01*
X309485416Y-109604761D01*
X309390178Y-109652380D01*
X309199702Y-109652380D01*
X309104464Y-109604761D01*
X309056845Y-109557142D01*
X309009226Y-109461904D01*
X309009226Y-109223809D01*
X309056845Y-109128571D01*
X309104464Y-109080952D01*
X309199702Y-109033333D01*
X309390178Y-109033333D01*
X309485416Y-109080952D01*
X309533035Y-109128571D01*
X309580654Y-109223809D01*
X308056845Y-109652380D02*
X308628273Y-109652380D01*
X308342559Y-109652380D02*
X308342559Y-108652380D01*
X308437797Y-108795238D01*
X308533035Y-108890476D01*
X308628273Y-108938095D01*
G04 #@! TO.C,D60*
X286720535Y-109652380D02*
X286720535Y-108652380D01*
X286482440Y-108652380D01*
X286339583Y-108700000D01*
X286244345Y-108795238D01*
X286196726Y-108890476D01*
X286149107Y-109080952D01*
X286149107Y-109223809D01*
X286196726Y-109414285D01*
X286244345Y-109509523D01*
X286339583Y-109604761D01*
X286482440Y-109652380D01*
X286720535Y-109652380D01*
X285291964Y-108652380D02*
X285482440Y-108652380D01*
X285577678Y-108700000D01*
X285625297Y-108747619D01*
X285720535Y-108890476D01*
X285768154Y-109080952D01*
X285768154Y-109461904D01*
X285720535Y-109557142D01*
X285672916Y-109604761D01*
X285577678Y-109652380D01*
X285387202Y-109652380D01*
X285291964Y-109604761D01*
X285244345Y-109557142D01*
X285196726Y-109461904D01*
X285196726Y-109223809D01*
X285244345Y-109128571D01*
X285291964Y-109080952D01*
X285387202Y-109033333D01*
X285577678Y-109033333D01*
X285672916Y-109080952D01*
X285720535Y-109128571D01*
X285768154Y-109223809D01*
X284577678Y-108652380D02*
X284482440Y-108652380D01*
X284387202Y-108700000D01*
X284339583Y-108747619D01*
X284291964Y-108842857D01*
X284244345Y-109033333D01*
X284244345Y-109271428D01*
X284291964Y-109461904D01*
X284339583Y-109557142D01*
X284387202Y-109604761D01*
X284482440Y-109652380D01*
X284577678Y-109652380D01*
X284672916Y-109604761D01*
X284720535Y-109557142D01*
X284768154Y-109461904D01*
X284815773Y-109271428D01*
X284815773Y-109033333D01*
X284768154Y-108842857D01*
X284720535Y-108747619D01*
X284672916Y-108700000D01*
X284577678Y-108652380D01*
G04 #@! TO.C,D59*
X257908035Y-109652380D02*
X257908035Y-108652380D01*
X257669940Y-108652380D01*
X257527083Y-108700000D01*
X257431845Y-108795238D01*
X257384226Y-108890476D01*
X257336607Y-109080952D01*
X257336607Y-109223809D01*
X257384226Y-109414285D01*
X257431845Y-109509523D01*
X257527083Y-109604761D01*
X257669940Y-109652380D01*
X257908035Y-109652380D01*
X256431845Y-108652380D02*
X256908035Y-108652380D01*
X256955654Y-109128571D01*
X256908035Y-109080952D01*
X256812797Y-109033333D01*
X256574702Y-109033333D01*
X256479464Y-109080952D01*
X256431845Y-109128571D01*
X256384226Y-109223809D01*
X256384226Y-109461904D01*
X256431845Y-109557142D01*
X256479464Y-109604761D01*
X256574702Y-109652380D01*
X256812797Y-109652380D01*
X256908035Y-109604761D01*
X256955654Y-109557142D01*
X255908035Y-109652380D02*
X255717559Y-109652380D01*
X255622321Y-109604761D01*
X255574702Y-109557142D01*
X255479464Y-109414285D01*
X255431845Y-109223809D01*
X255431845Y-108842857D01*
X255479464Y-108747619D01*
X255527083Y-108700000D01*
X255622321Y-108652380D01*
X255812797Y-108652380D01*
X255908035Y-108700000D01*
X255955654Y-108747619D01*
X256003273Y-108842857D01*
X256003273Y-109080952D01*
X255955654Y-109176190D01*
X255908035Y-109223809D01*
X255812797Y-109271428D01*
X255622321Y-109271428D01*
X255527083Y-109223809D01*
X255479464Y-109176190D01*
X255431845Y-109080952D01*
G04 #@! TO.C,D58*
X234095535Y-109652380D02*
X234095535Y-108652380D01*
X233857440Y-108652380D01*
X233714583Y-108700000D01*
X233619345Y-108795238D01*
X233571726Y-108890476D01*
X233524107Y-109080952D01*
X233524107Y-109223809D01*
X233571726Y-109414285D01*
X233619345Y-109509523D01*
X233714583Y-109604761D01*
X233857440Y-109652380D01*
X234095535Y-109652380D01*
X232619345Y-108652380D02*
X233095535Y-108652380D01*
X233143154Y-109128571D01*
X233095535Y-109080952D01*
X233000297Y-109033333D01*
X232762202Y-109033333D01*
X232666964Y-109080952D01*
X232619345Y-109128571D01*
X232571726Y-109223809D01*
X232571726Y-109461904D01*
X232619345Y-109557142D01*
X232666964Y-109604761D01*
X232762202Y-109652380D01*
X233000297Y-109652380D01*
X233095535Y-109604761D01*
X233143154Y-109557142D01*
X232000297Y-109080952D02*
X232095535Y-109033333D01*
X232143154Y-108985714D01*
X232190773Y-108890476D01*
X232190773Y-108842857D01*
X232143154Y-108747619D01*
X232095535Y-108700000D01*
X232000297Y-108652380D01*
X231809821Y-108652380D01*
X231714583Y-108700000D01*
X231666964Y-108747619D01*
X231619345Y-108842857D01*
X231619345Y-108890476D01*
X231666964Y-108985714D01*
X231714583Y-109033333D01*
X231809821Y-109080952D01*
X232000297Y-109080952D01*
X232095535Y-109128571D01*
X232143154Y-109176190D01*
X232190773Y-109271428D01*
X232190773Y-109461904D01*
X232143154Y-109557142D01*
X232095535Y-109604761D01*
X232000297Y-109652380D01*
X231809821Y-109652380D01*
X231714583Y-109604761D01*
X231666964Y-109557142D01*
X231619345Y-109461904D01*
X231619345Y-109271428D01*
X231666964Y-109176190D01*
X231714583Y-109128571D01*
X231809821Y-109080952D01*
G04 #@! TO.C,D57*
X162658035Y-109652380D02*
X162658035Y-108652380D01*
X162419940Y-108652380D01*
X162277083Y-108700000D01*
X162181845Y-108795238D01*
X162134226Y-108890476D01*
X162086607Y-109080952D01*
X162086607Y-109223809D01*
X162134226Y-109414285D01*
X162181845Y-109509523D01*
X162277083Y-109604761D01*
X162419940Y-109652380D01*
X162658035Y-109652380D01*
X161181845Y-108652380D02*
X161658035Y-108652380D01*
X161705654Y-109128571D01*
X161658035Y-109080952D01*
X161562797Y-109033333D01*
X161324702Y-109033333D01*
X161229464Y-109080952D01*
X161181845Y-109128571D01*
X161134226Y-109223809D01*
X161134226Y-109461904D01*
X161181845Y-109557142D01*
X161229464Y-109604761D01*
X161324702Y-109652380D01*
X161562797Y-109652380D01*
X161658035Y-109604761D01*
X161705654Y-109557142D01*
X160800892Y-108652380D02*
X160134226Y-108652380D01*
X160562797Y-109652380D01*
G04 #@! TO.C,D56*
X91220535Y-109652380D02*
X91220535Y-108652380D01*
X90982440Y-108652380D01*
X90839583Y-108700000D01*
X90744345Y-108795238D01*
X90696726Y-108890476D01*
X90649107Y-109080952D01*
X90649107Y-109223809D01*
X90696726Y-109414285D01*
X90744345Y-109509523D01*
X90839583Y-109604761D01*
X90982440Y-109652380D01*
X91220535Y-109652380D01*
X89744345Y-108652380D02*
X90220535Y-108652380D01*
X90268154Y-109128571D01*
X90220535Y-109080952D01*
X90125297Y-109033333D01*
X89887202Y-109033333D01*
X89791964Y-109080952D01*
X89744345Y-109128571D01*
X89696726Y-109223809D01*
X89696726Y-109461904D01*
X89744345Y-109557142D01*
X89791964Y-109604761D01*
X89887202Y-109652380D01*
X90125297Y-109652380D01*
X90220535Y-109604761D01*
X90268154Y-109557142D01*
X88839583Y-108652380D02*
X89030059Y-108652380D01*
X89125297Y-108700000D01*
X89172916Y-108747619D01*
X89268154Y-108890476D01*
X89315773Y-109080952D01*
X89315773Y-109461904D01*
X89268154Y-109557142D01*
X89220535Y-109604761D01*
X89125297Y-109652380D01*
X88934821Y-109652380D01*
X88839583Y-109604761D01*
X88791964Y-109557142D01*
X88744345Y-109461904D01*
X88744345Y-109223809D01*
X88791964Y-109128571D01*
X88839583Y-109080952D01*
X88934821Y-109033333D01*
X89125297Y-109033333D01*
X89220535Y-109080952D01*
X89268154Y-109128571D01*
X89315773Y-109223809D01*
G04 #@! TO.C,D55*
X72408035Y-105652380D02*
X72408035Y-104652380D01*
X72169940Y-104652380D01*
X72027083Y-104700000D01*
X71931845Y-104795238D01*
X71884226Y-104890476D01*
X71836607Y-105080952D01*
X71836607Y-105223809D01*
X71884226Y-105414285D01*
X71931845Y-105509523D01*
X72027083Y-105604761D01*
X72169940Y-105652380D01*
X72408035Y-105652380D01*
X70931845Y-104652380D02*
X71408035Y-104652380D01*
X71455654Y-105128571D01*
X71408035Y-105080952D01*
X71312797Y-105033333D01*
X71074702Y-105033333D01*
X70979464Y-105080952D01*
X70931845Y-105128571D01*
X70884226Y-105223809D01*
X70884226Y-105461904D01*
X70931845Y-105557142D01*
X70979464Y-105604761D01*
X71074702Y-105652380D01*
X71312797Y-105652380D01*
X71408035Y-105604761D01*
X71455654Y-105557142D01*
X69979464Y-104652380D02*
X70455654Y-104652380D01*
X70503273Y-105128571D01*
X70455654Y-105080952D01*
X70360416Y-105033333D01*
X70122321Y-105033333D01*
X70027083Y-105080952D01*
X69979464Y-105128571D01*
X69931845Y-105223809D01*
X69931845Y-105461904D01*
X69979464Y-105557142D01*
X70027083Y-105604761D01*
X70122321Y-105652380D01*
X70360416Y-105652380D01*
X70455654Y-105604761D01*
X70503273Y-105557142D01*
G04 #@! TO.C,D54*
X48595535Y-105652380D02*
X48595535Y-104652380D01*
X48357440Y-104652380D01*
X48214583Y-104700000D01*
X48119345Y-104795238D01*
X48071726Y-104890476D01*
X48024107Y-105080952D01*
X48024107Y-105223809D01*
X48071726Y-105414285D01*
X48119345Y-105509523D01*
X48214583Y-105604761D01*
X48357440Y-105652380D01*
X48595535Y-105652380D01*
X47119345Y-104652380D02*
X47595535Y-104652380D01*
X47643154Y-105128571D01*
X47595535Y-105080952D01*
X47500297Y-105033333D01*
X47262202Y-105033333D01*
X47166964Y-105080952D01*
X47119345Y-105128571D01*
X47071726Y-105223809D01*
X47071726Y-105461904D01*
X47119345Y-105557142D01*
X47166964Y-105604761D01*
X47262202Y-105652380D01*
X47500297Y-105652380D01*
X47595535Y-105604761D01*
X47643154Y-105557142D01*
X46214583Y-104985714D02*
X46214583Y-105652380D01*
X46452678Y-104604761D02*
X46690773Y-105319047D01*
X46071726Y-105319047D01*
G04 #@! TO.C,D53*
X291245535Y-90602380D02*
X291245535Y-89602380D01*
X291007440Y-89602380D01*
X290864583Y-89650000D01*
X290769345Y-89745238D01*
X290721726Y-89840476D01*
X290674107Y-90030952D01*
X290674107Y-90173809D01*
X290721726Y-90364285D01*
X290769345Y-90459523D01*
X290864583Y-90554761D01*
X291007440Y-90602380D01*
X291245535Y-90602380D01*
X289769345Y-89602380D02*
X290245535Y-89602380D01*
X290293154Y-90078571D01*
X290245535Y-90030952D01*
X290150297Y-89983333D01*
X289912202Y-89983333D01*
X289816964Y-90030952D01*
X289769345Y-90078571D01*
X289721726Y-90173809D01*
X289721726Y-90411904D01*
X289769345Y-90507142D01*
X289816964Y-90554761D01*
X289912202Y-90602380D01*
X290150297Y-90602380D01*
X290245535Y-90554761D01*
X290293154Y-90507142D01*
X289388392Y-89602380D02*
X288769345Y-89602380D01*
X289102678Y-89983333D01*
X288959821Y-89983333D01*
X288864583Y-90030952D01*
X288816964Y-90078571D01*
X288769345Y-90173809D01*
X288769345Y-90411904D01*
X288816964Y-90507142D01*
X288864583Y-90554761D01*
X288959821Y-90602380D01*
X289245535Y-90602380D01*
X289340773Y-90554761D01*
X289388392Y-90507142D01*
G04 #@! TO.C,D52*
X255526785Y-90602380D02*
X255526785Y-89602380D01*
X255288690Y-89602380D01*
X255145833Y-89650000D01*
X255050595Y-89745238D01*
X255002976Y-89840476D01*
X254955357Y-90030952D01*
X254955357Y-90173809D01*
X255002976Y-90364285D01*
X255050595Y-90459523D01*
X255145833Y-90554761D01*
X255288690Y-90602380D01*
X255526785Y-90602380D01*
X254050595Y-89602380D02*
X254526785Y-89602380D01*
X254574404Y-90078571D01*
X254526785Y-90030952D01*
X254431547Y-89983333D01*
X254193452Y-89983333D01*
X254098214Y-90030952D01*
X254050595Y-90078571D01*
X254002976Y-90173809D01*
X254002976Y-90411904D01*
X254050595Y-90507142D01*
X254098214Y-90554761D01*
X254193452Y-90602380D01*
X254431547Y-90602380D01*
X254526785Y-90554761D01*
X254574404Y-90507142D01*
X253622023Y-89697619D02*
X253574404Y-89650000D01*
X253479166Y-89602380D01*
X253241071Y-89602380D01*
X253145833Y-89650000D01*
X253098214Y-89697619D01*
X253050595Y-89792857D01*
X253050595Y-89888095D01*
X253098214Y-90030952D01*
X253669642Y-90602380D01*
X253050595Y-90602380D01*
G04 #@! TO.C,D51*
X236476785Y-90602380D02*
X236476785Y-89602380D01*
X236238690Y-89602380D01*
X236095833Y-89650000D01*
X236000595Y-89745238D01*
X235952976Y-89840476D01*
X235905357Y-90030952D01*
X235905357Y-90173809D01*
X235952976Y-90364285D01*
X236000595Y-90459523D01*
X236095833Y-90554761D01*
X236238690Y-90602380D01*
X236476785Y-90602380D01*
X235000595Y-89602380D02*
X235476785Y-89602380D01*
X235524404Y-90078571D01*
X235476785Y-90030952D01*
X235381547Y-89983333D01*
X235143452Y-89983333D01*
X235048214Y-90030952D01*
X235000595Y-90078571D01*
X234952976Y-90173809D01*
X234952976Y-90411904D01*
X235000595Y-90507142D01*
X235048214Y-90554761D01*
X235143452Y-90602380D01*
X235381547Y-90602380D01*
X235476785Y-90554761D01*
X235524404Y-90507142D01*
X234000595Y-90602380D02*
X234572023Y-90602380D01*
X234286309Y-90602380D02*
X234286309Y-89602380D01*
X234381547Y-89745238D01*
X234476785Y-89840476D01*
X234572023Y-89888095D01*
G04 #@! TO.C,D50*
X217426785Y-90602380D02*
X217426785Y-89602380D01*
X217188690Y-89602380D01*
X217045833Y-89650000D01*
X216950595Y-89745238D01*
X216902976Y-89840476D01*
X216855357Y-90030952D01*
X216855357Y-90173809D01*
X216902976Y-90364285D01*
X216950595Y-90459523D01*
X217045833Y-90554761D01*
X217188690Y-90602380D01*
X217426785Y-90602380D01*
X215950595Y-89602380D02*
X216426785Y-89602380D01*
X216474404Y-90078571D01*
X216426785Y-90030952D01*
X216331547Y-89983333D01*
X216093452Y-89983333D01*
X215998214Y-90030952D01*
X215950595Y-90078571D01*
X215902976Y-90173809D01*
X215902976Y-90411904D01*
X215950595Y-90507142D01*
X215998214Y-90554761D01*
X216093452Y-90602380D01*
X216331547Y-90602380D01*
X216426785Y-90554761D01*
X216474404Y-90507142D01*
X215283928Y-89602380D02*
X215188690Y-89602380D01*
X215093452Y-89650000D01*
X215045833Y-89697619D01*
X214998214Y-89792857D01*
X214950595Y-89983333D01*
X214950595Y-90221428D01*
X214998214Y-90411904D01*
X215045833Y-90507142D01*
X215093452Y-90554761D01*
X215188690Y-90602380D01*
X215283928Y-90602380D01*
X215379166Y-90554761D01*
X215426785Y-90507142D01*
X215474404Y-90411904D01*
X215522023Y-90221428D01*
X215522023Y-89983333D01*
X215474404Y-89792857D01*
X215426785Y-89697619D01*
X215379166Y-89650000D01*
X215283928Y-89602380D01*
G04 #@! TO.C,D49*
X198376785Y-90602380D02*
X198376785Y-89602380D01*
X198138690Y-89602380D01*
X197995833Y-89650000D01*
X197900595Y-89745238D01*
X197852976Y-89840476D01*
X197805357Y-90030952D01*
X197805357Y-90173809D01*
X197852976Y-90364285D01*
X197900595Y-90459523D01*
X197995833Y-90554761D01*
X198138690Y-90602380D01*
X198376785Y-90602380D01*
X196948214Y-89935714D02*
X196948214Y-90602380D01*
X197186309Y-89554761D02*
X197424404Y-90269047D01*
X196805357Y-90269047D01*
X196376785Y-90602380D02*
X196186309Y-90602380D01*
X196091071Y-90554761D01*
X196043452Y-90507142D01*
X195948214Y-90364285D01*
X195900595Y-90173809D01*
X195900595Y-89792857D01*
X195948214Y-89697619D01*
X195995833Y-89650000D01*
X196091071Y-89602380D01*
X196281547Y-89602380D01*
X196376785Y-89650000D01*
X196424404Y-89697619D01*
X196472023Y-89792857D01*
X196472023Y-90030952D01*
X196424404Y-90126190D01*
X196376785Y-90173809D01*
X196281547Y-90221428D01*
X196091071Y-90221428D01*
X195995833Y-90173809D01*
X195948214Y-90126190D01*
X195900595Y-90030952D01*
G04 #@! TO.C,D48*
X179326785Y-90602380D02*
X179326785Y-89602380D01*
X179088690Y-89602380D01*
X178945833Y-89650000D01*
X178850595Y-89745238D01*
X178802976Y-89840476D01*
X178755357Y-90030952D01*
X178755357Y-90173809D01*
X178802976Y-90364285D01*
X178850595Y-90459523D01*
X178945833Y-90554761D01*
X179088690Y-90602380D01*
X179326785Y-90602380D01*
X177898214Y-89935714D02*
X177898214Y-90602380D01*
X178136309Y-89554761D02*
X178374404Y-90269047D01*
X177755357Y-90269047D01*
X177231547Y-90030952D02*
X177326785Y-89983333D01*
X177374404Y-89935714D01*
X177422023Y-89840476D01*
X177422023Y-89792857D01*
X177374404Y-89697619D01*
X177326785Y-89650000D01*
X177231547Y-89602380D01*
X177041071Y-89602380D01*
X176945833Y-89650000D01*
X176898214Y-89697619D01*
X176850595Y-89792857D01*
X176850595Y-89840476D01*
X176898214Y-89935714D01*
X176945833Y-89983333D01*
X177041071Y-90030952D01*
X177231547Y-90030952D01*
X177326785Y-90078571D01*
X177374404Y-90126190D01*
X177422023Y-90221428D01*
X177422023Y-90411904D01*
X177374404Y-90507142D01*
X177326785Y-90554761D01*
X177231547Y-90602380D01*
X177041071Y-90602380D01*
X176945833Y-90554761D01*
X176898214Y-90507142D01*
X176850595Y-90411904D01*
X176850595Y-90221428D01*
X176898214Y-90126190D01*
X176945833Y-90078571D01*
X177041071Y-90030952D01*
G04 #@! TO.C,D43*
X84076785Y-90602380D02*
X84076785Y-89602380D01*
X83838690Y-89602380D01*
X83695833Y-89650000D01*
X83600595Y-89745238D01*
X83552976Y-89840476D01*
X83505357Y-90030952D01*
X83505357Y-90173809D01*
X83552976Y-90364285D01*
X83600595Y-90459523D01*
X83695833Y-90554761D01*
X83838690Y-90602380D01*
X84076785Y-90602380D01*
X82648214Y-89935714D02*
X82648214Y-90602380D01*
X82886309Y-89554761D02*
X83124404Y-90269047D01*
X82505357Y-90269047D01*
X82219642Y-89602380D02*
X81600595Y-89602380D01*
X81933928Y-89983333D01*
X81791071Y-89983333D01*
X81695833Y-90030952D01*
X81648214Y-90078571D01*
X81600595Y-90173809D01*
X81600595Y-90411904D01*
X81648214Y-90507142D01*
X81695833Y-90554761D01*
X81791071Y-90602380D01*
X82076785Y-90602380D01*
X82172023Y-90554761D01*
X82219642Y-90507142D01*
G04 #@! TD*
M02*
