M48
;DRILL file {KiCad 5.0.1} date Wed 19 Dec 2018 22:22:32 SAST
;FORMAT={3:3/ absolute / metric / suppress leading zeros}
FMAT,2
METRIC,TZ
T1C0.330
T2C0.600
T3C0.850
T4C1.000
T5C1.499
T6C1.702
T7C2.200
T8C3.048
T9C3.988
%
G90
G05
M71
T1
X43434Y-30988
X44196Y-107188
X48387Y-50038
X50546Y-69088
X55372Y-88138
X62230Y-30988
X63119Y-94869
X67945Y-107188
X71628Y-93599
X72390Y-50038
X76835Y-69088
X81534Y-30988
X82804Y-120015
X86360Y-88138
X90170Y-94615
X91567Y-50038
X93472Y-107188
X95631Y-69088
X100457Y-30988
X105410Y-88138
X110236Y-50038
X114681Y-69088
X119634Y-30988
X119888Y-117475
X124587Y-88138
X129286Y-50038
X133604Y-69088
X138303Y-116586
X138557Y-30988
X143637Y-88138
X148336Y-50038
X152908Y-69088
X157734Y-30988
X162433Y-88138
X164211Y-33782
X164846Y-107188
X167259Y-50038
X168783Y-91440
X170180Y-101854
X170434Y-105029
X171069Y-107315
X171704Y-69088
X173482Y-30988
X173736Y-115189
X173736Y-117475
X175514Y-109474
X175514Y-115189
X175514Y-118491
X176403Y-104902
X176500Y-107315
X177419Y-91440
X177419Y-104013
X180086Y-101219
X180213Y-114173
X180340Y-33528
X180721Y-110363
X180848Y-39116
X181737Y-88138
X182258Y-101346
X182499Y-118110
X182753Y-104140
X183642Y-111252
X184023Y-108077
X184087Y-115859
X184404Y-111887
X185293Y-89662
X185420Y-111887
X185674Y-39243
X185674Y-107696
X185674Y-113792
X186182Y-50038
X186817Y-111887
X187833Y-111887
X188849Y-111887
X189103Y-97790
X189662Y-107950
X189992Y-33147
X190236Y-114808
X190500Y-107950
X190627Y-113157
X190754Y-68961
X192278Y-111252
X192659Y-36068
X193040Y-102362
X195199Y-53213
X195199Y-109728
X195834Y-30988
X196215Y-106426
X197485Y-104775
X197739Y-29210
X197739Y-108712
X198839Y-52223
X199263Y-100330
X200279Y-102489
X200787Y-106426
X201041Y-88138
X201803Y-55372
X205359Y-90805
X205359Y-103378
X205613Y-50038
X209804Y-90932
X210058Y-68961
X212217Y-67310
X212725Y-103505
X215138Y-30988
X219964Y-88138
X221234Y-86360
X222377Y-105537
X224409Y-50038
X229108Y-69088
X233934Y-30988
X236601Y-107188
X238887Y-88138
X243332Y-50038
X248285Y-69088
X252984Y-30988
X257810Y-88138
X260096Y-107188
X262509Y-50038
X267335Y-69088
X267716Y-94615
X271907Y-30988
X277495Y-75565
X281432Y-50038
X285750Y-107188
X291719Y-82677
X293624Y-88138
X294259Y-122428
X295910Y-109982
X298069Y-69088
X298323Y-82804
X299212Y-109982
X300482Y-30988
X305181Y-50038
X309499Y-107188
T3
X180507Y-31689
X185507Y-31689
T4
X198501Y-121666
X198501Y-124206
X201041Y-121666
X201041Y-124206
X203581Y-121666
X203581Y-124206
T5
X98102Y-94610
X104453Y-92070
X55240Y-37460
X61590Y-34920
X179065Y-56510
X185415Y-53970
X88578Y-75560
X94928Y-73020
X40953Y-56510
X47303Y-53970
X48096Y-94610
X54446Y-92070
X293365Y-37460
X299715Y-34920
X255265Y-56510
X261615Y-53970
X286221Y-94610
X292571Y-92070
X300509Y-113660
X306859Y-111120
X117152Y-94610
X123503Y-92070
X188590Y-37460
X194940Y-34920
X198115Y-56510
X204465Y-53970
X150490Y-37460
X156840Y-34920
X93340Y-37460
X99690Y-34920
X260027Y-75560
X266378Y-73020
X155253Y-94610
X161602Y-92070
X236215Y-56510
X242565Y-53970
X290984Y-75560
X297334Y-73020
X221927Y-75560
X228278Y-73020
X74290Y-37460
X80640Y-34920
X276696Y-113660
X283046Y-111120
X102865Y-56510
X109215Y-53970
X250503Y-94610
X256852Y-92070
X229071Y-113660
X235421Y-111120
X79053Y-94610
X85402Y-92070
X64765Y-56510
X71115Y-53970
X298128Y-56510
X304477Y-53970
X126677Y-75560
X133028Y-73020
X212403Y-94610
X218753Y-92070
X245740Y-37460
X252090Y-34920
X83815Y-56510
X90165Y-53970
X164778Y-75560
X171128Y-73020
X131440Y-37460
X137790Y-34920
X69528Y-75560
X75878Y-73020
X86196Y-113660
X92546Y-111120
X274315Y-56510
X280665Y-53970
X145727Y-75560
X152077Y-73020
X38571Y-113660
X44921Y-111120
X112390Y-37460
X118740Y-34920
X217165Y-56510
X223515Y-53970
X240978Y-75560
X247327Y-73020
X252884Y-113660
X259234Y-111120
X169540Y-37460
X175890Y-34920
X264790Y-37460
X271140Y-34920
X160015Y-56510
X166365Y-53970
X136202Y-94610
X142552Y-92070
X62384Y-113660
X68734Y-111120
X183828Y-75460
X190178Y-72920
X226690Y-37460
X233040Y-34920
X140965Y-56510
X147315Y-53970
X121915Y-56510
X128265Y-53970
X157607Y-113411
X163957Y-110871
X107628Y-75560
X113977Y-73020
X43334Y-75560
X49684Y-73020
X231452Y-94610
X237802Y-92070
X36190Y-37460
X42540Y-34920
X193353Y-94610
X199703Y-92070
X202878Y-75460
X209228Y-72920
X207640Y-37460
X213990Y-34920
X174303Y-94610
X180653Y-92070
T6
X201608Y-78000
X211767Y-78000
X206370Y-40000
X216530Y-40000
X173033Y-97150
X183193Y-97150
X96833Y-97150
X106993Y-97150
X53970Y-40000
X64130Y-40000
X177795Y-59050
X187955Y-59050
X87308Y-78100
X97468Y-78100
X39683Y-59050
X49843Y-59050
X46826Y-97150
X56986Y-97150
X292095Y-40000
X302255Y-40000
X253995Y-59050
X264155Y-59050
X284951Y-97150
X295111Y-97150
X299239Y-116200
X309399Y-116200
X115882Y-97150
X126043Y-97150
X187320Y-40000
X197480Y-40000
X196845Y-59050
X207005Y-59050
X149220Y-40000
X159380Y-40000
X92070Y-40000
X102230Y-40000
X258758Y-78100
X268917Y-78100
X153982Y-97150
X164142Y-97150
X234945Y-59050
X245105Y-59050
X289714Y-78100
X299874Y-78100
X220658Y-78100
X230818Y-78100
X73020Y-40000
X83180Y-40000
X275426Y-116200
X285586Y-116200
X101595Y-59050
X111755Y-59050
X249233Y-97150
X259392Y-97150
X227801Y-116200
X237961Y-116200
X77783Y-97150
X87943Y-97150
X63495Y-59050
X73655Y-59050
X296858Y-59050
X307017Y-59050
X125408Y-78100
X135568Y-78100
X211133Y-97150
X221292Y-97150
X244470Y-40000
X254630Y-40000
X82545Y-59050
X92705Y-59050
X163507Y-78100
X173668Y-78100
X130170Y-40000
X140330Y-40000
X68257Y-78100
X78418Y-78100
X84926Y-116200
X95086Y-116200
X273045Y-59050
X283205Y-59050
X144457Y-78100
X154618Y-78100
X37301Y-116200
X47461Y-116200
X111120Y-40000
X121280Y-40000
X215895Y-59050
X226055Y-59050
X239708Y-78100
X249867Y-78100
X251614Y-116200
X261774Y-116200
X168270Y-40000
X178430Y-40000
X263520Y-40000
X273680Y-40000
X158745Y-59050
X168905Y-59050
X134933Y-97150
X145093Y-97150
X61114Y-116200
X71274Y-116200
X182558Y-78000
X192718Y-78000
X225420Y-40000
X235580Y-40000
X139695Y-59050
X149855Y-59050
X120645Y-59050
X130805Y-59050
X156337Y-115951
X166497Y-115951
X106358Y-78100
X116518Y-78100
X42064Y-78100
X52224Y-78100
X230183Y-97150
X240343Y-97150
X34920Y-40000
X45080Y-40000
X192083Y-97150
X202242Y-97150
T7
X55861Y-55459
T8
X111379Y-108966
X211455Y-108966
X39968Y-90165
X63844Y-90165
X285237Y-33015
X309113Y-33015
X278093Y-90165
X301969Y-90165
X282856Y-71115
X306732Y-71115
T9
X256694Y-116200
X173350Y-40000
X268600Y-40000
X163825Y-59050
X140013Y-97150
X66194Y-116200
X187638Y-78000
X230500Y-40000
X144775Y-59050
X125725Y-59050
X111379Y-124206
X161417Y-115951
X211455Y-124206
X111438Y-78100
X47144Y-78100
X235263Y-97150
X40000Y-40000
X197163Y-97150
X206688Y-78000
X211450Y-40000
X178112Y-97150
X101913Y-97150
X59050Y-40000
X182875Y-59050
X92388Y-78100
X44762Y-59050
X39968Y-105405
X51906Y-97150
X63844Y-105405
X285237Y-48255
X297175Y-40000
X309113Y-48255
X259075Y-59050
X278093Y-105405
X290031Y-97150
X301969Y-105405
X304319Y-116200
X120963Y-97150
X192400Y-40000
X201925Y-59050
X154300Y-40000
X97150Y-40000
X263838Y-78100
X159063Y-97150
X240025Y-59050
X282856Y-86355
X294794Y-78100
X306732Y-86355
X225738Y-78100
X78100Y-40000
X280506Y-116200
X106675Y-59050
X254313Y-97150
X232881Y-116200
X82863Y-97150
X68575Y-59050
X301938Y-59050
X130487Y-78100
X216213Y-97150
X249550Y-40000
X87625Y-59050
X168588Y-78100
X135250Y-40000
X73337Y-78100
X90006Y-116200
X278125Y-59050
X149538Y-78100
X42381Y-116200
X116200Y-40000
X220975Y-59050
X244788Y-78100
T2
X179507Y-29339G85X179507Y-28639
G05
X186507Y-28639G85X186507Y-29339
G05
T7
X30661Y-84059G85X35061Y-84059
G05
X157961Y-74559G85X160161Y-74559
G05
X220261Y-112759G85X222461Y-112759
G05
X311661Y-84059G85X316061Y-84059
G05
X289799Y-55459G85X291999Y-55459
G05
T0
M30
